<svg width="34" height="34" viewBox="0 0 34 34" fill="none" xmlns="http://www.w3.org/2000/svg">
<rect x="0.817383" y="0.556152" width="32.936" height="32.936" rx="5" fill="#FF9C00"/>
<g clip-path="url(#clip0_5494_1517)">
<path d="M14.3799 13.1489C14.2514 13.1489 14.1282 13.2 14.0374 13.2908C13.9465 13.3816 13.8955 13.5048 13.8955 13.6333C13.8955 13.7617 13.9465 13.8849 14.0374 13.9758C14.1282 14.0666 14.2514 14.1176 14.3799 14.1176H20.1921C20.3206 14.1176 20.4438 14.0666 20.5346 13.9758C20.6254 13.8849 20.6765 13.7617 20.6765 13.6333C20.6765 13.5048 20.6254 13.3816 20.5346 13.2908C20.4438 13.2 20.3206 13.1489 20.1921 13.1489H14.3799ZM13.8955 15.5707C13.8955 15.4422 13.9465 15.319 14.0374 15.2282C14.1282 15.1374 14.2514 15.0863 14.3799 15.0863H20.1921C20.3206 15.0863 20.4438 15.1374 20.5346 15.2282C20.6254 15.319 20.6765 15.4422 20.6765 15.5707C20.6765 15.6992 20.6254 15.8223 20.5346 15.9132C20.4438 16.004 20.3206 16.055 20.1921 16.055H14.3799C14.2514 16.055 14.1282 16.004 14.0374 15.9132C13.9465 15.8223 13.8955 15.6992 13.8955 15.5707ZM14.3799 17.0238C14.2514 17.0238 14.1282 17.0748 14.0374 17.1656C13.9465 17.2565 13.8955 17.3796 13.8955 17.5081C13.8955 17.6366 13.9465 17.7598 14.0374 17.8506C14.1282 17.9414 14.2514 17.9925 14.3799 17.9925H20.1921C20.3206 17.9925 20.4438 17.9414 20.5346 17.8506C20.6254 17.7598 20.6765 17.6366 20.6765 17.5081C20.6765 17.3796 20.6254 17.2565 20.5346 17.1656C20.4438 17.0748 20.3206 17.0238 20.1921 17.0238H14.3799ZM14.3799 18.9612C14.2514 18.9612 14.1282 19.0122 14.0374 19.103C13.9465 19.1939 13.8955 19.3171 13.8955 19.4455C13.8955 19.574 13.9465 19.6972 14.0374 19.788C14.1282 19.8788 14.2514 19.9299 14.3799 19.9299H17.286C17.4144 19.9299 17.5376 19.8788 17.6285 19.788C17.7193 19.6972 17.7703 19.574 17.7703 19.4455C17.7703 19.3171 17.7193 19.1939 17.6285 19.103C17.5376 19.0122 17.4144 18.9612 17.286 18.9612H14.3799Z" fill="white"/>
<path d="M11.4736 11.2113C11.4736 10.6975 11.6778 10.2047 12.0411 9.84138C12.4044 9.47805 12.8972 9.27393 13.411 9.27393H21.1607C21.6745 9.27393 22.1673 9.47805 22.5307 9.84138C22.894 10.2047 23.0981 10.6975 23.0981 11.2113V22.8358C23.0981 23.3497 22.894 23.8424 22.5307 24.2058C22.1673 24.5691 21.6745 24.7732 21.1607 24.7732H13.411C12.8972 24.7732 12.4044 24.5691 12.0411 24.2058C11.6778 23.8424 11.4736 23.3497 11.4736 22.8358V11.2113ZM21.1607 10.2426H13.411C13.1541 10.2426 12.9077 10.3447 12.7261 10.5264C12.5444 10.708 12.4423 10.9544 12.4423 11.2113V22.8358C12.4423 23.0927 12.5444 23.3391 12.7261 23.5208C12.9077 23.7025 13.1541 23.8045 13.411 23.8045H21.1607C21.4176 23.8045 21.664 23.7025 21.8457 23.5208C22.0273 23.3391 22.1294 23.0927 22.1294 22.8358V11.2113C22.1294 10.9544 22.0273 10.708 21.8457 10.5264C21.664 10.3447 21.4176 10.2426 21.1607 10.2426Z" fill="white"/>
</g>
<defs>
<clipPath id="clip0_5494_1517">
<rect width="15.4993" height="15.4993" fill="white" transform="translate(9.53613 9.27393)"/>
</clipPath>
</defs>
</svg>
