<svg width="35" height="35" viewBox="0 0 35 35" fill="none" xmlns="http://www.w3.org/2000/svg">
<rect x="0.605469" y="0.481445" width="33.6641" height="33.6641" rx="5" fill="#C84040"/>
<g clip-path="url(#clip0_5470_1277)">
<path d="M14.4677 13.3525C14.3364 13.3525 14.2105 13.4047 14.1177 13.4975C14.0248 13.5904 13.9727 13.7163 13.9727 13.8476C13.9727 13.9789 14.0248 14.1048 14.1177 14.1977C14.2105 14.2905 14.3364 14.3427 14.4677 14.3427H20.4084C20.5397 14.3427 20.6657 14.2905 20.7585 14.1977C20.8513 14.1048 20.9035 13.9789 20.9035 13.8476C20.9035 13.7163 20.8513 13.5904 20.7585 13.4975C20.6657 13.4047 20.5397 13.3525 20.4084 13.3525H14.4677ZM13.9727 15.8278C13.9727 15.6965 14.0248 15.5706 14.1177 15.4778C14.2105 15.3849 14.3364 15.3328 14.4677 15.3328H20.4084C20.5397 15.3328 20.6657 15.3849 20.7585 15.4778C20.8513 15.5706 20.9035 15.6965 20.9035 15.8278C20.9035 15.9591 20.8513 16.0851 20.7585 16.1779C20.6657 16.2707 20.5397 16.3229 20.4084 16.3229H14.4677C14.3364 16.3229 14.2105 16.2707 14.1177 16.1779C14.0248 16.0851 13.9727 15.9591 13.9727 15.8278ZM14.4677 17.313C14.3364 17.313 14.2105 17.3652 14.1177 17.458C14.0248 17.5509 13.9727 17.6768 13.9727 17.8081C13.9727 17.9394 14.0248 18.0653 14.1177 18.1581C14.2105 18.251 14.3364 18.3031 14.4677 18.3031H20.4084C20.5397 18.3031 20.6657 18.251 20.7585 18.1581C20.8513 18.0653 20.9035 17.9394 20.9035 17.8081C20.9035 17.6768 20.8513 17.5509 20.7585 17.458C20.6657 17.3652 20.5397 17.313 20.4084 17.313H14.4677ZM14.4677 19.2933C14.3364 19.2933 14.2105 19.3454 14.1177 19.4383C14.0248 19.5311 13.9727 19.657 13.9727 19.7883C13.9727 19.9196 14.0248 20.0455 14.1177 20.1384C14.2105 20.2312 14.3364 20.2834 14.4677 20.2834H17.4381C17.5694 20.2834 17.6953 20.2312 17.7881 20.1384C17.881 20.0455 17.9331 19.9196 17.9331 19.7883C17.9331 19.657 17.881 19.5311 17.7881 19.4383C17.6953 19.3454 17.5694 19.2933 17.4381 19.2933H14.4677Z" fill="white"/>
<path d="M11.4976 11.3723C11.4976 10.8471 11.7062 10.3435 12.0776 9.97209C12.4489 9.60072 12.9526 9.39209 13.4778 9.39209H21.3988C21.9239 9.39209 22.4276 9.60072 22.799 9.97209C23.1704 10.3435 23.379 10.8471 23.379 11.3723V23.2538C23.379 23.779 23.1704 24.2826 22.799 24.654C22.4276 25.0254 21.9239 25.234 21.3988 25.234H13.4778C12.9526 25.234 12.4489 25.0254 12.0776 24.654C11.7062 24.2826 11.4976 23.779 11.4976 23.2538V11.3723ZM21.3988 10.3822H13.4778C13.2152 10.3822 12.9634 10.4865 12.7777 10.6722C12.592 10.8579 12.4877 11.1097 12.4877 11.3723V23.2538C12.4877 23.5164 12.592 23.7682 12.7777 23.9539C12.9634 24.1396 13.2152 24.2439 13.4778 24.2439H21.3988C21.6613 24.2439 21.9132 24.1396 22.0989 23.9539C22.2846 23.7682 22.3889 23.5164 22.3889 23.2538V11.3723C22.3889 11.1097 22.2846 10.8579 22.0989 10.6722C21.9132 10.4865 21.6613 10.3822 21.3988 10.3822Z" fill="white"/>
</g>
<defs>
<clipPath id="clip0_5470_1277">
<rect width="15.8419" height="15.8419" fill="white" transform="translate(9.51709 9.39209)"/>
</clipPath>
</defs>
</svg>
