<svg width="26" height="30" viewBox="0 0 26 30" fill="none" xmlns="http://www.w3.org/2000/svg">
<path d="M0.979736 9.06152H15.3617V10.0702C14.0773 10.0702 12.793 10.0702 11.522 10.0702C10.6658 10.0702 10.2377 10.4993 10.2377 11.3575C10.2377 17.1439 10.2377 22.9435 10.2377 28.7298V29.4863H0.979736V9.06152ZM2.9999 11.6096C2.9999 11.1319 3.05341 10.6408 2.97314 10.1763C2.933 9.95071 2.65205 9.77818 2.47813 9.56584C2.30421 9.75164 1.99651 9.92417 1.99651 10.1232C1.94299 11.0921 1.94299 12.0741 1.99651 13.043C1.99651 13.242 2.34435 13.4278 2.51827 13.6269C2.67881 13.4278 2.94638 13.2553 2.97314 13.0297C3.04003 12.5652 2.9999 12.0741 2.9999 11.5964V11.6096Z" fill="#E70000"/>
<path d="M11.3079 29.4866V14.1846H25.6764V29.4866H11.3079ZM12.8196 22.3598C12.8196 25.4521 15.3749 27.9869 18.4788 27.9869C21.596 27.9869 24.2048 25.4122 24.178 22.32C24.1513 19.2145 21.6093 16.7194 18.4788 16.7327C15.3482 16.7327 12.8196 19.2543 12.8196 22.3465V22.3598Z" fill="#E70000"/>
<path d="M0.966309 7.97351V0.913086H15.3616V7.97351H0.966309ZM2.99985 5.42539C2.99985 4.94761 3.05336 4.45657 2.97309 3.99207C2.94633 3.77972 2.66538 3.6072 2.50484 3.42139C2.33092 3.6072 2.00984 3.77972 1.99646 3.96553C1.94294 4.96089 1.94294 5.95625 1.99646 6.95161C1.99646 7.13741 2.33092 7.30994 2.50484 7.48247C2.66538 7.29667 2.94633 7.12414 2.97309 6.92507C3.03998 6.43402 2.99985 5.9297 2.99985 5.43866V5.42539Z" fill="#E70000"/>
<path d="M13.8632 13.1495V11.1056C14.0639 11.1056 14.2512 11.0791 14.4385 11.0791C17.9838 11.0791 21.5425 11.0791 25.0878 11.0791C25.5962 11.0791 25.73 11.2384 25.7166 11.7161C25.6899 13.1495 25.7166 13.1495 24.2717 13.1495C21.0475 13.1495 17.8099 13.1495 14.5857 13.1495H13.8499H13.8632ZM15.8834 12.6186C16.2981 12.5655 16.9002 12.7646 16.9002 12.1143C16.9002 11.464 16.2981 11.6232 15.8968 11.6232C15.5088 11.6232 14.9469 11.464 14.9335 12.0877C14.9068 12.7779 15.5088 12.5655 15.8968 12.6186H15.8834ZM18.4788 12.6186C18.8668 12.5655 19.4822 12.7779 19.4688 12.1143C19.4688 11.4507 18.8668 11.6365 18.4521 11.6232C18.0507 11.6232 17.4888 11.4905 17.4754 12.0877C17.4621 12.7513 18.0507 12.5788 18.4655 12.6186H18.4788Z" fill="#E70000"/>
<path d="M11.3079 11.1191H12.7661V13.1099H11.3079V11.1191Z" fill="#E70000"/>
<path d="M18.452 26.952C15.8967 26.952 13.8364 24.8817 13.8364 22.3468C13.8364 19.8252 15.9369 17.7549 18.4788 17.7549C21.0475 17.7549 23.1345 19.8385 23.1078 22.4132C23.0944 24.948 21.0207 26.9786 18.4386 26.9653L18.452 26.952ZM14.5455 22.3468C14.6124 22.4264 14.7595 22.7582 14.987 22.8246C15.375 22.9308 15.5087 22.6122 15.5623 22.2406C15.8031 20.5552 16.6325 19.7191 18.345 19.4536C18.6928 19.4005 19.0139 19.3209 18.9872 18.9095C18.9604 18.4583 18.5992 18.4317 18.238 18.445C16.3382 18.5114 14.6124 20.2234 14.5589 22.3468H14.5455Z" fill="#E70000"/>
</svg>
