<svg width="24" height="18" viewBox="0 0 18 12" fill="none" xmlns="http://www.w3.org/2000/svg">
<path d="M1.25586 5.07617C0.841646 5.07617 0.505859 5.41196 0.505859 5.82617C0.505859 6.24039 0.841646 6.57617 1.25586 6.57617L1.25586 5.07617ZM16.7862 6.3565C17.0791 6.06361 17.0791 5.58874 16.7862 5.29584L12.0132 0.522872C11.7203 0.229979 11.2455 0.229978 10.9526 0.522872C10.6597 0.815765 10.6597 1.29064 10.9526 1.58353L15.1952 5.82617L10.9526 10.0688C10.6597 10.3617 10.6597 10.8366 10.9526 11.1295C11.2455 11.4224 11.7203 11.4224 12.0132 11.1295L16.7862 6.3565ZM1.25586 6.57617L16.2559 6.57617L16.2559 5.07617L1.25586 5.07617L1.25586 6.57617Z" fill="#0094BA"/>
</svg>
