<svg width="32" height="32" viewBox="0 0 32 32" fill="none" xmlns="http://www.w3.org/2000/svg">
<path fill-rule="evenodd" clip-rule="evenodd" d="M7.99992 17.3335C7.26659 17.3335 6.66659 17.9335 6.66659 18.6668C6.66659 19.4002 7.26659 20.0002 7.99992 20.0002C8.73325 20.0002 9.33325 19.4002 9.33325 18.6668C9.33325 17.9335 8.73325 17.3335 7.99992 17.3335ZM7.99992 22.6668C7.26659 22.6668 6.66659 23.2668 6.66659 24.0002C6.66659 24.7335 7.26659 25.3335 7.99992 25.3335C8.73325 25.3335 9.33325 24.7335 9.33325 24.0002C9.33325 23.2668 8.73325 22.6668 7.99992 22.6668ZM7.99992 12.0002C7.26659 12.0002 6.66659 12.6002 6.66659 13.3335C6.66659 14.0668 7.26659 14.6668 7.99992 14.6668C8.73325 14.6668 9.33325 14.0668 9.33325 13.3335C9.33325 12.6002 8.73325 12.0002 7.99992 12.0002ZM3.99992 12.6668C3.62659 12.6668 3.33325 12.9602 3.33325 13.3335C3.33325 13.7068 3.62659 14.0002 3.99992 14.0002C4.37325 14.0002 4.66659 13.7068 4.66659 13.3335C4.66659 12.9602 4.37325 12.6668 3.99992 12.6668ZM7.99992 6.66683C7.26659 6.66683 6.66659 7.26683 6.66659 8.00016C6.66659 8.7335 7.26659 9.3335 7.99992 9.3335C8.73325 9.3335 9.33325 8.7335 9.33325 8.00016C9.33325 7.26683 8.73325 6.66683 7.99992 6.66683ZM27.9999 14.0002C28.3733 14.0002 28.6666 13.7068 28.6666 13.3335C28.6666 12.9602 28.3733 12.6668 27.9999 12.6668C27.6266 12.6668 27.3333 12.9602 27.3333 13.3335C27.3333 13.7068 27.6266 14.0002 27.9999 14.0002ZM18.6666 9.3335C19.3999 9.3335 19.9999 8.7335 19.9999 8.00016C19.9999 7.26683 19.3999 6.66683 18.6666 6.66683C17.9333 6.66683 17.3333 7.26683 17.3333 8.00016C17.3333 8.7335 17.9333 9.3335 18.6666 9.3335ZM18.6666 4.66683C19.0399 4.66683 19.3333 4.3735 19.3333 4.00016C19.3333 3.62683 19.0399 3.3335 18.6666 3.3335C18.2933 3.3335 17.9999 3.62683 17.9999 4.00016C17.9999 4.3735 18.2933 4.66683 18.6666 4.66683ZM3.99992 18.0002C3.62659 18.0002 3.33325 18.2935 3.33325 18.6668C3.33325 19.0402 3.62659 19.3335 3.99992 19.3335C4.37325 19.3335 4.66659 19.0402 4.66659 18.6668C4.66659 18.2935 4.37325 18.0002 3.99992 18.0002ZM13.3333 27.3335C12.9599 27.3335 12.6666 27.6268 12.6666 28.0002C12.6666 28.3735 12.9599 28.6668 13.3333 28.6668C13.7066 28.6668 13.9999 28.3735 13.9999 28.0002C13.9999 27.6268 13.7066 27.3335 13.3333 27.3335ZM13.3333 4.66683C13.7066 4.66683 13.9999 4.3735 13.9999 4.00016C13.9999 3.62683 13.7066 3.3335 13.3333 3.3335C12.9599 3.3335 12.6666 3.62683 12.6666 4.00016C12.6666 4.3735 12.9599 4.66683 13.3333 4.66683ZM13.3333 9.3335C14.0666 9.3335 14.6666 8.7335 14.6666 8.00016C14.6666 7.26683 14.0666 6.66683 13.3333 6.66683C12.5999 6.66683 11.9999 7.26683 11.9999 8.00016C11.9999 8.7335 12.5999 9.3335 13.3333 9.3335ZM13.3333 16.6668C12.2266 16.6668 11.3333 17.5602 11.3333 18.6668C11.3333 19.7735 12.2266 20.6668 13.3333 20.6668C14.4399 20.6668 15.3333 19.7735 15.3333 18.6668C15.3333 17.5602 14.4399 16.6668 13.3333 16.6668ZM23.9999 17.3335C23.2666 17.3335 22.6666 17.9335 22.6666 18.6668C22.6666 19.4002 23.2666 20.0002 23.9999 20.0002C24.7333 20.0002 25.3333 19.4002 25.3333 18.6668C25.3333 17.9335 24.7333 17.3335 23.9999 17.3335ZM23.9999 22.6668C23.2666 22.6668 22.6666 23.2668 22.6666 24.0002C22.6666 24.7335 23.2666 25.3335 23.9999 25.3335C24.7333 25.3335 25.3333 24.7335 25.3333 24.0002C25.3333 23.2668 24.7333 22.6668 23.9999 22.6668ZM23.9999 12.0002C23.2666 12.0002 22.6666 12.6002 22.6666 13.3335C22.6666 14.0668 23.2666 14.6668 23.9999 14.6668C24.7333 14.6668 25.3333 14.0668 25.3333 13.3335C25.3333 12.6002 24.7333 12.0002 23.9999 12.0002ZM23.9999 6.66683C23.2666 6.66683 22.6666 7.26683 22.6666 8.00016C22.6666 8.7335 23.2666 9.3335 23.9999 9.3335C24.7333 9.3335 25.3333 8.7335 25.3333 8.00016C25.3333 7.26683 24.7333 6.66683 23.9999 6.66683ZM27.9999 18.0002C27.6266 18.0002 27.3333 18.2935 27.3333 18.6668C27.3333 19.0402 27.6266 19.3335 27.9999 19.3335C28.3733 19.3335 28.6666 19.0402 28.6666 18.6668C28.6666 18.2935 28.3733 18.0002 27.9999 18.0002ZM18.6666 22.6668C17.9333 22.6668 17.3333 23.2668 17.3333 24.0002C17.3333 24.7335 17.9333 25.3335 18.6666 25.3335C19.3999 25.3335 19.9999 24.7335 19.9999 24.0002C19.9999 23.2668 19.3999 22.6668 18.6666 22.6668ZM18.6666 27.3335C18.2933 27.3335 17.9999 27.6268 17.9999 28.0002C17.9999 28.3735 18.2933 28.6668 18.6666 28.6668C19.0399 28.6668 19.3333 28.3735 19.3333 28.0002C19.3333 27.6268 19.0399 27.3335 18.6666 27.3335ZM13.3333 11.3335C12.2266 11.3335 11.3333 12.2268 11.3333 13.3335C11.3333 14.4402 12.2266 15.3335 13.3333 15.3335C14.4399 15.3335 15.3333 14.4402 15.3333 13.3335C15.3333 12.2268 14.4399 11.3335 13.3333 11.3335ZM13.3333 22.6668C12.5999 22.6668 11.9999 23.2668 11.9999 24.0002C11.9999 24.7335 12.5999 25.3335 13.3333 25.3335C14.0666 25.3335 14.6666 24.7335 14.6666 24.0002C14.6666 23.2668 14.0666 22.6668 13.3333 22.6668ZM18.6666 16.6668C17.5599 16.6668 16.6666 17.5602 16.6666 18.6668C16.6666 19.7735 17.5599 20.6668 18.6666 20.6668C19.7733 20.6668 20.6666 19.7735 20.6666 18.6668C20.6666 17.5602 19.7733 16.6668 18.6666 16.6668ZM18.6666 11.3335C17.5599 11.3335 16.6666 12.2268 16.6666 13.3335C16.6666 14.4402 17.5599 15.3335 18.6666 15.3335C19.7733 15.3335 20.6666 14.4402 20.6666 13.3335C20.6666 12.2268 19.7733 11.3335 18.6666 11.3335Z" fill="#969696"/>
</svg>
