<svg width="35" height="36" viewBox="0 0 35 36" fill="none" xmlns="http://www.w3.org/2000/svg">
<path d="M18.3766 0.276123C19.0117 0.385623 19.6468 0.46227 20.271 0.61557C25.0014 1.73247 28.6368 5.71827 29.2609 10.5253C29.7865 14.6316 28.5054 18.1246 25.4941 20.9497C24.3882 22.0009 23.6326 23.2164 23.3589 24.7275H11.6424C11.6095 24.607 11.5876 24.4756 11.5548 24.3442C11.2482 23.0521 10.6021 21.9571 9.61661 21.0702C7.63467 19.2853 6.36447 17.0844 5.82792 14.4783C4.51392 7.99587 8.89391 1.60107 15.4201 0.473223C15.8143 0.407523 16.2195 0.341823 16.6246 0.276123C17.2159 0.276123 17.8072 0.276123 18.3876 0.276123H18.3766ZM20.052 12.2007H20.0629C20.0629 13.0767 20.0629 13.9417 20.0629 14.8177C20.0629 15.42 20.3805 15.7375 20.9937 15.7375C21.5302 15.7375 22.0558 15.7375 22.5924 15.7156C23.4684 15.6828 24.202 15.3105 24.7057 14.5987C25.6584 13.2847 25.7131 11.8393 25.1218 10.372C24.6729 9.25512 23.7859 8.65287 22.5705 8.60907C22.1434 8.58717 21.7054 8.60907 21.2784 8.60907C20.271 8.60907 20.052 8.82807 20.052 9.85737C20.052 10.6348 20.052 11.4232 20.052 12.2007ZM16.6575 10.3173C17.0188 10.3173 17.3473 10.3173 17.6758 10.3173C17.862 10.3173 18.0372 10.3173 18.2233 10.2954C18.6613 10.2297 18.946 9.87926 18.9351 9.44126C18.9351 9.00326 18.6175 8.65287 18.1686 8.64192C17.4568 8.62002 16.7451 8.63097 16.0224 8.63097C15.223 8.63097 14.9493 8.91567 14.9493 9.72597C14.9493 11.3466 14.9493 12.9672 14.9493 14.5878C14.9493 14.7301 14.9493 14.8834 14.9712 15.0258C15.0259 15.42 15.2778 15.7266 15.672 15.7375C16.5151 15.7704 17.3692 15.7704 18.2233 15.7375C18.6942 15.7156 18.9789 15.2995 18.9351 14.8287C18.8913 14.3907 18.5628 14.095 18.081 14.0731C17.6211 14.0622 17.1612 14.0731 16.6794 14.0731V13.0548C17.0517 13.0548 17.413 13.0876 17.7744 13.0548C18.0262 13.0219 18.3109 12.9453 18.519 12.8029C18.7927 12.6058 18.8475 12.2664 18.738 11.9379C18.6175 11.5984 18.3657 11.3904 18.0043 11.3794C17.5663 11.3575 17.1283 11.3794 16.6794 11.3794V10.3501L16.6575 10.3173ZM11.8833 14.0512C11.8833 13.8651 11.8833 13.7337 11.8833 13.5913C11.8833 12.2445 11.8833 10.8976 11.8833 9.55077C11.8833 8.97042 11.5329 8.62001 11.0292 8.62001C10.5364 8.62001 10.197 8.98137 10.197 9.52886C10.197 11.2918 10.197 13.0548 10.197 14.8287C10.197 15.42 10.5145 15.7266 11.1058 15.7375C11.6971 15.7485 12.2775 15.7485 12.8688 15.7375C13.4272 15.7266 13.7776 15.3981 13.7886 14.9053C13.7886 14.4016 13.4272 14.0622 12.8578 14.0512C12.5512 14.0512 12.2556 14.0512 11.8942 14.0512H11.8833Z" fill="white"/>
<path d="M34.9008 5.64156C34.7147 6.03578 34.3971 6.27669 34.0029 6.4519C33.2364 6.81326 32.4808 7.20748 31.7252 7.57979C31.112 7.87545 30.5097 7.70025 30.2469 7.16368C29.9841 6.62711 30.2141 6.05768 30.8054 5.76202C31.5829 5.3678 32.3604 4.98454 33.1378 4.59032C34.0029 4.1523 34.419 4.27276 34.9008 5.0831V5.63062V5.64156Z" fill="white"/>
<path d="M34.9008 19.2418C34.419 20.0521 34.0029 20.1725 33.1378 19.7345C32.3604 19.3403 31.5829 18.957 30.8054 18.5628C30.2141 18.2672 29.9841 17.6977 30.2469 17.1612C30.5097 16.6137 31.1229 16.4494 31.7252 16.7451C32.4808 17.1174 33.2364 17.5116 34.0029 17.873C34.3971 18.0591 34.7147 18.2891 34.9008 18.6833V19.2308V19.2418Z" fill="white"/>
<path d="M23.2719 26.8186C23.2719 27.6399 23.2938 28.4502 23.2719 29.2496C23.25 29.8081 22.7901 30.1913 22.1878 30.1913C20.611 30.1913 19.0451 30.1913 17.4682 30.1913C15.9352 30.1913 14.413 30.1913 12.88 30.1913C12.1244 30.1913 11.7192 29.7862 11.7192 29.0415C11.7192 28.3079 11.7192 27.5742 11.7192 26.8186H23.2719Z" fill="white"/>
<path d="M13.428 32.2502H21.5751C21.5751 32.9073 21.597 33.5533 21.5751 34.1885C21.5422 34.6922 21.1042 35.0755 20.5895 35.0864C18.5418 35.0864 16.4941 35.0864 14.4464 35.0864C13.9207 35.0864 13.4827 34.7031 13.4499 34.1994C13.417 33.5643 13.4499 32.9182 13.4499 32.2502H13.428Z" fill="white"/>
<path d="M1.18523 4.34933C1.23999 4.36028 1.39329 4.38218 1.52469 4.43693C2.45548 4.89685 3.38627 5.35677 4.3061 5.82764C4.71127 6.03569 4.89742 6.46276 4.83172 6.87888C4.76602 7.29499 4.45941 7.63446 4.03234 7.70016C3.83523 7.73301 3.58337 7.72206 3.40817 7.63446C2.46643 7.18549 1.54659 6.72557 0.615808 6.24375C0.177791 6.01379 -0.00836526 5.54292 0.112089 5.09395C0.232544 4.65594 0.62676 4.33838 1.17428 4.33838L1.18523 4.34933Z" fill="white"/>
<path d="M1.17342 19.9859C0.658746 19.9859 0.253581 19.6902 0.122176 19.2522C-0.00922899 18.8142 0.155023 18.3214 0.571139 18.1134C1.52383 17.6206 2.47652 17.1278 3.4511 16.6789C3.93292 16.4489 4.48044 16.6789 4.72135 17.1497C4.95131 17.5987 4.85275 18.19 4.40379 18.4419C3.41825 18.9785 2.41081 19.4493 1.41433 19.9421C1.32672 19.9859 1.21722 19.9859 1.17342 19.9968V19.9859Z" fill="white"/>
<path d="M21.7827 10.3499C22.9872 10.1199 23.6661 10.6236 23.7538 11.8172C23.7757 12.1129 23.7757 12.4086 23.7319 12.6933C23.5676 13.7445 22.9106 14.1716 21.7717 13.9854V10.3499H21.7827Z" fill="white"/>
</svg>
