<svg width="35" height="27" viewBox="0 0 35 27" fill="none" xmlns="http://www.w3.org/2000/svg">
<path d="M17.9578 26.2137C18.7885 22.5184 19.5932 18.9369 20.4184 15.2703C20.0763 15.2429 19.8135 15.2083 19.5494 15.2026C17.7936 15.168 16.0378 15.1189 14.2819 15.1305C14.0041 15.1319 13.7277 15.4131 13.4526 15.5702C13.4157 15.5904 13.3951 15.6438 13.3691 15.6827C12.3729 17.1389 10.9615 17.7728 9.13494 17.5844C9.58382 16.5939 9.94784 15.5875 10.4734 14.6878C11.055 13.6915 11.0303 12.8336 10.4624 11.8489C9.94784 10.9564 9.58382 9.96874 9.1062 8.91766C10.0696 8.91766 10.9277 8.90756 11.7858 8.92775C11.9213 8.93063 12.0608 9.0503 12.184 9.14114C12.2552 9.19305 12.2921 9.29397 12.3469 9.37039C12.8409 10.0553 13.209 10.9982 13.8646 11.35C14.4968 11.6888 15.4233 11.412 16.2211 11.4106C17.5842 11.4077 18.9472 11.4106 20.4458 11.4106C19.5987 7.63588 18.7912 4.03709 17.9633 0.346031C19.0252 0.346031 19.9805 0.315753 20.9316 0.371984C21.1191 0.383519 21.3504 0.689185 21.4598 0.914109C23.009 4.12216 24.5513 7.33454 26.0663 10.5599C26.2894 11.0357 26.5302 11.2116 27.0475 11.1914C28.9156 11.1179 30.7863 11.1006 32.6557 11.0732C34.0543 11.053 35.0055 11.9613 35 13.2907C34.9945 14.6157 34.042 15.5068 32.6352 15.4852C30.7658 15.4563 28.895 15.4361 27.0256 15.3698C26.548 15.3525 26.303 15.4895 26.0854 15.9537C24.5732 19.1805 23.0186 22.3857 21.5023 25.6111C21.2915 26.0595 21.0575 26.2541 20.5717 26.2282C19.7382 26.1835 18.9007 26.2166 17.9633 26.2166L17.9578 26.2137Z" fill="#0A4A7E"/>
<path d="M5.84085 14.319H0V12.25H5.84085V14.319Z" fill="#0A4A7E"/>
<path d="M5.81529 9.99477H1.90405V7.92432H5.81529V9.99477Z" fill="#0A4A7E"/>
<path d="M5.82532 18.645H1.89355V16.563H5.82395V18.645H5.82532Z" fill="#0A4A7E"/>
</svg>
