<svg width="47" height="22" viewBox="0 0 47 22" fill="none" xmlns="http://www.w3.org/2000/svg">
<path d="M21.0911 21.0682C15.6224 21.0682 10.1518 21.0508 4.68309 21.0856C3.74272 21.0909 3.19044 20.8065 2.79489 20.0058C2.01497 18.4253 1.1455 16.8849 0.318943 15.3253C-0.365813 14.0344 0.0539963 13.3889 1.58397 13.3889C11.7154 13.3872 21.8468 13.375 31.9782 13.4046C33.1312 13.4081 34.1929 13.286 35.165 12.6929C36.1371 12.0998 37.1969 11.9445 38.3537 11.9741C40.6206 12.0317 42.8913 11.9951 45.1583 11.9899C45.8804 11.9899 46.6584 11.9079 46.9402 12.74C47.207 13.5285 46.5334 13.853 46.0054 14.2647C44.287 15.5992 42.5779 16.9494 40.8949 18.3224C40.4303 18.7009 39.9284 19.1266 39.6803 19.6307C39.0366 20.9409 37.9544 21.1101 36.5681 21.0944C31.411 21.0316 26.2501 21.0699 21.0911 21.0699V21.0682Z" fill="#0A4A7E"/>
<path d="M3.79321 12.2935C4.37721 10.9276 4.94069 9.6192 5.49297 8.30734C6.36618 6.22965 6.1796 6.40585 8.50068 6.40585C17.7589 6.40585 27.0189 6.41631 36.2771 6.39015C37.197 6.3884 37.7866 6.63961 38.2269 7.40719C38.8949 8.57076 39.6617 9.68724 40.4659 10.9468C40.0181 10.9468 39.7438 10.9677 39.4752 10.9433C37.4713 10.7653 35.5905 11.0567 33.8777 12.1156C33.6165 12.2778 33.234 12.3319 32.9075 12.3336C23.4011 12.3441 13.8929 12.3424 4.38654 12.3406C4.23541 12.3406 4.08428 12.3179 3.79508 12.2935H3.79321ZM21.97 10.2402C22.2798 10.2402 22.5895 10.2559 22.8973 10.2368C23.5821 10.1949 24.0187 9.85122 24.0224 9.20402C24.0262 8.55681 23.597 8.20791 22.9104 8.15906C22.6025 8.13813 22.2928 8.15208 21.9831 8.15208C20.5837 8.15208 20.037 8.46086 20.065 9.23367C20.0911 9.9681 20.608 10.242 21.9682 10.2385L21.97 10.2402ZM34.04 10.2245C34.04 10.2245 34.04 10.235 34.04 10.2402C34.3497 10.2402 34.6613 10.2612 34.9673 10.2368C35.6558 10.1792 36.0588 9.82157 36.0439 9.16738C36.029 8.55681 35.6334 8.20268 34.9897 8.16953C34.3423 8.13638 33.6519 8.04567 33.0567 8.21489C32.663 8.32653 32.1574 8.84814 32.1537 9.1918C32.1499 9.53373 32.6556 9.95415 33.0399 10.2001C33.2713 10.3484 33.7004 10.228 34.04 10.228V10.2245ZM27.9388 10.242C28.1552 10.242 28.3735 10.2455 28.59 10.242C29.3176 10.2263 29.8027 9.89832 29.8065 9.20227C29.8102 8.50796 29.3288 8.17127 28.5993 8.15732C28.1664 8.1486 27.7317 8.14336 27.2988 8.15906C26.5693 8.18698 26.1066 8.54111 26.1271 9.23716C26.1457 9.88611 26.6047 10.2071 27.2895 10.2402C27.5059 10.2507 27.7223 10.2402 27.9407 10.2437L27.9388 10.242ZM15.9024 8.15383C15.7177 8.15383 15.5311 8.15383 15.3464 8.15383C14.628 8.15906 14.1261 8.45563 14.1056 9.15691C14.0832 9.9053 14.587 10.2315 15.352 10.242C15.5367 10.2437 15.7233 10.242 15.908 10.242C17.2383 10.242 17.7645 9.94543 17.7626 9.19355C17.7607 8.44342 17.2383 8.15034 15.9024 8.15208V8.15383ZM10.1295 10.2385C10.1295 10.2385 10.1295 10.2402 10.1295 10.242C10.3161 10.242 10.5008 10.2472 10.6874 10.242C11.4151 10.2193 11.8946 9.88611 11.889 9.19006C11.8834 8.49575 11.3964 8.16779 10.6688 8.15732C10.2657 8.15209 9.86086 8.13464 9.46157 8.16604C8.81973 8.21663 8.41112 8.5603 8.39432 9.16389C8.37567 9.81459 8.79734 10.167 9.48023 10.235C9.6948 10.2559 9.9131 10.2385 10.1295 10.2385Z" fill="#0A4A7E"/>
<path d="M30.6443 2.57138C30.064 2.57138 29.4856 2.57138 28.9053 2.57138C27.7578 2.57487 27.2168 2.92028 27.2317 3.63727C27.2466 4.356 27.756 4.65954 28.9501 4.66129C29.9427 4.66129 30.9391 4.62465 31.9279 4.68222C32.2675 4.70141 32.594 4.95611 32.9243 5.10439C32.8888 5.17766 32.8534 5.25093 32.8198 5.32594H21.2312C21.6547 4.23563 21.9981 3.18196 22.4888 2.19283C22.6436 1.88056 23.1884 1.56656 23.5672 1.5526C25.489 1.48805 27.4164 1.47584 29.3363 1.5526C29.8308 1.57179 30.3066 1.98349 30.7898 2.21551L30.6461 2.56964L30.6443 2.57138Z" fill="#0A4A7E"/>
<path d="M15.5647 2.53273H10.514C10.318 1.21738 10.6763 0.828361 12.0589 0.823127C12.738 0.819638 13.4172 0.817894 14.0982 0.823127C15.3893 0.83185 15.742 1.23483 15.5647 2.53273Z" fill="#0A4A7E"/>
<path d="M15.6357 4.01562V5.29434H10.4897V4.01562H15.6357Z" fill="#0A4A7E"/>
<path d="M21.9701 10.2419C20.6099 10.2453 20.0931 9.97145 20.0669 9.23702C20.0389 8.46421 20.5856 8.15544 21.985 8.15544C22.2947 8.15544 22.6045 8.14148 22.9123 8.16241C23.5971 8.20952 24.0281 8.55841 24.0243 9.20737C24.0206 9.85457 23.584 10.1982 22.8993 10.2401C22.5914 10.2593 22.2817 10.2436 21.9719 10.2436L21.9701 10.2419Z" fill="white"/>
<path d="M34.0382 10.2259C33.6986 10.2259 33.2695 10.3463 33.0381 10.198C32.6538 9.95201 32.1481 9.53159 32.1519 9.18967C32.1556 8.84774 32.6612 8.3244 33.0549 8.21275C33.6501 8.04353 34.3423 8.13425 34.9879 8.16739C35.6316 8.20054 36.0272 8.55641 36.0421 9.16524C36.057 9.81943 35.6522 10.177 34.9655 10.2346C34.6595 10.2608 34.3479 10.2381 34.0382 10.2381C34.0382 10.2329 34.0382 10.2276 34.0382 10.2224V10.2259Z" fill="white"/>
<path d="M27.9387 10.2436C27.7223 10.2436 27.504 10.2523 27.2876 10.2419C26.6047 10.2105 26.1438 9.88773 26.1252 9.23878C26.1046 8.54447 26.5655 8.19034 27.2969 8.16068C27.7298 8.14324 28.1645 8.15022 28.5974 8.15894C29.3269 8.17464 29.8083 8.50958 29.8046 9.20389C29.8008 9.89994 29.3157 10.2262 28.5881 10.2436C28.3716 10.2488 28.1552 10.2436 27.9369 10.2436H27.9387Z" fill="white"/>
<path d="M15.9025 8.15527C17.2384 8.15527 17.7608 8.4466 17.7627 9.19674C17.7646 9.94861 17.2384 10.2452 15.9081 10.2452C15.7234 10.2452 15.5368 10.2452 15.3521 10.2452C14.5871 10.2347 14.0833 9.90849 14.1057 9.1601C14.1262 8.45882 14.6263 8.16051 15.3465 8.15702C15.5312 8.15702 15.7178 8.15702 15.9025 8.15702V8.15527Z" fill="white"/>
<path d="M10.1295 10.2403C9.91306 10.2403 9.69289 10.2577 9.48019 10.2368C8.79917 10.1687 8.37749 9.81634 8.39428 9.16564C8.41107 8.5603 8.81969 8.21838 9.46153 8.16779C9.86082 8.13639 10.2657 8.15209 10.6687 8.15907C11.3964 8.16954 11.8834 8.4975 11.889 9.19181C11.8946 9.88612 11.415 10.2211 10.6874 10.2437C10.5008 10.249 10.3161 10.2437 10.1295 10.2437C10.1295 10.2437 10.1295 10.242 10.1295 10.2403Z" fill="white"/>
</svg>
