<svg width="36" height="25" viewBox="0 0 36 25" fill="none" xmlns="http://www.w3.org/2000/svg">
<path d="M2.42843 10.1457C1.63701 10.1005 0.994854 10.0632 0.287923 10.0206V4.75577C1.17792 4.75577 2.05103 4.75577 2.92131 4.75577C6.01942 4.75577 9.11471 4.78507 12.2128 4.7398C13.3028 4.72382 13.7534 5.09931 13.7112 6.13789C13.6605 7.37087 13.6999 8.60917 13.6999 9.93536H22.5549C22.752 8.80091 22.8787 7.71706 23.1688 6.67582C23.2308 6.45745 23.887 6.38555 24.4898 6.16718C24.3151 5.14458 24.1771 4.01812 23.9265 2.91562C23.5406 1.2246 23.8335 0.833139 25.6501 0.819824C25.8388 0.819824 26.0247 0.819824 26.2134 0.819824C28.3624 0.819824 28.5821 1.18466 28.0047 3.22187C27.7315 4.18322 27.7287 5.21382 27.5822 6.37223C29.2158 6.12723 29.3115 7.06195 29.2862 8.16178C29.2468 9.84215 29.2749 11.5225 29.2749 13.2215C31.8886 13.4346 32.9927 15.5623 34.8121 16.7154C35.8429 17.3705 36.1865 18.2041 35.795 19.5222C33.5869 19.5222 31.3084 19.5222 29.0299 19.5222C20.5355 19.5169 12.0438 19.4956 3.54938 19.5276C2.4397 19.5329 1.33283 19.8178 0.23441 19.9723C-0.235939 17.975 -0.204958 17.9537 2.42843 18.3026V10.1457ZM12.1678 6.15919H7.86138V9.91405H12.1678V6.15919ZM3.89018 9.95666H6.55173V6.14321H3.88736V9.95666H3.89018Z" fill="#0A4A7E"/>
<path d="M11.998 20.2573H25.5227C24.5538 21.4424 23.2414 21.5409 21.8021 21.4876C19.7405 21.4131 17.6704 21.3971 15.6116 21.493C14.1893 21.5595 12.9782 21.3199 11.998 20.2573Z" fill="#0A4A7E"/>
<path d="M11.4489 20.9868C12.3614 21.0561 12.9388 21.6473 13.0458 22.582C13.1472 23.4741 12.2178 24.2703 11.232 24.2171C10.1533 24.1585 9.62942 23.514 9.56746 22.574C9.51113 21.7405 10.4068 20.9842 11.4517 20.9868H11.4489Z" fill="#0A4A7E"/>
<path d="M26.3564 20.9898C27.3112 21.0457 27.8716 21.6609 27.9984 22.577C28.1195 23.4478 27.1703 24.2707 26.1958 24.2174C25.1228 24.1588 24.5961 23.5277 24.5341 22.5796C24.4778 21.7248 25.334 20.9818 26.3536 20.9898H26.3564Z" fill="#0A4A7E"/>
<path d="M33.4089 22.8111C33.2878 23.5861 32.7752 24.2092 31.7106 24.2092C30.6544 24.2092 30.063 23.6473 30.0067 22.6513C29.9531 21.698 30.7643 20.9523 31.7613 20.9896C32.6992 21.0242 33.423 21.7459 33.4118 22.8111H33.4089Z" fill="#0A4A7E"/>
<path d="M6.04129 20.9923C6.89186 21.1175 7.53964 21.6021 7.52838 22.6167C7.51711 23.618 6.92847 24.1719 5.8723 24.2145C4.87527 24.2545 4.08103 23.4636 4.12609 22.5342C4.16834 21.6607 4.95413 20.971 6.0441 20.9896L6.04129 20.9923Z" fill="#0A4A7E"/>
<path d="M17.938 9.50148H14.2878C14.3667 8.42562 14.961 7.92763 15.9721 7.88236C17.0564 7.83443 17.6789 8.36703 17.9352 9.50148H17.938Z" fill="#0A4A7E"/>
<path d="M18.4619 9.49582C18.5858 8.39599 19.1773 7.91132 20.194 7.87936C21.3037 7.84474 21.8557 8.4386 22.1402 9.49582H18.4619Z" fill="#0A4A7E"/>
<path d="M5.12595 20.718C4.16553 20.963 3.21357 21.2559 2.23626 21.4183C2.03066 21.453 1.73493 21.0029 1.48145 20.7739C1.73774 20.5928 1.97996 20.2786 2.24752 20.2599C3.16851 20.196 4.09794 20.236 5.02455 20.236C5.05835 20.3984 5.08933 20.5582 5.12313 20.7206L5.12595 20.718Z" fill="#0A4A7E"/>
<path d="M32.4597 20.2783H36C35.8479 20.7284 35.8085 21.3276 35.5973 21.3888C34.3214 21.7536 33.3103 21.237 32.4597 20.2783Z" fill="#0A4A7E"/>
<path d="M31.0459 20.2651C29.6058 21.286 28.282 21.286 27.0747 20.2651H31.0459Z" fill="#0A4A7E"/>
<path d="M6.57373 20.2759H10.6379C9.22965 21.2417 7.87494 21.2417 6.57373 20.2759Z" fill="#0A4A7E"/>
</svg>
