<svg width="35" height="21" viewBox="0 0 35 21" fill="none" xmlns="http://www.w3.org/2000/svg">
<path d="M0 13.9297V0.819824H23.8409V13.9297H0Z" fill="#0A4A7E"/>
<path d="M18.9628 17.3333C18.7343 19.3409 17.7341 20.4146 16.158 20.3958C14.6051 20.3783 13.6295 19.306 13.4175 17.2984C12.9851 17.2984 12.5391 17.2984 12.0917 17.2984C11.6443 17.2984 11.2338 17.2984 10.8138 17.2984C10.5743 19.3194 9.58513 20.3958 8.01854 20.3958C6.45195 20.3958 5.48873 19.3449 5.23698 17.3078H2.90283V15.0086H24.9268V4.81871C25.5315 4.81871 26.0487 4.81871 26.5659 4.81871C28.3897 4.81871 30.2135 4.82946 32.0373 4.81065C32.4122 4.80662 32.6038 4.92352 32.7543 5.2635C33.4425 6.82228 34.1594 8.36897 34.8613 9.92103C34.9242 10.0621 34.994 10.2167 34.994 10.3645C35.0022 12.6449 34.9995 14.9253 34.9995 17.2849H30.977C30.6992 19.3826 29.7182 20.4294 28.127 20.3944C26.5796 20.3595 25.6136 19.2845 25.4043 17.3333H18.9628ZM26.715 6.32374V10.0675H33.2523C32.7214 8.87423 32.233 7.75083 31.7131 6.64087C31.6446 6.49574 31.412 6.33852 31.2533 6.33718C29.7593 6.31433 28.2638 6.32374 26.715 6.32374ZM8.02127 16.6426C7.45894 16.6426 6.97597 17.1008 6.95681 17.6572C6.93629 18.235 7.43568 18.7483 8.01717 18.7496C8.60276 18.7496 9.10215 18.2417 9.08573 17.6625C9.06932 17.1102 8.58224 16.6453 8.02127 16.6439V16.6426ZM29.2503 17.7243C29.2681 17.1667 28.8234 16.6802 28.2583 16.6439C27.6728 16.6063 27.1433 17.0807 27.1241 17.6598C27.1063 18.239 27.6071 18.7496 28.1913 18.7483C28.7523 18.747 29.2311 18.2834 29.2503 17.7243ZM16.1634 18.7483C16.7299 18.7644 17.2074 18.3196 17.2361 17.7526C17.2662 17.1506 16.8133 16.6574 16.2154 16.6426C15.6463 16.6292 15.1688 17.0686 15.1414 17.6343C15.1113 18.235 15.5683 18.7322 16.1634 18.7496V18.7483Z" fill="#0A4A7E"/>
</svg>
