<svg width="37" height="27" viewBox="0 0 37 27" fill="none" xmlns="http://www.w3.org/2000/svg">
<path d="M0 17.6998H0.979598C10.3117 17.6998 19.6438 17.6957 28.9759 17.7121C29.5133 17.7121 29.9037 17.6058 30.163 17.1533C30.3935 16.7512 30.7464 16.6299 31.2333 16.6381C32.8641 16.6667 34.4963 16.6463 36.127 16.6517C36.3777 16.6517 36.6283 16.6899 37 16.7185C36.8199 17.0143 36.709 17.2078 36.588 17.3945C34.8103 20.1137 33.0225 22.8273 31.2621 25.5574C31.0043 25.9581 30.7162 26.0998 30.2264 26.0985C21.5656 26.0849 12.9062 26.0835 4.24541 26.0998C3.69942 26.0998 3.44444 25.9295 3.24852 25.4565C2.2646 23.0958 1.24323 20.7488 0.239137 18.3963C0.161346 18.2137 0.110925 18.0215 0.00144059 17.6985L0 17.6998ZM24.6268 21.3458C24.7363 21.3444 24.8472 21.3431 24.9567 21.3403C25.144 21.0732 25.5027 20.7856 25.4696 20.5457C25.435 20.2963 25.0547 19.9624 24.7694 19.901C24.3416 19.8097 24.016 20.1409 24.0967 20.5539C24.1529 20.8388 24.4424 21.0827 24.6268 21.3458ZM29.2338 20.727C29.2381 20.6234 29.241 20.5185 29.2453 20.4149C28.9716 20.2336 28.7195 19.9528 28.4199 19.8956C27.9877 19.8124 27.629 20.115 27.7169 20.5212C27.7759 20.7911 28.1231 21.155 28.3853 21.1931C28.6374 21.2286 28.9486 20.8974 29.2338 20.727Z" fill="#0A4A7E"/>
<path d="M6.88161 16.528C5.53899 16.528 4.19636 16.5116 2.85374 16.5348C2.2098 16.547 1.93608 16.3085 1.95049 15.6938C1.97354 14.6512 1.96922 13.6071 1.95193 12.5631C1.94185 11.9811 2.21844 11.7521 2.82204 11.7548C5.5073 11.7657 8.19255 11.7685 10.8778 11.7535C11.5203 11.7494 11.7882 11.9865 11.771 12.6012C11.7421 13.6439 11.7465 14.688 11.771 15.7306C11.7839 16.3181 11.5203 16.5416 10.9109 16.5321C9.56831 16.5116 8.22568 16.5252 6.88305 16.5252L6.88161 16.528Z" fill="#0A4A7E"/>
<path d="M5.13695 8.77042C5.13695 8.29338 5.14704 7.81634 5.13407 7.3393C5.12399 6.94813 5.27093 6.75731 5.72039 6.7723C6.48822 6.79547 7.2575 6.79002 8.02533 6.77367C8.42293 6.76549 8.59148 6.90996 8.58716 7.28887C8.57563 8.26612 8.57275 9.24201 8.58716 10.2193C8.59436 10.6432 8.38836 10.7685 7.96915 10.7563C7.2258 10.7358 6.47958 10.7331 5.73624 10.7563C5.29686 10.7699 5.12399 10.6009 5.13263 10.2002C5.14416 9.72314 5.13551 9.2461 5.13551 8.76906L5.13695 8.77042Z" fill="#0A4A7E"/>
<path d="M28.6272 13.1825C28.6272 14.2456 28.6474 15.2147 28.6042 16.181C28.5984 16.3241 28.2944 16.5654 28.1187 16.5749C27.2601 16.6158 26.3972 16.6199 25.54 16.5722C25.3571 16.5613 25.0517 16.2873 25.0416 16.1211C24.9897 15.2869 24.9984 14.4487 25.0373 13.6132C25.0445 13.4646 25.285 13.207 25.4248 13.2016C26.4476 13.1661 27.4719 13.1825 28.6272 13.1825Z" fill="#0A4A7E"/>
<path d="M14.9014 10.408C14.9014 9.26946 15.4987 8.7002 16.6935 8.7002C17.9055 8.7002 18.5115 9.27991 18.5115 10.4394C18.5115 11.5552 17.9304 12.1131 16.7684 12.1131H16.6963C15.4997 12.1131 14.9014 11.5447 14.9014 10.408Z" fill="#0A4A7E"/>
<path d="M23.5698 10.397C23.5698 11.5401 22.9777 12.1116 21.7935 12.1116C20.5681 12.1116 19.9553 11.5342 19.9553 10.3793C19.9553 9.25891 20.5383 8.69873 21.7042 8.69873H21.7762C22.9719 8.69873 23.5698 9.26436 23.5698 10.3956V10.397Z" fill="#0A4A7E"/>
<path d="M16.6579 16.5949C15.4862 16.5949 14.9004 16.0347 14.9004 14.9144C14.9004 13.7586 15.5107 13.1807 16.7314 13.1807C17.9175 13.1807 18.5105 13.7477 18.5105 14.8817C18.5105 16.0157 17.893 16.5867 16.6579 16.5949Z" fill="#0A4A7E"/>
<path d="M21.7692 13.1807C22.9697 13.1807 23.57 13.7477 23.57 14.8817C23.57 16.0157 22.9683 16.5867 21.7649 16.5949C20.5615 16.6031 19.9579 16.0316 19.9541 14.8803C19.9541 13.7472 20.5587 13.1807 21.7678 13.1807H21.7692Z" fill="#0A4A7E"/>
<path d="M6.39782 4.37791C6.39782 3.56422 6.37189 2.77778 6.40934 1.99407C6.42807 1.59336 6.1558 0.910509 6.88186 0.929591C7.5863 0.947309 7.30107 1.62471 7.32267 2.02679C7.36445 2.79141 7.3342 3.55877 7.3342 4.35338C7.55317 4.38337 7.71595 4.43789 7.8701 4.42153C8.45642 4.35747 8.59471 4.61916 8.60047 5.133C8.60624 5.68637 8.32388 5.76542 7.84561 5.75043C7.15269 5.72726 6.45832 5.72181 5.76684 5.75043C5.23094 5.7736 5.12866 5.52009 5.12866 5.08939C5.12866 4.66005 5.22518 4.37928 5.76252 4.42289C5.94547 4.43789 6.13419 4.39836 6.39782 4.37928V4.37791Z" fill="#0A4A7E"/>
</svg>
