<svg width="18" height="18" viewBox="0 0 18 18" fill="none" xmlns="http://www.w3.org/2000/svg">
<path d="M13.7805 0.222656C13.6396 0.222656 13.5045 0.278627 13.4049 0.378256C13.3052 0.477884 13.2493 0.61301 13.2493 0.753906V1.28516H4.74927V0.753906C4.74927 0.61301 4.6933 0.477884 4.59367 0.378256C4.49404 0.278627 4.35891 0.222656 4.21802 0.222656C4.07712 0.222656 3.942 0.278627 3.84237 0.378256C3.74274 0.477884 3.68677 0.61301 3.68677 0.753906V1.28516H2.62427C2.06068 1.28516 1.52018 1.50904 1.12167 1.90755C0.72315 2.30607 0.499268 2.84657 0.499268 3.41016V15.0977C0.499268 15.6612 0.72315 16.2017 1.12167 16.6003C1.52018 16.9988 2.06068 17.2227 2.62427 17.2227H15.3743C15.9379 17.2227 16.4784 16.9988 16.8769 16.6003C17.2754 16.2017 17.4993 15.6612 17.4993 15.0977V3.41016C17.4993 2.84657 17.2754 2.30607 16.8769 1.90755C16.4784 1.50904 15.9379 1.28516 15.3743 1.28516H14.3118V0.753906C14.3118 0.61301 14.2558 0.477884 14.1562 0.378256C14.0565 0.278627 13.9214 0.222656 13.7805 0.222656ZM15.3743 2.34766C15.6561 2.34766 15.9263 2.4596 16.1256 2.65886C16.3248 2.85811 16.4368 3.12836 16.4368 3.41016V4.47266H1.56177V3.41016C1.56177 3.12836 1.67371 2.85811 1.87297 2.65886C2.07222 2.4596 2.34247 2.34766 2.62427 2.34766H15.3743ZM1.56177 5.53516H16.4368V15.0977C16.4368 15.3794 16.3248 15.6497 16.1256 15.849C15.9263 16.0482 15.6561 16.1602 15.3743 16.1602H2.62427C2.34247 16.1602 2.07222 16.0482 1.87297 15.849C1.67371 15.6497 1.56177 15.3794 1.56177 15.0977V5.53516Z" fill="white"/>
</svg>
