<svg width="30" height="30" viewBox="0 0 30 30" fill="none" xmlns="http://www.w3.org/2000/svg">
<path d="M0.961623 10.4181C0.900233 7.46846 3.25538 4.97334 6.15857 4.95062C6.57937 4.94721 6.75907 4.82791 6.91087 4.42569C8.13421 1.18295 11.9203 -0.0498406 14.7565 1.87035C15.0914 2.0976 15.2945 2.09078 15.6249 1.86808C18.4689 -0.0487044 22.245 1.18408 23.4694 4.43023C23.6224 4.837 23.8076 4.94721 24.224 4.95062C27.1048 4.97448 29.441 7.42642 29.4176 10.3647C29.3952 13.2949 27.0814 15.6958 24.2206 15.7196C23.8009 15.723 23.6201 15.84 23.4683 16.2434C22.2472 19.4861 18.4645 20.7178 15.6227 18.7999C15.2889 18.5738 15.0847 18.5783 14.7543 18.8021C11.9169 20.7201 8.13532 19.485 6.90752 16.2411C6.76912 15.8764 6.6296 15.7219 6.21103 15.7196C3.32458 15.706 1.02301 13.3631 0.961623 10.4181ZM27.7388 10.3374C27.7399 8.00361 25.6929 6.29589 23.4114 6.72765C22.5609 6.88899 22.2573 6.65948 22.1099 5.79028C21.8677 4.36661 21.0864 3.37129 19.7447 2.88953C18.3796 2.39983 17.1407 2.69411 16.0691 3.66897C15.2778 4.38706 15.1025 4.38819 14.3134 3.67125C13.2419 2.69751 12.0029 2.39983 10.6378 2.8884C9.29615 3.36788 8.51148 4.36206 8.26927 5.78573C8.12081 6.65721 7.81833 6.88786 6.97115 6.72879C5.47658 6.44701 4.03559 7.03556 3.24533 8.30357C2.41043 9.64544 2.40931 11.0225 3.24421 12.3644C4.03336 13.6347 5.47658 14.2244 6.9678 13.9437C7.81945 13.7835 8.12193 14.0119 8.26927 14.8811C8.51036 16.3048 9.29392 17.3001 10.6345 17.7818C11.9995 18.2727 13.2374 17.975 14.3112 17.0024C15.1059 16.2832 15.2789 16.2832 16.0669 16.999C17.1384 17.9727 18.3763 18.2715 19.7425 17.7818C21.0842 17.3012 21.8677 16.307 22.111 14.8834C22.2606 14.0108 22.5597 13.7812 23.4092 13.9414C25.6951 14.3721 27.7388 12.67 27.7411 10.3363L27.7388 10.3374Z" fill="#3C3C3C"/>
<path d="M6.40786 26.8285C6.4164 26.6311 6.43241 26.4336 6.43348 26.2362C6.43562 24.9698 6.42921 23.7034 6.43775 22.437C6.44202 21.8072 6.74203 21.4327 7.21393 21.4179C7.70611 21.4021 8.03281 21.7913 8.03602 22.4449C8.04456 23.8985 8.03922 25.3522 8.03922 26.9953C8.3499 26.6742 8.54742 26.4563 8.75881 26.2543C9.15811 25.8708 9.62254 25.8606 9.94603 26.218C10.2482 26.5516 10.2482 27.06 9.90226 27.4413C9.22324 28.1891 8.53247 28.9267 7.82783 29.6461C7.4392 30.0433 7.03243 30.0399 6.64381 29.6416C5.93916 28.921 5.24839 28.1834 4.56937 27.4356C4.22559 27.0566 4.22986 26.5448 4.53414 26.2135C4.84803 25.8719 5.30925 25.8594 5.67866 26.2248C5.89325 26.437 6.0566 26.706 6.24344 26.9488C6.29896 26.9091 6.35341 26.8694 6.40893 26.8285H6.40786Z" fill="#3C3C3C"/>
<path d="M13.942 26.8305C13.9505 26.633 13.9676 26.4367 13.9676 26.2392C13.9698 24.9726 13.9633 23.706 13.9719 22.4395C13.9762 21.8084 14.2742 21.435 14.7462 21.418C15.2386 21.401 15.5665 21.7903 15.5708 22.4429C15.5804 23.8967 15.574 25.3505 15.574 26.9939C15.8709 26.6875 16.0589 26.4877 16.2533 26.2959C16.6773 25.876 17.143 25.8476 17.4795 26.2176C17.7935 26.5638 17.7764 27.0756 17.4026 27.4842C16.7446 28.2026 16.0792 28.9131 15.402 29.6088C14.9684 30.0548 14.5711 30.0525 14.1385 29.6065C13.4613 28.9085 12.7959 28.1992 12.138 27.4808C11.7642 27.0734 11.7481 26.5615 12.0643 26.2154C12.389 25.8601 12.8568 25.8658 13.2499 26.2608C13.4496 26.4628 13.6098 26.709 13.7871 26.936C13.8384 26.9008 13.8896 26.8657 13.9409 26.8305H13.942Z" fill="#3C3C3C"/>
<path d="M22.3376 26.8098C22.3376 25.5262 22.3376 24.2426 22.3376 22.9579C22.3376 22.7502 22.3301 22.5414 22.3418 22.3337C22.3749 21.764 22.7017 21.4042 23.1609 21.4179C23.6019 21.4303 23.9222 21.7765 23.935 22.3212C23.9553 23.1713 23.9425 24.0225 23.9436 24.8736C23.9436 25.5251 23.9436 26.1754 23.9436 26.8268C24.0066 26.8676 24.0696 26.9085 24.1326 26.9494C24.3195 26.7065 24.4839 26.4398 24.6975 26.2276C25.067 25.861 25.5261 25.8712 25.8422 26.2117C26.1476 26.5408 26.1551 27.0549 25.8112 27.4351C25.1332 28.1841 24.4423 28.9207 23.7364 29.6413C23.3317 30.0545 22.927 30.0397 22.5127 29.6118C21.8357 28.915 21.1704 28.2046 20.5126 27.4873C20.1378 27.0787 20.1164 26.5703 20.4283 26.2219C20.7614 25.8496 21.2409 25.8633 21.6488 26.2968C21.8325 26.492 21.9563 26.7485 22.108 26.9777L22.3354 26.8098H22.3376Z" fill="#3C3C3C"/>
<path d="M15.2021 12.8926C13.8086 12.9008 12.6787 11.7541 12.6787 10.3337C12.6787 8.91233 13.8096 7.76866 15.2042 7.77789C16.5836 7.78711 17.6843 8.90413 17.7004 10.3101C17.7165 11.7295 16.5987 12.8844 15.2021 12.8916V12.8926ZM16.6902 10.3235C16.6842 9.47186 16.0151 8.80063 15.179 8.80677C14.3429 8.81292 13.6829 9.49441 13.6899 10.346C13.6959 11.1966 14.366 11.8699 15.2011 11.8637C16.0372 11.8576 16.6963 11.1761 16.6902 10.3245V10.3235Z" fill="#3C3C3C"/>
<path d="M10.1116 12.8926C9.10031 12.8926 8.18731 12.2443 7.82073 11.2681C7.45022 10.2817 7.72049 9.11803 8.48214 8.41842C9.23397 7.72803 10.3573 7.57746 11.232 8.05582C11.4993 8.20229 11.7607 8.36823 11.6772 8.7544C11.5956 9.13033 11.2703 9.21432 10.8113 8.9859C10.2826 8.72265 9.76172 8.73084 9.27525 9.07911C8.80548 9.41509 8.60008 9.90061 8.65708 10.4927C8.71408 11.0868 9.01481 11.5149 9.54256 11.7382C10.0467 11.9513 10.5332 11.9298 10.9479 11.5006C11.1769 11.264 11.4403 11.1994 11.6831 11.4514C11.9494 11.728 11.8462 12.0056 11.6172 12.2586C11.2624 12.6509 10.6934 12.8937 10.1126 12.8926H10.1116Z" fill="#3C3C3C"/>
<path d="M20.7016 11.7972C20.9692 11.8208 21.251 11.78 21.4203 11.8754C21.6349 11.9965 21.8741 12.2237 21.8844 12.4134C21.8922 12.5623 21.5806 12.8452 21.3893 12.8581C20.6655 12.9063 19.9287 12.9042 19.2048 12.8517C18.6839 12.8142 18.5313 12.3576 18.8752 11.9408C19.25 11.4854 19.6598 11.0503 20.0476 10.6013C20.1717 10.4577 20.3165 10.3087 20.3694 10.1448C20.4069 10.0269 20.3087 9.87793 20.2712 9.74291C20.1303 9.79328 19.9132 9.81149 19.8627 9.89829C19.6378 10.2841 19.3069 10.4909 18.8455 10.2369C18.3478 9.96473 18.5443 9.58002 18.7912 9.24675C19.2113 8.68094 20.0967 8.47412 20.827 8.75488C21.5677 9.03993 21.9671 9.72148 21.6608 10.3516C21.4242 10.8381 21.0507 11.2796 20.7004 11.7972H20.7016Z" fill="#3C3C3C"/>
</svg>
