<svg width="16" height="16" viewBox="0 0 16 16" fill="none" xmlns="http://www.w3.org/2000/svg">
<path d="M8.51868 3.43606C9.1409 2.63134 9.66472 2.53689 10.4572 3.05508C10.515 3.09273 10.6281 3.09656 10.6858 3.06018C11.2886 2.68303 11.8896 2.3014 12.4794 1.90064C12.5531 1.85086 12.5979 1.67664 12.5867 1.56815C12.5295 1.00529 12.7098 0.558574 13.1347 0.247149C13.5724 -0.0738485 14.0432 -0.0815064 14.4928 0.220346C14.9318 0.515178 15.1304 0.965723 15.0797 1.52093C14.9995 2.40543 14.1493 2.96765 13.3857 2.63389C13.206 2.55539 13.0846 2.5739 12.9302 2.67537C12.3274 3.07422 11.7199 3.4635 11.1107 3.84959C10.9752 3.93575 10.9044 4.02317 10.8885 4.21335C10.8337 4.8764 10.4012 5.34609 9.79788 5.44437C9.23812 5.53563 8.71548 5.18783 8.46447 4.5771C8.42145 4.47244 8.33661 4.36268 8.24469 4.31163C7.67019 3.98999 7.09099 3.67665 6.5053 3.38054C6.41456 3.33459 6.25724 3.34544 6.17239 3.40288C5.80412 3.65049 5.4282 3.69388 5.01574 3.5637C4.91675 3.53243 4.7665 3.56114 4.68283 3.62687C3.99167 4.16931 3.31406 4.73218 2.62349 5.27526C2.48031 5.38821 2.45497 5.49351 2.4862 5.67156C2.59403 6.29696 2.31238 6.87897 1.79269 7.14253C1.27594 7.40481 0.6655 7.25931 0.297235 6.78579C-0.0698517 6.31355 -0.0963668 5.63263 0.233599 5.12912C0.56651 4.6205 1.14041 4.43671 1.69782 4.63326C1.80447 4.67091 1.97122 4.65879 2.05843 4.59114C2.75135 4.05125 3.43485 3.49733 4.11069 2.93255C4.18611 2.86937 4.24327 2.70345 4.22618 2.6007C4.0883 1.77747 4.54083 1.04039 5.26675 0.936368C6.02626 0.82788 6.66557 1.39457 6.70622 2.23503C6.71447 2.40862 6.75808 2.49732 6.90185 2.57199C7.44158 2.85023 7.97482 3.14314 8.52103 3.4367L8.51868 3.43606Z" fill="#4F566B"/>
<path d="M15.0884 10.4712C15.0884 11.9166 15.0884 13.362 15.0884 14.8081C15.0884 15.2982 14.9605 15.4393 14.5186 15.4405C14.0378 15.4418 13.557 15.4444 13.0762 15.4399C12.7244 15.4367 12.5706 15.2804 12.57 14.8956C12.5665 11.93 12.5665 8.96444 12.57 5.99889C12.57 5.61982 12.7256 5.46729 13.0838 5.4641C13.5747 5.459 14.0655 5.45964 14.5557 5.4641C14.9481 5.46729 15.0872 5.61726 15.0878 6.03973C15.0896 7.51708 15.0884 8.99444 15.0884 10.4724V10.4712Z" fill="#4F566B"/>
<path d="M4.18809 10.8973C4.18809 9.59992 4.1875 8.30316 4.18809 7.00577C4.18809 6.50545 4.31713 6.36888 4.78497 6.36825C5.25635 6.36761 5.72714 6.36506 6.19852 6.36888C6.55206 6.37208 6.70879 6.52906 6.70879 6.90813C6.71232 9.57694 6.71232 12.2451 6.70879 14.9139C6.70879 15.2745 6.54911 15.4353 6.21502 15.4385C5.75366 15.4436 5.29229 15.4404 4.83093 15.4398C4.30063 15.4398 4.18809 15.3204 4.1875 14.7563C4.1875 13.4698 4.1875 12.1832 4.1875 10.8967L4.18809 10.8973Z" fill="#4F566B"/>
<path d="M10.9007 11.8252C10.9007 12.8252 10.9019 13.8246 10.9007 14.8246C10.9002 15.2911 10.7652 15.4385 10.3422 15.4398C9.86077 15.4417 9.37996 15.443 8.89856 15.4398C8.54149 15.4372 8.38064 15.2822 8.38005 14.9095C8.37592 12.8463 8.37592 10.7831 8.38005 8.7199C8.38064 8.34721 8.54032 8.1832 8.89444 8.17746C9.38526 8.1698 9.87668 8.17107 10.3675 8.17746C10.7534 8.18192 10.899 8.34402 10.9002 8.76329C10.9031 9.78436 10.9007 10.8054 10.9013 11.8265L10.9007 11.8252Z" fill="#4F566B"/>
<path d="M0.000892552 12.7007C0.000892552 11.9879 -0.00146434 11.2757 0.00148178 10.5629C0.00324945 10.1602 0.145842 10.0051 0.517642 10.0019C1.01848 9.99748 1.51932 9.99684 2.02016 10.0019C2.35956 10.0058 2.51688 10.1589 2.51806 10.5221C2.52454 11.9898 2.52454 13.4576 2.51806 14.9254C2.51629 15.2751 2.35956 15.4347 2.04373 15.4385C1.52345 15.4449 1.00257 15.4442 0.482288 15.4385C0.153501 15.4347 0.00442789 15.2687 0.00266022 14.9024C-0.00146434 14.1685 0.00148178 13.4346 0.00148178 12.7007H0.000892552Z" fill="#4F566B"/>
</svg>
