<svg width="31" height="30" viewBox="0 0 31 30" fill="none" xmlns="http://www.w3.org/2000/svg">
<path d="M0.710193 9.79168C0.646968 6.73868 3.07251 4.15609 6.06248 4.13257C6.49586 4.12905 6.68093 4.00556 6.83727 3.58924C8.09717 0.232824 11.9964 -1.04318 14.9174 0.944329C15.2623 1.17954 15.4715 1.17248 15.8118 0.941976C18.7408 -1.042 22.6297 0.234 23.8908 3.59395C24.0483 4.01497 24.2391 4.12905 24.6679 4.13257C27.6349 4.15727 30.0409 6.69516 30.0167 9.7364C29.9937 12.7694 27.6107 15.2544 24.6644 15.2791C24.2322 15.2826 24.046 15.4037 23.8896 15.8212C22.632 19.1777 18.7362 20.4525 15.8095 18.4673C15.4658 18.2333 15.2554 18.238 14.9151 18.4697C11.993 20.4548 8.09832 19.1765 6.83382 15.8189C6.69128 15.4414 6.54759 15.2814 6.11651 15.2791C3.14378 15.265 0.773418 12.84 0.710193 9.79168ZM28.2878 9.70818C28.2889 7.29259 26.1807 5.525 23.831 5.9719C22.9551 6.1389 22.6424 5.90134 22.4906 5.00167C22.2412 3.52809 21.4365 2.49788 20.0548 1.99924C18.6489 1.49236 17.3729 1.79696 16.2693 2.806C15.4543 3.54926 15.2738 3.55043 14.4611 2.80835C13.3575 1.80049 12.0815 1.49236 10.6756 1.99806C9.29385 2.49435 8.48572 3.52338 8.23627 4.99696C8.08338 5.89899 7.77185 6.13772 6.89935 5.97308C5.36011 5.68142 3.87604 6.29061 3.06216 7.60307C2.2023 8.99197 2.20115 10.4173 3.06101 11.8062C3.87374 13.121 5.36011 13.7314 6.8959 13.4409C7.773 13.2751 8.08453 13.5115 8.23627 14.4112C8.48457 15.8847 9.29155 16.915 10.6722 17.4136C12.0781 17.9216 13.3529 17.6135 14.4588 16.6068C15.2772 15.8624 15.4554 15.8624 16.267 16.6033C17.3706 17.6112 18.6454 17.9205 20.0525 17.4136C21.4342 16.9161 22.2412 15.8871 22.4918 14.4135C22.6458 13.5103 22.9539 13.2728 23.8287 13.4386C26.183 13.8843 28.2878 12.1226 28.2901 9.707L28.2878 9.70818Z" fill="#3C3C3C"/>
<path d="M6.31899 26.7775C6.32779 26.5731 6.34429 26.3687 6.34538 26.1644C6.34758 24.8536 6.34099 23.5428 6.34978 22.232C6.35418 21.5801 6.66316 21.1925 7.14916 21.1772C7.65606 21.1608 7.99252 21.5637 7.99582 22.2402C8.00462 23.7448 7.99912 25.2494 7.99912 26.9501C8.31909 26.6177 8.52251 26.3922 8.74022 26.1832C9.15146 25.7862 9.62977 25.7756 9.96293 26.1456C10.2741 26.4909 10.2741 27.0171 9.91785 27.4117C9.21853 28.1858 8.50712 28.9492 7.78141 29.6939C7.38117 30.105 6.96224 30.1014 6.562 29.6892C5.83629 28.9433 5.12487 28.1799 4.42556 27.4059C4.0715 27.0136 4.0759 26.4838 4.38927 26.1409C4.71254 25.7873 5.18755 25.7744 5.568 26.1526C5.78901 26.3723 5.95724 26.6506 6.14966 26.902C6.20684 26.8609 6.26292 26.8198 6.32009 26.7775H6.31899Z" fill="#3C3C3C"/>
<path d="M14.0785 26.7795C14.0873 26.5751 14.1049 26.3719 14.1049 26.1675C14.1071 24.8565 14.1005 23.5455 14.1093 22.2346C14.1137 21.5814 14.4206 21.1949 14.9068 21.1773C15.4139 21.1597 15.7516 21.5626 15.756 22.2381C15.7659 23.7429 15.7593 25.2477 15.7593 26.9487C16.0651 26.6315 16.2587 26.4248 16.4589 26.2262C16.8956 25.7916 17.3752 25.7622 17.7217 26.1452C18.0451 26.5035 18.0275 27.0333 17.6425 27.4562C16.9649 28.1997 16.2796 28.9351 15.5822 29.6552C15.1356 30.1169 14.7264 30.1145 14.2809 29.6529C13.5835 28.9304 12.8982 28.1962 12.2206 27.4526C11.8356 27.0309 11.8191 26.5011 12.1447 26.1428C12.4791 25.7751 12.9609 25.781 13.3657 26.1898C13.5714 26.3989 13.7364 26.6538 13.919 26.8888C13.9718 26.8523 14.0246 26.8159 14.0774 26.7795H14.0785Z" fill="#3C3C3C"/>
<path d="M22.7248 26.7581C22.7248 25.4295 22.7248 24.1009 22.7248 22.7712C22.7248 22.5562 22.7171 22.3401 22.7292 22.1251C22.7633 21.5354 23.0999 21.163 23.5728 21.1771C24.027 21.1901 24.3569 21.5483 24.3701 22.1122C24.391 22.992 24.3778 23.873 24.3789 24.7541C24.3789 25.4283 24.3789 26.1014 24.3789 26.7757C24.4438 26.818 24.5087 26.8603 24.5735 26.9026C24.766 26.6512 24.9354 26.3751 25.1553 26.1555C25.5358 25.776 26.0087 25.7866 26.3343 26.139C26.6488 26.4797 26.6565 27.0118 26.3024 27.4053C25.604 28.1806 24.8925 28.943 24.1655 29.6889C23.7487 30.1165 23.3319 30.1012 22.9052 29.6584C22.208 28.9371 21.5228 28.2018 20.8453 27.4594C20.4593 27.0365 20.4373 26.5102 20.7585 26.1496C21.1016 25.7643 21.5954 25.7784 22.0155 26.2271C22.2047 26.4292 22.3322 26.6946 22.4884 26.9319L22.7226 26.7581H22.7248Z" fill="#3C3C3C"/>
<path d="M15.376 12.3527C13.9408 12.3612 12.7771 11.1742 12.7771 9.70407C12.7771 8.23286 13.9418 7.0491 15.378 7.05865C16.7987 7.0682 17.9323 8.22437 17.9489 9.67967C17.9655 11.1488 16.8142 12.3442 15.376 12.3516V12.3527ZM16.9085 9.69346C16.9023 8.81201 16.2132 8.11724 15.3521 8.12361C14.491 8.12997 13.8113 8.83534 13.8185 9.7168C13.8247 10.5972 14.5149 11.2941 15.3749 11.2877C16.236 11.2813 16.9148 10.576 16.9085 9.69452V9.69346Z" fill="#3C3C3C"/>
<path d="M10.1335 12.3527C9.09196 12.3527 8.15167 11.6816 7.77414 10.6712C7.39255 9.65019 7.6709 8.44578 8.45532 7.72164C9.22962 7.00705 10.3865 6.8512 11.2873 7.34632C11.5626 7.49794 11.8319 7.66969 11.7458 8.0694C11.6618 8.4585 11.3268 8.54544 10.8541 8.30901C10.3096 8.03653 9.77314 8.04501 9.27213 8.40549C8.78832 8.75324 8.57678 9.25579 8.63548 9.8686C8.69419 10.4835 9.00391 10.9267 9.54743 11.1578C10.0667 11.3784 10.5677 11.3561 10.9948 10.9119C11.2306 10.6669 11.5019 10.6002 11.7519 10.861C12.0262 11.1472 11.9199 11.4346 11.6841 11.6964C11.3187 12.1025 10.7327 12.3538 10.1345 12.3527H10.1335Z" fill="#3C3C3C"/>
<path d="M21.0403 11.2192C21.3159 11.2436 21.6061 11.2015 21.7805 11.3002C22.0015 11.4255 22.2477 11.6607 22.2584 11.857C22.2664 12.0112 21.9455 12.304 21.7485 12.3173C21.003 12.3672 20.2442 12.365 19.4987 12.3107C18.9622 12.2719 18.8051 11.7993 19.1592 11.3679C19.5453 10.8965 19.9673 10.4461 20.3667 9.9814C20.4945 9.83277 20.6436 9.67859 20.6982 9.50889C20.7368 9.38688 20.6356 9.2327 20.597 9.09295C20.4519 9.14508 20.2282 9.16393 20.1763 9.25378C19.9447 9.65308 19.6039 9.86715 19.1286 9.60428C18.6161 9.32255 18.8184 8.92435 19.0727 8.57939C19.5054 7.99375 20.4173 7.77968 21.1694 8.07028C21.9322 8.36532 22.3436 9.07076 22.0281 9.72296C21.7845 10.2265 21.3997 10.6835 21.039 11.2192H21.0403Z" fill="#3C3C3C"/>
</svg>
