<svg width="31" height="30" viewBox="0 0 31 30" fill="none" xmlns="http://www.w3.org/2000/svg">
<path d="M0.743396 9.79168C0.680171 6.73868 3.10571 4.15609 6.09568 4.13257C6.52906 4.12905 6.71414 4.00556 6.87048 3.58924C8.13038 0.232824 12.0296 -1.04318 14.9506 0.944329C15.2955 1.17954 15.5047 1.17248 15.845 0.941976C18.774 -1.042 22.6629 0.234 23.924 3.59395C24.0815 4.01497 24.2723 4.12905 24.7011 4.13257C27.6681 4.15727 30.0741 6.69516 30.0499 9.7364C30.0269 12.7694 27.6439 15.2544 24.6976 15.2791C24.2654 15.2826 24.0792 15.4037 23.9228 15.8212C22.6652 19.1777 18.7694 20.4525 15.8427 18.4673C15.499 18.2333 15.2886 18.238 14.9483 18.4697C12.0262 20.4548 8.13153 19.1765 6.86703 15.8189C6.72448 15.4414 6.58079 15.2814 6.14971 15.2791C3.17698 15.265 0.806621 12.84 0.743396 9.79168ZM28.321 9.70818C28.3222 7.29259 26.2139 5.525 23.8642 5.9719C22.9883 6.1389 22.6756 5.90134 22.5238 5.00167C22.2744 3.52809 21.4697 2.49788 20.088 1.99924C18.6821 1.49236 17.4061 1.79696 16.3025 2.806C15.4875 3.54926 15.307 3.55043 14.4943 2.80835C13.3907 1.80049 12.1147 1.49236 10.7088 1.99806C9.32705 2.49435 8.51892 3.52338 8.26947 4.99696C8.11658 5.89899 7.80506 6.13772 6.93255 5.97308C5.39331 5.68142 3.90925 6.29061 3.09537 7.60307C2.23551 8.99197 2.23436 10.4173 3.09422 11.8062C3.90695 13.121 5.39331 13.7314 6.9291 13.4409C7.80621 13.2751 8.11773 13.5115 8.26947 14.4112C8.51777 15.8847 9.32476 16.915 10.7054 17.4136C12.1113 17.9216 13.3861 17.6135 14.492 16.6068C15.3104 15.8624 15.4886 15.8624 16.3002 16.6033C17.4038 17.6112 18.6786 17.9205 20.0857 17.4136C21.4674 16.9161 22.2744 15.8871 22.525 14.4135C22.679 13.5103 22.9871 13.2728 23.8619 13.4386C26.2162 13.8843 28.321 12.1226 28.3233 9.707L28.321 9.70818Z" fill="#3C3C3C"/>
<path d="M6.35244 26.7775C6.36124 26.5731 6.37773 26.3687 6.37883 26.1644C6.38103 24.8536 6.37443 23.5428 6.38323 22.232C6.38763 21.5801 6.6966 21.1925 7.18261 21.1772C7.68951 21.1608 8.02597 21.5637 8.02927 22.2402C8.03807 23.7448 8.03257 25.2494 8.03257 26.9501C8.35254 26.6177 8.55596 26.3922 8.77367 26.1832C9.18491 25.7862 9.66321 25.7756 9.99638 26.1456C10.3076 26.4909 10.3076 27.0171 9.9513 27.4117C9.25198 28.1858 8.54056 28.9492 7.81486 29.6939C7.41462 30.105 6.99568 30.1014 6.59544 29.6892C5.86974 28.9433 5.15832 28.1799 4.459 27.4059C4.10494 27.0136 4.10934 26.4838 4.42272 26.1409C4.74599 25.7873 5.221 25.7744 5.60144 26.1526C5.82246 26.3723 5.99069 26.6506 6.18311 26.902C6.24029 26.8609 6.29637 26.8198 6.35354 26.7775H6.35244Z" fill="#3C3C3C"/>
<path d="M14.1117 26.7795C14.1205 26.5751 14.1381 26.3719 14.1381 26.1675C14.1403 24.8565 14.1337 23.5455 14.1425 22.2346C14.1469 21.5814 14.4538 21.1949 14.94 21.1773C15.4471 21.1597 15.7848 21.5626 15.7892 22.2381C15.7991 23.7429 15.7925 25.2477 15.7925 26.9487C16.0983 26.6315 16.2919 26.4248 16.4921 26.2262C16.9288 25.7916 17.4084 25.7622 17.7549 26.1452C18.0783 26.5035 18.0607 27.0333 17.6757 27.4562C16.9981 28.1997 16.3128 28.9351 15.6154 29.6552C15.1688 30.1169 14.7596 30.1145 14.3141 29.6529C13.6167 28.9304 12.9314 28.1962 12.2538 27.4526C11.8688 27.0309 11.8523 26.5011 12.1779 26.1428C12.5123 25.7751 12.9941 25.781 13.3989 26.1898C13.6046 26.3989 13.7696 26.6538 13.9522 26.8888C14.005 26.8523 14.0578 26.8159 14.1106 26.7795H14.1117Z" fill="#3C3C3C"/>
<path d="M22.758 26.7581C22.758 25.4295 22.758 24.1009 22.758 22.7712C22.758 22.5562 22.7503 22.3401 22.7624 22.1251C22.7965 21.5354 23.1331 21.163 23.606 21.1771C24.0602 21.1901 24.3901 21.5483 24.4033 22.1122C24.4242 22.992 24.411 23.873 24.4121 24.7541C24.4121 25.4283 24.4121 26.1014 24.4121 26.7757C24.477 26.818 24.5419 26.8603 24.6067 26.9026C24.7992 26.6512 24.9686 26.3751 25.1885 26.1555C25.569 25.776 26.0419 25.7866 26.3675 26.139C26.682 26.4797 26.6897 27.0118 26.3356 27.4053C25.6372 28.1806 24.9257 28.943 24.1987 29.6889C23.7819 30.1165 23.3651 30.1012 22.9384 29.6584C22.2412 28.9371 21.556 28.2018 20.8786 27.4594C20.4925 27.0365 20.4705 26.5102 20.7917 26.1496C21.1348 25.7643 21.6286 25.7784 22.0487 26.2271C22.2379 26.4292 22.3654 26.6946 22.5216 26.9319L22.7558 26.7581H22.758Z" fill="#3C3C3C"/>
<path d="M15.4089 12.3527C13.9737 12.3612 12.8101 11.1742 12.8101 9.70407C12.8101 8.23286 13.9748 7.0491 15.411 7.05865C16.8317 7.0682 17.9653 8.22437 17.9819 9.67967C17.9984 11.1488 16.8472 12.3442 15.4089 12.3516V12.3527ZM16.9415 9.69346C16.9353 8.81201 16.2462 8.11724 15.3851 8.12361C14.524 8.12997 13.8442 8.83534 13.8515 9.7168C13.8577 10.5972 14.5478 11.2941 15.4079 11.2877C16.269 11.2813 16.9477 10.576 16.9415 9.69452V9.69346Z" fill="#3C3C3C"/>
<path d="M10.1669 12.3527C9.12541 12.3527 8.18512 11.6816 7.80758 10.6712C7.426 9.65019 7.70434 8.44578 8.48876 7.72164C9.26306 7.00705 10.42 6.8512 11.3208 7.34632C11.5961 7.49794 11.8653 7.66969 11.7793 8.0694C11.6953 8.4585 11.3603 8.54544 10.8876 8.30901C10.343 8.03653 9.80659 8.04501 9.30557 8.40549C8.82176 8.75324 8.61022 9.25579 8.66893 9.8686C8.72763 10.4835 9.03735 10.9267 9.58088 11.1578C10.1001 11.3784 10.6011 11.3561 11.0283 10.9119C11.2641 10.6669 11.5354 10.6002 11.7854 10.861C12.0597 11.1472 11.9534 11.4346 11.7175 11.6964C11.3522 12.1025 10.7661 12.3538 10.1679 12.3527H10.1669Z" fill="#3C3C3C"/>
<path d="M21.0735 11.2192C21.3491 11.2436 21.6393 11.2015 21.8137 11.3002C22.0347 11.4255 22.2809 11.6607 22.2916 11.857C22.2996 12.0112 21.9787 12.304 21.7817 12.3173C21.0362 12.3672 20.2774 12.365 19.5319 12.3107C18.9954 12.2719 18.8383 11.7993 19.1924 11.3679C19.5785 10.8965 20.0005 10.4461 20.3999 9.9814C20.5277 9.83277 20.6768 9.67859 20.7314 9.50889C20.77 9.38688 20.6688 9.2327 20.6302 9.09295C20.4851 9.14508 20.2614 9.16393 20.2095 9.25378C19.9779 9.65308 19.6371 9.86715 19.1618 9.60428C18.6493 9.32255 18.8516 8.92435 19.1059 8.57939C19.5386 7.99375 20.4505 7.77968 21.2026 8.07028C21.9654 8.36532 22.3768 9.07076 22.0613 9.72296C21.8177 10.2265 21.4329 10.6835 21.0722 11.2192H21.0735Z" fill="#3C3C3C"/>
</svg>
