<svg width="18" height="19" viewBox="0 0 18 19" fill="none" xmlns="http://www.w3.org/2000/svg">
<g clip-path="url(#clip0_690_80)">
<path d="M9.74346 17.8425C9.08798 17.8425 8.47075 17.8425 7.85352 17.8425C5.60483 17.8425 3.35511 17.8383 1.10641 17.85C0.771435 17.8521 0.348577 17.5457 0.349611 17.0791C0.351679 16.549 0.349611 16.0189 0.349611 15.4887C0.349611 13.2749 0.349611 11.061 0.349611 8.84822C0.349611 6.329 0.349611 3.81085 0.350645 1.2927C0.350645 0.836779 0.653572 0.511274 1.09711 0.508093C1.86528 0.502792 2.63346 0.508093 3.40163 0.508093C6.15693 0.508093 8.91222 0.507033 11.6675 0.512335C11.8205 0.512335 11.987 0.544143 12.1235 0.612C12.3985 0.748776 12.4967 1.01066 12.4977 1.31496C12.4988 1.91614 12.4977 2.51625 12.4977 3.11743C12.4977 4.52654 12.4967 5.9367 12.5008 7.34581C12.5008 7.4688 12.4667 7.50909 12.3478 7.52499C11.6551 7.62042 10.9665 7.74341 10.3204 8.03286C10.1095 8.12723 9.90992 8.2534 9.71968 8.38806C9.42089 8.59905 9.30096 8.90547 9.30303 9.27763C9.3082 10.4927 9.30406 11.7078 9.30406 12.9229C9.30406 14.2524 9.30716 15.5831 9.30199 16.9127C9.30096 17.2223 9.38781 17.4842 9.61112 17.6941C9.65041 17.7312 9.68453 17.7757 9.74243 17.8415L9.74346 17.8425ZM6.4247 7.03091C7.84112 7.03091 9.2565 7.03091 10.6729 7.03091C10.7246 7.03091 10.7763 7.03303 10.827 7.02666C11.0172 7.0044 11.1278 6.88565 11.1392 6.68632C11.1475 6.54106 11.1578 6.39474 11.1568 6.24948C11.1526 5.03017 11.1485 3.81191 11.1413 2.59259C11.1392 2.27875 11.0027 2.14622 10.6957 2.14622C8.96185 2.14622 7.22906 2.14622 5.49524 2.14622C4.37968 2.14622 3.26412 2.14622 2.14857 2.14622C1.86838 2.14622 1.73398 2.27345 1.73295 2.56291C1.72881 3.92324 1.72881 5.28357 1.72881 6.6439C1.72881 6.70434 1.74018 6.76796 1.75983 6.82415C1.82806 7.01288 1.98418 7.03091 2.15063 7.03091C3.57532 7.03091 5.00001 7.03091 6.4247 7.03091ZM3.12041 10.3379C3.12041 10.3379 3.12041 10.3284 3.12041 10.3241C3.4161 10.3241 3.71179 10.3358 4.00645 10.3199C4.21116 10.3082 4.35073 10.129 4.3497 9.92758C4.3497 9.71446 4.22357 9.5639 4.01265 9.52891C3.94959 9.51831 3.88445 9.51937 3.82035 9.51937C3.41817 9.51937 3.01496 9.51937 2.61278 9.52255C2.49285 9.52255 2.37188 9.51937 2.25402 9.5374C1.95626 9.58405 1.83116 9.91061 2.01003 10.1566C2.09894 10.2785 2.21473 10.339 2.36258 10.3379C2.61485 10.3368 2.86815 10.3379 3.12041 10.3379ZM6.40816 9.52255C6.40816 9.52255 6.40816 9.53103 6.40816 9.53527C6.1042 9.53527 5.7992 9.51937 5.49627 9.54058C5.28226 9.55542 5.14475 9.88729 5.25228 10.0792C5.34636 10.2488 5.47766 10.3453 5.67927 10.3411C6.05664 10.3326 6.43401 10.339 6.81137 10.3358C6.97369 10.3347 7.13808 10.3358 7.29936 10.3188C7.51234 10.2955 7.64985 10.1142 7.63641 9.89577C7.62297 9.66675 7.48029 9.53209 7.21975 9.52361C6.94991 9.51513 6.68007 9.52149 6.40919 9.52149L6.40816 9.52255ZM3.15246 15.6244C3.15246 15.6244 3.15246 15.6244 3.15246 15.6234C3.42644 15.6234 3.70042 15.6297 3.9744 15.6213C4.20289 15.6149 4.35694 15.4633 4.36004 15.2618C4.36417 15.0328 4.20392 14.8313 3.9806 14.8271C3.41921 14.8165 2.85781 14.8186 2.29744 14.8271C2.11548 14.8303 2.00899 14.9671 1.93869 15.1272C1.87459 15.2735 1.93042 15.406 2.03277 15.4972C2.10721 15.5629 2.21887 15.6138 2.31709 15.6191C2.59417 15.635 2.87332 15.6244 3.15246 15.6244ZM3.15246 12.9812C3.15246 12.9812 3.15246 12.9737 3.15246 12.9706C3.42644 12.9706 3.70042 12.9737 3.97543 12.9695C4.21323 12.9653 4.35694 12.803 4.3466 12.5624C4.33729 12.3323 4.17808 12.1785 3.92684 12.1732C3.58463 12.1658 3.24138 12.1679 2.89813 12.1679C2.70583 12.1679 2.51249 12.169 2.32019 12.1754C2.12375 12.1817 2.00899 12.3047 1.93765 12.4786C1.87355 12.6334 1.95109 12.7532 2.04104 12.8624C2.13719 12.979 2.27263 12.9833 2.40704 12.9833C2.65517 12.9833 2.90433 12.9833 3.15246 12.9833V12.9812ZM6.4216 15.6223C6.70488 15.6223 6.98817 15.6308 7.27042 15.6202C7.51545 15.6107 7.64055 15.4633 7.63641 15.2205C7.63331 14.984 7.45858 14.8176 7.20114 14.8176C6.69868 14.8154 6.19725 14.8197 5.69478 14.8229C5.63998 14.8229 5.58312 14.8292 5.52936 14.843C5.24401 14.9141 5.13338 15.2279 5.29984 15.4739C5.37118 15.5799 5.46939 15.6213 5.58519 15.6223C5.86434 15.6255 6.14245 15.6223 6.4216 15.6223ZM6.42057 12.9695C6.69041 12.9695 6.96128 12.9716 7.23113 12.9695C7.48339 12.9663 7.63227 12.8253 7.63641 12.592C7.64055 12.3503 7.4927 12.1775 7.24974 12.1743C6.70075 12.1669 6.15176 12.1679 5.60276 12.1743C5.39495 12.1764 5.20782 12.3853 5.20989 12.5857C5.21299 12.7967 5.39599 12.9695 5.62137 12.9706C5.88708 12.9716 6.15382 12.9706 6.41953 12.9706L6.42057 12.9695Z" fill="#b1000e"/>
<path d="M13.8951 10.3189C13.1662 10.3242 12.4477 10.2256 11.7353 10.0856C11.2349 9.987 10.7438 9.8428 10.2951 9.58091C10.1886 9.51836 10.0883 9.43778 10.0015 9.34871C9.89397 9.23739 9.89604 9.15256 10.0036 9.03911C10.0832 8.95429 10.1731 8.87371 10.2713 8.81434C10.7821 8.50792 11.3424 8.34675 11.9214 8.25557C12.2771 8.19938 12.6338 8.1453 12.9925 8.11561C13.7679 8.052 14.5444 8.05942 15.3146 8.18453C15.784 8.26087 16.2565 8.32767 16.7166 8.44324C17.0122 8.51746 17.2935 8.66166 17.5705 8.79843C17.6894 8.85675 17.7866 8.96914 17.8838 9.06668C17.9665 9.14938 17.9644 9.24269 17.8807 9.33387C17.6615 9.57137 17.3855 9.70815 17.0929 9.81524C16.0569 10.1927 14.9765 10.2669 13.893 10.3199L13.8951 10.3189Z" fill="#b1000e"/>
<path d="M17.9573 14.0542C17.9573 14.3638 17.9645 14.6851 17.9521 15.0064C17.949 15.0827 17.8911 15.1707 17.8343 15.229C17.5768 15.4909 17.2481 15.6372 16.912 15.7337C16.4509 15.8663 15.9805 15.9786 15.507 16.0423C14.5 16.1769 13.4889 16.1653 12.4767 16.0624C11.9639 16.0105 11.4718 15.8864 10.9827 15.7422C10.6498 15.6436 10.3303 15.4983 10.0574 15.2651C9.96539 15.1866 9.9199 15.0954 9.923 14.9682C9.9292 14.6597 9.92507 14.3522 9.92507 14.0405C9.94058 14.0405 9.95505 14.0362 9.96436 14.0405C10.3934 14.2917 10.8587 14.4264 11.3363 14.5462C11.8522 14.6756 12.3712 14.7487 12.8975 14.7858C13.6905 14.842 14.4824 14.8166 15.2754 14.7593C15.8885 14.7148 16.4778 14.577 17.0609 14.3999C17.3628 14.3076 17.6513 14.1741 17.9583 14.0542H17.9573Z" fill="#b1000e"/>
<path d="M17.9549 16.0115C17.9549 16.3486 17.9611 16.6657 17.9497 16.9827C17.9476 17.0527 17.897 17.1417 17.8422 17.1831C17.6674 17.3156 17.4907 17.4545 17.2942 17.5446C16.891 17.7302 16.4681 17.8415 16.0287 17.9189C15.153 18.0716 14.2763 18.1532 13.3923 18.1023C12.8888 18.0737 12.3884 17.991 11.8881 17.9242C11.3132 17.8479 10.7704 17.6644 10.2638 17.3739C10.1894 17.3315 10.1232 17.2732 10.0581 17.217C9.96813 17.1396 9.92574 17.0389 9.92678 16.9148C9.93091 16.6243 9.92781 16.3327 9.92781 16.0157C11.2109 16.6317 12.5621 16.7908 13.9413 16.7897C15.3185 16.7897 16.6667 16.6264 17.9559 16.0136L17.9549 16.0115Z" fill="#b1000e"/>
<path d="M9.9274 12.097C9.96565 12.1118 9.99046 12.1193 10.0122 12.1299C10.5167 12.3939 11.0574 12.555 11.6106 12.6526C12.601 12.8265 13.6018 12.9272 14.6067 12.854C15.2808 12.8053 15.957 12.7438 16.6156 12.5688C17.0715 12.4479 17.5264 12.3271 17.9534 12.0652C17.9534 12.4183 17.971 12.7438 17.9472 13.0661C17.9317 13.2675 17.7477 13.3672 17.5936 13.4605C17.1573 13.7266 16.6735 13.8655 16.1803 13.962C15.7978 14.0373 15.4111 14.1083 15.0234 14.1306C14.4082 14.1656 13.7889 14.1921 13.1738 14.1603C12.6155 14.1317 12.0551 14.049 11.5061 13.9366C11.0368 13.8411 10.5829 13.6694 10.1745 13.3969C10.0049 13.2834 9.90982 13.1371 9.9243 12.9123C9.94084 12.6462 9.92843 12.378 9.92843 12.0959L9.9274 12.097Z" fill="#b1000e"/>
<path d="M17.9575 10.144C17.9575 10.4642 17.9626 10.7738 17.9554 11.0823C17.9523 11.2286 17.8406 11.3135 17.7393 11.3951C17.486 11.5997 17.1924 11.7312 16.8874 11.8182C16.1895 12.0175 15.4824 12.168 14.7524 12.1924C13.9626 12.2189 13.1727 12.2264 12.3879 12.1373C11.7046 12.0599 11.0408 11.8839 10.4122 11.587C10.3853 11.5743 10.3595 11.5573 10.3326 11.5435C10.0204 11.393 9.86011 11.164 9.9149 10.7876C9.94489 10.5819 9.92007 10.3688 9.92007 10.162C10.1517 10.2585 10.3646 10.356 10.5838 10.4387C11.2321 10.6815 11.9051 10.8098 12.5896 10.8724C13.579 10.9625 14.5694 10.9551 15.5568 10.8416C15.8959 10.8024 16.2288 10.7091 16.5669 10.6529C17.0539 10.5713 17.4974 10.3666 17.9575 10.145V10.144Z" fill="#b1000e"/>
</g>
<defs>
<clipPath id="clip0_690_80">
<rect width="17.6101" height="17.6101" fill="white" transform="translate(0.349609 0.506042)"/>
</clipPath>
</defs>
</svg>
