<svg width="19" height="19" viewBox="0 0 19 19" fill="none" xmlns="http://www.w3.org/2000/svg">
<g clip-path="url(#clip0_754_155)">
<path d="M10.1702 17.8425C9.51474 17.8425 8.89751 17.8425 8.28028 17.8425C6.03159 17.8425 3.78186 17.8383 1.53317 17.85C1.19819 17.8521 0.775335 17.5457 0.776369 17.0791C0.778437 16.549 0.776369 16.0189 0.776369 15.4887C0.776369 13.2749 0.776369 11.061 0.776369 8.84822C0.776369 6.329 0.776369 3.81085 0.777403 1.2927C0.777403 0.836779 1.08033 0.511274 1.52387 0.508093C2.29204 0.502792 3.06021 0.508093 3.82839 0.508093C6.58368 0.508093 9.33898 0.507033 12.0943 0.512335C12.2473 0.512335 12.4137 0.544143 12.5502 0.612C12.8252 0.748776 12.9234 1.01066 12.9245 1.31496C12.9255 1.91614 12.9245 2.51625 12.9245 3.11743C12.9245 4.52654 12.9234 5.9367 12.9276 7.34581C12.9276 7.4688 12.8935 7.50909 12.7746 7.52499C12.0819 7.62042 11.3933 7.74341 10.7471 8.03286C10.5362 8.12723 10.3367 8.2534 10.1464 8.38806C9.84765 8.59905 9.72772 8.90547 9.72978 9.27763C9.73495 10.4927 9.73082 11.7078 9.73082 12.9229C9.73082 14.2524 9.73392 15.5831 9.72875 16.9127C9.72772 17.2223 9.81456 17.4842 10.0379 17.6941C10.0772 17.7312 10.1113 17.7757 10.1692 17.8415L10.1702 17.8425ZM6.85146 7.03091C8.26788 7.03091 9.68326 7.03091 11.0997 7.03091C11.1514 7.03091 11.2031 7.03303 11.2537 7.02666C11.444 7.0044 11.5546 6.88565 11.566 6.68632C11.5742 6.54106 11.5846 6.39474 11.5835 6.24948C11.5794 5.03017 11.5753 3.81191 11.568 2.59259C11.566 2.27875 11.4295 2.14622 11.1224 2.14622C9.3886 2.14622 7.65582 2.14622 5.922 2.14622C4.80644 2.14622 3.69088 2.14622 2.57532 2.14622C2.29514 2.14622 2.16074 2.27345 2.1597 2.56291C2.15557 3.92324 2.15557 5.28357 2.15557 6.6439C2.15557 6.70434 2.16694 6.76796 2.18658 6.82415C2.25482 7.01288 2.41094 7.03091 2.57739 7.03091C4.00208 7.03091 5.42677 7.03091 6.85146 7.03091ZM3.54717 10.3379C3.54717 10.3379 3.54717 10.3284 3.54717 10.3241C3.84286 10.3241 4.13855 10.3358 4.43321 10.3199C4.63792 10.3082 4.77749 10.129 4.77646 9.92758C4.77646 9.71446 4.65032 9.5639 4.43941 9.52891C4.37635 9.51831 4.31121 9.51937 4.24711 9.51937C3.84493 9.51937 3.44172 9.51937 3.03954 9.52255C2.91961 9.52255 2.79864 9.51937 2.68078 9.5374C2.38302 9.58405 2.25792 9.91061 2.43678 10.1566C2.5257 10.2785 2.64149 10.339 2.78934 10.3379C3.0416 10.3368 3.29491 10.3379 3.54717 10.3379ZM6.83492 9.52255C6.83492 9.52255 6.83492 9.53103 6.83492 9.53527C6.53095 9.53527 6.22596 9.51937 5.92303 9.54058C5.70902 9.55542 5.57151 9.88729 5.67904 10.0792C5.77312 10.2488 5.90442 10.3453 6.10603 10.3411C6.4834 10.3326 6.86076 10.339 7.23813 10.3358C7.40045 10.3347 7.56484 10.3358 7.72612 10.3188C7.9391 10.2955 8.07661 10.1142 8.06317 9.89577C8.04973 9.66675 7.90705 9.53209 7.64651 9.52361C7.37667 9.51513 7.10683 9.52149 6.83595 9.52149L6.83492 9.52255ZM3.57922 15.6244C3.57922 15.6244 3.57922 15.6244 3.57922 15.6234C3.8532 15.6234 4.12718 15.6297 4.40116 15.6213C4.62965 15.6149 4.78369 15.4633 4.7868 15.2618C4.79093 15.0328 4.63068 14.8313 4.40736 14.8271C3.84596 14.8165 3.28457 14.8186 2.7242 14.8271C2.54224 14.8303 2.43575 14.9671 2.36545 15.1272C2.30134 15.2735 2.35717 15.406 2.45953 15.4972C2.53397 15.5629 2.64563 15.6138 2.74385 15.6191C3.02093 15.635 3.30007 15.6244 3.57922 15.6244ZM3.57922 12.9812C3.57922 12.9812 3.57922 12.9737 3.57922 12.9706C3.8532 12.9706 4.12718 12.9737 4.40219 12.9695C4.63999 12.9653 4.78369 12.803 4.77336 12.5624C4.76405 12.3323 4.60483 12.1785 4.3536 12.1732C4.01139 12.1658 3.66814 12.1679 3.32489 12.1679C3.13259 12.1679 2.93925 12.169 2.74695 12.1754C2.55051 12.1817 2.43575 12.3047 2.36441 12.4786C2.30031 12.6334 2.37785 12.7532 2.4678 12.8624C2.56395 12.979 2.69939 12.9833 2.83379 12.9833C3.08193 12.9833 3.33109 12.9833 3.57922 12.9833V12.9812ZM6.84836 15.6223C7.13164 15.6223 7.41492 15.6308 7.69717 15.6202C7.9422 15.6107 8.0673 15.4633 8.06317 15.2205C8.06007 14.984 7.88534 14.8176 7.6279 14.8176C7.12544 14.8154 6.624 14.8197 6.12154 14.8229C6.06674 14.8229 6.00988 14.8292 5.95612 14.843C5.67077 14.9141 5.56014 15.2279 5.7266 15.4739C5.79793 15.5799 5.89615 15.6213 6.01195 15.6223C6.29109 15.6255 6.56921 15.6223 6.84836 15.6223ZM6.84732 12.9695C7.11717 12.9695 7.38804 12.9716 7.65789 12.9695C7.91015 12.9663 8.05903 12.8253 8.06317 12.592C8.0673 12.3503 7.91946 12.1775 7.6765 12.1743C7.1275 12.1669 6.57851 12.1679 6.02952 12.1743C5.82171 12.1764 5.63458 12.3853 5.63665 12.5857C5.63975 12.7967 5.82275 12.9695 6.04813 12.9706C6.31384 12.9716 6.58058 12.9706 6.84629 12.9706L6.84732 12.9695Z" fill="white"/>
<path d="M14.3218 10.3189C13.593 10.3242 12.8744 10.2256 12.1621 10.0856C11.6617 9.987 11.1706 9.8428 10.7219 9.58091C10.6154 9.51836 10.5151 9.43778 10.4282 9.34871C10.3207 9.23739 10.3228 9.15256 10.4303 9.03911C10.5099 8.95429 10.5999 8.87371 10.6981 8.81434C11.2088 8.50792 11.7692 8.34675 12.3482 8.25557C12.7038 8.19938 13.0605 8.1453 13.4193 8.11561C14.1947 8.052 14.9711 8.05942 15.7414 8.18453C16.2107 8.26087 16.6832 8.32767 17.1433 8.44324C17.439 8.51746 17.7202 8.66166 17.9973 8.79843C18.1162 8.85675 18.2134 8.96914 18.3106 9.06668C18.3933 9.14938 18.3912 9.24269 18.3075 9.33387C18.0883 9.57137 17.8122 9.70815 17.5196 9.81524C16.4837 10.1927 15.4033 10.2669 14.3198 10.3199L14.3218 10.3189Z" fill="white"/>
<path d="M18.3841 14.0542C18.3841 14.3638 18.3913 14.6851 18.3789 15.0064C18.3758 15.0827 18.3179 15.1707 18.261 15.229C18.0036 15.4909 17.6748 15.6372 17.3388 15.7337C16.8777 15.8663 16.4073 15.9786 15.9338 16.0423C14.9268 16.1769 13.9156 16.1653 12.9034 16.0624C12.3906 16.0105 11.8985 15.8864 11.4095 15.7422C11.0766 15.6436 10.7571 15.4983 10.4842 15.2651C10.3921 15.1866 10.3467 15.0954 10.3498 14.9682C10.356 14.6597 10.3518 14.3522 10.3518 14.0405C10.3673 14.0405 10.3818 14.0362 10.3911 14.0405C10.8202 14.2917 11.2854 14.4264 11.7631 14.5462C12.279 14.6756 12.798 14.7487 13.3242 14.7858C14.1172 14.842 14.9092 14.8166 15.7022 14.7593C16.3153 14.7148 16.9046 14.577 17.4877 14.3999C17.7896 14.3076 18.078 14.1741 18.3851 14.0542H18.3841Z" fill="white"/>
<path d="M18.3816 16.0115C18.3816 16.3486 18.3878 16.6657 18.3765 16.9827C18.3744 17.0527 18.3237 17.1417 18.2689 17.1831C18.0942 17.3156 17.9174 17.4545 17.721 17.5446C17.3178 17.7302 16.8949 17.8415 16.4555 17.9189C15.5798 18.0716 14.7031 18.1532 13.8191 18.1023C13.3156 18.0737 12.8152 17.991 12.3148 17.9242C11.74 17.8479 11.1972 17.6644 10.6906 17.3739C10.6161 17.3315 10.55 17.2732 10.4848 17.217C10.3949 17.1396 10.3525 17.0389 10.3535 16.9148C10.3577 16.6243 10.3546 16.3327 10.3546 16.0157C11.6376 16.6317 12.9889 16.7908 14.3681 16.7897C15.7452 16.7897 17.0934 16.6264 18.3827 16.0136L18.3816 16.0115Z" fill="white"/>
<path d="M10.3542 12.097C10.3924 12.1118 10.4172 12.1193 10.4389 12.1299C10.9435 12.3939 11.4842 12.555 12.0373 12.6526C13.0278 12.8265 14.0286 12.9272 15.0335 12.854C15.7076 12.8053 16.3838 12.7438 17.0423 12.5688C17.4983 12.4479 17.9532 12.3271 18.3802 12.0652C18.3802 12.4183 18.3978 12.7438 18.374 13.0661C18.3585 13.2675 18.1744 13.3672 18.0204 13.4605C17.5841 13.7266 17.1002 13.8655 16.6071 13.962C16.2245 14.0373 15.8379 14.1083 15.4502 14.1306C14.835 14.1656 14.2157 14.1921 13.6005 14.1603C13.0422 14.1317 12.4819 14.049 11.9329 13.9366C11.4635 13.8411 11.0096 13.6694 10.6013 13.3969C10.4317 13.2834 10.3366 13.1371 10.3511 12.9123C10.3676 12.6462 10.3552 12.378 10.3552 12.0959L10.3542 12.097Z" fill="white"/>
<path d="M18.3842 10.144C18.3842 10.4642 18.3894 10.7738 18.3822 11.0823C18.3791 11.2286 18.2674 11.3135 18.1661 11.3951C17.9128 11.5997 17.6192 11.7312 17.3142 11.8182C16.6163 12.0175 15.9091 12.168 15.1792 12.1924C14.3893 12.2189 13.5994 12.2264 12.8147 12.1373C12.1313 12.0599 11.4676 11.8839 10.839 11.587C10.8121 11.5743 10.7862 11.5573 10.7593 11.5435C10.4471 11.393 10.2869 11.164 10.3417 10.7876C10.3716 10.5819 10.3468 10.3688 10.3468 10.162C10.5784 10.2585 10.7914 10.356 11.0106 10.4387C11.6588 10.6815 12.3319 10.8098 13.0163 10.8724C14.0057 10.9625 14.9962 10.9551 15.9836 10.8416C16.3227 10.8024 16.6556 10.7091 16.9937 10.6529C17.4806 10.5713 17.9241 10.3666 18.3842 10.145V10.144Z" fill="white"/>
</g>
<defs>
<clipPath id="clip0_754_155">
<rect width="17.6101" height="17.6101" fill="white" transform="translate(0.776367 0.506042)"/>
</clipPath>
</defs>
</svg>
