<svg width="15" height="14" viewBox="0 0 15 14" fill="none" xmlns="http://www.w3.org/2000/svg">
<path d="M14.0332 7C14.0332 5.14348 13.2957 3.36301 11.983 2.05025C10.6702 0.737498 8.88972 0 7.0332 0C5.17669 0 3.39621 0.737498 2.08346 2.05025C0.770701 3.36301 0.0332031 5.14348 0.0332031 7C0.0332031 8.85652 0.770701 10.637 2.08346 11.9497C3.39621 13.2625 5.17669 14 7.0332 14C8.88972 14 10.6702 13.2625 11.983 11.9497C13.2957 10.637 14.0332 8.85652 14.0332 7ZM4.71795 9.93475C4.6358 10.0169 4.52438 10.0631 4.4082 10.0631C4.29202 10.0631 4.1806 10.0169 4.09845 9.93475C4.0163 9.8526 3.97015 9.74118 3.97015 9.625C3.97015 9.50882 4.0163 9.3974 4.09845 9.31525L6.41458 7L4.09845 4.68475C4.05778 4.64407 4.02551 4.59578 4.00349 4.54263C3.98148 4.48949 3.97015 4.43253 3.97015 4.375C3.97015 4.31747 3.98148 4.26051 4.00349 4.20737C4.02551 4.15422 4.05778 4.10593 4.09845 4.06525C4.1806 3.9831 4.29202 3.93695 4.4082 3.93695C4.46573 3.93695 4.52269 3.94828 4.57584 3.97029C4.62899 3.99231 4.67728 4.02457 4.71795 4.06525L7.0332 6.38138L9.34845 4.06525C9.38913 4.02457 9.43742 3.99231 9.49057 3.97029C9.54371 3.94828 9.60068 3.93695 9.6582 3.93695C9.71573 3.93695 9.77269 3.94828 9.82584 3.97029C9.87899 3.99231 9.92728 4.02457 9.96795 4.06525C10.0086 4.10593 10.0409 4.15422 10.0629 4.20737C10.0849 4.26051 10.0963 4.31747 10.0963 4.375C10.0963 4.43253 10.0849 4.48949 10.0629 4.54263C10.0409 4.59578 10.0086 4.64407 9.96795 4.68475L7.65183 7L9.96795 9.31525C10.0086 9.35593 10.0409 9.40422 10.0629 9.45736C10.0849 9.51051 10.0963 9.56747 10.0963 9.625C10.0963 9.68253 10.0849 9.73949 10.0629 9.79264C10.0409 9.84578 10.0086 9.89407 9.96795 9.93475C9.92728 9.97543 9.87899 10.0077 9.82584 10.0297C9.77269 10.0517 9.71573 10.0631 9.6582 10.0631C9.60068 10.0631 9.54371 10.0517 9.49057 10.0297C9.43742 10.0077 9.38913 9.97543 9.34845 9.93475L7.0332 7.61862L4.71795 9.93475Z" fill="#555f63"/>
</svg>
