<svg width="13" height="12" viewBox="0 0 13 12" fill="none" xmlns="http://www.w3.org/2000/svg">
<path d="M0.420785 0.549737C0.504968 0.474072 0.604974 0.414039 0.715075 0.373079C0.825175 0.332119 0.943207 0.311035 1.06241 0.311035C1.18161 0.311035 1.29965 0.332119 1.40975 0.373079C1.51985 0.414039 1.61985 0.474072 1.70404 0.549737L6.49991 4.85111L11.2958 0.549737C11.38 0.474194 11.4801 0.41427 11.5902 0.373387C11.7003 0.332503 11.8182 0.311461 11.9374 0.311461C12.0566 0.311461 12.1746 0.332503 12.2847 0.373387C12.3947 0.41427 12.4948 0.474194 12.579 0.549737C12.6633 0.62528 12.7301 0.714962 12.7757 0.813664C12.8213 0.912365 12.8448 1.01815 12.8448 1.12499C12.8448 1.23182 12.8213 1.33761 12.7757 1.43631C12.7301 1.53501 12.6633 1.62469 12.579 1.70024L7.78135 5.99999L12.579 10.2997C12.6633 10.3753 12.7301 10.465 12.7757 10.5637C12.8213 10.6624 12.8448 10.7682 12.8448 10.875C12.8448 10.9818 12.8213 11.0876 12.7757 11.1863C12.7301 11.285 12.6633 11.3747 12.579 11.4502C12.4948 11.5258 12.3947 11.5857 12.2847 11.6266C12.1746 11.6675 12.0566 11.6885 11.9374 11.6885C11.8182 11.6885 11.7003 11.6675 11.5902 11.6266C11.4801 11.5857 11.38 11.5258 11.2958 11.4502L6.49991 7.14886L1.70404 11.4502C1.61978 11.5258 1.51975 11.5857 1.40966 11.6266C1.29957 11.6675 1.18157 11.6885 1.06241 11.6885C0.94325 11.6885 0.825255 11.6675 0.715165 11.6266C0.605075 11.5857 0.505045 11.5258 0.420785 11.4502C0.336526 11.3747 0.269688 11.285 0.224087 11.1863C0.178486 11.0876 0.155015 10.9818 0.155015 10.875C0.155015 10.7682 0.178486 10.6624 0.224087 10.5637C0.269688 10.465 0.336526 10.3753 0.420785 10.2997L5.21847 5.99999L0.420785 1.70024C0.33639 1.62476 0.26943 1.5351 0.223744 1.43639C0.178057 1.33768 0.154541 1.23186 0.154541 1.12499C0.154541 1.01812 0.178057 0.912293 0.223744 0.813582C0.26943 0.714872 0.33639 0.625211 0.420785 0.549737Z" fill="#5E5E5E"/>
</svg>
