<svg width="17" height="11" viewBox="0 0 17 11" fill="none" xmlns="http://www.w3.org/2000/svg">
<path d="M0 7.5C0 6.96957 0.223883 6.46086 0.622398 6.08579C1.02091 5.71071 1.56141 5.5 2.125 5.5H14.875C15.4386 5.5 15.9791 5.71071 16.3776 6.08579C16.7761 6.46086 17 6.96957 17 7.5V8.5C17 9.03043 16.7761 9.53914 16.3776 9.91421C15.9791 10.2893 15.4386 10.5 14.875 10.5H2.125C1.56141 10.5 1.02091 10.2893 0.622398 9.91421C0.223883 9.53914 0 9.03043 0 8.5V7.5ZM2.65625 8.5C2.79715 8.5 2.93227 8.44732 3.0319 8.35355C3.13153 8.25979 3.1875 8.13261 3.1875 8C3.1875 7.86739 3.13153 7.74021 3.0319 7.64645C2.93227 7.55268 2.79715 7.5 2.65625 7.5C2.51535 7.5 2.38023 7.55268 2.2806 7.64645C2.18097 7.74021 2.125 7.86739 2.125 8C2.125 8.13261 2.18097 8.25979 2.2806 8.35355C2.38023 8.44732 2.51535 8.5 2.65625 8.5ZM4.78125 8.5C4.92215 8.5 5.05727 8.44732 5.1569 8.35355C5.25653 8.25979 5.3125 8.13261 5.3125 8C5.3125 7.86739 5.25653 7.74021 5.1569 7.64645C5.05727 7.55268 4.92215 7.5 4.78125 7.5C4.64035 7.5 4.50523 7.55268 4.4056 7.64645C4.30597 7.74021 4.25 7.86739 4.25 8C4.25 8.13261 4.30597 8.25979 4.4056 8.35355C4.50523 8.44732 4.64035 8.5 4.78125 8.5ZM0.966875 4.704C1.33605 4.5687 1.72883 4.49951 2.125 4.5H14.875C15.283 4.5 15.674 4.572 16.0331 4.704L14.0494 1.282C13.9124 1.04535 13.7101 0.847841 13.4638 0.710231C13.2176 0.572622 12.9365 0.499999 12.6501 0.5H4.34987C4.0635 0.499999 3.78241 0.572622 3.53617 0.710231C3.28994 0.847841 3.08764 1.04535 2.95056 1.282L0.966875 4.704Z" fill="white"/>
</svg>
