<svg width="19" height="18" viewBox="0 0 19 18" fill="none" xmlns="http://www.w3.org/2000/svg">
<path d="M11.3149 14.0433V14.8944C11.4247 14.8944 11.5206 14.8944 11.6159 14.8944C12.687 14.8944 13.7582 14.8907 14.8288 14.896C15.6364 14.8997 16.2464 15.3956 16.4162 16.1707C16.5319 16.7006 16.2791 17.0207 15.7382 17.0213C11.347 17.0223 6.95589 17.0223 2.56475 17.0213C2.03775 17.0213 1.78549 16.707 1.88939 16.1893C2.04364 15.4195 2.66544 14.9013 3.46237 14.8965C4.53351 14.8896 5.60465 14.8949 6.67526 14.8949C6.77273 14.8949 6.8702 14.8949 6.9891 14.8949V14.0439C6.87824 14.0439 6.77434 14.0439 6.67044 14.0439C5.26028 14.0439 3.85012 14.0455 2.43996 14.0439C1.05819 14.0412 0.156823 13.1514 0.156287 11.7864C0.154681 8.61842 0.155216 5.45043 0.156287 2.28297C0.156823 0.920108 1.0614 0.0233867 2.43782 0.0228558C6.9184 0.021794 11.3985 0.0212631 15.879 0.0228558C17.2512 0.0228558 18.1531 0.923293 18.1536 2.28988C18.1547 5.45786 18.1552 8.62585 18.1536 11.7938C18.1531 13.144 17.2501 14.0407 15.8898 14.0428C14.4705 14.0455 13.0518 14.0433 11.6325 14.0433C11.5356 14.0433 11.4392 14.0433 11.3149 14.0433ZM9.14745 1.29759C6.90716 1.29759 4.66633 1.29706 2.42604 1.29759C1.77478 1.29759 1.44219 1.63101 1.44219 2.28138C1.44166 5.02464 1.44166 7.76842 1.44219 10.5117C1.44219 11.1679 1.76728 11.4923 2.42711 11.4923C6.90823 11.4928 11.3888 11.4928 15.8699 11.4923C16.5485 11.4923 16.8672 11.1737 16.8672 10.4973C16.8672 7.76258 16.8672 5.02782 16.8672 2.29359C16.8672 1.6257 16.5383 1.29759 15.8683 1.29759C13.628 1.29706 11.3877 1.29759 9.14745 1.29759ZM9.14477 13.4031C9.49932 13.4089 9.79442 13.1233 9.79549 12.7734C9.79656 12.4352 9.51646 12.1458 9.17798 12.1336C8.82772 12.1214 8.52458 12.4044 8.51441 12.7532C8.50423 13.1047 8.78755 13.3967 9.14477 13.4031Z" fill="#b1000e"/>
<path d="M15.0508 6.34318C14.5538 7.10505 13.3836 7.45015 12.4533 7.12788C11.4046 6.76473 10.7491 5.73103 10.8733 4.63522C10.9858 3.64028 11.8277 2.75471 12.796 2.64109C12.796 3.19749 12.7934 3.75124 12.7966 4.30499C12.8019 5.27232 12.683 5.1003 13.5903 5.57919C14.0755 5.83563 14.5624 6.08781 15.0508 6.34318Z" fill="#b1000e"/>
<path d="M7.01081 4.93678C7.01081 5.52982 7.01295 6.12285 7.01027 6.71589C7.00867 7.09974 6.86192 7.24362 6.47577 7.24681C6.23477 7.24893 5.99376 7.25371 5.75275 7.24468C5.46676 7.23406 5.30234 7.07797 5.30127 6.79287C5.29591 5.53619 5.29591 4.2795 5.30127 3.02282C5.30234 2.74143 5.47372 2.5811 5.75489 2.57313C6.01358 2.5657 6.27279 2.56676 6.53147 2.57207C6.84799 2.57844 7.00599 2.73294 7.00867 3.05149C7.01402 3.67957 7.01081 4.30817 7.01081 4.93678Z" fill="#b1000e"/>
<path d="M9.58155 5.56433C9.58155 5.96252 9.58583 6.3607 9.58048 6.75889C9.57619 7.08912 9.41981 7.2399 9.08347 7.24628C8.84246 7.25052 8.60145 7.25105 8.36045 7.24628C8.03964 7.23937 7.87361 7.08647 7.87147 6.77641C7.86558 5.95349 7.86558 5.13057 7.87147 4.30711C7.87361 4.01192 8.04392 3.85371 8.34277 3.84681C8.59235 3.84097 8.84246 3.8415 9.09257 3.84681C9.42463 3.85318 9.57619 4.00555 9.58048 4.34321C9.5853 4.75043 9.58155 5.15764 9.58155 5.56433Z" fill="#b1000e"/>
<path d="M6.15336 8.94468C5.18933 8.94468 4.22584 8.94999 3.26235 8.93884C3.12256 8.93725 2.94261 8.89265 2.85585 8.79974C2.77176 8.70895 2.72999 8.51304 2.76909 8.39571C2.80818 8.27891 2.96189 8.18865 3.0824 8.11379C3.14131 8.07716 3.23878 8.09946 3.31912 8.09946C5.21075 8.09946 7.10293 8.09946 8.99456 8.09946C9.05722 8.09946 9.11989 8.09681 9.18201 8.10371C9.42141 8.12972 9.57994 8.29962 9.57887 8.52419C9.5778 8.74877 9.41927 8.92982 9.17826 8.93937C8.82211 8.95371 8.46435 8.94574 8.10766 8.94574C7.4564 8.94574 6.80461 8.94574 6.15336 8.94574V8.94468Z" fill="#b1000e"/>
<path d="M2.72678 5.95455C2.72678 5.69812 2.72249 5.44115 2.72785 5.18472C2.73427 4.86617 2.88745 4.70742 3.20022 4.69893C3.4589 4.69203 3.71812 4.6915 3.97626 4.69893C4.27833 4.70796 4.43364 4.86298 4.43685 5.16667C4.44328 5.70608 4.44328 6.24603 4.43685 6.78544C4.43311 7.08434 4.27243 7.23672 3.96769 7.24521C3.70901 7.25211 3.4498 7.25265 3.19165 7.24521C2.89227 7.23619 2.73588 7.07797 2.72892 6.77694C2.72196 6.50299 2.72678 6.2285 2.72678 5.95455Z" fill="#b1000e"/>
<path d="M5.29752 9.37313C5.97555 9.37313 6.65358 9.37154 7.33215 9.37366C7.67438 9.37473 7.86719 9.52975 7.86719 9.79574C7.86719 10.0623 7.67492 10.2184 7.33322 10.2189C5.97716 10.2205 4.62056 10.2205 3.26449 10.2189C2.92226 10.2189 2.72999 10.0628 2.72999 9.79681C2.72999 9.53029 2.92172 9.37526 3.26395 9.3742C3.94199 9.37207 4.62002 9.37366 5.29859 9.37366L5.29752 9.37313Z" fill="#b1000e"/>
<path d="M13.2304 8.0984C13.8286 8.0984 14.4263 8.09734 15.0246 8.0984C15.3877 8.09946 15.5848 8.2529 15.5805 8.52685C15.5762 8.79178 15.3839 8.94362 15.0401 8.94415C13.8259 8.94574 12.6123 8.94574 11.3982 8.94415C11.0603 8.94362 10.8653 8.78116 10.8691 8.5157C10.8728 8.25183 11.0662 8.09999 11.4095 8.09893C12.0163 8.09681 12.6236 8.0984 13.2304 8.0984Z" fill="#b1000e"/>
<path d="M13.654 2.63047C15.0476 2.89062 15.9238 4.3326 15.4568 5.5914C15.1033 5.4093 14.7675 5.1879 14.399 5.0573C13.7799 4.83803 13.5448 4.4563 13.6439 3.80805C13.7017 3.42897 13.654 3.03503 13.654 2.63047Z" fill="#b1000e"/>
<path d="M12.5636 10.2194C12.1619 10.2194 11.7603 10.2231 11.3586 10.2184C11.0597 10.2146 10.8739 10.0527 10.8685 9.80477C10.8632 9.54834 11.0554 9.37579 11.3677 9.3742C12.1796 9.37048 12.9921 9.37048 13.804 9.3742C14.105 9.37579 14.2881 9.53772 14.294 9.78725C14.2999 10.0463 14.1103 10.2146 13.7949 10.2178C13.3846 10.2221 12.9744 10.2194 12.5636 10.2194Z" fill="#b1000e"/>
</svg>
