<svg width="19" height="18" viewBox="0 0 19 18" fill="none" xmlns="http://www.w3.org/2000/svg">
<path d="M11.7417 14.0433V14.8944C11.8515 14.8944 11.9473 14.8944 12.0427 14.8944C13.1138 14.8944 14.1849 14.8907 15.2555 14.896C16.0632 14.8997 16.6732 15.3956 16.843 16.1707C16.9587 16.7006 16.7059 17.0207 16.1649 17.0213C11.7738 17.0223 7.38265 17.0223 2.99151 17.0213C2.46451 17.0213 2.21225 16.707 2.31615 16.1893C2.4704 15.4195 3.09219 14.9013 3.88912 14.8965C4.96027 14.8896 6.03141 14.8949 7.10201 14.8949C7.19949 14.8949 7.29696 14.8949 7.41586 14.8949V14.0439C7.30499 14.0439 7.20109 14.0439 7.09719 14.0439C5.68704 14.0439 4.27688 14.0455 2.86672 14.0439C1.48495 14.0412 0.583581 13.1514 0.583045 11.7864C0.581439 8.61842 0.581974 5.45043 0.583045 2.28297C0.583581 0.920108 1.48816 0.0233867 2.86458 0.0228558C7.34516 0.021794 11.8252 0.0212631 16.3058 0.0228558C17.6779 0.0228558 18.5798 0.923293 18.5804 2.28988C18.5814 5.45786 18.582 8.62585 18.5804 11.7938C18.5798 13.144 17.6769 14.0407 16.3165 14.0428C14.8972 14.0455 13.4785 14.0433 12.0593 14.0433C11.9623 14.0433 11.8659 14.0433 11.7417 14.0433ZM9.57421 1.29759C7.33392 1.29759 5.09309 1.29706 2.85279 1.29759C2.20154 1.29759 1.86895 1.63101 1.86895 2.28138C1.86842 5.02464 1.86842 7.76842 1.86895 10.5117C1.86895 11.1679 2.19404 11.4923 2.85387 11.4923C7.33499 11.4928 11.8156 11.4928 16.2967 11.4923C16.9753 11.4923 17.2939 11.1737 17.2939 10.4973C17.2939 7.76258 17.2939 5.02782 17.2939 2.29359C17.2939 1.6257 16.9651 1.29759 16.2951 1.29759C14.0548 1.29706 11.8145 1.29759 9.57421 1.29759ZM9.57153 13.4031C9.92608 13.4089 10.2212 13.1233 10.2222 12.7734C10.2233 12.4352 9.94322 12.1458 9.60474 12.1336C9.25447 12.1214 8.95134 12.4044 8.94116 12.7532C8.93099 13.1047 9.2143 13.3967 9.57153 13.4031Z" fill="white"/>
<path d="M15.4776 6.34318C14.9805 7.10505 13.8103 7.45015 12.88 7.12788C11.8314 6.76473 11.1758 5.73103 11.3001 4.63522C11.4126 3.64028 12.2545 2.75471 13.2228 2.64109C13.2228 3.19749 13.2201 3.75124 13.2233 4.30499C13.2287 5.27232 13.1098 5.1003 14.0171 5.57919C14.5023 5.83563 14.9891 6.08781 15.4776 6.34318Z" fill="white"/>
<path d="M7.43757 4.93678C7.43757 5.52982 7.43971 6.12285 7.43703 6.71589C7.43542 7.09974 7.28868 7.24362 6.90253 7.24681C6.66152 7.24893 6.42052 7.25371 6.17951 7.24468C5.89352 7.23406 5.7291 7.07797 5.72802 6.79287C5.72267 5.53619 5.72267 4.2795 5.72802 3.02282C5.7291 2.74143 5.90048 2.5811 6.18165 2.57313C6.44033 2.5657 6.69955 2.56676 6.95823 2.57207C7.27475 2.57844 7.43275 2.73294 7.43542 3.05149C7.44078 3.67957 7.43757 4.30817 7.43757 4.93678Z" fill="white"/>
<path d="M10.0083 5.56433C10.0083 5.96252 10.0126 6.3607 10.0072 6.75889C10.003 7.08912 9.84656 7.2399 9.51023 7.24628C9.26922 7.25052 9.02821 7.25105 8.7872 7.24628C8.4664 7.23937 8.30037 7.08647 8.29823 6.77641C8.29234 5.95349 8.29234 5.13057 8.29823 4.30711C8.30037 4.01192 8.47068 3.85371 8.76953 3.84681C9.01911 3.84097 9.26922 3.8415 9.51933 3.84681C9.85138 3.85318 10.003 4.00555 10.0072 4.34321C10.0121 4.75043 10.0083 5.15764 10.0083 5.56433Z" fill="white"/>
<path d="M6.58012 8.94468C5.61609 8.94468 4.6526 8.94999 3.68911 8.93884C3.54932 8.93725 3.36937 8.89265 3.28261 8.79974C3.19852 8.70895 3.15675 8.51304 3.19584 8.39571C3.23494 8.27891 3.38865 8.18865 3.50915 8.11379C3.56807 8.07716 3.66554 8.09946 3.74588 8.09946C5.63751 8.09946 7.52968 8.09946 9.42132 8.09946C9.48398 8.09946 9.54664 8.09681 9.60877 8.10371C9.84817 8.12972 10.0067 8.29962 10.0056 8.52419C10.0046 8.74877 9.84603 8.92982 9.60502 8.93937C9.24887 8.95371 8.89111 8.94574 8.53442 8.94574C7.88316 8.94574 7.23137 8.94574 6.58012 8.94574V8.94468Z" fill="white"/>
<path d="M3.15353 5.95455C3.15353 5.69812 3.14925 5.44115 3.15461 5.18472C3.16103 4.86617 3.31421 4.70742 3.62698 4.69893C3.88566 4.69203 4.14488 4.6915 4.40302 4.69893C4.70508 4.70796 4.8604 4.86298 4.86361 5.16667C4.87004 5.70608 4.87004 6.24603 4.86361 6.78544C4.85986 7.08434 4.69919 7.23672 4.39445 7.24521C4.13577 7.25211 3.87656 7.25265 3.61841 7.24521C3.31903 7.23619 3.16264 7.07797 3.15568 6.77694C3.14871 6.50299 3.15353 6.2285 3.15353 5.95455Z" fill="white"/>
<path d="M5.72427 9.37313C6.40231 9.37313 7.08034 9.37154 7.75891 9.37366C8.10114 9.37473 8.29394 9.52975 8.29394 9.79574C8.29394 10.0623 8.10167 10.2184 7.75998 10.2189C6.40391 10.2205 5.04731 10.2205 3.69125 10.2189C3.34902 10.2189 3.15675 10.0628 3.15675 9.79681C3.15675 9.53029 3.34848 9.37526 3.69071 9.3742C4.36874 9.37207 5.04678 9.37366 5.72535 9.37366L5.72427 9.37313Z" fill="white"/>
<path d="M13.6572 8.0984C14.2554 8.0984 14.8531 8.09734 15.4513 8.0984C15.8144 8.09946 16.0115 8.2529 16.0072 8.52685C16.003 8.79178 15.8107 8.94362 15.4668 8.94415C14.2527 8.94574 13.0391 8.94574 11.825 8.94415C11.487 8.94362 11.2921 8.78116 11.2958 8.5157C11.2996 8.25183 11.4929 8.09999 11.8362 8.09893C12.443 8.09681 13.0503 8.0984 13.6572 8.0984Z" fill="white"/>
<path d="M14.0808 2.63047C15.4743 2.89062 16.3505 4.3326 15.8835 5.5914C15.53 5.4093 15.1942 5.1879 14.8258 5.0573C14.2066 4.83803 13.9715 4.4563 14.0706 3.80805C14.1285 3.42897 14.0808 3.03503 14.0808 2.63047Z" fill="white"/>
<path d="M12.9904 10.2194C12.5887 10.2194 12.187 10.2231 11.7853 10.2184C11.4865 10.2146 11.3006 10.0527 11.2953 9.80477C11.2899 9.54834 11.4822 9.37579 11.7944 9.3742C12.6064 9.37048 13.4188 9.37048 14.2307 9.3742C14.5317 9.37579 14.7149 9.53772 14.7208 9.78725C14.7267 10.0463 14.5371 10.2146 14.2216 10.2178C13.8114 10.2221 13.4011 10.2194 12.9904 10.2194Z" fill="white"/>
</svg>
