<svg width="30" height="30" viewBox="0 0 30 30" fill="none" xmlns="http://www.w3.org/2000/svg">
<path d="M9.16057 28.5785C9.2286 29.0221 9.38109 29.3482 9.28021 29.5579C9.1852 29.755 8.838 29.8932 8.57878 29.9463C7.68967 30.1272 7.00818 29.8483 6.36774 29.1558C4.36314 26.9883 2.47349 24.7482 1.17502 22.0875C0.199112 20.0894 -0.340452 18.0267 0.23782 15.7947C1.08939 12.5048 4.30566 10.1403 7.71782 10.3223C11.5053 10.524 14.3873 13.0383 14.9163 16.546C15.2072 18.4727 14.7087 20.238 13.9017 21.9492C12.8237 24.2342 11.286 26.2151 9.60395 28.0956C9.42449 28.2973 9.23916 28.4932 9.16057 28.5785ZM7.53367 28.5577C8.48846 27.4434 9.40337 26.4444 10.2397 25.3854C11.6684 23.574 12.9129 21.653 13.517 19.4003C14.5797 15.4409 11.8033 11.6694 7.7448 11.5565C3.42125 11.4355 0.351598 15.2496 1.49524 19.3853C2.50164 23.0231 4.9461 25.7657 7.53367 28.5566V28.5577Z" fill="black"/>
<path d="M24.851 3.64813e-05C28.49 0.0317201 30.9363 3.59085 29.656 6.61488C28.7368 8.78345 27.4371 10.7302 26.0182 12.6101C25.6595 13.0842 25.403 13.5442 25.4625 14.1568C25.5063 14.6015 25.3495 15.0193 24.7865 14.9993C24.271 14.9805 24.1202 14.5956 24.1762 14.1615C24.2503 13.5771 24.0242 13.1276 23.6728 12.6641C22.2503 10.7877 20.8934 8.86442 20.0314 6.67355C18.745 3.40192 21.2253 -0.0128717 24.851 3.64813e-05ZM24.8923 12.1783C25.9501 10.4838 26.9823 8.92192 27.9064 7.30371C28.2869 6.636 28.5763 5.86151 28.6639 5.10932C28.8316 3.65187 27.8894 2.26248 26.4924 1.62294C25.065 0.969322 23.3664 1.21458 22.2004 2.24371C21.0393 3.26697 20.6478 4.7561 21.2241 6.19126C22.0776 8.31876 23.4284 10.167 24.8947 12.1783H24.8923Z" fill="black"/>
<path d="M15.9017 26.2498C15.1655 26.2606 14.832 25.8167 15.0825 25.3284C15.5004 24.5138 15.9515 23.7112 16.3999 22.9074C16.5978 22.5511 16.9397 22.4035 17.3645 22.5655C17.788 22.7275 17.9125 23.061 17.7326 23.4149C17.3078 24.2487 16.8622 25.0753 16.3833 25.8875C16.2754 26.071 16 26.1802 15.9031 26.2498H15.9017Z" fill="black"/>
<path d="M22.1657 18.7486C21.9834 18.5292 21.6786 18.3183 21.595 18.0272C21.4651 17.58 21.7411 17.2383 22.137 17.1792C22.9825 17.0527 23.743 16.8024 24.3425 16.0388C24.4637 15.8841 24.9907 15.9136 25.148 16.0796C25.3067 16.2469 25.3728 16.8263 25.2455 16.9824C24.8471 17.4661 24.3787 17.9203 23.8617 18.2241C23.3971 18.4969 22.8326 18.5545 22.1657 18.75V18.7486Z" fill="black"/>
<path d="M17.6245 21.5623C17.0471 21.5731 16.747 21.0781 16.9271 20.5845C17.3064 19.5449 17.8352 18.6328 18.6606 18.0064C18.9844 17.7609 19.3094 17.7019 19.5596 18.107C19.8291 18.5429 19.631 18.8555 19.3502 19.2016C18.9006 19.7555 18.5145 20.3833 18.0945 20.9708C17.9246 21.2082 17.7332 21.4269 17.6245 21.5623Z" fill="black"/>
<path d="M10.8182 29.0625C10.6481 28.9497 10.332 28.8377 10.3155 28.7063C10.2914 28.525 10.4158 28.2398 10.6125 28.1554C11.4352 27.8045 12.2959 27.4936 13.1732 27.2137C13.375 27.1498 13.7965 27.2093 13.9349 27.3212C14.0745 27.4358 14.1126 27.769 13.9831 27.8632C13.1427 28.4708 12.0547 28.7862 10.8182 29.0625Z" fill="black"/>
<path d="M7.50175 21.5625C5.41785 21.5625 3.74416 19.8887 3.75002 17.8091C3.75588 15.7471 5.47879 14.0381 7.52754 14.0628C9.57277 14.0862 11.2429 15.7659 11.25 17.8068C11.257 19.8852 9.58449 21.5625 7.50175 21.5625ZM9.98182 17.8279C9.98416 16.4473 8.87774 15.3295 7.50644 15.326C6.13514 15.3225 5.02286 16.4356 5.01935 17.815C5.01583 19.1955 6.12225 20.3157 7.49355 20.3215C8.86134 20.3274 9.97947 19.2061 9.98182 17.8279Z" fill="black"/>
<path d="M23.4376 5.1494C23.4442 4.38 24.0553 3.76076 24.8192 3.75013C25.599 3.7395 26.2579 4.39727 26.2499 5.17731C26.242 5.9693 25.5937 6.58323 24.7899 6.56196C24.0088 6.5407 23.4309 5.93741 23.4376 5.1494Z" fill="black"/>
</svg>
