<svg width="18" height="10" viewBox="0 0 18 10" fill="none" xmlns="http://www.w3.org/2000/svg">
<path d="M0.84375 7C0.84375 6.46957 1.06763 5.96086 1.46615 5.58579C1.86466 5.21071 2.40516 5 2.96875 5H15.7188C16.2823 5 16.8228 5.21071 17.2214 5.58579C17.6199 5.96086 17.8438 6.46957 17.8438 7V8C17.8438 8.53043 17.6199 9.03914 17.2214 9.41421C16.8228 9.78929 16.2823 10 15.7188 10H2.96875C2.40516 10 1.86466 9.78929 1.46615 9.41421C1.06763 9.03914 0.84375 8.53043 0.84375 8V7ZM3.5 8C3.6409 8 3.77602 7.94732 3.87565 7.85355C3.97528 7.75979 4.03125 7.63261 4.03125 7.5C4.03125 7.36739 3.97528 7.24021 3.87565 7.14645C3.77602 7.05268 3.6409 7 3.5 7C3.3591 7 3.22398 7.05268 3.12435 7.14645C3.02472 7.24021 2.96875 7.36739 2.96875 7.5C2.96875 7.63261 3.02472 7.75979 3.12435 7.85355C3.22398 7.94732 3.3591 8 3.5 8ZM5.625 8C5.7659 8 5.90102 7.94732 6.00065 7.85355C6.10028 7.75979 6.15625 7.63261 6.15625 7.5C6.15625 7.36739 6.10028 7.24021 6.00065 7.14645C5.90102 7.05268 5.7659 7 5.625 7C5.4841 7 5.34898 7.05268 5.24935 7.14645C5.14972 7.24021 5.09375 7.36739 5.09375 7.5C5.09375 7.63261 5.14972 7.75979 5.24935 7.85355C5.34898 7.94732 5.4841 8 5.625 8ZM1.81063 4.204C2.1798 4.0687 2.57258 3.99951 2.96875 4H15.7188C16.1267 4 16.5177 4.072 16.8769 4.204L14.8932 0.782C14.7561 0.545353 14.5538 0.347841 14.3076 0.210231C14.0613 0.0726216 13.7803 -8.8683e-07 13.4939 0H5.19362C4.90725 -8.8683e-07 4.62616 0.0726216 4.37992 0.210231C4.13369 0.347841 3.93139 0.545353 3.79431 0.782L1.81063 4.204Z" fill="#4F566B"/>
</svg>
