<svg width="28" height="39" viewBox="0 0 28 39" fill="none" xmlns="http://www.w3.org/2000/svg">
<path d="M15.2138 0.753326C15.1111 0.590685 14.9719 0.457331 14.8086 0.365099C14.6453 0.272867 14.463 0.224609 14.2778 0.224609C14.0926 0.224609 13.9103 0.272867 13.747 0.365099C13.5838 0.457331 13.4446 0.590685 13.3418 0.753326L6.59181 11.4411C6.47907 11.6199 6.4144 11.8277 6.40468 12.0422C6.39495 12.2568 6.44054 12.4701 6.53659 12.6595C6.63264 12.8489 6.77556 13.0072 6.95011 13.1176C7.12466 13.228 7.32432 13.2864 7.52781 13.2865H7.74831L3.1988 20.9698C3.09237 21.1496 3.03346 21.3561 3.02819 21.568C3.02292 21.7799 3.07148 21.9895 3.16883 22.1749C3.26618 22.3603 3.40877 22.5148 3.5818 22.6224C3.75483 22.73 3.95199 22.7867 4.1528 22.7867H4.58256L0.897045 30.5674C0.811098 30.7485 0.770441 30.9497 0.778936 31.152C0.787431 31.3543 0.844796 31.551 0.945581 31.7233C1.04636 31.8956 1.18722 32.0379 1.35476 32.1365C1.5223 32.2352 1.71095 32.287 1.9028 32.287H12.0278V38.2246H16.5278V32.287H26.6529C26.8447 32.287 27.0334 32.2352 27.2009 32.1365C27.3684 32.0379 27.5093 31.8956 27.6101 31.7233C27.7109 31.551 27.7682 31.3543 27.7767 31.152C27.7852 30.9497 27.7446 30.7485 27.6586 30.5674L23.9754 22.7867H24.4051C24.6059 22.7867 24.8031 22.73 24.9761 22.6224C25.1491 22.5148 25.2917 22.3603 25.3891 22.1749C25.4864 21.9895 25.535 21.7799 25.5297 21.568C25.5245 21.3561 25.4655 21.1496 25.3591 20.9698L20.8074 13.2865H21.0279C21.2313 13.2864 21.431 13.228 21.6056 13.1176C21.7801 13.0072 21.923 12.8489 22.0191 12.6595C22.1151 12.4701 22.1607 12.2568 22.151 12.0422C22.1413 11.8277 22.0766 11.6199 21.9639 11.4411L15.2138 0.753326Z" fill="white"/>
</svg>
