<svg width="20" height="17" viewBox="0 0 20 17" fill="none" xmlns="http://www.w3.org/2000/svg">
<path d="M0.625 10.75C0.79076 10.75 0.949732 10.8158 1.06694 10.9331C1.18415 11.0503 1.25 11.2092 1.25 11.375V14.5C1.25 14.8315 1.3817 15.1495 1.61612 15.3839C1.85054 15.6183 2.16848 15.75 2.5 15.75H17.5C17.8315 15.75 18.1495 15.6183 18.3839 15.3839C18.6183 15.1495 18.75 14.8315 18.75 14.5V11.375C18.75 11.2092 18.8158 11.0503 18.9331 10.9331C19.0503 10.8158 19.2092 10.75 19.375 10.75C19.5408 10.75 19.6997 10.8158 19.8169 10.9331C19.9342 11.0503 20 11.2092 20 11.375V14.5C20 15.163 19.7366 15.7989 19.2678 16.2678C18.7989 16.7366 18.163 17 17.5 17H2.5C1.83696 17 1.20107 16.7366 0.732233 16.2678C0.263392 15.7989 0 15.163 0 14.5V11.375C0 11.2092 0.065848 11.0503 0.183058 10.9331C0.300269 10.8158 0.45924 10.75 0.625 10.75Z" fill="white"/>
<path d="M9.55756 13.5675C9.61561 13.6257 9.68458 13.6719 9.76052 13.7034C9.83645 13.7349 9.91785 13.7511 10.0001 13.7511C10.0823 13.7511 10.1637 13.7349 10.2396 13.7034C10.3155 13.6719 10.3845 13.6257 10.4426 13.5675L14.1926 9.8175C14.3099 9.70014 14.3758 9.54097 14.3758 9.375C14.3758 9.20903 14.3099 9.04986 14.1926 8.9325C14.0752 8.81514 13.916 8.74921 13.7501 8.74921C13.5841 8.74921 13.4249 8.81514 13.3076 8.9325L10.6251 11.6163V0.625C10.6251 0.45924 10.5592 0.300268 10.442 0.183058C10.3248 0.065848 10.1658 0 10.0001 0C9.8343 0 9.67533 0.065848 9.55812 0.183058C9.44091 0.300268 9.37506 0.45924 9.37506 0.625V11.6163L6.69256 8.9325C6.5752 8.81514 6.41603 8.74921 6.25006 8.74921C6.08409 8.74921 5.92492 8.81514 5.80756 8.9325C5.6902 9.04986 5.62427 9.20903 5.62427 9.375C5.62427 9.54097 5.6902 9.70014 5.80756 9.8175L9.55756 13.5675Z" fill="white"/>
</svg>
