<svg width="21" height="20" viewBox="0 0 21 20" fill="none" xmlns="http://www.w3.org/2000/svg">
<g clip-path="url(#clip0_1143_1764)">
<path d="M8.42871 1.83545H13.0121V18.0636H8.42871V1.83545Z" fill="white"/>
<path d="M18.7133 18.0772H14.4858V5.2417H18.7133V18.0772Z" fill="white"/>
<path d="M6.93629 18.0798H2.35645V10.3325H6.93629V18.0798Z" fill="white"/>
<path d="M0.191068 19.1153C0.191068 17.514 0.182148 15.9754 0.206233 14.436C0.208018 14.3002 0.427465 14.1671 0.545217 14.0322C0.663861 14.1807 0.881523 14.3265 0.885092 14.4775C0.91453 15.6073 0.901149 16.7388 0.901149 17.8694C0.901149 18.0382 0.901149 18.2061 0.901149 18.4394C1.09205 18.4394 1.26243 18.4394 1.43371 18.4394C7.43906 18.4394 13.4435 18.4394 19.4489 18.4419C19.7424 18.4419 20.1643 18.3427 20.15 18.7956C20.1375 19.2078 19.7361 19.1137 19.4542 19.1137C13.2116 19.1162 6.96895 19.1153 0.726305 19.1153H0.191068Z" fill="white"/>
<path d="M0.90221 8.95107C0.90221 10.1224 0.900425 11.2946 0.903994 12.4659C0.903994 12.7187 0.900425 12.9884 0.55609 12.9969C0.210863 13.0054 0.189453 12.7441 0.189453 12.4854C0.192129 10.1275 0.192129 7.77041 0.189453 5.41248C0.189453 5.15972 0.192129 4.88661 0.536465 4.88237C0.915591 4.87813 0.903102 5.17245 0.903102 5.43538C0.900425 6.60671 0.90221 7.77889 0.90221 8.95022V8.95107Z" fill="white"/>
<path d="M6.9711 4.31578C6.9711 3.5397 6.97467 2.76362 6.96932 1.98754C6.96753 1.74411 6.9934 1.50068 7.30562 1.48881C7.64907 1.47524 7.68475 1.7263 7.68386 1.98923C7.68029 3.56938 7.68029 5.14954 7.68386 6.73054C7.68386 6.97481 7.65888 7.21739 7.34755 7.23011C7.00411 7.24368 6.96753 6.99178 6.96932 6.72969C6.97467 5.92562 6.9711 5.12155 6.9711 4.31663V4.31578Z" fill="white"/>
<path d="M0.901146 1.99073C0.901146 2.46995 0.927016 2.95171 0.885089 3.42754C0.8726 3.57428 0.673671 3.70574 0.560379 3.84485C0.437275 3.7015 0.211583 3.56155 0.207123 3.41397C0.175009 2.45638 0.176793 1.49709 0.206231 0.539501C0.210691 0.397856 0.417649 0.2613 0.530941 0.123047C0.654046 0.266389 0.869032 0.401249 0.884197 0.55392C0.930584 1.0289 0.901146 1.51066 0.901146 1.99073Z" fill="white"/>
<path d="M20.1699 7.0628C20.1699 7.32998 20.2118 7.60649 20.1539 7.86179C20.12 8.01022 19.9255 8.12472 19.8033 8.25534C19.6891 8.13235 19.4857 8.01446 19.4759 7.88469C19.4384 7.35203 19.4357 6.81429 19.4759 6.28163C19.4866 6.14423 19.7034 6.0204 19.8256 5.89062C19.9398 6.02803 20.1191 6.15186 20.1547 6.30538C20.2101 6.54711 20.1699 6.8092 20.169 7.0628H20.1699Z" fill="white"/>
<path d="M3.57679 9.61476C3.29579 9.61476 3.00677 9.65038 2.73558 9.60034C2.5875 9.5732 2.46796 9.40187 2.33594 9.29585C2.46975 9.1771 2.59642 8.96675 2.73915 8.95658C3.29847 8.91671 3.86493 8.9201 4.42514 8.95488C4.56431 8.96336 4.69098 9.1525 4.823 9.25853C4.68919 9.37727 4.57144 9.56641 4.41712 9.59865C4.1486 9.65463 3.85779 9.61391 3.57679 9.61391V9.61476Z" fill="white"/>
</g>
<defs>
<clipPath id="clip0_1143_1764">
<rect width="20" height="19" fill="white" transform="translate(0.184082 0.123047)"/>
</clipPath>
</defs>
</svg>
