<svg width="20" height="20" viewBox="0 0 20 20" fill="none" xmlns="http://www.w3.org/2000/svg">
<g clip-path="url(#clip0_458_4956)">
<path d="M8.24463 2.2124H12.828V18.4406H8.24463V2.2124V2.2124Z" fill="white"/>
<path d="M18.5292 18.4541H14.3018V5.61865H18.5292V18.4541V18.4541Z" fill="white"/>
<path d="M6.7522 18.4567H2.17236V10.7095H6.7522V18.4567Z" fill="white"/>
<path d="M0.00698641 19.4923C0.00698641 17.8909 -0.00193419 16.3524 0.0221514 14.8129C0.0239356 14.6772 0.243382 14.544 0.361134 14.4092C0.479779 14.5576 0.697441 14.7035 0.70101 14.8545C0.730448 15.9842 0.717067 17.1157 0.717067 18.2463C0.717067 18.4151 0.717067 18.5831 0.717067 18.8163C0.907968 18.8163 1.07835 18.8163 1.24963 18.8163C7.25498 18.8163 13.2594 18.8163 19.2648 18.8188C19.5583 18.8188 19.9802 18.7196 19.966 19.1725C19.9535 19.5848 19.552 19.4906 19.2701 19.4906C13.0275 19.4931 6.78486 19.4923 0.542223 19.4923H0.00698641V19.4923Z" fill="white"/>
<path d="M0.718128 9.32803C0.718128 10.4994 0.716343 11.6715 0.719912 12.8429C0.719912 13.0956 0.716343 13.3653 0.372008 13.3738C0.0267806 13.3823 0.00537109 13.1211 0.00537109 12.8624C0.00804728 10.5044 0.00804728 8.14736 0.00537109 5.78943C0.00537109 5.53668 0.00804729 5.26356 0.352383 5.25932C0.731509 5.25508 0.71902 5.5494 0.71902 5.81233C0.716343 6.98367 0.718128 8.15585 0.718128 9.32718V9.32803Z" fill="white"/>
<path d="M6.78702 4.69273C6.78702 3.91665 6.79059 3.14057 6.78524 2.36449C6.78345 2.12106 6.80932 1.87764 7.12154 1.86576C7.46499 1.85219 7.50067 2.10325 7.49978 2.36618C7.49621 3.94634 7.49621 5.52649 7.49978 7.10749C7.49978 7.35177 7.4748 7.59434 7.16347 7.60707C6.82003 7.62064 6.78345 7.36873 6.78524 7.10664C6.79059 6.30257 6.78702 5.4985 6.78702 4.69358V4.69273Z" fill="white"/>
<path d="M0.717064 2.36768C0.717064 2.8469 0.742934 3.32867 0.701007 3.8045C0.688518 3.95123 0.489589 4.0827 0.376297 4.2218C0.253193 4.07846 0.0275013 3.93851 0.023041 3.79092C-0.00907316 2.83333 -0.00728903 1.87405 0.022149 0.916455C0.0266093 0.774809 0.233567 0.638253 0.346859 0.5C0.469963 0.643342 0.68495 0.778202 0.700115 0.930874C0.746502 1.40585 0.717064 1.88762 0.717064 2.36768V2.36768Z" fill="white"/>
<path d="M19.9858 7.43976C19.9858 7.70693 20.0278 7.98344 19.9698 8.23874C19.9359 8.38717 19.7414 8.50167 19.6192 8.63229C19.505 8.50931 19.3016 8.39141 19.2918 8.26164C19.2543 7.72899 19.2517 7.19124 19.2918 6.65859C19.3025 6.52118 19.5193 6.39735 19.6415 6.26758C19.7557 6.40498 19.935 6.52882 19.9707 6.68234C20.026 6.92407 19.9858 7.18615 19.9849 7.43976H19.9858Z" fill="white"/>
<path d="M3.39271 9.99171C3.11171 9.99171 2.82269 10.0273 2.5515 9.97729C2.40342 9.95015 2.28388 9.77882 2.15186 9.6728C2.28566 9.55406 2.41234 9.34371 2.55507 9.33353C3.11439 9.29366 3.68085 9.29706 4.24106 9.33183C4.38022 9.34031 4.5069 9.52946 4.63892 9.63548C4.50511 9.75422 4.38736 9.94337 4.23303 9.9756C3.96452 10.0316 3.67371 9.99087 3.39271 9.99087V9.99171Z" fill="white"/>
</g>
<defs>
<clipPath id="clip0_458_4956">
<rect width="20" height="19" fill="white" transform="translate(0 0.5)"/>
</clipPath>
</defs>
</svg>
