<svg width="21" height="23" viewBox="0 0 21 23" fill="none" xmlns="http://www.w3.org/2000/svg">
<path d="M0.651123 6.76123H11.9188V7.55145C10.9125 7.55145 9.90631 7.55145 8.91056 7.55145C8.23975 7.55145 7.90434 7.88764 7.90434 8.56002C7.90434 13.0934 7.90434 17.6372 7.90434 22.1705V22.7632H0.651123V6.76123ZM2.23383 8.75758C2.23383 8.38326 2.27576 7.99855 2.21287 7.63463C2.18143 7.45787 1.96131 7.3227 1.82505 7.15634C1.68879 7.30191 1.44772 7.43708 1.44772 7.59304C1.40579 8.35207 1.40579 9.12149 1.44772 9.88052C1.44772 10.0365 1.72024 10.1821 1.8565 10.338C1.98228 10.1821 2.19191 10.0469 2.21287 9.87012C2.26528 9.50621 2.23383 9.12149 2.23383 8.74718V8.75758Z" fill="#8D8D8D"/>
<path d="M8.74243 22.7629V10.7744H19.9996V22.7629H8.74243ZM9.92684 17.1794C9.92684 19.602 11.9288 21.588 14.3605 21.588C16.8027 21.588 18.8466 19.5708 18.8257 17.1482C18.8047 14.7151 16.8132 12.7604 14.3605 12.7708C11.9079 12.7708 9.92684 14.7463 9.92684 17.169V17.1794Z" fill="#8D8D8D"/>
<path d="M0.640137 5.9085V0.376953H11.9183V5.9085H0.640137ZM2.23333 3.91215C2.23333 3.53784 2.27525 3.15312 2.21237 2.78921C2.1914 2.62284 1.97129 2.48767 1.84551 2.34211C1.70925 2.48767 1.4577 2.62284 1.44721 2.76841C1.40529 3.54823 1.40529 4.32806 1.44721 5.10788C1.44721 5.25345 1.70925 5.38861 1.84551 5.52378C1.97129 5.37822 2.1914 5.24305 2.21237 5.08708C2.26477 4.70237 2.23333 4.30726 2.23333 3.92255V3.91215Z" fill="#8D8D8D"/>
<path d="M10.7446 9.96383V8.36259C10.9018 8.36259 11.0486 8.3418 11.1953 8.3418C13.9729 8.3418 16.761 8.3418 19.5386 8.3418C19.9369 8.3418 20.0417 8.46657 20.0312 8.84088C20.0103 9.96383 20.0312 9.96383 18.8992 9.96383C16.3732 9.96383 13.8367 9.96383 11.3106 9.96383H10.7341H10.7446ZM12.3273 9.54792C12.6522 9.50633 13.1239 9.6623 13.1239 9.15281C13.1239 8.64333 12.6522 8.7681 12.3378 8.7681C12.0338 8.7681 11.5936 8.64333 11.5831 9.13202C11.5622 9.67269 12.0338 9.50633 12.3378 9.54792H12.3273ZM14.3607 9.54792C14.6647 9.50633 15.1469 9.67269 15.1364 9.15281C15.1364 8.63293 14.6647 8.7785 14.3398 8.7681C14.0253 8.7681 13.5851 8.66412 13.5746 9.13202C13.5641 9.6519 14.0253 9.51673 14.3503 9.54792H14.3607Z" fill="#8D8D8D"/>
<path d="M8.74243 8.37305H9.88492V9.93269H8.74243V8.37305Z" fill="#8D8D8D"/>
<path d="M14.3393 20.7773C12.3373 20.7773 10.7231 19.1553 10.7231 17.1694C10.7231 15.1938 12.3687 13.5718 14.3602 13.5718C16.3727 13.5718 18.0078 15.2042 17.9868 17.2213C17.9764 19.2073 16.3517 20.7981 14.3288 20.7877L14.3393 20.7773ZM11.2787 17.1694C11.3311 17.2317 11.4464 17.4917 11.6246 17.5437C11.9285 17.6269 12.0333 17.3773 12.0753 17.0862C12.2639 15.7657 12.9138 15.1106 14.2554 14.9027C14.5279 14.8611 14.7795 14.7987 14.7585 14.4764C14.7376 14.1229 14.4546 14.1021 14.1716 14.1125C12.6832 14.1644 11.3311 15.5057 11.2891 17.1694H11.2787Z" fill="#8D8D8D"/>
</svg>
