<svg width="25" height="22" viewBox="0 0 25 22" fill="none" xmlns="http://www.w3.org/2000/svg">
<g clip-path="url(#clip0_4219_1118)">
<path d="M3.65818 9.11325C2.95748 9.61861 2.3538 10.0608 1.70701 10.5346C1.43751 10.1871 1.16801 9.83971 0.876953 9.46069C1.00631 9.3554 1.11411 9.26065 1.24347 9.17642C4.95177 6.47065 8.66007 3.76488 12.3684 1.05911C12.5947 0.89066 12.7564 0.806433 13.0367 1.017C16.7881 3.77541 20.5503 6.51277 24.3125 9.25012C24.3988 9.31329 24.4742 9.38699 24.5713 9.47122C24.291 9.82918 24.0323 10.1661 23.752 10.5346C23.1052 10.0713 22.5015 9.61861 21.8116 9.12378V21.2313C21.7469 21.2734 21.7254 21.305 21.7038 21.305C19.979 21.305 18.2434 21.3577 16.5186 21.284C14.9987 21.2208 13.6081 19.9363 13.4787 18.4518C13.3709 17.2095 13.4248 15.9461 13.4248 14.7038C13.4248 14.609 13.5649 14.4511 13.6835 14.409C15.3975 13.7773 16.1952 12.6718 16.1952 10.861C16.1952 10.2924 16.1952 9.72389 16.1952 9.10273H14.8046V7.77616H13.4248V9.08167H12.0234C12.0234 8.74476 12.0126 8.41839 12.0234 8.09201C12.0342 7.83933 11.9264 7.74458 11.6677 7.7551C11.3443 7.76563 11.0209 7.7551 10.6436 7.7551V9.11325C10.2555 9.11325 9.92132 9.12378 9.58714 9.11325C9.32842 9.10273 9.2314 9.19748 9.2314 9.45016C9.24218 10.0713 9.22062 10.6925 9.25296 11.3031C9.32842 12.7666 10.2232 13.9142 11.6461 14.3669C11.9372 14.4616 12.0342 14.5774 12.0234 14.8722C12.0018 15.6303 12.045 16.3778 12.0126 17.1358C11.9479 18.6729 12.2282 20.0732 13.4464 21.284H3.65818V9.11325Z" fill="#8D8D8D"/>
<path d="M14.7507 10.5029C14.9555 11.4715 14.6537 12.3454 13.9099 12.8192C13.1768 13.2929 12.4007 13.3245 11.6461 12.8823C10.7406 12.3454 10.5573 11.4926 10.6651 10.5029H14.7399H14.7507Z" fill="#8D8D8D"/>
<path d="M17.6289 0.996094H20.3885V4.681C20.0112 4.40726 19.677 4.16511 19.3321 3.92296C19.0626 3.72292 18.8147 3.48077 18.5128 3.3439C17.3917 2.84907 17.5426 1.93311 17.6289 0.996094Z" fill="#8D8D8D"/>
</g>
<defs>
<clipPath id="clip0_4219_1118">
<rect width="23.7051" height="20.4354" fill="white" transform="translate(0.876953 0.890625)"/>
</clipPath>
</defs>
</svg>
