<svg width="16" height="16" viewBox="0 0 16 16" fill="none" xmlns="http://www.w3.org/2000/svg">
<path d="M12.4371 11.2367C12.2464 10.7458 11.8606 10.6314 11.4232 10.5628C9.38909 10.245 7.35871 9.90379 5.3234 9.59407C4.94747 9.53657 4.55493 9.58603 4.16055 9.58603C4.2596 9.45682 4.41342 9.30289 4.5051 9.11866C4.56785 8.99193 4.58754 8.81017 4.55062 8.67355C4.48171 8.41823 4.34636 8.18145 4.25899 7.92922C4.18885 7.72583 4.06333 7.63928 3.85353 7.61826C3.45606 7.57869 3.06168 7.51316 2.66421 7.46865C2.46487 7.44639 2.37012 7.34872 2.37012 7.14965C2.37073 6.68723 2.36889 6.22419 2.37196 5.76176C2.37319 5.56765 2.46241 5.46997 2.66975 5.44957C3.08752 5.40815 3.5059 5.35683 3.91628 5.27276C4.03811 5.24803 4.17347 5.12191 4.23684 5.00631C4.36851 4.76459 4.47925 4.50494 4.55247 4.23972C4.58939 4.10495 4.57339 3.91083 4.49894 3.7977C4.28052 3.46263 4.02826 3.14858 3.77416 2.83885C3.64003 2.67565 3.61296 2.53902 3.76862 2.38323C4.10271 2.05063 4.43434 1.71556 4.76843 1.38234C4.90133 1.24943 5.02869 1.26365 5.17328 1.38049C5.4926 1.63828 5.81008 1.90288 6.1534 2.12544C6.27214 2.20271 6.4758 2.20889 6.621 2.17118C6.86588 2.10751 7.08983 1.96594 7.33286 1.88928C7.54206 1.82375 7.63065 1.69763 7.6528 1.49115C7.69526 1.10229 7.75063 0.715292 7.79247 0.326436C7.814 0.127371 7.88414 -0.00183503 8.11179 0.000637819C8.5714 0.00620174 9.031 0.00372888 9.49061 1.9606e-05C9.72995 -0.00183503 9.79947 0.12799 9.81916 0.347455C9.85423 0.736929 9.92006 1.12269 9.96621 1.51155C9.98897 1.70567 10.0714 1.82313 10.2695 1.88557C10.5224 1.96532 10.7562 2.10874 11.0103 2.1786C11.1463 2.21631 11.3413 2.20766 11.4527 2.13409C11.7942 1.90782 12.1123 1.6457 12.4297 1.38543C12.5854 1.25746 12.7189 1.25128 12.8592 1.39162C13.1853 1.71803 13.5108 2.04507 13.8362 2.37148C13.9858 2.52109 13.9827 2.66266 13.8455 2.8302C13.5914 3.13992 13.336 3.45212 13.1201 3.78843C13.0432 3.90836 13.0345 4.11361 13.0721 4.25889C13.1385 4.51483 13.245 4.76706 13.3748 4.99765C13.4437 5.11882 13.5871 5.24803 13.7169 5.27523C14.1273 5.36054 14.55 5.38404 14.9616 5.46564C15.0637 5.48604 15.2114 5.63132 15.2163 5.72591C15.2427 6.20688 15.2274 6.6897 15.2317 7.17253C15.2335 7.36541 15.1369 7.44578 14.9542 7.4668C14.5573 7.51254 14.1629 7.57931 13.7655 7.61764C13.5415 7.63928 13.4074 7.73139 13.349 7.95333C13.3102 8.1017 13.2683 8.25996 13.1841 8.38361C12.9256 8.76257 12.9878 9.07415 13.2991 9.39438C13.5194 9.62127 13.6898 9.89699 13.8848 10.1486C13.9784 10.2692 13.9845 10.3613 13.8338 10.4447C13.3779 10.6976 12.925 10.9578 12.434 11.2367H12.4371ZM8.82981 8.72857C9.78286 8.72857 10.7353 8.72548 11.6883 8.73042C12.087 8.73228 12.4181 8.60925 12.618 8.24698C12.8217 7.87914 12.7737 7.51811 12.5553 7.16696C11.5801 5.59608 10.611 4.02149 9.63212 2.45247C9.20451 1.76687 8.41512 1.76873 7.98689 2.45556C7.00923 4.0252 6.04142 5.60041 5.06683 7.17191C4.84841 7.52367 4.80412 7.88409 5.009 8.25131C5.21081 8.6142 5.54305 8.73228 5.94051 8.73042C6.90341 8.72548 7.86692 8.72857 8.82981 8.72857Z" fill="#4F566B"/>
<path d="M2.91061 13.8235C2.91061 12.8764 2.90754 11.9212 2.91738 10.9655C2.91799 10.8993 3.00167 10.8048 3.06935 10.7732C3.4785 10.5847 3.88827 10.3955 4.30911 10.2366C4.81917 10.0444 5.3403 10.147 5.85713 10.2311C7.71647 10.5346 9.57581 10.8375 11.4345 11.1423C11.525 11.1571 11.6388 11.1553 11.6972 11.2091C11.7858 11.2907 11.9009 11.4261 11.8849 11.5176C11.8652 11.6295 11.7354 11.7395 11.6277 11.8112C11.5625 11.8545 11.4487 11.8254 11.3564 11.8254C9.72716 11.8254 8.09732 11.8254 6.46809 11.8254C6.38626 11.8254 6.28228 11.7964 6.2269 11.8353C6.12292 11.9089 5.99495 12.0146 5.97895 12.1228C5.96788 12.1951 6.12662 12.3014 6.22137 12.3775C6.25274 12.4028 6.32166 12.3911 6.37149 12.3837C7.01629 12.2897 7.57372 12.482 8.0807 12.8807C8.28928 13.0445 8.536 13.1583 8.75504 13.3098C9.13712 13.575 9.50813 13.5688 9.90128 13.3271C10.2938 13.0853 10.6968 12.8591 11.1047 12.6452C11.3275 12.529 11.5723 12.456 11.8043 12.3571C11.9163 12.3095 12.0289 12.2569 12.1298 12.1889C12.5094 11.9348 12.873 11.6542 13.2637 11.4193C13.9134 11.0285 14.5761 10.6589 15.243 10.2972C15.3642 10.2317 15.5476 10.1952 15.67 10.2385C15.9149 10.3244 15.8971 10.6236 15.6405 10.832C14.8843 11.4477 14.1239 12.0579 13.3646 12.6699C12.2135 13.5972 11.0561 14.5171 9.91543 15.4562C9.54504 15.761 9.18757 15.829 8.7255 15.675C6.9683 15.0902 5.20064 14.5357 3.43605 13.9712C3.27239 13.9187 3.10565 13.8767 2.91061 13.8216V13.8235Z" fill="#4F566B"/>
<path d="M0.0920826 12.3867C0.0920826 11.7697 0.0988506 11.1527 0.0890063 10.5358C0.0840842 10.244 0.209599 10.1253 0.493237 10.1296C0.974376 10.137 1.45552 10.1382 1.93604 10.129C2.21968 10.1234 2.3495 10.2409 2.34888 10.5296C2.34458 11.774 2.34581 13.0179 2.34765 14.2623C2.34765 14.53 2.22891 14.6605 1.95696 14.6574C1.46598 14.6524 0.974376 14.6524 0.483393 14.6574C0.194832 14.6599 0.0846994 14.5201 0.0890063 14.2376C0.0982353 13.6206 0.0920826 13.0037 0.0920826 12.3867ZM1.22418 13.5149C0.996526 13.5353 0.676587 13.45 0.670434 13.7919C0.663051 14.161 0.995295 14.0849 1.22725 14.0843C1.44813 14.0837 1.7613 14.161 1.75823 13.7999C1.75515 13.4383 1.43706 13.5452 1.22418 13.5149ZM1.22725 10.6965C0.998987 10.7237 0.659359 10.6106 0.669819 10.9901C0.679663 11.3271 0.994065 11.2634 1.2211 11.2603C1.44321 11.2572 1.75515 11.3376 1.75823 10.9803C1.7613 10.6118 1.44075 10.7249 1.22725 10.6965Z" fill="#4F566B"/>
<path d="M8.7948 8.1654C7.85221 8.1654 6.90962 8.17467 5.96765 8.15612C5.80768 8.15303 5.57818 8.06895 5.51112 7.94902C5.44344 7.82785 5.48589 7.58366 5.56895 7.44765C6.51892 5.88543 7.48489 4.33309 8.44963 2.77952C8.67605 2.41478 8.94985 2.41478 9.17688 2.78014C10.1416 4.33309 11.107 5.88604 12.0569 7.44827C12.14 7.58489 12.1818 7.83094 12.1136 7.95149C12.0453 8.07143 11.8145 8.15241 11.6533 8.1555C10.7009 8.17405 9.74785 8.16478 8.79541 8.16478L8.7948 8.1654ZM9.08644 4.77141C9.08644 4.4215 9.08397 4.07221 9.08767 3.7223C9.08951 3.52262 9.02983 3.36003 8.80649 3.36435C8.58745 3.36868 8.52654 3.53436 8.52716 3.73157C8.52839 4.43077 8.52839 5.12997 8.52716 5.82979C8.52716 6.0202 8.6053 6.16671 8.80034 6.17289C9.01876 6.1797 9.09013 6.02514 9.08767 5.82051C9.08336 5.47122 9.08644 5.12131 9.08644 4.77141ZM9.08644 7.16636C9.0932 6.9605 9.07167 6.76452 8.82187 6.75958C8.55669 6.75463 8.52839 6.95555 8.52654 7.16636C8.5247 7.37779 8.55361 7.5818 8.8151 7.57995C9.08459 7.57809 9.09444 7.36295 9.08644 7.16574V7.16636Z" fill="#4F566B"/>
</svg>
