<svg width="19" height="15" viewBox="0 0 19 15" fill="none" xmlns="http://www.w3.org/2000/svg">
<g clip-path="url(#clip0_754_171)">
<path d="M9.86876 11.6357H9.28105C9.28105 11.5383 9.28105 11.4516 9.28105 11.3654C9.28105 9.09042 9.28105 6.81549 9.28246 4.54056C9.28246 4.41605 9.28105 4.32667 9.11641 4.2742C8.43818 4.05809 8.06716 3.57473 8.0287 2.89572C8.02683 2.85881 8.02495 2.82235 8.0212 2.75565C6.69709 2.39547 5.36688 2.0335 3.9818 1.65687C4.16848 2.0384 4.3303 2.37101 4.49353 2.70318C4.9954 3.72281 5.49493 4.74332 6.00384 5.75984C6.06388 5.8799 6.1863 5.97017 6.259 6.08623C6.31529 6.1765 6.37392 6.28589 6.37157 6.38505C6.34156 7.64791 5.28949 8.78093 3.956 8.99971C2.60234 9.2216 1.23461 8.48656 0.771668 7.26549C0.665196 6.98402 0.619698 6.67764 0.584051 6.37838C0.571856 6.27699 0.669417 6.16004 0.728516 6.05555C0.767447 5.98618 0.83968 5.93282 0.874858 5.86256C1.5878 4.42183 2.29747 2.97976 3.0076 1.5377C3.02401 1.50479 3.03386 1.46877 3.05685 1.40874C2.76745 1.32915 2.48461 1.25133 2.20178 1.17262C2.06717 1.13527 1.93255 1.09658 1.7984 1.05745C1.61313 1.00409 1.51557 0.886699 1.57092 0.706163C1.62486 0.524293 1.78152 0.476269 1.96257 0.522514C2.30919 0.610559 2.65347 0.707497 2.99869 0.801323C4.6788 1.25933 6.35985 1.71556 8.03808 2.17936C8.16238 2.2136 8.21444 2.18514 8.28246 2.09131C8.68114 1.54259 9.35938 1.29757 9.97805 1.47011C10.6469 1.65642 11.0789 2.16779 11.1155 2.8388C11.123 2.97265 11.1628 3.02601 11.3012 3.06336C13.2454 3.58763 15.1877 4.11901 17.1305 4.64861C17.213 4.67129 17.2961 4.69263 17.3763 4.72065C17.5461 4.78023 17.6399 4.89763 17.5826 5.06571C17.5245 5.23691 17.3861 5.30494 17.1929 5.25069C16.9157 5.17332 16.638 5.09817 16.3598 5.02436C16.3172 5.0128 16.2717 5.01146 16.1915 5.00034C16.4288 5.48326 16.6521 5.93815 16.8753 6.39261C17.3308 7.31841 17.7867 8.24421 18.2431 9.16913C18.2726 9.22916 18.2951 9.31587 18.3462 9.33855C18.6174 9.45816 18.5944 9.67383 18.5634 9.89038C18.3495 11.4072 17.0953 12.4117 15.4865 12.3587C14.1563 12.3152 12.9466 11.2386 12.8012 9.9811C12.7703 9.71518 12.8068 9.51864 13.0081 9.28741C13.2487 9.01083 13.357 8.63108 13.5226 8.2958C14.0916 7.14232 14.66 5.98929 15.2285 4.83582C15.2412 4.81047 15.2454 4.78201 15.2618 4.72821C14.8359 4.61126 14.4194 4.49609 14.0024 4.38225C13.0648 4.12657 12.1253 3.87666 11.1901 3.61297C11.0221 3.56584 10.9307 3.57962 10.8298 3.72859C10.653 3.99094 10.3974 4.18171 10.0765 4.26264C9.89034 4.30933 9.86407 4.40449 9.86454 4.5659C9.8697 6.8186 9.86829 9.0713 9.86829 11.3244C9.86829 11.42 9.86829 11.5157 9.86829 11.6366L9.86876 11.6357ZM17.668 9.31543C17.0034 7.96541 16.3495 6.63851 15.6694 5.25647C14.9888 6.63807 14.3359 7.96452 13.6704 9.31543H17.668ZM3.46163 1.925C2.78386 3.3017 2.12908 4.63082 1.46351 5.98307H5.46069C4.79559 4.63305 4.14034 3.30304 3.46163 1.925Z" fill="white"/>
<path d="M6.19171 14.506C6.09931 13.9733 6.44358 13.5522 6.99283 13.55C8.71188 13.5424 10.4309 13.5424 12.1495 13.55C12.702 13.5522 13.0365 13.9515 12.9642 14.5065H6.19171V14.506Z" fill="white"/>
<path d="M11.7741 12.9666H7.38854C7.28582 12.3583 7.6179 11.9706 8.25205 11.9652C9.11181 11.9581 9.97156 11.9617 10.8313 11.9639C11.5147 11.9657 11.8262 12.2912 11.7741 12.9666Z" fill="white"/>
</g>
<defs>
<clipPath id="clip0_754_171">
<rect width="18" height="14" fill="white" transform="translate(0.582031 0.506042)"/>
</clipPath>
</defs>
</svg>
