<svg width="19" height="15" viewBox="0 0 19 15" fill="none" xmlns="http://www.w3.org/2000/svg">
<g clip-path="url(#clip0_690_109)">
<path d="M9.442 11.6357H8.85429C8.85429 11.5383 8.85429 11.4516 8.85429 11.3654C8.85429 9.09042 8.85429 6.81549 8.8557 4.54056C8.8557 4.41605 8.85429 4.32667 8.68966 4.2742C8.01142 4.05809 7.64041 3.57473 7.60195 2.89572C7.60007 2.85881 7.59819 2.82235 7.59444 2.75565C6.27033 2.39547 4.94013 2.0335 3.55504 1.65687C3.74172 2.0384 3.90354 2.37101 4.06677 2.70318C4.56864 3.72281 5.06817 4.74332 5.57709 5.75984C5.63712 5.8799 5.75954 5.97017 5.83225 6.08623C5.88853 6.1765 5.94716 6.28589 5.94482 6.38505C5.9148 7.64791 4.86273 8.78093 3.52924 8.99971C2.17559 9.2216 0.807856 8.48656 0.34491 7.26549C0.238438 6.98402 0.192941 6.67764 0.157293 6.37838C0.145098 6.27699 0.242659 6.16004 0.301758 6.05555C0.340689 5.98618 0.412922 5.93282 0.4481 5.86256C1.16105 4.42183 1.87071 2.97976 2.58084 1.5377C2.59726 1.50479 2.60711 1.46877 2.63009 1.40874C2.34069 1.32915 2.05786 1.25133 1.77502 1.17262C1.64041 1.13527 1.50579 1.09658 1.37165 1.05745C1.18637 1.00409 1.08881 0.886699 1.14416 0.706163C1.1981 0.524293 1.35476 0.476269 1.53581 0.522514C1.88243 0.610559 2.22671 0.707497 2.57193 0.801323C4.25204 1.25933 5.93309 1.71556 7.61133 2.17936C7.73562 2.2136 7.78769 2.18514 7.8557 2.09131C8.25438 1.54259 8.93262 1.29757 9.55129 1.47011C10.2201 1.65642 10.6521 2.16779 10.6887 2.8388C10.6962 2.97265 10.7361 3.02601 10.8745 3.06336C12.8186 3.58763 14.761 4.11901 16.7037 4.64861C16.7863 4.67129 16.8693 4.69263 16.9495 4.72065C17.1193 4.78023 17.2131 4.89763 17.1559 5.06571C17.0977 5.23691 16.9594 5.30494 16.7661 5.25069C16.4889 5.17332 16.2112 5.09817 15.9331 5.02436C15.8904 5.0128 15.8449 5.01146 15.7647 5.00034C16.002 5.48326 16.2253 5.93815 16.4486 6.39261C16.904 7.31841 17.3599 8.24421 17.8163 9.16913C17.8458 9.22916 17.8684 9.31587 17.9195 9.33855C18.1906 9.45816 18.1676 9.67383 18.1367 9.89038C17.9228 11.4072 16.6686 12.4117 15.0597 12.3587C13.7295 12.3152 12.5199 11.2386 12.3745 9.9811C12.3435 9.71518 12.3801 9.51864 12.5813 9.28741C12.8219 9.01083 12.9303 8.63108 13.0958 8.2958C13.6648 7.14232 14.2333 5.98929 14.8018 4.83582C14.8144 4.81047 14.8186 4.78201 14.8351 4.72821C14.4092 4.61126 13.9927 4.49609 13.5757 4.38225C12.6381 4.12657 11.6986 3.87666 10.7633 3.61297C10.5954 3.56584 10.5039 3.57962 10.4031 3.72859C10.2262 3.99094 9.97061 4.18171 9.64979 4.26264C9.46358 4.30933 9.43731 4.40449 9.43778 4.5659C9.44294 6.8186 9.44153 9.0713 9.44153 11.3244C9.44153 11.42 9.44153 11.5157 9.44153 11.6366L9.442 11.6357ZM17.2413 9.31543C16.5766 7.96541 15.9228 6.63851 15.2427 5.25647C14.5621 6.63807 13.9092 7.96452 13.2436 9.31543H17.2413ZM3.03487 1.925C2.35711 3.3017 1.70232 4.63082 1.03675 5.98307H5.03393C4.36883 4.63305 3.71358 3.30304 3.03487 1.925Z" fill="#b1000e"/>
<path d="M5.76495 14.506C5.67255 13.9733 6.01683 13.5522 6.56608 13.55C8.28512 13.5424 10.0042 13.5424 11.7227 13.55C12.2753 13.5522 12.6097 13.9515 12.5375 14.5065H5.76495V14.506Z" fill="#b1000e"/>
<path d="M11.3473 12.9666H6.96178C6.85906 12.3583 7.19115 11.9706 7.82529 11.9652C8.68505 11.9581 9.54481 11.9617 10.4046 11.9639C11.088 11.9657 11.3994 12.2912 11.3473 12.9666Z" fill="#b1000e"/>
</g>
<defs>
<clipPath id="clip0_690_109">
<rect width="18" height="14" fill="white" transform="translate(0.155273 0.506042)"/>
</clipPath>
</defs>
</svg>
