<svg width="21" height="21" viewBox="0 0 21 21" fill="none" xmlns="http://www.w3.org/2000/svg">
<g clip-path="url(#clip0_754_178)">
<path d="M2.61241 10.8737C2.98226 10.8737 3.35261 10.8687 3.72246 10.8753C4.07868 10.8818 4.26184 11.0332 4.33147 11.3879C4.67458 13.1362 5.55 14.5445 7.03494 15.541C9.18893 16.9861 11.9348 16.9654 14.0847 15.5137C14.4818 15.2453 14.6993 15.2645 15.0369 15.6015C15.5192 16.0824 16.0006 16.5637 16.4804 17.0466C16.8356 17.4038 16.82 17.7444 16.4224 18.0421C14.4586 19.5134 12.2511 20.2032 9.8045 19.9796C6.13731 19.6446 3.47623 17.7823 1.79047 14.5233C1.30811 13.5913 1.03867 12.5842 0.901933 11.5438C0.852485 11.1689 1.09266 10.8939 1.47714 10.8747C1.49379 10.8737 1.51094 10.8737 1.5276 10.8737C1.88937 10.8737 2.25064 10.8737 2.61241 10.8737Z" fill="white"/>
<path d="M20.2696 10.3637C20.256 12.44 19.6203 14.3785 18.3452 16.1041C17.9794 16.5991 17.6731 16.6183 17.2327 16.1793C16.768 15.7166 16.3043 15.2529 15.8411 14.7887C15.5116 14.4587 15.4899 14.2347 15.7457 13.8563C18.047 10.4535 16.6221 5.89372 12.7879 4.41382C12.4141 4.26952 12.0154 4.18626 11.6249 4.08939C11.2808 4.00361 11.1219 3.83155 11.1193 3.47281C11.1143 2.73261 11.1133 1.99291 11.1198 1.25272C11.1239 0.841494 11.416 0.60132 11.8182 0.661868C15.0181 1.14524 17.432 2.79114 19.043 5.59199C19.8771 7.04211 20.258 8.62393 20.2691 10.3637H20.2696Z" fill="white"/>
<path d="M2.60649 9.7309C2.23664 9.7309 1.86629 9.73746 1.49644 9.72938C1.08674 9.7203 0.845553 9.42816 0.905597 9.02703C1.34205 6.12678 2.75786 3.83655 5.19189 2.19369C6.43766 1.35257 7.82017 0.853558 9.31016 0.657281C9.67244 0.609347 9.96408 0.848512 9.96963 1.21735C9.98073 1.98227 9.97871 2.7477 9.97063 3.51313C9.9671 3.84009 9.79908 4.02173 9.44942 4.09035C7.97911 4.37694 6.7404 5.06719 5.75952 6.20398C5.01176 7.06981 4.55513 8.07642 4.33463 9.19606C4.25945 9.576 4.07276 9.72686 3.69131 9.7309C3.32953 9.73493 2.96826 9.73191 2.60649 9.7314V9.7309Z" fill="white"/>
<path d="M11.4908 13.5752H9.59766C9.59766 13.4627 9.59766 13.3638 9.59766 13.2654C9.59766 11.2305 9.59766 9.19607 9.59766 7.16115C9.59766 6.57888 9.78031 6.40027 10.3712 6.39976C10.5311 6.39976 10.6905 6.39774 10.8505 6.39976C11.2673 6.40582 11.4893 6.62429 11.4898 7.04056C11.4923 8.15868 11.4908 9.2773 11.4908 10.3954C11.4908 11.4454 11.4908 12.4954 11.4908 13.5747V13.5752Z" fill="white"/>
<path d="M12.6416 7.91598C13.1038 7.91598 13.5402 7.90539 13.9762 7.91952C14.289 7.92961 14.5135 8.1602 14.5146 8.47706C14.5211 9.99026 14.5201 11.504 14.5151 13.0177C14.514 13.3088 14.3258 13.556 14.0609 13.5697C13.5942 13.5939 13.1255 13.5767 12.6416 13.5767V7.91598Z" fill="white"/>
<path d="M8.44563 13.5868C7.98597 13.5868 7.54952 13.5964 7.11358 13.5838C6.81235 13.5752 6.58176 13.3542 6.57874 13.0545C6.56864 12.0217 6.56864 10.9888 6.57975 9.95596C6.58277 9.65675 6.81538 9.44181 7.12215 9.43272C7.55709 9.42011 7.99304 9.4297 8.44563 9.4297V13.5868Z" fill="white"/>
</g>
<defs>
<clipPath id="clip0_754_178">
<rect width="19.3743" height="19.3703" fill="white" transform="translate(0.895508 0.651245)"/>
</clipPath>
</defs>
</svg>
