<svg width="20" height="21" viewBox="0 0 20 21" fill="none" xmlns="http://www.w3.org/2000/svg">
<g clip-path="url(#clip0_750_133)">
<path d="M2.18565 10.8737C2.5555 10.8737 2.92585 10.8687 3.2957 10.8753C3.65192 10.8818 3.83508 11.0332 3.90471 11.3879C4.24782 13.1362 5.12324 14.5445 6.60818 15.541C8.76217 16.9861 11.508 16.9654 13.658 15.5137C14.0551 15.2453 14.2725 15.2645 14.6101 15.6015C15.0925 16.0824 15.5738 16.5637 16.0537 17.0466C16.4089 17.4038 16.3932 17.7444 15.9956 18.0421C14.0319 19.5134 11.8244 20.2032 9.37774 19.9796C5.71056 19.6446 3.04947 17.7823 1.36372 14.5233C0.881351 13.5913 0.611913 12.5842 0.475175 11.5438C0.425728 11.1689 0.665901 10.8939 1.05038 10.8747C1.06703 10.8737 1.08419 10.8737 1.10084 10.8737C1.46261 10.8737 1.82388 10.8737 2.18565 10.8737Z" fill="#b1000e"/>
<path d="M19.8429 10.3637C19.8293 12.44 19.1935 14.3785 17.9185 16.1041C17.5527 16.5991 17.2464 16.6183 16.8059 16.1793C16.3412 15.7166 15.8775 15.2529 15.4143 14.7887C15.0848 14.4587 15.0631 14.2347 15.3189 13.8563C17.6203 10.4535 16.1954 5.89372 12.3612 4.41382C11.9873 4.26952 11.5887 4.18626 11.1982 4.08939C10.854 4.00361 10.6951 3.83155 10.6926 3.47281C10.6875 2.73261 10.6865 1.99291 10.6931 1.25272C10.6971 0.841494 10.9893 0.60132 11.3914 0.661868C14.5914 1.14524 17.0052 2.79114 18.6163 5.59199C19.4503 7.04211 19.8313 8.62393 19.8424 10.3637H19.8429Z" fill="#b1000e"/>
<path d="M2.17973 9.7309C1.80988 9.7309 1.43953 9.73746 1.06969 9.72938C0.659978 9.7203 0.418795 9.42816 0.478839 9.02703C0.915289 6.12678 2.3311 3.83655 4.76513 2.19369C6.0109 1.35257 7.39342 0.853558 8.8834 0.657281C9.24568 0.609347 9.53732 0.848512 9.54287 1.21735C9.55397 1.98227 9.55195 2.7477 9.54388 3.51313C9.54035 3.84009 9.37232 4.02173 9.02266 4.09035C7.55235 4.37694 6.31364 5.06719 5.33277 6.20398C4.585 7.06981 4.12837 8.07642 3.90787 9.19606C3.83269 9.576 3.646 9.72686 3.26455 9.7309C2.90278 9.73493 2.54151 9.73191 2.17973 9.7314V9.7309Z" fill="#b1000e"/>
<path d="M11.064 13.5752H9.1709C9.1709 13.4627 9.1709 13.3638 9.1709 13.2654C9.1709 11.2305 9.1709 9.19607 9.1709 7.16115C9.1709 6.57888 9.35355 6.40027 9.9444 6.39976C10.1043 6.39976 10.2638 6.39774 10.4237 6.39976C10.8405 6.40582 11.0625 6.62429 11.063 7.04056C11.0655 8.15868 11.064 9.2773 11.064 10.3954C11.064 11.4454 11.064 12.4954 11.064 13.5747V13.5752Z" fill="#b1000e"/>
<path d="M12.2148 7.91598C12.677 7.91598 13.1135 7.90539 13.5494 7.91952C13.8623 7.92961 14.0868 8.1602 14.0878 8.47706C14.0944 9.99026 14.0933 11.504 14.0883 13.0177C14.0873 13.3088 13.8991 13.556 13.6342 13.5697C13.1675 13.5939 12.6987 13.5767 12.2148 13.5767V7.91598Z" fill="#b1000e"/>
<path d="M8.01887 13.5868C7.55921 13.5868 7.12276 13.5964 6.68682 13.5838C6.38559 13.5752 6.15501 13.3542 6.15198 13.0545C6.14189 12.0217 6.14189 10.9888 6.15299 9.95596C6.15601 9.65675 6.38862 9.44181 6.6954 9.43272C7.13033 9.42011 7.56628 9.4297 8.01887 9.4297V13.5868Z" fill="#b1000e"/>
</g>
<defs>
<clipPath id="clip0_750_133">
<rect width="19.3743" height="19.3703" fill="white" transform="translate(0.46875 0.651245)"/>
</clipPath>
</defs>
</svg>
