<svg width="24" height="12" viewBox="0 0 24 12" fill="none" xmlns="http://www.w3.org/2000/svg">
<path fill-rule="evenodd" clip-rule="evenodd" d="M23 5.80392C23 6.22311 22.8048 6.75497 22.2935 7.35955C21.7859 7.95966 21.0147 8.57078 20.0067 9.12017C17.9923 10.2181 15.1587 11 12 11C8.89984 11 6.07731 9.97652 4.03413 8.7346C3.01275 8.11377 2.21305 7.45452 1.68237 6.8718C1.41672 6.5801 1.23413 6.32469 1.1228 6.11946C1.00808 5.90797 1.0003 5.80775 1.00001 5.80403C1 5.80394 1 5.80391 1 5.80392C1 5.52173 1.15899 5.07379 1.68034 4.50475C2.1887 3.9499 2.9643 3.3686 3.97779 2.83908C6.00161 1.7817 8.84203 1 12 1C15.158 1 17.9984 1.7817 20.0222 2.83908C21.0357 3.3686 21.8113 3.9499 22.3197 4.50475C22.841 5.07379 23 5.52173 23 5.80392ZM24 5.80392C24 8.72727 18.6274 12 12 12C5.37258 12 0 7.63636 0 5.80392C0 3.27273 5.37258 0 12 0C18.6274 0 24 3.27273 24 5.80392ZM12 9.81823C14.2091 9.81823 16 8.10877 16 6.00005C16 3.89133 14.2091 2.18187 12 2.18187C9.79086 2.18187 8 3.89133 8 6.00005C8 8.10877 9.79086 9.81823 12 9.81823Z" fill="#D9D9D9"/>
</svg>
