<svg width="19" height="13" viewBox="0 0 19 13" fill="none" xmlns="http://www.w3.org/2000/svg">
<path d="M12.0007 6.1875C12.0007 6.93342 11.7044 7.64879 11.177 8.17624C10.6495 8.70368 9.93415 9 9.18823 9C8.44231 9 7.72694 8.70368 7.19949 8.17624C6.67205 7.64879 6.37573 6.93342 6.37573 6.1875C6.37573 5.44158 6.67205 4.72621 7.19949 4.19876C7.72694 3.67132 8.44231 3.375 9.18823 3.375C9.93415 3.375 10.6495 3.67132 11.177 4.19876C11.7044 4.72621 12.0007 5.44158 12.0007 6.1875Z" fill="#969696"/>
<path d="M0.188232 6.1875C0.188232 6.1875 3.56323 0 9.18823 0C14.8132 0 18.1882 6.1875 18.1882 6.1875C18.1882 6.1875 14.8132 12.375 9.18823 12.375C3.56323 12.375 0.188232 6.1875 0.188232 6.1875ZM9.18823 10.125C10.2325 10.125 11.234 9.71016 11.9725 8.97173C12.7109 8.23331 13.1257 7.23179 13.1257 6.1875C13.1257 5.14321 12.7109 4.14169 11.9725 3.40327C11.234 2.66484 10.2325 2.25 9.18823 2.25C8.14394 2.25 7.14242 2.66484 6.404 3.40327C5.66558 4.14169 5.25073 5.14321 5.25073 6.1875C5.25073 7.23179 5.66558 8.23331 6.404 8.97173C7.14242 9.71016 8.14394 10.125 9.18823 10.125Z" fill="#969696"/>
</svg>
