<svg width="15" height="15" viewBox="0 0 15 15" fill="none" xmlns="http://www.w3.org/2000/svg">
<path d="M0 8C0 8 2.8125 2.84375 7.5 2.84375C12.1875 2.84375 15 8 15 8C15 8 12.1875 13.1562 7.5 13.1562C2.8125 13.1562 0 8 0 8ZM7.5 11.2812C8.37024 11.2812 9.20484 10.9355 9.82019 10.3202C10.4355 9.70484 10.7812 8.87024 10.7812 8C10.7812 7.12976 10.4355 6.29516 9.82019 5.67981C9.20484 5.06445 8.37024 4.71875 7.5 4.71875C6.62976 4.71875 5.79516 5.06445 5.17981 5.67981C4.56445 6.29516 4.21875 7.12976 4.21875 8C4.21875 8.87024 4.56445 9.70484 5.17981 10.3202C5.79516 10.9355 6.62976 11.2812 7.5 11.2812Z" fill="#0A4B80"/>
<path fill-rule="evenodd" clip-rule="evenodd" d="M14.7072 0.706956C15.0977 1.09748 15.0977 1.73065 14.7072 2.12117L2.12141 14.707C1.73089 15.0975 1.09772 15.0975 0.7072 14.707C0.316676 14.3164 0.316676 13.6833 0.7072 13.2927L13.293 0.706956C13.6835 0.316431 14.3167 0.316431 14.7072 0.706956Z" fill="#0A4B80"/>
</svg>
