<svg width="20" height="21" viewBox="0 0 20 21" fill="none" xmlns="http://www.w3.org/2000/svg">
<path d="M13.4875 16.947L11.47 14.8273C10.6898 15.1202 9.84643 15.1744 9.03802 14.9837C8.22962 14.793 7.48941 14.3652 6.90352 13.75C6.31764 13.1348 5.91018 12.3576 5.72854 11.5088C5.5469 10.6599 5.59856 9.77439 5.8775 8.95519L3.3025 6.25144C1.1725 8.23987 0 10.5 0 10.5C0 10.5 3.75 17.7188 10 17.7188C11.2005 17.7144 12.3874 17.4517 13.4875 16.947ZM6.5125 4.053C7.61257 3.54825 8.79949 3.28559 10 3.28125C16.25 3.28125 20 10.5 20 10.5C20 10.5 18.8263 12.7588 16.6987 14.7499L14.1213 12.0435C14.4002 11.2243 14.4519 10.3388 14.2702 9.48993C14.0886 8.6411 13.6811 7.86388 13.0952 7.2487C12.5093 6.63352 11.7691 6.20568 10.9607 6.01496C10.1523 5.82424 9.30895 5.87848 8.52875 6.17138L6.5125 4.05431V4.053Z" fill="white"/>
<path d="M6.90637 10.0352C6.83761 10.5396 6.88167 11.0539 7.03507 11.5373C7.18847 12.0207 7.44698 12.46 7.79013 12.8203C8.13328 13.1806 8.55163 13.452 9.01203 13.6131C9.47243 13.7741 9.96223 13.8204 10.4426 13.7482L6.90512 10.0352H6.90637ZM13.0939 10.9644L9.55762 7.25003C10.038 7.17783 10.5278 7.2241 10.9882 7.38517C11.4486 7.54624 11.867 7.81768 12.2101 8.17798C12.5533 8.53829 12.8118 8.97755 12.9652 9.46098C13.1186 9.9444 13.1626 10.4587 13.0939 10.9631V10.9644ZM17.0576 18.8394L2.05762 3.08941L2.94262 2.16016L17.9426 17.9102L17.0576 18.8394Z" fill="white"/>
</svg>
