<svg width="19" height="20" viewBox="0 0 19 20" fill="none" xmlns="http://www.w3.org/2000/svg">
<path d="M12.8131 16.14L10.8965 14.1213C10.1553 14.4002 9.35411 14.4519 8.58612 14.2702C7.81814 14.0886 7.11494 13.6811 6.55835 13.0952C6.00176 12.5093 5.61467 11.7691 5.44211 10.9607C5.26955 10.1523 5.31863 9.30895 5.58363 8.52875L3.13737 5.95375C1.11387 7.8475 0 10 0 10C0 10 3.5625 16.875 9.5 16.875C10.6405 16.8708 11.7681 16.6207 12.8131 16.14ZM6.18687 3.86C7.23194 3.37928 8.35952 3.12913 9.5 3.125C15.4375 3.125 19 10 19 10C19 10 17.8849 12.1512 15.8638 14.0475L13.4152 11.47C13.6802 10.6898 13.7293 9.84643 13.5567 9.03802C13.3841 8.22962 12.9971 7.48941 12.4405 6.90352C11.8839 6.31764 11.1807 5.91018 10.4127 5.72854C9.6447 5.5469 8.8435 5.59856 8.10231 5.8775L6.18687 3.86125V3.86Z" fill="#969696"/>
<path d="M6.5609 9.55762C6.49558 10.038 6.53744 10.5278 6.68317 10.9882C6.8289 11.4486 7.07449 11.867 7.40048 12.2101C7.72647 12.5533 8.1239 12.8118 8.56128 12.9652C8.99866 13.1186 9.46397 13.1626 9.92034 13.0939L6.55972 9.55762H6.5609ZM12.439 10.4426L9.07959 6.90512C9.53596 6.83636 10.0013 6.88042 10.4386 7.03382C10.876 7.18722 11.2735 7.44573 11.5995 7.78888C11.9254 8.13203 12.171 8.55038 12.3168 9.01078C12.4625 9.47118 12.5043 9.96098 12.439 10.4414V10.4426ZM16.2046 17.9426L1.95459 2.94262L2.79534 2.05762L17.0453 17.0576L16.2046 17.9426Z" fill="#969696"/>
</svg>
