<svg width="37" height="46" viewBox="0 0 37 46" fill="none" xmlns="http://www.w3.org/2000/svg">
<path fill-rule="evenodd" clip-rule="evenodd" d="M32.1995 5.38388H23.9509C23.1221 2.77907 20.9514 0.892822 18.3861 0.892822C15.8207 0.892822 13.65 2.77907 12.8212 5.38388H4.57266C2.40199 5.38388 0.625977 7.40486 0.625977 9.87494V41.3123C0.625977 43.7824 2.40199 45.8034 4.57266 45.8034H32.1995C34.3702 45.8034 36.1462 43.7824 36.1462 41.3123V9.87494C36.1462 7.40486 34.3702 5.38388 32.1995 5.38388ZM18.3859 5.38384C19.4713 5.38384 20.3593 6.39433 20.3593 7.62937C20.3593 8.86441 19.4713 9.8749 18.3859 9.8749C17.3006 9.8749 16.4126 8.86441 16.4126 7.62937C16.4126 6.39433 17.3006 5.38384 18.3859 5.38384ZM20.3592 36.8214H10.4924C9.40711 36.8214 8.5191 35.8109 8.5191 34.5759C8.5191 33.3408 9.40711 32.3303 10.4924 32.3303H20.3592C21.4445 32.3303 22.3325 33.3408 22.3325 34.5759C22.3325 35.8109 21.4445 36.8214 20.3592 36.8214ZM26.2792 27.8393H10.4924C9.40711 27.8393 8.5191 26.8288 8.5191 25.5938C8.5191 24.3587 9.40711 23.3483 10.4924 23.3483H26.2792C27.3645 23.3483 28.2525 24.3587 28.2525 25.5938C28.2525 26.8288 27.3645 27.8393 26.2792 27.8393ZM26.2792 18.857H10.4924C9.40711 18.857 8.5191 17.8465 8.5191 16.6115C8.5191 15.3764 9.40711 14.3659 10.4924 14.3659H26.2792C27.3645 14.3659 28.2525 15.3764 28.2525 16.6115C28.2525 17.8465 27.3645 18.857 26.2792 18.857Z"
 fill="#B1000E"/>
</svg>
