<svg width="36" height="46" viewBox="0 0 36 46" fill="none" xmlns="http://www.w3.org/2000/svg">
<path fill-rule="evenodd" clip-rule="evenodd" d="M32.0017 5.38388H23.7531C22.9243 2.77907 20.7537 0.892822 18.1883 0.892822C15.623 0.892822 13.4523 2.77907 12.6235 5.38388H4.37491C2.20423 5.38388 0.428223 7.40486 0.428223 9.87494V41.3123C0.428223 43.7824 2.20423 45.8034 4.37491 45.8034H32.0017C34.1724 45.8034 35.9484 43.7824 35.9484 41.3123V9.87494C35.9484 7.40486 34.1724 5.38388 32.0017 5.38388ZM18.1882 5.38384C19.2735 5.38384 20.1615 6.39433 20.1615 7.62937C20.1615 8.86441 19.2735 9.8749 18.1882 9.8749C17.1028 9.8749 16.2148 8.86441 16.2148 7.62937C16.2148 6.39433 17.1028 5.38384 18.1882 5.38384ZM20.1614 36.8214H10.2947C9.20935 36.8214 8.32135 35.8109 8.32135 34.5759C8.32135 33.3408 9.20935 32.3303 10.2947 32.3303H20.1614C21.2468 32.3303 22.1348 33.3408 22.1348 34.5759C22.1348 35.8109 21.2468 36.8214 20.1614 36.8214ZM26.0814 27.8393H10.2947C9.20935 27.8393 8.32135 26.8288 8.32135 25.5938C8.32135 24.3587 9.20935 23.3483 10.2947 23.3483H26.0814C27.1668 23.3483 28.0548 24.3587 28.0548 25.5938C28.0548 26.8288 27.1668 27.8393 26.0814 27.8393ZM26.0814 18.857H10.2947C9.20935 18.857 8.32135 17.8465 8.32135 16.6115C8.32135 15.3764 9.20935 14.3659 10.2947 14.3659H26.0814C27.1668 14.3659 28.0548 15.3764 28.0548 16.6115C28.0548 17.8465 27.1668 18.857 26.0814 18.857Z" 
fill="#D05761"/>
</svg>
