<svg width="32" height="38" viewBox="0 0 32 38" fill="none" xmlns="http://www.w3.org/2000/svg">
<g clip-path="url(#clip0_134_177)">
<path d="M17.9998 5.54169H31.3332V32.4584H17.9998M17.9998 0.791687L0.666504 4.75002V33.25L17.9998 37.2084V0.791687Z" stroke="#D8D8D8" stroke-width="3" stroke-linecap="round" stroke-linejoin="round"/>
<path d="M6 13.4583L11.3333 26.125M6 26.125L11.3333 13.4583" stroke="#D8D8D8" stroke-width="3" stroke-linecap="round" stroke-linejoin="round"/>
<path d="M23.3732 8.70831H19.8799V10.2916H23.3732V8.70831Z" fill="#D8D8D8"/>
<path d="M29.2135 8.70831H25.7202V10.2916H29.2135V8.70831Z" fill="#D8D8D8"/>
<path d="M23.3732 13.4583H19.8799V15.0416H23.3732V13.4583Z" fill="#D8D8D8"/>
<path d="M29.2135 13.4583H25.7202V15.0416H29.2135V13.4583Z" fill="#D8D8D8"/>
<path d="M23.3732 18.2083H19.8799V19.7916H23.3732V18.2083Z" fill="#D8D8D8"/>
<path d="M29.2135 18.2083H25.7202V19.7916H29.2135V18.2083Z" fill="#D8D8D8"/>
<path d="M23.3732 22.9583H19.8799V24.5416H23.3732V22.9583Z" fill="#D8D8D8"/>
<path d="M29.2135 22.9583H25.7202V24.5416H29.2135V22.9583Z" fill="#D8D8D8"/>
<path d="M23.3732 27.7083H19.8799V29.2916H23.3732V27.7083Z" fill="#D8D8D8"/>
<path d="M29.2135 27.7083H25.7202V29.2916H29.2135V27.7083Z" fill="#D8D8D8"/>
</g>
<defs>
<clipPath id="clip0_134_177">
<rect width="32" height="38" fill="white"/>
</clipPath>
</defs>
</svg>
