<svg width="36" height="46" viewBox="0 0 36 46" fill="none" xmlns="http://www.w3.org/2000/svg">
<path fill-rule="evenodd" clip-rule="evenodd" d="M31.6004 5.38388H23.3518C22.523 2.77907 20.3523 0.892822 17.7869 0.892822C15.2216 0.892822 13.0509 2.77907 12.2221 5.38388H3.97354C1.80286 5.38388 0.0268555 7.40486 0.0268555 9.87494V41.3123C0.0268555 43.7824 1.80286 45.8034 3.97354 45.8034H31.6004C33.771 45.8034 35.547 43.7824 35.547 41.3123V9.87494C35.547 7.40486 33.771 5.38388 31.6004 5.38388ZM17.7868 5.38384C18.8721 5.38384 19.7602 6.39433 19.7602 7.62937C19.7602 8.86441 18.8721 9.8749 17.7868 9.8749C16.7015 9.8749 15.8135 8.86441 15.8135 7.62937C15.8135 6.39433 16.7015 5.38384 17.7868 5.38384ZM19.76 36.8214H9.89333C8.80799 36.8214 7.91998 35.8109 7.91998 34.5759C7.91998 33.3408 8.80799 32.3303 9.89333 32.3303H19.76C20.8454 32.3303 21.7334 33.3408 21.7334 34.5759C21.7334 35.8109 20.8454 36.8214 19.76 36.8214ZM25.6801 27.8393H9.89333C8.80799 27.8393 7.91998 26.8288 7.91998 25.5938C7.91998 24.3587 8.80799 23.3483 9.89333 23.3483H25.6801C26.7654 23.3483 27.6534 24.3587 27.6534 25.5938C27.6534 26.8288 26.7654 27.8393 25.6801 27.8393ZM25.6801 18.857H9.89333C8.80799 18.857 7.91998 17.8465 7.91998 16.6115C7.91998 15.3764 8.80799 14.3659 9.89333 14.3659H25.6801C26.7654 14.3659 27.6534 15.3764 27.6534 16.6115C27.6534 17.8465 26.7654 18.857 25.6801 18.857Z" 
fill="#50d987"/>
</svg>
