<svg width="41" height="50" viewBox="0 0 41 50" fill="none" xmlns="http://www.w3.org/2000/svg">
<path d="M23.0623 8.06468H40.1457V42.7204H23.0623M23.0623 1.94897L0.854004 7.0454V43.7396L23.0623 48.8361V1.94897Z" stroke="#303C42" stroke-width="3" stroke-linecap="round" stroke-linejoin="round"/>
<path d="M7.6875 18.2576L14.5208 34.5661M7.6875 34.5661L14.5208 18.2576" stroke="#303C42" stroke-width="3" stroke-linecap="round" stroke-linejoin="round"/>
<path d="M29.947 12.1418H25.4712V14.1804H29.947V12.1418Z" fill="#303C42"/>
<path d="M37.4294 12.1418H32.9536V14.1804H37.4294V12.1418Z" fill="#303C42"/>
<path d="M29.947 18.2576H25.4712V20.2961H29.947V18.2576Z" fill="#303C42"/>
<path d="M37.4294 18.2576H32.9536V20.2961H37.4294V18.2576Z" fill="#303C42"/>
<path d="M29.947 24.3733H25.4712V26.4119H29.947V24.3733Z" fill="#303C42"/>
<path d="M37.4294 24.3733H32.9536V26.4119H37.4294V24.3733Z" fill="#303C42"/>
<path d="M29.947 30.4889H25.4712V32.5275H29.947V30.4889Z" fill="#303C42"/>
<path d="M37.4294 30.4889H32.9536V32.5275H37.4294V30.4889Z" fill="#303C42"/>
<path d="M29.947 36.6046H25.4712V38.6432H29.947V36.6046Z" fill="#303C42"/>
<path d="M37.4294 36.6046H32.9536V38.6432H37.4294V36.6046Z" fill="#303C42"/>
</svg>
