<svg width="11" height="13" viewBox="0 0 11 13" fill="none" xmlns="http://www.w3.org/2000/svg">
<mask id="path-1-inside-1_345_1124" fill="white">
<path fill-rule="evenodd" clip-rule="evenodd" d="M0 0.596924V1.90492L4.372 6.76293C4.45439 6.85467 4.49998 6.97362 4.5 7.09693V12.4029L6.49999 11.7369V7.09693C6.50002 6.97362 6.5456 6.85467 6.62799 6.76293L11 1.90492V0.596924H0Z"/>
</mask>
<path d="M0 0.596924V-8.87888H-9.4758V0.596924H0ZM0 1.90492H-9.4758V5.54101L-7.04346 8.24374L0 1.90492ZM4.372 6.76293L11.422 0.431387L11.4155 0.424114L4.372 6.76293ZM4.5 7.09693H13.9758V7.09523L4.5 7.09693ZM4.5 12.4029H-4.9758V25.5457L7.49381 21.3934L4.5 12.4029ZM6.49999 11.7369L9.49381 20.7274L15.9758 18.5689V11.7369H6.49999ZM6.49999 7.09693L-2.97581 7.09523V7.09693H6.49999ZM6.62799 6.76293L-0.415462 0.424105L-0.422005 0.431391L6.62799 6.76293ZM11 1.90492L18.0435 8.24375L20.4758 5.54101V1.90492H11ZM11 0.596924H20.4758V-8.87888H11V0.596924ZM-9.4758 0.596924V1.90492H9.4758V0.596924H-9.4758ZM-7.04346 8.24374L-2.67146 13.1017L11.4155 0.424114L7.04346 -4.43389L-7.04346 8.24374ZM-2.678 13.0945C-4.15709 11.4475 -4.97541 9.31217 -4.9758 7.09863L13.9758 7.09523C13.9754 4.63507 13.0659 2.2618 11.422 0.431391L-2.678 13.0945ZM-4.9758 7.09693V12.4029H13.9758V7.09693H-4.9758ZM7.49381 21.3934L9.49381 20.7274L3.50618 2.7465L1.50619 3.4125L7.49381 21.3934ZM15.9758 11.7369V7.09693H-2.97581V11.7369H15.9758ZM15.9758 7.09863C15.9754 9.31217 15.1571 11.4475 13.678 13.0945L-0.422005 0.431391C-2.06588 2.2618 -2.97537 4.63507 -2.97581 7.09523L15.9758 7.09863ZM13.6714 13.1017L18.0435 8.24375L3.95655 -4.4339L-0.415458 0.424109L13.6714 13.1017ZM20.4758 1.90492V0.596924H1.5242V1.90492H20.4758ZM11 -8.87888H0V10.0727H11V-8.87888Z" fill="#6C6C6C" mask="url(#path-1-inside-1_345_1124)"/>
</svg>
