<svg width="22" height="21" viewBox="0 0 22 21" fill="none" xmlns="http://www.w3.org/2000/svg">
<path d="M1.88184 3.28125C1.88184 2.75911 2.0875 2.25835 2.45359 1.88913C2.81969 1.51992 3.31621 1.3125 3.83394 1.3125H7.73815C8.25588 1.3125 8.75241 1.51992 9.1185 1.88913C9.48459 2.25835 9.69026 2.75911 9.69026 3.28125V7.21875C9.69026 7.74089 9.48459 8.24165 9.1185 8.61087C8.75241 8.98008 8.25588 9.1875 7.73815 9.1875H3.83394C3.31621 9.1875 2.81969 8.98008 2.45359 8.61087C2.0875 8.24165 1.88184 7.74089 1.88184 7.21875V3.28125ZM12.2931 3.28125C12.2931 2.75911 12.4987 2.25835 12.8648 1.88913C13.2309 1.51992 13.7274 1.3125 14.2452 1.3125H18.1494C18.6671 1.3125 19.1636 1.51992 19.5297 1.88913C19.8958 2.25835 20.1015 2.75911 20.1015 3.28125V7.21875C20.1015 7.74089 19.8958 8.24165 19.5297 8.61087C19.1636 8.98008 18.6671 9.1875 18.1494 9.1875H14.2452C13.7274 9.1875 13.2309 8.98008 12.8648 8.61087C12.4987 8.24165 12.2931 7.74089 12.2931 7.21875V3.28125ZM1.88184 13.7812C1.88184 13.2591 2.0875 12.7583 2.45359 12.3891C2.81969 12.0199 3.31621 11.8125 3.83394 11.8125H7.73815C8.25588 11.8125 8.75241 12.0199 9.1185 12.3891C9.48459 12.7583 9.69026 13.2591 9.69026 13.7812V17.7188C9.69026 18.2409 9.48459 18.7417 9.1185 19.1109C8.75241 19.4801 8.25588 19.6875 7.73815 19.6875H3.83394C3.31621 19.6875 2.81969 19.4801 2.45359 19.1109C2.0875 18.7417 1.88184 18.2409 1.88184 17.7188V13.7812ZM12.2931 13.7812C12.2931 13.2591 12.4987 12.7583 12.8648 12.3891C13.2309 12.0199 13.7274 11.8125 14.2452 11.8125H18.1494C18.6671 11.8125 19.1636 12.0199 19.5297 12.3891C19.8958 12.7583 20.1015 13.2591 20.1015 13.7812V17.7188C20.1015 18.2409 19.8958 18.7417 19.5297 19.1109C19.1636 19.4801 18.6671 19.6875 18.1494 19.6875H14.2452C13.7274 19.6875 13.2309 19.4801 12.8648 19.1109C12.4987 18.7417 12.2931 18.2409 12.2931 17.7188V13.7812Z" fill="#959595"/>
</svg>
