<svg width="21" height="21" viewBox="0 0 21 21" fill="none" xmlns="http://www.w3.org/2000/svg">
<path d="M1.38184 3.28125C1.38184 2.75911 1.5875 2.25835 1.95359 1.88913C2.31969 1.51992 2.81621 1.3125 3.33394 1.3125H7.23815C7.75588 1.3125 8.25241 1.51992 8.6185 1.88913C8.98459 2.25835 9.19026 2.75911 9.19026 3.28125V7.21875C9.19026 7.74089 8.98459 8.24165 8.6185 8.61087C8.25241 8.98008 7.75588 9.1875 7.23815 9.1875H3.33394C2.81621 9.1875 2.31969 8.98008 1.95359 8.61087C1.5875 8.24165 1.38184 7.74089 1.38184 7.21875V3.28125ZM11.7931 3.28125C11.7931 2.75911 11.9987 2.25835 12.3648 1.88913C12.7309 1.51992 13.2274 1.3125 13.7452 1.3125H17.6494C18.1671 1.3125 18.6636 1.51992 19.0297 1.88913C19.3958 2.25835 19.6015 2.75911 19.6015 3.28125V7.21875C19.6015 7.74089 19.3958 8.24165 19.0297 8.61087C18.6636 8.98008 18.1671 9.1875 17.6494 9.1875H13.7452C13.2274 9.1875 12.7309 8.98008 12.3648 8.61087C11.9987 8.24165 11.7931 7.74089 11.7931 7.21875V3.28125ZM1.38184 13.7812C1.38184 13.2591 1.5875 12.7583 1.95359 12.3891C2.31969 12.0199 2.81621 11.8125 3.33394 11.8125H7.23815C7.75588 11.8125 8.25241 12.0199 8.6185 12.3891C8.98459 12.7583 9.19026 13.2591 9.19026 13.7812V17.7188C9.19026 18.2409 8.98459 18.7417 8.6185 19.1109C8.25241 19.4801 7.75588 19.6875 7.23815 19.6875H3.33394C2.81621 19.6875 2.31969 19.4801 1.95359 19.1109C1.5875 18.7417 1.38184 18.2409 1.38184 17.7188V13.7812ZM11.7931 13.7812C11.7931 13.2591 11.9987 12.7583 12.3648 12.3891C12.7309 12.0199 13.2274 11.8125 13.7452 11.8125H17.6494C18.1671 11.8125 18.6636 12.0199 19.0297 12.3891C19.3958 12.7583 19.6015 13.2591 19.6015 13.7812V17.7188C19.6015 18.2409 19.3958 18.7417 19.0297 19.1109C18.6636 19.4801 18.1671 19.6875 17.6494 19.6875H13.7452C13.2274 19.6875 12.7309 19.4801 12.3648 19.1109C11.9987 18.7417 11.7931 18.2409 11.7931 17.7188V13.7812Z" fill="white"/>
</svg>
