<svg width="25" height="22" viewBox="0 0 25 22" fill="none" xmlns="http://www.w3.org/2000/svg">
<g clip-path="url(#clip0_1711_914)">
<path d="M3.11257 9.0844C2.39968 9.59855 1.7855 10.0484 1.12745 10.5304C0.853267 10.177 0.579081 9.82349 0.282959 9.43788C0.414569 9.33076 0.524243 9.23436 0.655853 9.14867C4.42866 6.39582 8.20147 3.64298 11.9743 0.890143C12.2046 0.71876 12.3691 0.633068 12.6543 0.847297C16.4709 3.6537 20.2986 6.43867 24.1262 9.22365C24.214 9.28791 24.2908 9.3629 24.3895 9.44859C24.1043 9.81278 23.8411 10.1555 23.5559 10.5304C22.8979 10.0591 22.2837 9.59855 21.5818 9.09511V21.4133C21.516 21.4561 21.494 21.4882 21.4721 21.4882C19.7173 21.4882 17.9516 21.5418 16.1968 21.4668C14.6503 21.4026 13.2355 20.0958 13.1039 18.5854C12.9943 17.3215 13.0491 16.0361 13.0491 14.7722C13.0491 14.6758 13.1917 14.5151 13.3123 14.4723C15.0561 13.8296 15.8677 12.7049 15.8677 10.8625C15.8677 10.2841 15.8677 9.70566 15.8677 9.07369H14.4529V7.72404H13.0491V9.05226H11.6233C11.6233 8.7095 11.6124 8.37744 11.6233 8.04539C11.6343 7.78831 11.5246 7.69191 11.2614 7.70262C10.9324 7.71333 10.6033 7.70262 10.2195 7.70262V9.0844C9.82466 9.0844 9.48467 9.09511 9.14468 9.0844C8.88146 9.07369 8.78275 9.17009 8.78275 9.42716C8.79372 10.0591 8.77178 10.6911 8.80468 11.3124C8.88146 12.8013 9.79176 13.9688 11.2395 14.4294C11.5356 14.5258 11.6343 14.6436 11.6233 14.9436C11.6014 15.7148 11.6453 16.4753 11.6124 17.2465C11.5466 18.8104 11.8317 20.235 13.071 21.4668H3.11257V9.0844Z" fill="#DF0000"/>
<path d="M14.3982 10.4985C14.6066 11.484 14.2995 12.373 13.5427 12.8551C12.7969 13.3371 12.0073 13.3692 11.2396 12.9193C10.3183 12.373 10.1318 11.5054 10.2415 10.4985H14.3872H14.3982Z" fill="#DF0000"/>
<path d="M17.3264 0.825684H20.1341V4.57469C19.7502 4.29619 19.4102 4.04983 19.0593 3.80347C18.7851 3.59995 18.5328 3.35359 18.2258 3.21434C17.0851 2.7109 17.2387 1.779 17.3264 0.825684Z" fill="#DF0000"/>
</g>
<defs>
<clipPath id="clip0_1711_914">
<rect width="24.1175" height="20.7909" fill="white" transform="translate(0.282959 0.71875)"/>
</clipPath>
</defs>
</svg>
