<svg width="24" height="25" viewBox="0 0 24 25" fill="none" xmlns="http://www.w3.org/2000/svg">
<path d="M19.9851 5.58739C19.3078 4.28936 18.6734 3.0313 17.9943 1.80022C17.7611 1.37654 17.4457 0.991827 17.1174 0.644087C16.6957 0.197421 16.1733 -0.0124227 15.5566 0.000567615C13.6768 0.0425363 11.7951 0.053528 9.91534 0.0775101C9.79593 0.0795086 9.67652 0.0944974 9.53845 0.138465C10.8305 0.620105 11.5283 1.7003 12.1357 2.91339C13.0023 4.6421 13.9268 6.33783 14.8271 8.04656C14.9026 8.18945 14.9838 8.32835 15.079 8.49922C16.7087 7.53194 18.3217 6.57366 19.9851 5.58639V5.58739Z" fill="#8F8F8F"/>
<path d="M3.29261 20.3153C3.07245 18.7725 3.73201 17.5644 4.45128 16.3553C5.47654 14.6316 6.45702 12.8769 7.48975 11.0772C5.90288 10.014 4.33093 8.96181 2.70115 7.86963C1.89512 9.31955 1.0639 10.7235 0.325045 12.1804C-0.146072 13.1087 -0.104092 14.057 0.445389 15.0163C1.3615 16.6171 2.19085 18.2749 3.05845 19.9086C3.13215 20.0475 3.21518 20.1794 3.29354 20.3153H3.29261Z" fill="#8F8F8F"/>
<path d="M23.3342 15.3541C22.2287 16.3234 20.9451 16.3854 19.6241 16.3704C17.8702 16.3504 16.1154 16.3834 14.3606 16.3943C14.1936 16.3943 14.0266 16.3943 13.8382 16.3943V22.4648C15.5053 22.4039 17.1463 22.3949 18.7798 22.261C19.5812 22.196 20.1913 21.6874 20.5859 20.869C21.4106 19.1573 22.2884 17.4745 23.143 15.7788C23.213 15.6409 23.2708 15.496 23.3342 15.3541V15.3541Z" fill="#8F8F8F"/>
<path d="M9.01677 24.4332C9.89836 22.9503 10.7818 21.4694 11.6541 19.9805C11.7035 19.8956 11.6961 19.7197 11.6476 19.6278C10.8257 18.066 9.99259 16.5091 9.16044 14.9533C9.14924 14.9323 9.11193 14.9273 9.06155 14.9023C9.0205 15.4349 8.97945 15.9586 8.93374 16.5481C8.76395 16.5481 8.59883 16.5501 8.43464 16.5481C7.45695 16.5361 6.47927 16.5131 5.50159 16.5201C5.34579 16.5211 5.1135 16.6101 5.0482 16.737C4.69649 17.4175 4.32986 18.099 4.07611 18.8234C3.74586 19.7687 3.93618 20.692 4.43155 21.5374C4.70302 22.002 5.10417 22.2598 5.621 22.3028C6.53338 22.3798 7.44576 22.4677 8.35907 22.5346C8.64081 22.5556 8.76302 22.6585 8.77421 22.9823C8.79007 23.458 8.86191 23.9316 8.91042 24.4062C8.94587 24.4152 8.98225 24.4252 9.0177 24.4342L9.01677 24.4332Z" fill="#8F8F8F"/>
<path d="M16.0286 12.9498C16.4642 12.702 16.899 12.4542 17.3785 12.1804C17.9345 13.1516 18.511 14.0939 19.0204 15.0762C19.2517 15.5219 19.5186 15.6997 19.9766 15.6298C20.5895 15.5369 21.2174 15.5249 21.8191 15.383C22.599 15.1981 23.1653 14.6445 23.5832 13.9301C23.9508 13.3025 23.9722 12.661 23.6327 11.9935C23.1662 11.0772 22.7287 10.1439 22.265 9.1896C22.7333 8.7959 23.1802 8.41918 23.7045 7.97651C23.4946 7.95053 23.3826 7.92655 23.2698 7.92555C21.7939 7.91356 20.3171 7.89857 18.8413 7.90456C18.6845 7.90456 18.4476 7.9845 18.3832 8.10741C17.5623 9.68923 16.7656 11.286 15.9623 12.8798C15.9838 12.9028 16.0052 12.9268 16.0276 12.9498H16.0286Z" fill="#8F8F8F"/>
<path d="M5.0876 4.08654C4.53533 3.84072 4.02316 3.6119 3.4233 3.3441C3.49234 3.53795 3.52033 3.65386 3.57164 3.75579C4.27318 5.14375 4.97006 6.53471 5.69119 7.91068C5.77702 8.07456 6.00185 8.25243 6.16511 8.25543C7.82568 8.28041 9.48718 8.27041 11.1477 8.27041C11.1617 8.21945 11.1767 8.16949 11.1907 8.11853C10.7765 7.82974 10.3622 7.54196 9.91072 7.22719C9.98348 7.07331 10.0451 6.92842 10.1178 6.79052C10.6048 5.86421 11.0852 4.93291 11.5899 4.01759C11.7271 3.76778 11.7327 3.57792 11.5815 3.3441C11.228 2.7995 10.9201 2.21794 10.5367 1.69833C9.98535 0.951884 9.2129 0.614136 8.34157 0.557179C7.65775 0.512212 7.10734 0.781011 6.72392 1.42553C6.19869 2.30787 5.65014 3.17322 5.08667 4.08554L5.0876 4.08654Z" fill="#8F8F8F"/>
</svg>
