<svg width="23" height="24" viewBox="0 0 23 24" fill="none" xmlns="http://www.w3.org/2000/svg">
<path d="M0 11.9729C0.132066 11.0481 0.243813 10.13 0.401276 9.21974C0.495754 8.6758 0.823886 8.39993 1.35215 8.43902C3.29758 8.5831 4.88846 6.37383 3.59218 4.17127C3.31383 3.69881 3.36869 3.29002 3.75371 2.88346C4.98598 1.58337 6.40823 0.652975 8.03568 0.0967497C8.64318 -0.110997 8.91341 -0.0026561 9.20091 0.602714C9.68345 1.62023 10.4372 2.17869 11.4765 2.17534C12.4944 2.17199 13.237 1.62023 13.7165 0.62952C13.9939 0.0576575 14.324 -0.0942435 14.898 0.0989835C16.5427 0.651858 17.9883 1.59007 19.247 2.87676C19.6534 3.29226 19.5416 3.72227 19.2806 4.17686C18.6588 5.26027 18.7452 6.55701 19.4929 7.48629C19.9937 8.10953 20.6256 8.40551 21.3855 8.36865C22.1311 8.33291 22.3577 8.54289 22.5863 9.3225C23.0983 11.0716 23.1176 12.8307 22.7407 14.6066C22.572 15.4019 22.3607 15.5817 21.6232 15.5851C20.6337 15.5895 19.8363 16.0218 19.3385 16.97C18.8458 17.9116 18.9565 18.861 19.4522 19.7746C19.8007 20.4157 19.7692 20.7017 19.2806 21.1864C18.0716 22.3826 16.7114 23.3007 15.1601 23.8592C14.4012 24.1328 14.129 24.0167 13.7379 23.2784C13.2462 22.3491 12.5107 21.8454 11.5344 21.851C10.5592 21.8566 9.82466 22.3636 9.34211 23.2985C8.96928 24.0212 8.71023 24.1328 7.97066 23.8715C6.43261 23.3275 5.08351 22.4262 3.87968 21.2534C3.30469 20.6939 3.27523 20.4448 3.67549 19.7232C4.54102 18.1629 3.87054 16.1469 2.30404 15.6666C1.98708 15.5694 1.63457 15.5795 1.30034 15.594C0.797473 15.6152 0.473404 15.3952 0.391117 14.8468C0.247877 13.8963 0.13105 12.9413 0 11.9685L0 11.9729ZM16.8587 12.0143C16.2207 12.7045 15.6376 13.3233 15.0677 13.9555C14.6329 14.4369 14.6065 14.925 14.9691 15.3226C15.3257 15.7135 15.7696 15.6755 16.2105 15.1975C16.945 14.4 17.6755 13.5969 18.4018 12.7894C18.9138 12.2198 18.9189 11.8199 18.415 11.2592C17.6897 10.4506 16.9582 9.64976 16.2237 8.85116C15.7768 8.3653 15.344 8.31839 14.9793 8.69926C14.5983 9.09688 14.6329 9.59838 15.0931 10.1055C15.6538 10.7242 16.2248 11.3307 16.8587 12.0154V12.0143ZM6.04454 12.0277C6.73941 11.2816 7.35605 10.6438 7.94628 9.97813C8.30286 9.57604 8.29677 9.098 7.98184 8.73165C7.65168 8.34855 7.19351 8.33179 6.81255 8.73835C5.99984 9.60731 5.19729 10.4897 4.40794 11.3843C4.05035 11.7898 4.04425 12.2265 4.39575 12.6275C5.19526 13.5378 6.01102 14.4313 6.83592 15.3137C7.19554 15.699 7.64152 15.6778 7.96559 15.317C8.2927 14.9529 8.29575 14.4916 7.96559 14.0694C7.85587 13.9287 7.73193 13.8002 7.60901 13.6718C7.11021 13.1457 6.61039 12.6219 6.04454 12.0277ZM13.9664 8.33961C13.7562 8.11958 13.5631 7.80461 13.2949 7.66723C12.9546 7.49299 12.6336 7.66723 12.4558 8.05927C11.3576 10.4673 10.2554 12.8732 9.16941 15.2868C8.96319 15.7448 9.10846 16.1502 9.49145 16.3792C9.85006 16.5936 10.2513 16.4708 10.5033 16.0653C10.551 15.9894 10.5896 15.9056 10.6282 15.823C11.6624 13.5467 12.6966 11.2704 13.7287 8.99189C13.8029 8.82771 13.8537 8.65235 13.9675 8.33961H13.9664Z" fill="#8F8F8F"/>
</svg>
