<svg width="33" height="33" viewBox="0 0 33 33" fill="none" xmlns="http://www.w3.org/2000/svg">
<path fill-rule="evenodd" clip-rule="evenodd" d="M10.3817 23.638C10.3817 23.3728 10.4895 23.1184 10.6812 22.9309C10.873 22.7434 11.1331 22.638 11.4043 22.638H29.8098C30.081 22.638 30.3411 22.7434 30.5329 22.9309C30.7246 23.1184 30.8324 23.3728 30.8324 23.638C30.8324 23.9032 30.7246 24.1576 30.5329 24.3451C30.3411 24.5327 30.081 24.638 29.8098 24.638H11.4043C11.1331 24.638 10.873 24.5327 10.6812 24.3451C10.4895 24.1576 10.3817 23.9032 10.3817 23.638ZM10.3817 15.638C10.3817 15.3728 10.4895 15.1184 10.6812 14.9309C10.873 14.7434 11.1331 14.638 11.4043 14.638H29.8098C30.081 14.638 30.3411 14.7434 30.5329 14.9309C30.7246 15.1184 30.8324 15.3728 30.8324 15.638C30.8324 15.9032 30.7246 16.1576 30.5329 16.3451C30.3411 16.5327 30.081 16.638 29.8098 16.638H11.4043C11.1331 16.638 10.873 16.5327 10.6812 16.3451C10.4895 16.1576 10.3817 15.9032 10.3817 15.638ZM10.3817 7.63802C10.3817 7.3728 10.4895 7.11845 10.6812 6.93091C10.873 6.74338 11.1331 6.63802 11.4043 6.63802H29.8098C30.081 6.63802 30.3411 6.74338 30.5329 6.93091C30.7246 7.11845 30.8324 7.3728 30.8324 7.63802C30.8324 7.90323 30.7246 8.15759 30.5329 8.34512C30.3411 8.53266 30.081 8.63802 29.8098 8.63802H11.4043C11.1331 8.63802 10.873 8.53266 10.6812 8.34512C10.4895 8.15759 10.3817 7.90323 10.3817 7.63802ZM8.0381 4.93002C8.13332 5.02291 8.20887 5.13326 8.26042 5.25475C8.31197 5.37624 8.3385 5.50648 8.3385 5.63802C8.3385 5.76955 8.31197 5.8998 8.26042 6.02129C8.20887 6.14278 8.13332 6.25313 8.0381 6.34602L4.9705 9.34602C4.87552 9.43914 4.76268 9.51303 4.63845 9.56344C4.51423 9.61386 4.38105 9.63981 4.24655 9.63981C4.11205 9.63981 3.97888 9.61386 3.85465 9.56344C3.73042 9.51303 3.61758 9.43914 3.5226 9.34602L2.50007 8.34602C2.405 8.25304 2.32958 8.14266 2.27813 8.02118C2.22668 7.89971 2.2002 7.76951 2.2002 7.63802C2.2002 7.50653 2.22668 7.37633 2.27813 7.25485C2.32958 7.13337 2.405 7.02299 2.50007 6.93002C2.59514 6.83704 2.708 6.76329 2.83222 6.71297C2.95643 6.66265 3.08957 6.63675 3.22402 6.63675C3.35847 6.63675 3.4916 6.66265 3.61582 6.71297C3.74003 6.76329 3.8529 6.83704 3.94797 6.93002L4.24655 7.22402L6.59019 4.93002C6.68518 4.83689 6.79801 4.76301 6.92224 4.71259C7.04647 4.66218 7.17965 4.63623 7.31415 4.63623C7.44864 4.63623 7.58182 4.66218 7.70605 4.71259C7.83028 4.76301 7.94311 4.83689 8.0381 4.93002ZM8.0381 12.93C8.13332 13.0229 8.20887 13.1333 8.26042 13.2548C8.31197 13.3762 8.3385 13.5065 8.3385 13.638C8.3385 13.7696 8.31197 13.8998 8.26042 14.0213C8.20887 14.1428 8.13332 14.2531 8.0381 14.346L4.9705 17.346C4.87552 17.4391 4.76268 17.513 4.63845 17.5634C4.51423 17.6139 4.38105 17.6398 4.24655 17.6398C4.11205 17.6398 3.97888 17.6139 3.85465 17.5634C3.73042 17.513 3.61758 17.4391 3.5226 17.346L2.50007 16.346C2.30806 16.1582 2.2002 15.9036 2.2002 15.638C2.2002 15.3725 2.30806 15.1178 2.50007 14.93C2.69207 14.7422 2.95248 14.6368 3.22402 14.6368C3.49555 14.6368 3.75597 14.7422 3.94797 14.93L4.24655 15.224L6.59019 12.93C6.68518 12.8369 6.79801 12.763 6.92224 12.7126C7.04647 12.6622 7.17965 12.6362 7.31415 12.6362C7.44864 12.6362 7.58182 12.6622 7.70605 12.7126C7.83028 12.763 7.94311 12.8369 8.0381 12.93ZM8.0381 20.93C8.13332 21.0229 8.20887 21.1333 8.26042 21.2548C8.31197 21.3762 8.3385 21.5065 8.3385 21.638C8.3385 21.7696 8.31197 21.8998 8.26042 22.0213C8.20887 22.1428 8.13332 22.2531 8.0381 22.346L4.9705 25.346C4.87552 25.4391 4.76268 25.513 4.63845 25.5634C4.51423 25.6139 4.38105 25.6398 4.24655 25.6398C4.11205 25.6398 3.97888 25.6139 3.85465 25.5634C3.73042 25.513 3.61758 25.4391 3.5226 25.346L2.50007 24.346C2.30806 24.1582 2.2002 23.9036 2.2002 23.638C2.2002 23.3725 2.30806 23.1178 2.50007 22.93C2.69207 22.7422 2.95248 22.6368 3.22402 22.6368C3.49555 22.6368 3.75597 22.7422 3.94797 22.93L4.24655 23.224L6.59019 20.93C6.68518 20.8369 6.79801 20.763 6.92224 20.7126C7.04647 20.6622 7.17965 20.6362 7.31415 20.6362C7.44864 20.6362 7.58182 20.6622 7.70605 20.7126C7.83028 20.763 7.94311 20.8369 8.0381 20.93Z" fill="#989898"/>
</svg>
