<svg width="34" height="33" viewBox="0 0 34 33" fill="none" xmlns="http://www.w3.org/2000/svg">
<path fill-rule="evenodd" clip-rule="evenodd" d="M10.8817 23.638C10.8817 23.3728 10.9895 23.1184 11.1812 22.9309C11.373 22.7434 11.6331 22.638 11.9043 22.638H30.3098C30.581 22.638 30.8411 22.7434 31.0329 22.9309C31.2246 23.1184 31.3324 23.3728 31.3324 23.638C31.3324 23.9032 31.2246 24.1576 31.0329 24.3451C30.8411 24.5327 30.581 24.638 30.3098 24.638H11.9043C11.6331 24.638 11.373 24.5327 11.1812 24.3451C10.9895 24.1576 10.8817 23.9032 10.8817 23.638ZM10.8817 15.638C10.8817 15.3728 10.9895 15.1184 11.1812 14.9309C11.373 14.7434 11.6331 14.638 11.9043 14.638H30.3098C30.581 14.638 30.8411 14.7434 31.0329 14.9309C31.2246 15.1184 31.3324 15.3728 31.3324 15.638C31.3324 15.9032 31.2246 16.1576 31.0329 16.3451C30.8411 16.5327 30.581 16.638 30.3098 16.638H11.9043C11.6331 16.638 11.373 16.5327 11.1812 16.3451C10.9895 16.1576 10.8817 15.9032 10.8817 15.638ZM10.8817 7.63802C10.8817 7.3728 10.9895 7.11845 11.1812 6.93091C11.373 6.74338 11.6331 6.63802 11.9043 6.63802H30.3098C30.581 6.63802 30.8411 6.74338 31.0329 6.93091C31.2246 7.11845 31.3324 7.3728 31.3324 7.63802C31.3324 7.90323 31.2246 8.15759 31.0329 8.34512C30.8411 8.53266 30.581 8.63802 30.3098 8.63802H11.9043C11.6331 8.63802 11.373 8.53266 11.1812 8.34512C10.9895 8.15759 10.8817 7.90323 10.8817 7.63802ZM8.5381 4.93002C8.63332 5.02291 8.70887 5.13326 8.76042 5.25475C8.81197 5.37624 8.8385 5.50648 8.8385 5.63802C8.8385 5.76955 8.81197 5.8998 8.76042 6.02129C8.70887 6.14278 8.63332 6.25313 8.5381 6.34602L5.4705 9.34602C5.37552 9.43914 5.26268 9.51303 5.13845 9.56344C5.01423 9.61386 4.88105 9.63981 4.74655 9.63981C4.61205 9.63981 4.47888 9.61386 4.35465 9.56344C4.23042 9.51303 4.11758 9.43914 4.0226 9.34602L3.00007 8.34602C2.905 8.25304 2.82958 8.14266 2.77813 8.02118C2.72668 7.89971 2.7002 7.76951 2.7002 7.63802C2.7002 7.50653 2.72668 7.37633 2.77813 7.25485C2.82958 7.13337 2.905 7.02299 3.00007 6.93002C3.09514 6.83704 3.208 6.76329 3.33222 6.71297C3.45643 6.66265 3.58957 6.63675 3.72402 6.63675C3.85847 6.63675 3.9916 6.66265 4.11582 6.71297C4.24003 6.76329 4.3529 6.83704 4.44797 6.93002L4.74655 7.22402L7.09019 4.93002C7.18518 4.83689 7.29801 4.76301 7.42224 4.71259C7.54647 4.66218 7.67965 4.63623 7.81415 4.63623C7.94864 4.63623 8.08182 4.66218 8.20605 4.71259C8.33028 4.76301 8.44311 4.83689 8.5381 4.93002ZM8.5381 12.93C8.63332 13.0229 8.70887 13.1333 8.76042 13.2548C8.81197 13.3762 8.8385 13.5065 8.8385 13.638C8.8385 13.7696 8.81197 13.8998 8.76042 14.0213C8.70887 14.1428 8.63332 14.2531 8.5381 14.346L5.4705 17.346C5.37552 17.4391 5.26268 17.513 5.13845 17.5634C5.01423 17.6139 4.88105 17.6398 4.74655 17.6398C4.61205 17.6398 4.47888 17.6139 4.35465 17.5634C4.23042 17.513 4.11758 17.4391 4.0226 17.346L3.00007 16.346C2.80806 16.1582 2.7002 15.9036 2.7002 15.638C2.7002 15.3725 2.80806 15.1178 3.00007 14.93C3.19207 14.7422 3.45248 14.6368 3.72402 14.6368C3.99555 14.6368 4.25597 14.7422 4.44797 14.93L4.74655 15.224L7.09019 12.93C7.18518 12.8369 7.29801 12.763 7.42224 12.7126C7.54647 12.6622 7.67965 12.6362 7.81415 12.6362C7.94864 12.6362 8.08182 12.6622 8.20605 12.7126C8.33028 12.763 8.44311 12.8369 8.5381 12.93ZM8.5381 20.93C8.63332 21.0229 8.70887 21.1333 8.76042 21.2548C8.81197 21.3762 8.8385 21.5065 8.8385 21.638C8.8385 21.7696 8.81197 21.8998 8.76042 22.0213C8.70887 22.1428 8.63332 22.2531 8.5381 22.346L5.4705 25.346C5.37552 25.4391 5.26268 25.513 5.13845 25.5634C5.01423 25.6139 4.88105 25.6398 4.74655 25.6398C4.61205 25.6398 4.47888 25.6139 4.35465 25.5634C4.23042 25.513 4.11758 25.4391 4.0226 25.346L3.00007 24.346C2.80806 24.1582 2.7002 23.9036 2.7002 23.638C2.7002 23.3725 2.80806 23.1178 3.00007 22.93C3.19207 22.7422 3.45248 22.6368 3.72402 22.6368C3.99555 22.6368 4.25597 22.7422 4.44797 22.93L4.74655 23.224L7.09019 20.93C7.18518 20.8369 7.29801 20.763 7.42224 20.7126C7.54647 20.6622 7.67965 20.6362 7.81415 20.6362C7.94864 20.6362 8.08182 20.6622 8.20605 20.7126C8.33028 20.763 8.44311 20.8369 8.5381 20.93Z" fill="white"/>
</svg>
