<svg width="15" height="20" viewBox="0 0 15 20" fill="none" xmlns="http://www.w3.org/2000/svg">
<g clip-path="url(#clip0_810_233)">
<path d="M1.66685 6.08194C1.71438 3.30369 3.74117 0.9206 6.42814 0.453961C9.94432 -0.156984 13.1251 2.55653 13.1647 6.19928C13.1726 6.94239 12.9535 7.641 12.7013 8.32612C11.843 10.6701 10.6283 12.8307 9.39636 14.9804C9.19302 15.3365 8.98836 15.6912 8.77446 16.0405C8.11427 17.1194 6.69354 17.1235 6.04655 16.0351C4.79879 13.9379 3.58668 11.8192 2.61488 9.56959C2.1818 8.56753 1.75664 7.55873 1.66817 6.44608C1.65893 6.3247 1.66817 6.20332 1.66817 6.08059L1.66685 6.08194ZM7.42371 8.20339C8.70052 8.19665 9.7291 7.1366 9.72381 5.83109C9.71853 4.53098 8.67147 3.47227 7.39994 3.48172C6.12446 3.48981 5.09456 4.55256 5.09984 5.85672C5.10512 7.15683 6.14822 8.21149 7.42371 8.20474V8.20339Z" fill="white"/>
<path d="M1.66566 16.9818C2.01821 17.1464 2.36018 17.3406 2.72461 17.47C3.61191 17.787 4.53881 17.9259 5.471 18.0109C7.03829 18.1552 8.60823 18.1592 10.1623 17.9043C10.944 17.7762 11.7111 17.5415 12.4769 17.323C12.7146 17.2556 12.9232 17.083 13.215 16.9198C12.3264 16.2212 11.319 16.1052 10.3168 15.8854C10.5228 15.528 10.7103 15.1881 10.9149 14.8604C10.9506 14.8024 11.0681 14.7565 11.1368 14.7687C12.0161 14.9305 12.8744 15.1611 13.6362 15.6601C13.7736 15.7505 13.9016 15.8624 14.0165 15.9825C14.542 16.5314 14.542 17.2637 14.0165 17.8126C13.5874 18.2604 13.0368 18.5004 12.4664 18.6865C10.841 19.2152 9.16411 19.3595 7.47006 19.3676C5.93446 19.3744 4.40545 19.2624 2.92003 18.8443C2.34302 18.6811 1.79374 18.4087 1.24314 18.1619C1.08073 18.0891 0.942095 17.9488 0.814018 17.8167C0.275302 17.2624 0.276623 16.5206 0.819299 15.969C1.34481 15.4349 2.02745 15.2043 2.71405 14.9939C3.01245 14.9022 3.3201 14.8469 3.62247 14.7714C3.77299 14.7336 3.87598 14.7633 3.95785 14.9184C4.12553 15.2394 4.31435 15.5482 4.50844 15.884C3.51288 16.0971 2.51467 16.2279 1.68679 16.8497C1.68019 16.8928 1.67359 16.9373 1.66566 16.9805V16.9818Z" fill="white"/>
</g>
<defs>
<clipPath id="clip0_810_233">
<rect width="14" height="19" fill="white" transform="translate(0.411133 0.367676)"/>
</clipPath>
</defs>
</svg>
