<svg width="15" height="20" viewBox="0 0 15 20" fill="none" xmlns="http://www.w3.org/2000/svg">
<g clip-path="url(#clip0_810_207)">
<path d="M1.91099 6.08194C1.95852 3.30369 3.98531 0.9206 6.67228 0.453961C10.1885 -0.156984 13.3693 2.55653 13.4089 6.19928C13.4168 6.94239 13.1976 7.641 12.9454 8.32612C12.0872 10.6701 10.8724 12.8307 9.6405 14.9804C9.43716 15.3365 9.2325 15.6912 9.0186 16.0405C8.35841 17.1194 6.93768 17.1235 6.29069 16.0351C5.04293 13.9379 3.83082 11.8192 2.85902 9.56959C2.42594 8.56753 2.00078 7.55873 1.91231 6.44608C1.90307 6.3247 1.91231 6.20332 1.91231 6.08059L1.91099 6.08194ZM7.66785 8.20339C8.94466 8.19665 9.97324 7.1366 9.96796 5.83109C9.96267 4.53098 8.91561 3.47227 7.64409 3.48172C6.3686 3.48981 5.3387 4.55256 5.34398 5.85672C5.34926 7.15683 6.39236 8.21149 7.66785 8.20474V8.20339Z" fill="#b1000e"/>
<path d="M1.9098 16.9818C2.26235 17.1464 2.60432 17.3406 2.96875 17.47C3.85605 17.787 4.78295 17.9259 5.71514 18.0109C7.28243 18.1552 8.85237 18.1592 10.4065 17.9043C11.1881 17.7762 11.9553 17.5415 12.7211 17.323C12.9588 17.2556 13.1674 17.083 13.4592 16.9198C12.5706 16.2212 11.5631 16.1052 10.5609 15.8854C10.7669 15.528 10.9544 15.1881 11.1591 14.8604C11.1947 14.8024 11.3122 14.7565 11.3809 14.7687C12.2603 14.9305 13.1185 15.1611 13.8804 15.6601C14.0177 15.7505 14.1458 15.8624 14.2606 15.9825C14.7862 16.5314 14.7862 17.2637 14.2606 17.8126C13.8315 18.2604 13.2809 18.5004 12.7105 18.6865C11.0851 19.2152 9.40825 19.3595 7.7142 19.3676C6.1786 19.3744 4.64959 19.2624 3.16417 18.8443C2.58716 18.6811 2.03788 18.4087 1.48728 18.1619C1.32488 18.0891 1.18624 17.9488 1.05816 17.8167C0.519443 17.2624 0.520763 16.5206 1.06344 15.969C1.58895 15.4349 2.27159 15.2043 2.95819 14.9939C3.25659 14.9022 3.56424 14.8469 3.86661 14.7714C4.01713 14.7336 4.12012 14.7633 4.20199 14.9184C4.36967 15.2394 4.55849 15.5482 4.75258 15.884C3.75702 16.0971 2.75881 16.2279 1.93093 16.8497C1.92433 16.8928 1.91773 16.9373 1.9098 16.9805V16.9818Z" fill="#b1000e"/>
</g>
<defs>
<clipPath id="clip0_810_207">
<rect width="14" height="19" fill="white" transform="translate(0.655273 0.367676)"/>
</clipPath>
</defs>
</svg>
