<svg width="21" height="15" viewBox="0 0 21 15" fill="none" xmlns="http://www.w3.org/2000/svg">
<g clip-path="url(#clip0_810_206)">
<path d="M20.3139 6.05099C20.0705 6.02382 19.8259 5.99907 19.5825 5.97311C19.473 5.96104 19.3771 5.91877 19.2986 5.83908C19.1373 5.67487 19.1171 5.40862 19.2599 5.22629C19.4212 5.01981 19.5902 4.81877 19.7539 4.6135C19.8122 4.54045 19.861 4.46196 19.8622 4.39917C19.8634 4.2422 19.7973 4.15527 19.7188 4.07557C19.467 3.81899 19.2141 3.563 18.9611 3.30762C18.8367 3.18144 18.7153 3.05164 18.5856 2.93089C18.4493 2.80471 18.3112 2.80048 18.1594 2.90614C18.1082 2.94176 18.06 2.98221 18.0118 3.02145C17.8351 3.16695 17.6643 3.32151 17.4797 3.45674C17.2351 3.63545 16.8108 3.51108 16.7673 3.12228C16.7388 2.86267 16.7042 2.60367 16.6846 2.34346C16.6673 2.10559 16.4936 1.99329 16.3031 1.99088C15.7776 1.98484 15.252 1.98544 14.7265 1.99088C14.5069 1.99329 14.3783 2.12249 14.3533 2.34104C14.3236 2.59823 14.2968 2.85603 14.2682 3.11262C14.2266 3.48391 13.8308 3.6602 13.5314 3.44044C13.4856 3.40663 13.4409 3.37041 13.3969 3.33419C13.2195 3.18929 13.0458 3.03836 12.8636 2.8995C12.7345 2.80109 12.6018 2.81135 12.4726 2.91036C12.4411 2.93451 12.4125 2.96289 12.3845 2.99126C12.0316 3.34868 11.6792 3.70609 11.3269 4.0635C11.1311 4.26213 11.1234 4.41789 11.2989 4.63705C11.3162 4.65878 11.3346 4.67931 11.3513 4.70104C11.4912 4.87431 11.6304 5.04758 11.7691 5.22146C11.8858 5.36756 11.8929 5.53299 11.8268 5.69781C11.7584 5.86746 11.6215 5.955 11.4412 5.97432C11.1847 6.00149 10.9281 6.02865 10.6728 6.06126C10.4687 6.08661 10.3425 6.22487 10.3407 6.43617C10.3371 6.96927 10.3366 7.50237 10.3413 8.03547C10.3431 8.22504 10.4556 8.40918 10.6877 8.42548C10.9168 8.44178 11.146 8.47257 11.3751 8.4937C11.5757 8.51181 11.7453 8.58366 11.8274 8.78289C11.9066 8.97609 11.8691 9.15479 11.7334 9.31538C11.5787 9.49892 11.4269 9.68427 11.2787 9.87323C11.1305 10.0628 11.1347 10.2095 11.3007 10.3822C11.6685 10.7631 12.0387 11.1411 12.4125 11.5166C12.5827 11.6875 12.7333 11.6935 12.9208 11.5432C13.1207 11.3826 13.3166 11.2165 13.5141 11.0517C13.6594 10.931 13.823 10.9159 13.9897 10.9829C14.1605 11.0517 14.2492 11.1924 14.2694 11.3777C14.2968 11.6301 14.3337 11.8813 14.3498 12.1342C14.3646 12.3612 14.5325 12.4898 14.7354 12.4916C15.2586 12.4965 15.7817 12.4965 16.3049 12.4916C16.4715 12.4898 16.6709 12.3872 16.6858 12.1378C16.7007 11.8819 16.74 11.6277 16.765 11.3729C16.7828 11.1888 16.8673 11.0511 17.0346 10.9805C17.2006 10.9111 17.3643 10.9213 17.5101 11.0433C17.6857 11.19 17.8636 11.3349 18.0392 11.4828C18.3052 11.7068 18.4326 11.7062 18.6778 11.4617C19.0153 11.1242 19.3498 10.7843 19.6825 10.442C19.917 10.2011 19.9199 10.0719 19.7104 9.81105C19.561 9.62631 19.4057 9.44639 19.2647 9.25561C19.0403 8.95194 19.2182 8.54924 19.5902 8.50698C19.8384 8.47861 20.0878 8.45506 20.336 8.42488C20.5764 8.39529 20.6948 8.25583 20.6954 8.01071C20.696 7.79458 20.6954 7.57784 20.6954 7.3617C20.6954 7.0701 20.696 6.77789 20.6954 6.48628C20.6948 6.22064 20.5716 6.07997 20.3139 6.05099ZM16.4406 8.80342C16.0079 9.05819 15.5401 9.09502 15.0533 8.98876C14.376 8.83964 13.8582 8.23349 13.7754 7.56516C13.7397 7.27899 13.7403 6.99704 13.8141 6.71993C13.9415 6.23996 14.217 5.87229 14.6563 5.64287C15.0538 5.43518 15.4722 5.38869 15.9115 5.47986C16.5328 5.60845 16.9471 5.98035 17.1768 6.569C17.2578 6.77608 17.2798 6.99765 17.2845 7.2482C17.2762 7.89782 17.0363 8.45325 16.4406 8.80342Z" fill="#b1000e"/>
<path d="M12.7644 1.206C12.7287 0.753196 12.4621 0.456158 12.0538 0.308847C11.8794 0.246059 11.6782 0.240625 11.4896 0.240625C9.14938 0.236399 6.80859 0.236399 4.46839 0.23821C3.55124 0.23821 2.63408 0.246662 1.71693 0.253304C1.45684 0.255719 1.23663 0.364391 1.04796 0.540077C0.806921 0.764667 0.703362 1.05204 0.699196 1.37685C0.69384 1.82181 0.697411 2.26676 0.698006 2.71231C0.698006 3.30035 1.08427 3.75677 1.65742 3.84673C1.71753 3.85579 1.77823 3.86062 1.84668 3.86847V4.70403H10.5076C10.5076 4.69256 10.5087 4.68773 10.507 4.6829C10.3903 4.28263 10.4677 3.92099 10.7492 3.62214C11.1402 3.20798 11.5455 2.80831 11.9473 2.40441C12.105 2.24623 12.2984 2.15205 12.5168 2.11764C12.6008 2.10375 12.6882 2.11522 12.7692 2.11522C12.7692 1.80249 12.7876 1.50243 12.7644 1.206ZM2.47398 2.41165C2.27937 2.40924 2.12403 2.24261 2.12581 2.03674C2.12819 1.83026 2.27639 1.68415 2.48232 1.68657C2.68586 1.68898 2.83287 1.84294 2.8287 2.04821C2.82454 2.24623 2.66087 2.41347 2.47398 2.41165ZM3.90417 2.41165C3.71193 2.41045 3.55421 2.24502 3.55421 2.04639C3.55421 1.8363 3.69943 1.68657 3.90179 1.68657C4.10831 1.68717 4.25651 1.83328 4.25711 2.03915C4.2583 2.23899 4.09343 2.41286 3.90417 2.41165ZM5.33376 2.41165C5.13855 2.41045 4.98142 2.24442 4.98262 2.03975C4.9844 1.83207 5.13141 1.68536 5.33614 1.68657C5.54088 1.68838 5.68789 1.83992 5.68551 2.04519C5.68313 2.24261 5.52005 2.41226 5.33376 2.41165Z" fill="#b1000e"/>
<path d="M5.68532 2.04527C5.68294 2.24269 5.51986 2.41234 5.33358 2.41174C5.13836 2.41053 4.98124 2.2445 4.98243 2.03984C4.98421 1.83215 5.13122 1.68545 5.33596 1.68665C5.5407 1.68846 5.6877 1.84 5.68532 2.04527Z" fill="#b1000e"/>
<path d="M12.7144 12.3728C12.3936 12.3818 12.1246 12.2623 11.9002 12.0341C11.5443 11.673 11.1884 11.3126 10.8343 10.9498C10.7546 10.8677 10.6772 10.7807 10.6117 10.6865C10.5796 10.6394 10.5528 10.6207 10.4968 10.6207C7.59124 10.6219 4.68503 10.6219 1.77943 10.6219C1.74015 10.6219 1.69968 10.6237 1.66099 10.6298C1.08308 10.7228 0.697414 11.1828 0.697414 11.7781C0.697414 12.1856 0.696819 12.5931 0.69801 13.0006C0.69801 13.0834 0.703366 13.1661 0.710508 13.2488C0.760502 13.8139 1.25271 14.2389 1.79252 14.2335C2.72932 14.2232 3.6667 14.2365 4.6035 14.2371C6.85501 14.2377 9.10594 14.2365 11.3575 14.2353C11.4985 14.2353 11.6402 14.2335 11.7812 14.2274C12.2573 14.2087 12.7031 13.8229 12.7561 13.349C12.7918 13.0302 12.7793 12.7066 12.7882 12.3728C12.7525 12.3728 12.7335 12.3722 12.7144 12.3728ZM2.47756 12.7972C2.27104 12.7972 2.12522 12.6463 2.12522 12.4343C2.12582 12.2279 2.27996 12.0679 2.47815 12.0679C2.66801 12.0673 2.82752 12.2339 2.82871 12.4319C2.8293 12.6432 2.6817 12.7966 2.47756 12.7972ZM3.89822 12.7966C3.69408 12.7948 3.55184 12.6414 3.55362 12.4265C3.556 12.223 3.71551 12.0643 3.91429 12.0679C4.10296 12.0715 4.25949 12.2412 4.25651 12.4398C4.25413 12.6505 4.10475 12.799 3.89822 12.7966ZM5.33079 12.7966C5.12546 12.7966 4.98083 12.6444 4.98202 12.4313C4.98321 12.2261 5.13974 12.0661 5.33853 12.0679C5.52779 12.0691 5.68611 12.2369 5.68551 12.4356C5.68432 12.6463 5.53612 12.7978 5.33079 12.7966Z" fill="#b1000e"/>
<path d="M2.82946 12.4319C2.83006 12.6432 2.68246 12.7966 2.47832 12.7972C2.27179 12.7972 2.12598 12.6462 2.12598 12.4343C2.12657 12.2279 2.28072 12.0679 2.47891 12.0679C2.66877 12.0673 2.82827 12.2339 2.82946 12.4319Z" fill="#b1000e"/>
<path d="M10.5572 9.14459C10.0597 9.10353 9.63114 8.6453 9.62637 8.13575C9.62161 7.54469 9.61685 6.95364 9.62876 6.36258C9.6359 5.97619 9.81623 5.67734 10.1477 5.4775C10.1638 5.46784 10.1787 5.45637 10.1942 5.44611C10.1924 5.44128 10.1906 5.43645 10.1888 5.43162H9.78052C8.01526 5.43102 6.24999 5.43041 4.48413 5.42981C3.62649 5.42981 2.76826 5.43041 1.91063 5.43041C1.67196 5.43041 1.43985 5.46483 1.23214 5.59282C0.872654 5.81499 0.706007 6.15067 0.698865 6.56906C0.692318 6.97899 0.696484 7.38893 0.69827 7.79886C0.698865 7.89184 0.703626 7.98481 0.713744 8.07719C0.764334 8.54206 1.09763 8.91396 1.54936 9.00995C1.64578 9.03048 1.74338 9.04316 1.84635 9.06007V9.89744H10.3757C10.3929 9.89744 10.4126 9.90288 10.4275 9.89624C10.4489 9.88658 10.481 9.87269 10.4858 9.85458C10.5465 9.6155 10.6911 9.42774 10.8429 9.2442C10.8578 9.2267 10.8685 9.20556 10.8852 9.1796C10.7679 9.16693 10.6626 9.15364 10.5572 9.14459ZM2.47484 7.60506C2.27546 7.60386 2.12429 7.44326 2.12548 7.23558C2.12727 7.0291 2.28261 6.87394 2.48496 6.87696C2.6778 6.87938 2.83135 7.0448 2.82837 7.24584C2.8254 7.44749 2.66887 7.60627 2.47484 7.60506ZM3.90265 7.60506C3.70327 7.60386 3.5521 7.44326 3.55388 7.23498C3.55567 7.0285 3.71101 6.87334 3.91396 6.87696C4.1062 6.87938 4.25975 7.0454 4.25677 7.24645C4.2532 7.44809 4.09667 7.60627 3.90265 7.60506ZM5.33343 7.60506C5.13465 7.60506 4.98109 7.44447 4.98228 7.23739C4.98347 7.03031 5.13703 6.87515 5.33938 6.87696C5.53222 6.87817 5.68696 7.04238 5.68518 7.24343C5.6828 7.44508 5.52746 7.60506 5.33343 7.60506Z" fill="#b1000e"/>
</g>
<defs>
<clipPath id="clip0_810_206">
<rect width="20" height="14" fill="white" transform="translate(0.695312 0.237061)"/>
</clipPath>
</defs>
</svg>
