<svg width="21" height="15" viewBox="0 0 21 15" fill="none" xmlns="http://www.w3.org/2000/svg">
<g clip-path="url(#clip0_810_237)">
<path d="M20.0698 6.05099C19.8264 6.02382 19.5818 5.99907 19.3383 5.97311C19.2288 5.96104 19.133 5.91877 19.0544 5.83908C18.8931 5.67487 18.8729 5.40862 19.0158 5.22629C19.177 5.01981 19.3461 4.81877 19.5097 4.6135C19.5681 4.54045 19.6169 4.46196 19.6181 4.39917C19.6193 4.2422 19.5532 4.15527 19.4746 4.07557C19.2229 3.81899 18.9699 3.563 18.717 3.30762C18.5926 3.18144 18.4712 3.05164 18.3414 2.93089C18.2051 2.80471 18.0671 2.80048 17.9153 2.90614C17.8641 2.94176 17.8159 2.98221 17.7677 3.02145C17.5909 3.16695 17.4201 3.32151 17.2356 3.45674C16.991 3.63545 16.5666 3.51108 16.5232 3.12228C16.4946 2.86267 16.4601 2.60367 16.4405 2.34346C16.4232 2.10559 16.2494 1.99329 16.059 1.99088C15.5334 1.98484 15.0079 1.98544 14.4824 1.99088C14.2627 1.99329 14.1342 2.12249 14.1092 2.34104C14.0794 2.59823 14.0527 2.85603 14.0241 3.11262C13.9824 3.48391 13.5866 3.6602 13.2873 3.44044C13.2414 3.40663 13.1968 3.37041 13.1528 3.33419C12.9754 3.18929 12.8016 3.03836 12.6195 2.8995C12.4903 2.80109 12.3576 2.81135 12.2285 2.91036C12.1969 2.93451 12.1684 2.96289 12.1404 2.99126C11.7874 3.34868 11.4351 3.70609 11.0828 4.0635C10.887 4.26213 10.8792 4.41789 11.0548 4.63705C11.0721 4.65878 11.0905 4.67931 11.1072 4.70104C11.247 4.87431 11.3863 5.04758 11.525 5.22146C11.6416 5.36756 11.6488 5.53299 11.5827 5.69781C11.5143 5.86746 11.3774 5.955 11.197 5.97432C10.9405 6.00149 10.684 6.02865 10.4287 6.06126C10.2245 6.08661 10.0984 6.22487 10.0966 6.43617C10.093 6.96927 10.0924 7.50237 10.0972 8.03547C10.099 8.22504 10.2114 8.40918 10.4436 8.42548C10.6727 8.44178 10.9018 8.47257 11.131 8.4937C11.3315 8.51181 11.5012 8.58366 11.5833 8.78289C11.6625 8.97609 11.625 9.15479 11.4893 9.31538C11.3345 9.49892 11.1828 9.68427 11.0346 9.87323C10.8864 10.0628 10.8905 10.2095 11.0566 10.3822C11.4244 10.7631 11.7946 11.1411 12.1684 11.5166C12.3386 11.6875 12.4891 11.6935 12.6766 11.5432C12.8766 11.3826 13.0724 11.2165 13.27 11.0517C13.4152 10.931 13.5789 10.9159 13.7455 10.9829C13.9164 11.0517 14.005 11.1924 14.0253 11.3777C14.0527 11.6301 14.0896 11.8813 14.1056 12.1342C14.1205 12.3612 14.2883 12.4898 14.4913 12.4916C15.0144 12.4965 15.5376 12.4965 16.0607 12.4916C16.2274 12.4898 16.4268 12.3872 16.4417 12.1378C16.4565 11.8819 16.4958 11.6277 16.5208 11.3729C16.5387 11.1888 16.6232 11.0511 16.7904 10.9805C16.9565 10.9111 17.1201 10.9213 17.266 11.0433C17.4415 11.19 17.6195 11.3349 17.7951 11.4828C18.0611 11.7068 18.1885 11.7062 18.4337 11.4617C18.7711 11.1242 19.1056 10.7843 19.4383 10.442C19.6728 10.2011 19.6758 10.0719 19.4663 9.81105C19.3169 9.62631 19.1616 9.44639 19.0205 9.25561C18.7961 8.95194 18.9741 8.54924 19.3461 8.50698C19.5943 8.47861 19.8436 8.45506 20.0918 8.42488C20.3323 8.39529 20.4507 8.25583 20.4513 8.01071C20.4519 7.79458 20.4513 7.57784 20.4513 7.3617C20.4513 7.0701 20.4519 6.77789 20.4513 6.48628C20.4507 6.22064 20.3275 6.07997 20.0698 6.05099ZM16.1964 8.80342C15.7638 9.05819 15.296 9.09502 14.8091 8.98876C14.1318 8.83964 13.614 8.23349 13.5313 7.56516C13.4956 7.27899 13.4962 6.99704 13.57 6.71993C13.6973 6.23996 13.9729 5.87229 14.4121 5.64287C14.8097 5.43518 15.2281 5.38869 15.6673 5.47986C16.2887 5.60845 16.7029 5.98035 16.9327 6.569C17.0136 6.77608 17.0356 6.99765 17.0404 7.2482C17.0321 7.89782 16.7922 8.45325 16.1964 8.80342Z" fill="white"/>
<path d="M12.5203 1.206C12.4846 0.753196 12.2179 0.456158 11.8097 0.308847C11.6353 0.246059 11.4341 0.240625 11.2454 0.240625C8.90524 0.236399 6.56445 0.236399 4.22425 0.23821C3.3071 0.23821 2.38994 0.246662 1.47279 0.253304C1.2127 0.255719 0.992492 0.364391 0.803823 0.540077C0.562781 0.764667 0.459222 1.05204 0.455055 1.37685C0.449699 1.82181 0.45327 2.26676 0.453865 2.71231C0.453865 3.30035 0.840129 3.75677 1.41327 3.84673C1.47339 3.85579 1.53409 3.86062 1.60254 3.86847V4.70403H10.2634C10.2634 4.69256 10.2646 4.68773 10.2628 4.6829C10.1462 4.28263 10.2235 3.92099 10.5051 3.62214C10.8961 3.20798 11.3014 2.80831 11.7031 2.40441C11.8608 2.24623 12.0543 2.15205 12.2727 2.11764C12.3566 2.10375 12.4441 2.11522 12.525 2.11522C12.525 1.80249 12.5435 1.50243 12.5203 1.206ZM2.22984 2.41165C2.03522 2.40924 1.87989 2.24261 1.88167 2.03674C1.88405 1.83026 2.03225 1.68415 2.23818 1.68657C2.44172 1.68898 2.58873 1.84294 2.58456 2.04821C2.5804 2.24623 2.41673 2.41347 2.22984 2.41165ZM3.66003 2.41165C3.46779 2.41045 3.31007 2.24502 3.31007 2.04639C3.31007 1.8363 3.45529 1.68657 3.65765 1.68657C3.86417 1.68717 4.01237 1.83328 4.01297 2.03915C4.01416 2.23899 3.84929 2.41286 3.66003 2.41165ZM5.08962 2.41165C4.89441 2.41045 4.73728 2.24442 4.73847 2.03975C4.74026 1.83207 4.88727 1.68536 5.092 1.68657C5.29674 1.68838 5.44375 1.83992 5.44137 2.04519C5.43899 2.24261 5.27591 2.41226 5.08962 2.41165Z" fill="white"/>
<path d="M5.44118 2.04527C5.4388 2.24269 5.27572 2.41234 5.08944 2.41174C4.89422 2.41053 4.7371 2.2445 4.73829 2.03984C4.74007 1.83215 4.88708 1.68545 5.09182 1.68665C5.29656 1.68846 5.44356 1.84 5.44118 2.04527Z" fill="white"/>
<path d="M12.4703 12.3728C12.1495 12.3818 11.8805 12.2623 11.6561 12.0341C11.3002 11.673 10.9443 11.3126 10.5902 10.9498C10.5104 10.8677 10.433 10.7807 10.3676 10.6865C10.3354 10.6394 10.3086 10.6207 10.2527 10.6207C7.3471 10.6219 4.44089 10.6219 1.53529 10.6219C1.49601 10.6219 1.45554 10.6237 1.41685 10.6298C0.838942 10.7228 0.453274 11.1828 0.453274 11.7781C0.453274 12.1856 0.452679 12.5931 0.453869 13.0006C0.453869 13.0834 0.459225 13.1661 0.466367 13.2488C0.516362 13.8139 1.00856 14.2389 1.54838 14.2335C2.48517 14.2232 3.42256 14.2365 4.35936 14.2371C6.61087 14.2377 8.8618 14.2365 11.1133 14.2353C11.2544 14.2353 11.396 14.2335 11.5371 14.2274C12.0132 14.2087 12.459 13.8229 12.512 13.349C12.5477 13.0302 12.5352 12.7066 12.5441 12.3728C12.5084 12.3728 12.4893 12.3722 12.4703 12.3728ZM2.23342 12.7972C2.0269 12.7972 1.88108 12.6463 1.88108 12.4343C1.88168 12.2279 2.03582 12.0679 2.23401 12.0679C2.42387 12.0673 2.58338 12.2339 2.58457 12.4319C2.58516 12.6432 2.43756 12.7966 2.23342 12.7972ZM3.65408 12.7966C3.44994 12.7948 3.3077 12.6414 3.30948 12.4265C3.31186 12.223 3.47137 12.0643 3.67015 12.0679C3.85882 12.0715 4.01535 12.2412 4.01237 12.4398C4.00999 12.6505 3.86061 12.799 3.65408 12.7966ZM5.08665 12.7966C4.88132 12.7966 4.73669 12.6444 4.73788 12.4313C4.73907 12.2261 4.8956 12.0661 5.09439 12.0679C5.28365 12.0691 5.44197 12.2369 5.44137 12.4356C5.44018 12.6463 5.29198 12.7978 5.08665 12.7966Z" fill="white"/>
<path d="M2.58532 12.4319C2.58592 12.6432 2.43832 12.7966 2.23417 12.7972C2.02765 12.7972 1.88184 12.6462 1.88184 12.4343C1.88243 12.2279 2.03658 12.0679 2.23477 12.0679C2.42463 12.0673 2.58413 12.2339 2.58532 12.4319Z" fill="white"/>
<path d="M10.3131 9.14459C9.81551 9.10353 9.38699 8.6453 9.38223 8.13575C9.37747 7.54469 9.37271 6.95364 9.38461 6.36258C9.39176 5.97619 9.57209 5.67734 9.9036 5.4775C9.91967 5.46784 9.93455 5.45637 9.95002 5.44611C9.94824 5.44128 9.94645 5.43645 9.94467 5.43162H9.53638C7.77112 5.43102 6.00585 5.43041 4.23999 5.42981C3.38235 5.42981 2.52412 5.43041 1.66648 5.43041C1.42782 5.43041 1.19571 5.46483 0.987994 5.59282C0.628513 5.81499 0.461867 6.15067 0.454725 6.56906C0.448178 6.97899 0.452344 7.38893 0.454129 7.79886C0.454725 7.89184 0.459486 7.98481 0.469604 8.07719C0.520193 8.54206 0.853487 8.91396 1.30522 9.00995C1.40164 9.03048 1.49924 9.04316 1.60221 9.06007V9.89744H10.1315C10.1488 9.89744 10.1684 9.90288 10.1833 9.89624C10.2048 9.88658 10.2369 9.87269 10.2417 9.85458C10.3024 9.6155 10.447 9.42774 10.5988 9.2442C10.6136 9.2267 10.6243 9.20556 10.641 9.1796C10.5238 9.16693 10.4184 9.15364 10.3131 9.14459ZM2.2307 7.60506C2.03132 7.60386 1.88015 7.44326 1.88134 7.23558C1.88313 7.0291 2.03846 6.87394 2.24082 6.87696C2.43366 6.87938 2.58721 7.0448 2.58423 7.24584C2.58126 7.44749 2.42473 7.60627 2.2307 7.60506ZM3.65851 7.60506C3.45913 7.60386 3.30796 7.44326 3.30974 7.23498C3.31153 7.0285 3.46687 6.87334 3.66982 6.87696C3.86206 6.87938 4.01561 7.0454 4.01263 7.24645C4.00906 7.44809 3.85253 7.60627 3.65851 7.60506ZM5.08929 7.60506C4.89051 7.60506 4.73695 7.44447 4.73814 7.23739C4.73933 7.03031 4.89289 6.87515 5.09524 6.87696C5.28808 6.87817 5.44282 7.04238 5.44104 7.24343C5.43865 7.44508 5.28332 7.60506 5.08929 7.60506Z" fill="white"/>
</g>
<defs>
<clipPath id="clip0_810_237">
<rect width="20" height="14" fill="white" transform="translate(0.451172 0.237061)"/>
</clipPath>
</defs>
</svg>
