<svg width="30" height="30" viewBox="0 0 30 30" fill="none" xmlns="http://www.w3.org/2000/svg">
<path d="M4.00256 21.8083C2.82804 20.3407 2.82804 19.2814 4.11029 17.6942C2.82453 16.0005 2.82336 14.9826 4.10444 13.4439C3.01892 11.9076 2.89362 10.8436 3.64892 9.73575C4.54474 8.42552 5.91715 8.54861 7.25444 8.56281C6.63615 6.50929 6.99448 6.559 7.26264 5.5281C7.04835 5.51508 6.8481 5.49378 6.64669 5.49259C5.26139 5.48312 3.87375 5.52337 2.49196 5.45708C1.16756 5.39317 0.146439 4.34215 0.0141158 3.04375C-0.115866 1.7643 0.662853 0.542837 1.89475 0.181843C2.29875 0.0634848 2.74139 0.0445474 3.16646 0.0433638C7.57647 0.0338951 11.9888 0.129766 16.3953 0.00193831C18.8767 -0.0702604 20.461 1.88384 19.3544 4.30072C19.6929 4.30072 19.9962 4.30072 20.2994 4.30072C21.4505 4.30072 22.6016 4.29125 23.7527 4.30309C25.4624 4.32203 26.6557 5.45945 26.6451 7.04191C26.6346 8.60542 25.4577 9.72036 23.7797 9.75113C23.3733 9.75823 22.9658 9.75113 22.5595 9.75113C22.5314 9.81268 22.5033 9.87423 22.4752 9.93577C22.6883 10.079 22.8839 10.2731 23.1169 10.3595C26.7271 11.6792 28.9942 14.2121 29.7928 18.0126C31.0961 24.2169 26.0702 30.2165 19.8029 29.994C17.1916 29.9017 14.9585 28.9406 13.0603 27.1297C12.8624 26.9415 12.5193 26.8232 12.2418 26.8196C10.1738 26.7936 8.10459 26.8196 6.0366 26.8007C4.27423 26.7853 2.9873 25.5035 3.20042 23.8642C3.28825 23.1825 3.70395 22.5433 4.00139 21.8071L4.00256 21.8083ZM20.0044 28.8116C24.8207 28.8365 28.7881 24.8726 28.815 20.0081C28.8419 15.0915 24.96 11.1099 20.0898 11.0602C15.2817 11.0117 11.285 14.9778 11.2499 19.8329C11.2148 24.7803 15.1201 28.7856 20.0044 28.8104V28.8116ZM9.90092 1.22695C7.61745 1.22695 5.33399 1.22458 3.0517 1.22695C1.8725 1.22813 1.1699 1.81401 1.1781 2.77626C1.18629 3.7326 1.88772 4.2948 3.07864 4.29954C3.09854 4.29954 3.11728 4.29954 3.13719 4.29954C7.62565 4.29954 12.1141 4.29954 16.6026 4.29835C16.8356 4.29835 17.0722 4.29717 17.3028 4.26166C17.9972 4.15396 18.4914 3.60359 18.55 2.89699C18.6296 1.9229 17.9551 1.23523 16.8684 1.2305C14.5463 1.21866 12.2242 1.22695 9.90209 1.22695H9.90092ZM16.7525 5.49022C14.5088 5.49022 12.264 5.48904 10.0204 5.49022C8.78729 5.49022 8.08 6.0619 8.0882 7.04072C8.0964 8.01363 8.80134 8.56281 10.0473 8.564C14.5358 8.564 19.0242 8.564 23.5127 8.564C23.7457 8.564 23.9823 8.56281 24.2129 8.52731C24.9074 8.4196 25.4015 7.86923 25.4601 7.16263C25.5397 6.18854 24.864 5.50088 23.7785 5.49614C21.4365 5.48549 19.0957 5.49259 16.7536 5.49259L16.7525 5.49022ZM19.6659 9.7535C19.365 9.7535 19.0629 9.7535 18.7619 9.7535C14.6048 9.7535 10.4478 9.7535 6.29071 9.7535C6.07641 9.7535 5.85978 9.7535 5.64782 9.78309C5.05178 9.86239 4.65013 10.2044 4.43935 10.7666C4.04823 11.8082 4.78713 12.8107 5.98859 12.8202C8.19359 12.8391 10.3998 12.8344 12.6048 12.8143C12.8284 12.8119 13.0708 12.6734 13.2699 12.5432C14.1505 11.9668 14.9784 11.2969 15.8988 10.7986C17.0593 10.1713 18.3497 9.92512 19.6659 9.75232V9.7535ZM11.8214 14.031C9.79084 14.031 7.76851 14.0061 5.74736 14.0428C4.92531 14.057 4.3363 14.7577 4.33864 15.559C4.34215 16.3816 4.95342 17.0527 5.81645 17.074C7.25561 17.1095 8.69712 17.0929 10.1375 17.0787C10.2756 17.0775 10.4829 16.9686 10.5379 16.8526C10.9736 15.9389 11.3799 15.011 11.8214 14.031ZM11.6691 25.6183C11.2499 24.6193 10.8869 23.7127 10.4806 22.8262C10.4162 22.6865 10.162 22.5599 9.99342 22.5575C8.66902 22.5362 7.34344 22.535 6.01903 22.5492C5.02134 22.5599 4.35738 23.1683 4.34098 24.0524C4.32459 24.9614 4.99792 25.6017 6.01903 25.6147C7.05186 25.6289 8.08469 25.6183 9.11751 25.6183C9.97 25.6183 10.8213 25.6183 11.6703 25.6183H11.6691ZM10.1269 18.2824C8.73694 18.2824 7.35632 18.2694 5.9757 18.2872C4.9944 18.299 4.33044 18.9452 4.33864 19.8317C4.34684 20.7171 5.0108 21.3384 6.00264 21.3503C7.24976 21.3657 8.49805 21.3562 9.74634 21.3503C9.87515 21.3503 10.0051 21.31 10.1269 21.2887V18.2812V18.2824Z" fill="#3C3C3C"/>
<path d="M21.3157 21.5996C21.3063 21.0185 20.7981 20.5711 20.0838 20.4811C19.7207 20.435 19.339 20.4006 19.0064 20.2598C18.1235 19.8858 17.6001 19.2005 17.5802 18.2134C17.5602 17.2215 18.0813 16.5374 18.9373 16.1149C19.2207 15.9752 19.4748 15.9054 19.4924 15.4888C19.4994 15.3302 19.846 15.052 20.0147 15.0686C20.2231 15.0887 20.5615 15.3479 20.5732 15.5231C20.6002 15.9208 20.8332 15.9799 21.1025 16.1042C21.8625 16.4557 22.3356 17.0523 22.4738 17.895C22.5417 18.3069 22.4504 18.6821 21.9796 18.7472C21.5522 18.8052 21.3578 18.5318 21.311 18.1116C21.2477 17.5529 20.8918 17.2416 20.3789 17.1008C19.8636 16.9599 19.3613 17.0629 19.0568 17.4878C18.8683 17.7518 18.7231 18.2453 18.8448 18.4903C19.0111 18.8253 19.4221 19.0821 19.7816 19.2585C20.0639 19.397 20.4374 19.3307 20.7547 19.4147C21.6986 19.6633 22.4035 20.5048 22.4843 21.4315C22.5651 22.3749 22.0253 23.272 21.0967 23.6874C20.8215 23.8105 20.606 23.9005 20.5604 24.2769C20.5405 24.4414 20.2032 24.6817 20.0158 24.6769C19.8285 24.6722 19.5135 24.4225 19.4912 24.2485C19.4456 23.8958 19.2512 23.8117 18.9912 23.7005C18.2172 23.3679 17.7418 22.7725 17.593 21.9346C17.5228 21.5404 17.5614 21.1439 18.0462 21.0599C18.5146 20.9782 18.6856 21.2706 18.757 21.7109C18.8718 22.4234 19.4713 22.8128 20.2313 22.7216C20.8461 22.6483 21.325 22.1535 21.3157 21.6008V21.5996Z" fill="#3C3C3C"/>
<path d="M27.6545 19.6082C27.6381 21.1267 27.3793 22.2665 26.8571 23.346C26.6744 23.7247 26.4285 23.9981 25.9917 23.7827C25.5572 23.5685 25.6252 23.2099 25.795 22.8252C27.3009 19.4354 26.1802 15.9651 22.9998 14.1649C22.6473 13.9649 22.3405 13.7305 22.556 13.2879C22.7831 12.8192 23.1684 12.8949 23.5513 13.1091C26.2036 14.5922 27.5187 16.8942 27.6533 19.6082H27.6545Z" fill="#3C3C3C"/>
<path d="M13.6597 16.0098C14.3108 16.0228 14.5215 16.4915 14.2698 17.0265C13.6749 18.2882 13.4431 19.6008 13.6878 20.9879C14.0485 23.032 15.1281 24.5671 16.8917 25.6169C17.0427 25.7069 17.2547 25.7578 17.332 25.8903C17.4467 26.088 17.579 26.4076 17.4959 26.5543C17.3929 26.7354 17.0849 26.823 16.8483 26.8905C16.7465 26.9201 16.5977 26.8052 16.4771 26.7425C12.8857 24.8784 11.3786 20.2553 13.1831 16.598C13.3084 16.3447 13.5461 16.1482 13.6609 16.0098H13.6597Z" fill="#3C3C3C"/>
<path d="M20.7641 13.4993C20.6236 13.2673 20.3917 13.0448 20.3636 12.7998C20.3215 12.4364 20.6201 12.1808 20.9526 12.2766C21.1821 12.3429 21.4772 12.6447 21.4936 12.8613C21.5089 13.0649 21.1974 13.2933 21.0299 13.5099C20.9421 13.5064 20.8531 13.5028 20.7653 13.4993H20.7641Z" fill="#3C3C3C"/>
<path d="M19.8106 27.1972C19.5799 27.3392 19.3282 27.6173 19.1244 27.5842C18.9031 27.5487 18.7263 27.2256 18.5295 27.0279C18.7345 26.8385 18.9242 26.5225 19.1478 26.4965C19.3516 26.4728 19.5916 26.764 19.8153 26.9155C19.813 27.009 19.8118 27.1025 19.8094 27.1972H19.8106Z" fill="#3C3C3C"/>
</svg>
