<svg width="20" height="20" viewBox="0 0 20 20" fill="none" xmlns="http://www.w3.org/2000/svg">
<path d="M10.9697 4.48176C11.7709 3.44551 12.4454 3.32389 13.4659 3.99116C13.5403 4.03965 13.686 4.04458 13.7603 3.99774C14.5365 3.51207 15.3105 3.02066 16.07 2.50459C16.1648 2.44049 16.2225 2.21614 16.208 2.07644C16.1344 1.35164 16.3666 0.776406 16.9137 0.375383C17.4774 -0.0379661 18.0837 -0.0478273 18.6626 0.340869C19.2279 0.720526 19.4836 1.30069 19.4183 2.01563C19.3151 3.1546 18.2202 3.87858 17.2369 3.4488C17.0055 3.34772 16.8492 3.37155 16.6504 3.50221C15.8742 4.01582 15.0919 4.5171 14.3074 5.01427C14.1329 5.1252 14.0418 5.23779 14.0213 5.48267C13.9508 6.33649 13.3939 6.94131 12.6169 7.06786C11.8961 7.18538 11.2231 6.73751 10.8999 5.95108C10.8445 5.81631 10.7352 5.67497 10.6168 5.60923C9.87707 5.19505 9.13122 4.79157 8.37703 4.41027C8.26018 4.3511 8.0576 4.36507 7.94834 4.43903C7.47412 4.75787 6.99004 4.81375 6.45892 4.64611C6.33145 4.60585 6.13797 4.64283 6.03023 4.72747C5.14022 5.42597 4.26766 6.15077 3.37841 6.8501C3.19404 6.99555 3.16141 7.13114 3.20163 7.36041C3.34048 8.16575 2.9778 8.9152 2.30858 9.25459C1.64316 9.59234 0.8571 9.40497 0.382884 8.79522C-0.0898147 8.18711 -0.123958 7.31029 0.30094 6.66191C0.729631 6.00696 1.46865 5.77029 2.18642 6.0234C2.32376 6.07188 2.53848 6.05627 2.65078 5.96916C3.54306 5.27394 4.42321 4.56065 5.29349 3.83338C5.39061 3.75203 5.46421 3.53837 5.4422 3.40606C5.26466 2.34598 5.84737 1.39684 6.78215 1.26289C7.76017 1.12319 8.58341 1.85292 8.63576 2.93519C8.64639 3.15871 8.70253 3.27294 8.88767 3.36909C9.58268 3.72738 10.2693 4.10457 10.9727 4.48258L10.9697 4.48176Z" fill="#9A9A9A"/>
<path d="M19.4296 13.5406C19.4296 15.4019 19.4296 17.2632 19.4296 19.1253C19.4296 19.7565 19.265 19.9381 18.6959 19.9397C18.0768 19.9414 17.4577 19.9446 16.8385 19.9389C16.3856 19.9348 16.1875 19.7334 16.1868 19.2379C16.1822 15.4192 16.1822 11.6004 16.1868 7.78165C16.1868 7.29352 16.3871 7.09712 16.8484 7.09301C17.4804 7.08643 18.1125 7.08725 18.7437 7.09301C19.2491 7.09712 19.4281 7.29023 19.4289 7.83424C19.4312 9.73664 19.4296 11.639 19.4296 13.5422V13.5406Z" fill="#9A9A9A"/>
<path d="M5.39334 14.0898C5.39334 12.4191 5.39258 10.7493 5.39334 9.07864C5.39334 8.43437 5.5595 8.25852 6.16195 8.25769C6.76894 8.25687 7.37518 8.25359 7.98218 8.25852C8.43742 8.26263 8.63925 8.46478 8.63925 8.95291C8.6438 12.3895 8.6438 15.8254 8.63925 19.262C8.63925 19.7263 8.43363 19.9334 8.00342 19.9375C7.40932 19.9441 6.81523 19.94 6.22113 19.9391C5.53826 19.9391 5.39334 19.7855 5.39258 19.059C5.39258 17.4023 5.39258 15.7456 5.39258 14.089L5.39334 14.0898Z" fill="#9A9A9A"/>
<path d="M14.037 15.2846C14.037 16.5723 14.0385 17.8592 14.037 19.1469C14.0362 19.7476 13.8625 19.9374 13.3177 19.9391C12.6978 19.9415 12.0787 19.9432 11.4588 19.9391C10.999 19.9358 10.7919 19.7361 10.7911 19.2562C10.7858 16.5994 10.7858 13.9426 10.7911 11.2859C10.7919 10.806 10.9975 10.5948 11.4535 10.5874C12.0855 10.5775 12.7183 10.5791 13.3503 10.5874C13.8473 10.5931 14.0347 10.8018 14.0362 11.3417C14.04 12.6566 14.037 13.9714 14.0378 15.2862L14.037 15.2846Z" fill="#9A9A9A"/>
<path d="M0.00114934 16.412C0.00114934 15.4941 -0.00188564 14.577 0.00190809 13.6591C0.00418432 13.1406 0.187801 12.9409 0.666569 12.9368C1.3115 12.931 1.95644 12.9302 2.60137 12.9368C3.03841 12.9417 3.24099 13.1389 3.24251 13.6065C3.25086 15.4966 3.25086 17.3866 3.24251 19.2767C3.24023 19.727 3.03841 19.9325 2.63172 19.9374C1.96175 19.9456 1.29102 19.9448 0.621044 19.9374C0.197664 19.9325 0.00570182 19.7188 0.00342558 19.2471C-0.00188564 18.3021 0.00190809 17.357 0.00190809 16.412H0.00114934Z" fill="#9A9A9A"/>
</svg>
