<svg width="24" height="24" viewBox="0 0 24 24" fill="none" xmlns="http://www.w3.org/2000/svg">
<path d="M18.7118 17.0269C18.4228 16.2831 17.8382 16.1098 17.1754 16.0058C14.0931 15.5243 11.0165 15.0072 7.93239 14.5379C7.36274 14.4508 6.76793 14.5257 6.17031 14.5257C6.32041 14.3299 6.55349 14.0967 6.69241 13.8175C6.7875 13.6255 6.81734 13.3501 6.7614 13.143C6.65698 12.7561 6.45187 12.3974 6.31948 12.0151C6.2132 11.7069 6.02301 11.5758 5.70509 11.5439C5.10281 11.484 4.5052 11.3847 3.90292 11.3172C3.60085 11.2835 3.45728 11.1355 3.45728 10.8339C3.45821 10.1332 3.45541 9.43151 3.46007 8.7308C3.46194 8.43665 3.59712 8.28864 3.91131 8.25773C4.54435 8.19496 5.17833 8.11721 5.80018 7.98981C5.98478 7.95234 6.18989 7.76124 6.28592 7.58606C6.48543 7.21978 6.65325 6.82633 6.7642 6.42445C6.82014 6.22024 6.79589 5.92609 6.68308 5.75466C6.35211 5.24692 5.96986 4.77104 5.58482 4.30171C5.38157 4.05441 5.34055 3.84738 5.57643 3.61131C6.08267 3.10732 6.58519 2.59959 7.09144 2.09467C7.29282 1.89326 7.48581 1.9148 7.7049 2.09186C8.18877 2.48249 8.66985 2.88343 9.19008 3.22067C9.37002 3.33777 9.67861 3.34714 9.89864 3.28999C10.2697 3.19351 10.6091 2.97898 10.9773 2.86282C11.2943 2.76353 11.4286 2.57242 11.4621 2.25954C11.5265 1.67031 11.6104 1.08388 11.6738 0.494649C11.7064 0.193006 11.8127 -0.00278063 12.1576 0.000966487C12.8541 0.00939749 13.5505 0.00565038 14.247 2.97089e-05C14.6096 -0.00278063 14.715 0.193943 14.7448 0.526499C14.798 1.11667 14.8977 1.70122 14.9676 2.29045C15.0021 2.5846 15.1271 2.76259 15.4273 2.8572C15.8104 2.97805 16.1647 3.19538 16.5498 3.30124C16.7558 3.35838 17.0514 3.34526 17.2201 3.23379C17.7375 2.89093 18.2196 2.49373 18.7006 2.09935C18.9365 1.90544 19.1388 1.89607 19.3514 2.10872C19.8455 2.60334 20.3387 3.09889 20.8319 3.59351C21.0584 3.82021 21.0538 4.03473 20.8459 4.2886C20.4608 4.75793 20.0739 5.231 19.7467 5.74061C19.6301 5.92234 19.6171 6.23335 19.674 6.45349C19.7747 6.84132 19.9359 7.22353 20.1327 7.57294C20.2371 7.75655 20.4543 7.95234 20.651 7.99356C21.2729 8.12283 21.9134 8.15843 22.5371 8.28209C22.6919 8.313 22.9156 8.53314 22.9231 8.67647C22.9632 9.40528 22.9399 10.1369 22.9464 10.8685C22.9492 11.1608 22.8028 11.2826 22.5259 11.3144C21.9246 11.3838 21.327 11.4849 20.7247 11.543C20.3853 11.5758 20.1821 11.7154 20.0935 12.0517C20.0348 12.2765 19.9714 12.5163 19.8436 12.7037C19.4521 13.2779 19.5462 13.7501 20.018 14.2353C20.3518 14.5791 20.61 14.9969 20.9055 15.3782C21.0473 15.5609 21.0566 15.7004 20.8282 15.8269C20.1373 16.21 19.4511 16.6044 18.7071 17.0269H18.7118ZM13.2457 13.2264C14.6898 13.2264 16.133 13.2217 17.5772 13.2292C18.1813 13.232 18.6829 13.0456 18.9859 12.4966C19.2945 11.9393 19.2218 11.3922 18.8908 10.8601C17.4131 8.47974 15.9447 6.09377 14.4614 3.71623C13.8134 2.67734 12.6173 2.68015 11.9684 3.72091C10.4869 6.09939 9.0204 8.4863 7.54361 10.8676C7.21264 11.4006 7.14551 11.9468 7.45597 12.5032C7.76177 13.0531 8.26522 13.232 8.8675 13.2292C10.3266 13.2217 11.7866 13.2264 13.2457 13.2264Z" fill="#8F8F8F"/>
<path d="M4.27584 20.9467C4.27584 19.5115 4.27117 18.0642 4.28609 16.616C4.28702 16.5157 4.41382 16.3724 4.51637 16.3246C5.13636 16.0389 5.75728 15.7523 6.39499 15.5115C7.16788 15.2202 7.95755 15.3757 8.74069 15.5031C11.5581 15.963 14.3756 16.4221 17.1921 16.8839C17.3292 16.9064 17.5017 16.9036 17.5902 16.9851C17.7245 17.1087 17.8988 17.3139 17.8746 17.4525C17.8448 17.6221 17.648 17.7888 17.4849 17.8975C17.3861 17.9631 17.2136 17.919 17.0737 17.919C14.605 17.919 12.1353 17.919 9.66648 17.919C9.54248 17.919 9.38492 17.875 9.30101 17.934C9.14345 18.0455 8.94953 18.2057 8.92529 18.3696C8.90851 18.4792 9.14905 18.6403 9.29262 18.7556C9.34017 18.794 9.44459 18.7762 9.52011 18.7649C10.4972 18.6225 11.3419 18.9139 12.1101 19.5181C12.4261 19.7664 12.8 19.9387 13.1319 20.1682C13.7109 20.5701 14.273 20.5607 14.8688 20.1945C15.4636 19.8282 16.0743 19.4853 16.6924 19.1612C17.0299 18.9851 17.401 18.8745 17.7525 18.7247C17.9221 18.6525 18.0927 18.5729 18.2456 18.4699C18.8209 18.0848 19.3719 17.6595 19.9639 17.3036C20.9484 16.7115 21.9525 16.1513 22.9632 15.6033C23.1468 15.504 23.4247 15.4487 23.6102 15.5143C23.9812 15.6445 23.9542 16.0979 23.5654 16.4136C22.4196 17.3467 21.2673 18.2713 20.1168 19.1987C18.3724 20.6038 16.6188 21.9978 14.8902 23.4207C14.329 23.8826 13.7873 23.9856 13.0871 23.7523C10.4245 22.8662 7.74591 22.0259 5.07203 21.1706C4.82404 21.091 4.57138 21.0273 4.27584 20.9439V20.9467Z" fill="#8F8F8F"/>
<path d="M0.00487238 18.7695C0.00487238 17.8346 0.0151279 16.8997 0.000210809 15.9648C-0.00724771 15.5227 0.182945 15.3428 0.612742 15.3494C1.34181 15.3606 2.07088 15.3625 2.79902 15.3484C3.22882 15.34 3.42554 15.518 3.4246 15.9555C3.41808 17.8412 3.41994 19.726 3.42274 21.6117C3.42274 22.0174 3.2428 22.215 2.83072 22.2103C2.08673 22.2028 1.34181 22.2028 0.597825 22.2103C0.160569 22.2141 -0.0063154 22.0024 0.000210809 21.5743C0.0141955 20.6394 0.00487238 19.7044 0.00487238 18.7695ZM1.72033 20.4792C1.37538 20.5101 0.890572 20.3808 0.881249 20.8988C0.870061 21.4581 1.37351 21.3429 1.72499 21.3419C2.05969 21.341 2.53424 21.4581 2.52958 20.911C2.52492 20.363 2.04291 20.5251 1.72033 20.4792ZM1.72499 16.2084C1.3791 16.2496 0.864467 16.0782 0.880316 16.6534C0.895233 17.1639 1.37165 17.0674 1.71567 17.0627C2.05224 17.0581 2.52492 17.1798 2.52958 16.6384C2.53424 16.0801 2.04851 16.2515 1.72499 16.2084Z" fill="#8F8F8F"/>
<path d="M13.1924 12.3732C11.7641 12.3732 10.3358 12.3873 8.90843 12.3592C8.66603 12.3545 8.31827 12.2271 8.21665 12.0454C8.1141 11.8617 8.17843 11.4917 8.30429 11.2856C9.74378 8.91839 11.2075 6.56614 12.6694 4.21201C13.0125 3.65932 13.4274 3.65932 13.7714 4.21295C15.2333 6.56614 16.6961 8.91932 18.1356 11.2866C18.2614 11.4936 18.3248 11.8664 18.2213 12.0491C18.1178 12.2308 17.7682 12.3536 17.524 12.3582C16.0807 12.3863 14.6366 12.3723 13.1933 12.3723L13.1924 12.3732ZM13.6343 7.23031C13.6343 6.7001 13.6306 6.17082 13.6362 5.6406C13.639 5.33802 13.5486 5.09165 13.2101 5.09821C12.8782 5.10476 12.7859 5.35582 12.7869 5.65465C12.7887 6.71415 12.7887 7.77365 12.7869 8.83408C12.7869 9.12261 12.9053 9.34462 13.2008 9.35399C13.5318 9.36429 13.6399 9.1301 13.6362 8.82003C13.6297 8.29075 13.6343 7.76053 13.6343 7.23031ZM13.6343 10.8594C13.6446 10.5474 13.612 10.2505 13.2334 10.243C12.8316 10.2355 12.7887 10.54 12.7859 10.8594C12.7831 11.1798 12.827 11.4889 13.2232 11.4861C13.6315 11.4833 13.6465 11.1573 13.6343 10.8585V10.8594Z" fill="#8F8F8F"/>
</svg>
