<svg width="20" height="22" viewBox="0 0 20 22" fill="none" xmlns="http://www.w3.org/2000/svg">
<path fill-rule="evenodd" clip-rule="evenodd" d="M17.2712 2.36447H12.7591C12.3057 1.1123 11.1183 0.205566 9.71505 0.205566C8.31177 0.205566 7.12437 1.1123 6.671 2.36447H2.1589C0.971505 2.36447 0 3.33597 0 4.52337V19.6357C0 20.8231 0.971505 21.7946 2.1589 21.7946H17.2712C18.4586 21.7946 19.4301 20.8231 19.4301 19.6357V4.52337C19.4301 3.33597 18.4586 2.36447 17.2712 2.36447ZM9.71505 2.36447C10.3088 2.36447 10.7945 2.85022 10.7945 3.44392C10.7945 4.03762 10.3088 4.52337 9.71505 4.52337C9.12136 4.52337 8.6356 4.03762 8.6356 3.44392C8.6356 2.85022 9.12136 2.36447 9.71505 2.36447ZM10.7945 17.4768H5.39725C4.80355 17.4768 4.3178 16.991 4.3178 16.3973C4.3178 15.8036 4.80355 15.3179 5.39725 15.3179H10.7945C11.3882 15.3179 11.874 15.8036 11.874 16.3973C11.874 16.991 11.3882 17.4768 10.7945 17.4768ZM14.0329 13.159H5.39725C4.80355 13.159 4.3178 12.6732 4.3178 12.0795C4.3178 11.4858 4.80355 11.0001 5.39725 11.0001H14.0329C14.6266 11.0001 15.1123 11.4858 15.1123 12.0795C15.1123 12.6732 14.6266 13.159 14.0329 13.159ZM14.0329 8.84117H5.39725C4.80355 8.84117 4.3178 8.35542 4.3178 7.76172C4.3178 7.16802 4.80355 6.68227 5.39725 6.68227H14.0329C14.6266 6.68227 15.1123 7.16802 15.1123 7.76172C15.1123 8.35542 14.6266 8.84117 14.0329 8.84117Z" fill="#9A9A9A"/>
</svg>
