<svg width="21" height="22" viewBox="0 0 21 22" fill="none" xmlns="http://www.w3.org/2000/svg">
<path fill-rule="evenodd" clip-rule="evenodd" d="M18.5226 12.0579C18.5658 11.7125 18.5982 11.3671 18.5982 11.0001C18.5982 10.6331 18.5658 10.2876 18.5226 9.94221L20.8003 8.16112C21.0054 7.9992 21.0594 7.70775 20.9298 7.47027L18.7709 3.73537C18.6414 3.49789 18.3499 3.41153 18.1125 3.49789L15.4246 4.57734C14.8633 4.14556 14.2588 3.78934 13.6004 3.51948L13.1902 0.658936C13.1578 0.399867 12.9311 0.205566 12.6612 0.205566H8.34343C8.07357 0.205566 7.84688 0.399867 7.8145 0.658936L7.40431 3.51948C6.74584 3.78934 6.14135 4.15635 5.58004 4.57734L2.89221 3.49789C2.64393 3.40074 2.36327 3.49789 2.23374 3.73537L0.07484 7.47027C-0.0654885 7.70775 -0.000721497 7.9992 0.204374 8.16112L2.48201 9.94221C2.43884 10.2876 2.40645 10.6439 2.40645 11.0001C2.40645 11.3563 2.43884 11.7125 2.48201 12.0579L0.204374 13.839C-0.000721497 14.0009 -0.054694 14.2924 0.07484 14.5299L2.23374 18.2648C2.36327 18.5022 2.65473 18.5886 2.89221 18.5023L5.58004 17.4228C6.14135 17.8546 6.74584 18.2108 7.40431 18.4807L7.8145 21.3412C7.84688 21.6003 8.07357 21.7946 8.34343 21.7946H12.6612C12.9311 21.7946 13.1578 21.6003 13.1902 21.3412L13.6004 18.4807C14.2588 18.2108 14.8633 17.8438 15.4246 17.4228L18.1125 18.5023C18.3607 18.5994 18.6414 18.5022 18.7709 18.2648L20.9298 14.5299C21.0594 14.2924 21.0054 14.0009 20.8003 13.839L18.5226 12.0579ZM10.5022 14.7781C8.4189 14.7781 6.72416 13.0834 6.72416 11.0001C6.72416 8.91673 8.4189 7.22199 10.5022 7.22199C12.5856 7.22199 14.2803 8.91673 14.2803 11.0001C14.2803 13.0834 12.5856 14.7781 10.5022 14.7781Z" fill="#969696"/>
</svg>
