<svg width="22" height="13" viewBox="0 0 22 13" fill="none" xmlns="http://www.w3.org/2000/svg">
<path d="M20.377 0.0805664C20.551 0.0805664 20.7179 0.15148 20.841 0.277706C20.9641 0.403933 21.0332 0.575132 21.0332 0.753643V11.5229C21.0332 11.7014 20.9641 11.8726 20.841 11.9988C20.7179 12.125 20.551 12.196 20.377 12.196C20.2029 12.196 20.036 12.125 19.9129 11.9988C19.7898 11.8726 19.7207 11.7014 19.7207 11.5229V7.15057L11.4953 12.0452C10.8128 12.4517 9.87695 11.9873 9.87695 11.1083V7.15057L1.65152 12.0452C0.969016 12.4517 0.0332031 11.9873 0.0332031 11.1083V1.16826C0.0332031 0.28922 0.969016 -0.175203 1.65152 0.231336L9.87695 5.12595V1.16826C9.87695 0.28922 10.8128 -0.175203 11.4953 0.231336L19.7207 5.12595V0.753643C19.7207 0.575132 19.7898 0.403933 19.9129 0.277706C20.036 0.15148 20.2029 0.0805664 20.377 0.0805664ZM1.3457 1.60576V10.6708L8.96345 6.13826L1.3457 1.60576ZM11.1895 1.60576V10.6708L18.8072 6.13826L11.1895 1.60576Z" fill="white"/>
</svg>
