<svg width="38" height="47" viewBox="0 0 38 47" fill="none" xmlns="http://www.w3.org/2000/svg">
<path fill-rule="evenodd" clip-rule="evenodd" d="M32.5735 5.49106H24.3249C23.4961 2.88624 21.3254 1 18.7601 1C16.1947 1 14.0241 2.88624 13.1953 5.49106H4.94669C2.77601 5.49106 1 7.51203 1 9.98212V41.4195C1 43.8896 2.77601 45.9106 4.94669 45.9106H32.5735C34.7442 45.9106 36.5202 43.8896 36.5202 41.4195V9.98212C36.5202 7.51203 34.7442 5.49106 32.5735 5.49106ZM18.76 5.49102C19.8453 5.49102 20.7333 6.50151 20.7333 7.73655C20.7333 8.97159 19.8453 9.98208 18.76 9.98208C17.6746 9.98208 16.7866 8.97159 16.7866 7.73655C16.7866 6.50151 17.6746 5.49102 18.76 5.49102ZM20.7332 36.9286H10.8665C9.78113 36.9286 8.89313 35.9181 8.89313 34.6831C8.89313 33.448 9.78113 32.4375 10.8665 32.4375H20.7332C21.8185 32.4375 22.7065 33.448 22.7065 34.6831C22.7065 35.9181 21.8185 36.9286 20.7332 36.9286ZM26.6532 27.9465H10.8665C9.78113 27.9465 8.89313 26.936 8.89313 25.701C8.89313 24.4659 9.78113 23.4554 10.8665 23.4554H26.6532C27.7386 23.4554 28.6266 24.4659 28.6266 25.701C28.6266 26.936 27.7386 27.9465 26.6532 27.9465ZM26.6532 18.9642H10.8665C9.78113 18.9642 8.89313 17.9537 8.89313 16.7186C8.89313 15.4836 9.78113 14.4731 10.8665 14.4731H26.6532C27.7386 14.4731 28.6266 15.4836 28.6266 16.7186C28.6266 17.9537 27.7386 18.9642 26.6532 18.9642Z" fill="#F2F2F2"/>
<path d="M24.3249 5.49106L23.6102 5.71846L23.7765 6.24106H24.3249V5.49106ZM13.1953 5.49106V6.24106H13.7437L13.91 5.71846L13.1953 5.49106ZM32.5735 4.74106H24.3249V6.24106H32.5735V4.74106ZM25.0396 5.26366C24.1345 2.41886 21.7211 0.25 18.7601 0.25V1.75C20.9298 1.75 22.8578 3.35363 23.6102 5.71846L25.0396 5.26366ZM18.7601 0.25C15.7991 0.25 13.3857 2.41886 12.4806 5.26366L13.91 5.71846C14.6624 3.35363 16.5904 1.75 18.7601 1.75V0.25ZM13.1953 4.74106H4.94669V6.24106H13.1953V4.74106ZM4.94669 4.74106C2.27368 4.74106 0.25 7.1918 0.25 9.98212H1.75C1.75 7.83226 3.27834 6.24106 4.94669 6.24106V4.74106ZM0.25 9.98212V41.4195H1.75V9.98212H0.25ZM0.25 41.4195C0.25 44.2098 2.27368 46.6606 4.94669 46.6606V45.1606C3.27834 45.1606 1.75 43.5694 1.75 41.4195H0.25ZM4.94669 46.6606H32.5735V45.1606H4.94669V46.6606ZM32.5735 46.6606C35.2465 46.6606 37.2702 44.2098 37.2702 41.4195H35.7702C35.7702 43.5694 34.2418 45.1606 32.5735 45.1606V46.6606ZM37.2702 41.4195V9.98212H35.7702V41.4195H37.2702ZM37.2702 9.98212C37.2702 7.1918 35.2465 4.74106 32.5735 4.74106V6.24106C34.2418 6.24106 35.7702 7.83226 35.7702 9.98212H37.2702ZM18.76 6.24102C19.343 6.24102 19.9833 6.82174 19.9833 7.73655H21.4833C21.4833 6.18128 20.3476 4.74102 18.76 4.74102V6.24102ZM19.9833 7.73655C19.9833 8.65136 19.343 9.23208 18.76 9.23208V10.7321C20.3476 10.7321 21.4833 9.29182 21.4833 7.73655H19.9833ZM18.76 9.23208C18.1769 9.23208 17.5366 8.65136 17.5366 7.73655H16.0366C16.0366 9.29182 17.1723 10.7321 18.76 10.7321V9.23208ZM17.5366 7.73655C17.5366 6.82174 18.1769 6.24102 18.76 6.24102V4.74102C17.1723 4.74102 16.0366 6.18128 16.0366 7.73655H17.5366ZM20.7332 36.1786H10.8665V37.6786H20.7332V36.1786ZM10.8665 36.1786C10.2835 36.1786 9.64313 35.5979 9.64313 34.6831H8.14313C8.14313 36.2383 9.2788 37.6786 10.8665 37.6786V36.1786ZM9.64313 34.6831C9.64313 33.7682 10.2835 33.1875 10.8665 33.1875V31.6875C9.2788 31.6875 8.14313 33.1278 8.14313 34.6831H9.64313ZM10.8665 33.1875H20.7332V31.6875H10.8665V33.1875ZM20.7332 33.1875C21.3162 33.1875 21.9565 33.7682 21.9565 34.6831H23.4565C23.4565 33.1278 22.3209 31.6875 20.7332 31.6875V33.1875ZM21.9565 34.6831C21.9565 35.5979 21.3162 36.1786 20.7332 36.1786V37.6786C22.3209 37.6786 23.4565 36.2383 23.4565 34.6831H21.9565ZM26.6532 27.1965H10.8665V28.6965H26.6532V27.1965ZM10.8665 27.1965C10.2835 27.1965 9.64313 26.6158 9.64313 25.701H8.14313C8.14313 27.2562 9.2788 28.6965 10.8665 28.6965V27.1965ZM9.64313 25.701C9.64313 24.7862 10.2835 24.2054 10.8665 24.2054V22.7054C9.2788 22.7054 8.14313 24.1457 8.14313 25.701H9.64313ZM10.8665 24.2054H26.6532V22.7054H10.8665V24.2054ZM26.6532 24.2054C27.2362 24.2054 27.8766 24.7862 27.8766 25.701H29.3766C29.3766 24.1457 28.2409 22.7054 26.6532 22.7054V24.2054ZM27.8766 25.701C27.8766 26.6158 27.2362 27.1965 26.6532 27.1965V28.6965C28.2409 28.6965 29.3766 27.2562 29.3766 25.701H27.8766ZM26.6532 18.2142H10.8665V19.7142H26.6532V18.2142ZM10.8665 18.2142C10.2835 18.2142 9.64313 17.6334 9.64313 16.7186H8.14313C8.14313 18.2739 9.2788 19.7142 10.8665 19.7142V18.2142ZM9.64313 16.7186C9.64313 15.8038 10.2835 15.2231 10.8665 15.2231V13.7231C9.2788 13.7231 8.14313 15.1634 8.14313 16.7186H9.64313ZM10.8665 15.2231H26.6532V13.7231H10.8665V15.2231ZM26.6532 15.2231C27.2362 15.2231 27.8766 15.8038 27.8766 16.7186H29.3766C29.3766 15.1634 28.2409 13.7231 26.6532 13.7231V15.2231ZM27.8766 16.7186C27.8766 17.6334 27.2362 18.2142 26.6532 18.2142V19.7142C28.2409 19.7142 29.3766 18.2739 29.3766 16.7186H27.8766Z" fill="#787878"/>
</svg>
