<svg width="25" height="24" viewBox="0 0 25 24" fill="none" xmlns="http://www.w3.org/2000/svg">
<path fill-rule="evenodd" clip-rule="evenodd" d="M12.1509 22C13.2509 22 14.1509 21.1 14.1509 20H10.1509C10.1509 21.1 11.0409 22 12.1509 22ZM18.1509 16V11C18.1509 7.93 16.5109 5.36 13.6509 4.68V4C13.6509 3.17 12.9809 2.5 12.1509 2.5C11.3209 2.5 10.6509 3.17 10.6509 4V4.68C7.78093 5.36 6.15093 7.92 6.15093 11V16L4.86093 17.29C4.23093 17.92 4.67093 19 5.56093 19H18.7309C19.6209 19 20.0709 17.92 19.4409 17.29L18.1509 16Z" fill="#969696"/>
</svg>
