<svg width="22" height="13" viewBox="0 0 22 13" fill="none" xmlns="http://www.w3.org/2000/svg">
<path d="M0.689453 12.1958C0.515404 12.1958 0.348484 12.1249 0.225414 11.9987C0.102343 11.8724 0.0332032 11.7012 0.0332032 11.5227L0.0332041 0.753491C0.0332041 0.57498 0.102344 0.40378 0.225415 0.277554C0.348485 0.151327 0.515405 0.0804139 0.689454 0.0804139C0.863502 0.080414 1.03042 0.151327 1.15349 0.277554C1.27656 0.40378 1.3457 0.57498 1.3457 0.753491L1.3457 5.1258L9.57114 0.231185C10.2536 -0.175354 11.1895 0.289068 11.1895 1.16811L11.1895 5.1258L19.4149 0.231186C20.0974 -0.175353 21.0332 0.289069 21.0332 1.16811L21.0332 11.1081C21.0332 11.9871 20.0974 12.4516 19.4149 12.045L11.1895 7.15042L11.1895 11.1081C11.1895 11.9871 10.2536 12.4516 9.57114 12.045L1.3457 7.15041L1.3457 11.5227C1.3457 11.7012 1.27656 11.8724 1.15349 11.9987C1.03042 12.1249 0.863501 12.1958 0.689453 12.1958ZM19.7207 10.6706L19.7207 1.60561L12.103 6.13811L19.7207 10.6706ZM9.87695 10.6706L9.87695 1.60561L2.2592 6.13811L9.87695 10.6706Z" fill="white"/>
</svg>
