<svg width="32" height="31" viewBox="0 0 32 31" fill="none" xmlns="http://www.w3.org/2000/svg">
<path d="M31.9853 17.4528C31.6772 18.069 31.4021 18.6962 31.061 19.2903C29.9607 21.2599 28.8384 23.2185 27.727 25.1771C27.683 25.2651 27.628 25.3531 27.54 25.4852C27.54 25.3971 27.518 25.3641 27.529 25.3311C27.8591 23.8567 27.496 22.5473 26.7147 21.2929C25.2183 18.8942 23.7439 16.4845 22.2584 14.0748C22.2364 14.0308 22.2144 13.9868 22.1814 13.9207C24.25 12.6334 26.3076 11.346 28.3652 10.0586C28.3982 10.0806 28.4202 10.0916 28.4423 10.1136C29.3335 11.533 30.2248 12.9525 31.105 14.3829C31.5342 15.0761 31.8093 15.8463 31.9743 16.6496V17.4418L31.9853 17.4528Z" fill="#42AB52"/>
<path d="M13.8739 27.7742C13.7859 27.7742 13.7199 27.7962 13.6538 27.7962C11.8823 27.7962 10.1108 27.7962 8.33926 27.7632C7.43699 27.7412 6.55673 27.5321 5.83051 26.9489C5.62145 26.7839 5.41239 26.5748 5.29136 26.3437C3.97096 23.923 2.66157 21.5023 1.35219 19.0816C1.31918 19.0266 1.29717 18.9716 1.26416 18.8945C1.62727 19.1696 1.95737 19.4557 2.30947 19.6758C3.17873 20.2039 4.14702 20.402 5.17032 20.402C8.00916 20.402 10.848 20.435 13.6868 20.457C13.7419 20.457 13.8079 20.468 13.8739 20.479V27.7852V27.7742Z" fill="#42AB52"/>
<path d="M12.234 10.7962C10.0994 9.60788 7.96473 8.43053 5.81909 7.24218C5.95113 7.00011 6.07217 6.78004 6.1932 6.55998C6.95243 5.19557 7.70065 3.82017 8.49288 2.46676C8.95502 1.67453 9.5602 0.992326 10.4295 0.629218C10.7155 0.508183 11.0346 0.43116 11.3427 0.43116C14.1266 0.420157 16.9214 0.43116 19.7052 0.43116C19.7052 0.46417 19.7052 0.508183 19.7162 0.541192C19.6832 0.563199 19.6502 0.596209 19.6062 0.607212C18.1978 1.02534 17.2295 1.94961 16.5253 3.20398C15.1279 5.70172 13.7304 8.17746 12.333 10.6752C12.311 10.7192 12.278 10.7522 12.245 10.8182L12.234 10.7962Z" fill="#42AB52"/>
<path d="M11.1447 16.3197C10.4625 15.9566 9.85737 15.6265 9.23018 15.2854C9.16416 15.3844 9.09814 15.4835 9.04313 15.5715C8.2839 16.8039 7.53568 18.0362 6.78746 19.2686C6.67742 19.4556 6.54538 19.5217 6.32532 19.5217C5.26901 19.4997 4.19069 19.5217 3.18939 19.1476C1.95702 18.6854 1.08777 17.8492 0.746664 16.5398C0.636631 16.1107 0.724658 15.6815 0.922716 15.2964C1.49489 14.1741 2.08906 13.0627 2.66123 11.9404C2.71625 11.8414 2.76026 11.7424 2.81528 11.6323C2.18809 11.1372 1.57191 10.653 0.911713 10.1359C1.04375 10.1249 1.12078 10.1029 1.18679 10.1029C3.28842 10.0809 5.40104 10.0699 7.50267 10.0479C7.65671 10.0479 7.77775 10.0479 7.87678 10.2349C8.92209 12.1935 9.98941 14.1521 11.0457 16.1107C11.0677 16.1547 11.0787 16.1987 11.1337 16.3197H11.1447Z" fill="#42AB52"/>
<path d="M27.5398 4.54606C27.0336 5.48134 26.5165 6.41662 26.0103 7.3519C25.4822 8.32018 24.954 9.29947 24.4149 10.2678C24.3598 10.3668 24.2168 10.4768 24.1068 10.4768C21.8291 10.4878 19.5514 10.4768 17.2737 10.4768C17.2737 10.4328 17.2517 10.3888 17.2407 10.3558C17.8239 9.98168 18.4071 9.59656 19.0123 9.21145C18.9022 9.01339 18.8032 8.82633 18.6932 8.63928C18.022 7.46193 17.3618 6.28458 16.6906 5.10723C16.5915 4.94218 16.6025 4.83215 16.6906 4.6671C17.2187 3.74283 17.7359 2.79655 18.5391 2.07033C19.3974 1.3001 20.4317 0.981007 21.587 1.08004C22.2032 1.13505 22.6983 1.45415 23.0505 1.9713C23.7547 3.01661 24.4479 4.07292 25.1301 5.12924C25.2621 5.3383 25.3721 5.37131 25.5922 5.27228C26.1314 5.03021 26.6705 4.81014 27.2207 4.57907C27.3087 4.54606 27.4077 4.51305 27.4958 4.48004C27.5068 4.50205 27.5288 4.51305 27.5398 4.53506V4.54606Z" fill="#42AB52"/>
<path d="M20.3003 30.4369C20.2013 30.2938 20.1573 30.2388 20.1133 30.1618C18.9799 28.3903 17.8576 26.6077 16.7133 24.8362C16.6252 24.6932 16.5922 24.5942 16.6912 24.4291C17.7806 22.5255 18.8699 20.611 19.9592 18.7074C19.9922 18.6414 20.0472 18.5864 20.1243 18.4653C20.1793 19.2136 20.2233 19.9068 20.2673 20.622C20.3883 20.622 20.4984 20.622 20.5974 20.622C22.0388 20.611 23.4913 20.6 24.9327 20.578C25.1418 20.578 25.2628 20.633 25.3728 20.82C25.934 21.7553 26.5282 22.6796 26.7482 23.7579C26.9793 24.8912 26.7482 25.9476 26.066 26.8828C25.6589 27.455 25.0427 27.6531 24.3605 27.6971C23.1942 27.7741 22.0278 27.8731 20.8615 27.9501C20.6194 27.9611 20.5314 28.0492 20.5094 28.2912C20.4544 28.9735 20.3773 29.6667 20.2893 30.4369H20.3003Z" fill="#42AB52"/>
</svg>
