<svg width="14" height="15" viewBox="0 0 14 15" fill="none" xmlns="http://www.w3.org/2000/svg">
<path d="M11.4004 2.78113C10.1894 1.5701 8.52737 0.81842 6.68158 0.81842C4.90951 0.81842 3.21003 1.52237 1.95699 2.77541C0.70395 4.02845 0 5.72793 0 7.5C0 9.27207 0.70395 10.9716 1.95699 12.2246C3.21003 13.4776 4.90951 14.1816 6.68158 14.1816C9.79687 14.1816 12.3943 12.0518 13.1377 9.17039H11.4004C10.7156 11.1164 8.86144 12.5112 6.68158 12.5112C5.35253 12.5112 4.07792 11.9832 3.13814 11.0434C2.19836 10.1037 1.67039 8.82905 1.67039 7.5C1.67039 6.17095 2.19836 4.89634 3.13814 3.95656C4.07792 3.01678 5.35253 2.48882 6.68158 2.48882C8.06801 2.48882 9.3041 3.0651 10.2061 3.97547L7.51678 6.6648H13.3632V0.81842L11.4004 2.78113Z" fill="white"/>
</svg>
