<svg width="17" height="17" viewBox="0 0 17 17" fill="none" xmlns="http://www.w3.org/2000/svg">
<g clip-path="url(#clip0_810_254)">
<path d="M9.19556 0.561298C11.025 1.23818 12.3009 2.50982 12.996 4.31789C13.7093 6.17347 13.5369 7.99445 12.5812 9.73875C12.4196 10.0338 12.4284 10.0964 12.6674 10.3356C13.7027 11.3713 14.7459 12.4004 15.7674 13.4495C15.9943 13.6825 16.1909 13.9688 16.3242 14.2652C16.5291 14.722 16.4945 15.188 16.1618 15.5964C15.8153 16.0215 15.3863 16.2283 14.825 16.1149C14.3752 16.024 14.03 15.7706 13.7164 15.4568C12.6766 14.4156 11.6367 13.3745 10.596 12.3337C10.4086 12.1462 10.3162 12.1391 10.0805 12.2591C9.79065 12.4071 9.50622 12.5751 9.20139 12.6843C6.95554 13.4908 4.85585 13.2136 2.95481 11.7523C0.658563 9.98716 -0.162238 6.87035 0.928832 4.18368C1.91787 1.74792 4.3024 0.145752 6.93721 0.145752C7.68139 0.145752 8.36185 0.252869 9.19556 0.561298ZM6.94554 11.433C9.6349 11.4076 11.7221 9.29653 11.7296 6.62403C11.7371 3.98195 9.57952 1.84712 6.94179 1.84378C4.29657 1.84003 2.14816 3.98987 2.14983 6.63903C2.1515 9.28527 4.31032 11.4585 6.94554 11.4334V11.433Z" fill="white"/>
<path d="M4.60547 3.69523C4.60672 4.19455 5.06064 4.48839 5.56328 4.30042C5.94474 4.15746 6.33327 4.06826 6.74055 4.09285C7.89034 4.16163 8.72863 4.7118 9.2471 5.7417C9.36328 5.97261 9.49613 6.17851 9.77264 6.2281C10.0383 6.27562 10.2703 6.21102 10.4398 5.9897C10.6068 5.77088 10.6209 5.53039 10.5122 5.28281C10.2224 4.62219 9.80263 4.05576 9.22128 3.62938C7.93906 2.68908 6.54649 2.49194 5.05522 3.06337C4.75789 3.17715 4.60505 3.39764 4.60547 3.69565V3.69523Z" fill="white"/>
</g>
<defs>
<clipPath id="clip0_810_254">
<rect width="16" height="16" fill="white" transform="translate(0.451172 0.145752)"/>
</clipPath>
</defs>
</svg>
