<svg width="15" height="16" viewBox="0 0 15 16" fill="none" xmlns="http://www.w3.org/2000/svg">
<path fill-rule="evenodd" clip-rule="evenodd" d="M10.5075 10.1572H9.84919L9.61585 9.93218C10.6159 8.76551 11.1325 7.17384 10.8492 5.48218C10.4575 3.16551 8.52419 1.31551 6.19085 1.03218C2.66585 0.598845 -0.300813 3.56551 0.13252 7.09051C0.415853 9.42384 2.26585 11.3572 4.58252 11.7488C6.27419 12.0322 7.86585 11.5155 9.03252 10.5155L9.25752 10.7488V11.4072L12.7992 14.9488C13.1409 15.2905 13.6992 15.2905 14.0409 14.9488C14.3825 14.6072 14.3825 14.0488 14.0409 13.7072L10.5075 10.1572ZM5.50752 10.1572C3.43252 10.1572 1.75752 8.48218 1.75752 6.40718C1.75752 4.33218 3.43252 2.65718 5.50752 2.65718C7.58252 2.65718 9.25752 4.33218 9.25752 6.40718C9.25752 8.48218 7.58252 10.1572 5.50752 10.1572Z" fill="#969696"/>
</svg>
