<svg width="17" height="17" viewBox="0 0 17 17" fill="none" xmlns="http://www.w3.org/2000/svg">
<g clip-path="url(#clip0_810_229)">
<path d="M9.4397 0.561298C11.2691 1.23818 12.5451 2.50982 13.2401 4.31789C13.9535 6.17347 13.7811 7.99445 12.8254 9.73875C12.6638 10.0338 12.6725 10.0964 12.9116 10.3356C13.9468 11.3713 14.99 12.4004 16.0115 13.4495C16.2385 13.6825 16.435 13.9688 16.5683 14.2652C16.7732 14.722 16.7386 15.188 16.4059 15.5964C16.0594 16.0215 15.6305 16.2283 15.0691 16.1149C14.6194 16.024 14.2741 15.7706 13.9606 15.4568C12.9207 14.4156 11.8809 13.3745 10.8402 12.3337C10.6528 12.1462 10.5603 12.1391 10.3246 12.2591C10.0348 12.4071 9.75037 12.5751 9.44553 12.6843C7.19968 13.4908 5.09999 13.2136 3.19895 11.7523C0.902703 9.98716 0.0819023 6.87035 1.17297 4.18368C2.16201 1.74792 4.54654 0.145752 7.18135 0.145752C7.92553 0.145752 8.60599 0.252869 9.4397 0.561298ZM7.18968 11.433C9.87905 11.4076 11.9662 9.29653 11.9737 6.62403C11.9812 3.98195 9.82366 1.84712 7.18593 1.84378C4.54071 1.84003 2.39231 3.98987 2.39397 6.63903C2.39564 9.28527 4.55446 11.4585 7.18968 11.4334V11.433Z" fill="#b1000e"/>
<path d="M4.84961 3.69523C4.85086 4.19455 5.30478 4.48839 5.80742 4.30042C6.18888 4.15746 6.57742 4.06826 6.98469 4.09285C8.13448 4.16163 8.97277 4.7118 9.49124 5.7417C9.60743 5.97261 9.74027 6.17851 10.0168 6.2281C10.2825 6.27562 10.5144 6.21102 10.6839 5.9897C10.8509 5.77088 10.8651 5.53039 10.7564 5.28281C10.4665 4.62219 10.0468 4.05576 9.46542 3.62938C8.1832 2.68908 6.79063 2.49194 5.29936 3.06337C5.00203 3.17715 4.84919 3.39764 4.84961 3.69565V3.69523Z" fill="#b1000e"/>
</g>
<defs>
<clipPath id="clip0_810_229">
<rect width="16" height="16" fill="white" transform="translate(0.695312 0.145752)"/>
</clipPath>
</defs>
</svg>
