<svg width="15" height="8" viewBox="0 0 15 8" fill="none" xmlns="http://www.w3.org/2000/svg">
<path fill-rule="evenodd" clip-rule="evenodd" d="M0.169473 0.646856C0.223058 0.600305 0.286715 0.563371 0.356797 0.538171C0.426879 0.512971 0.50201 0.5 0.577887 0.5C0.653763 0.5 0.728894 0.512971 0.798977 0.538171C0.869059 0.563371 0.932715 0.600305 0.9863 0.646856L7.50015 6.29242L14.014 0.646856C14.0676 0.60038 14.1313 0.563513 14.2014 0.53836C14.2715 0.513208 14.3466 0.500262 14.4224 0.500262C14.4983 0.500262 14.5734 0.513208 14.6434 0.53836C14.7135 0.563513 14.7772 0.60038 14.8308 0.646856C14.8845 0.693332 14.927 0.748507 14.956 0.809231C14.9851 0.869955 15 0.935039 15 1.00077C15 1.06649 14.9851 1.13158 14.956 1.1923C14.927 1.25302 14.8845 1.3082 14.8308 1.35468L7.90857 7.35314C7.85498 7.3997 7.79132 7.43663 7.72124 7.46183C7.65116 7.48703 7.57603 7.5 7.50015 7.5C7.42427 7.5 7.34914 7.48703 7.27906 7.46183C7.20898 7.43663 7.14532 7.3997 7.09174 7.35314L0.169473 1.35468C0.115753 1.30824 0.0731311 1.25308 0.0440502 1.19235C0.0149692 1.13162 0 1.06652 0 1.00077C0 0.935015 0.0149692 0.869911 0.0440502 0.809181C0.0731311 0.748451 0.115753 0.69329 0.169473 0.646856Z" fill="#4D4D4D"/>
</svg>
