<svg width="35" height="30" viewBox="0 0 35 30" fill="none" xmlns="http://www.w3.org/2000/svg">
<path d="M27.7417 12.6386C29.4292 12.6386 31.1536 12.6361 32.878 12.6386C34.3618 12.6411 34.9917 13.209 34.9917 14.5481C34.9931 17.6672 34.9822 20.7876 34.9999 23.9068C35.004 24.5474 34.78 25.0488 34.2744 25.496C32.8438 26.7599 31.4255 28.0362 30.0249 29.3284C29.529 29.7867 28.9646 29.9924 28.2623 29.99C24.3927 29.9814 20.5204 30.038 16.6535 29.9493C15.6506 29.9259 14.6641 29.9358 13.6625 29.9555C9.81752 30.0306 5.96843 29.9887 2.12069 29.985C0.6491 29.9838 0.00963351 29.3937 0.00963351 28.0596C0.00826713 24.7753 0.0219309 21.4911 6.88349e-05 18.208C-0.00539669 17.4135 0.314337 16.8665 1.05765 16.4181C2.77929 15.3821 4.45038 14.2783 6.15425 13.2164C6.57373 12.954 7.03557 12.747 7.58212 12.46C7.58212 11.5644 7.58212 10.5616 7.58212 9.56007C7.58212 8.24686 7.59989 6.93242 7.57529 5.61921C7.56026 4.80615 7.89639 4.24194 8.66703 3.77997C10.4474 2.71314 12.1609 1.55515 13.9385 0.482165C14.3648 0.224697 14.9333 0.0300562 15.4388 0.0251286C18.9463 -0.0118285 22.4525 0.000490515 25.9572 0.00911385C27.3345 0.0115777 28.0041 0.628762 28.0054 1.87545C28.0095 5.01557 28.0164 8.1557 27.9959 11.2958C27.9931 11.7307 27.836 12.1643 27.7417 12.6386ZM15.4771 4.75811C13.5436 4.75811 11.6102 4.75564 9.67679 4.75811C8.88019 4.75934 8.75994 4.86528 8.75994 5.57732C8.75721 8.87883 8.75721 12.1803 8.75994 15.4818C8.75994 16.1618 8.92391 16.3158 9.67815 16.3158C13.545 16.3208 17.4105 16.3134 21.2774 16.322C21.9114 16.3232 22.1669 16.0953 22.1642 15.5114C22.1464 12.189 22.1464 8.86774 22.1642 5.54529C22.1669 4.96014 21.9196 4.74209 21.276 4.74948C19.3426 4.77043 17.4091 4.75687 15.4757 4.75687L15.4771 4.75811ZM22.4525 28.9207C24.3859 28.9207 26.3193 28.9084 28.2514 28.9281C28.8854 28.9342 29.1573 28.7297 29.1546 28.1409C29.1395 24.8197 29.1491 21.4972 29.145 18.1748C29.145 17.4812 29.0015 17.3568 28.2186 17.3568C24.375 17.3531 20.5313 17.3531 16.6877 17.3568C15.9102 17.3568 15.7449 17.5132 15.7449 18.2376C15.7422 21.4985 15.7422 24.7581 15.7449 28.0189C15.7449 28.8037 15.872 28.9194 16.7205 28.9207C18.6307 28.9231 20.5409 28.9207 22.4525 28.9207ZM7.87999 28.9207C9.81616 28.9207 11.751 28.9071 13.6871 28.9281C14.3266 28.9355 14.6026 28.7174 14.6012 28.1372C14.5917 24.811 14.5917 21.4849 14.6012 18.1588C14.6026 17.5872 14.3402 17.3469 13.698 17.3482C9.82709 17.3593 5.95476 17.3593 2.0838 17.3482C1.44843 17.3457 1.17789 17.5662 1.17926 18.1477C1.19155 21.4738 1.19155 24.8 1.17926 28.1261C1.17652 28.7002 1.42111 28.9355 2.07287 28.9281C4.00767 28.9059 5.94383 28.9207 7.87999 28.9194V28.9207ZM26.8153 1.75842C25.9395 2.44705 25.2453 3.07163 24.461 3.5878C23.5961 4.15817 23.2518 4.77412 23.2996 5.80892C23.4294 8.57331 23.3433 11.3451 23.3433 14.1144V14.9262C24.4364 13.9444 25.4202 13.103 26.3371 12.2074C26.5967 11.9537 26.788 11.5397 26.7935 11.1973C26.8331 8.83941 26.8139 6.48031 26.8139 4.12121C26.8139 3.387 26.8139 2.65278 26.8139 1.75842H26.8153ZM30.3365 27.5582C31.4105 26.5862 32.3232 25.7325 33.2728 24.9121C33.6636 24.5745 33.8331 24.221 33.829 23.7282C33.8071 20.8591 33.8194 17.99 33.8167 15.1209C33.8167 14.9275 33.7907 14.7341 33.7675 14.4015C32.5582 15.3574 31.4528 16.2259 30.3597 17.1055C30.2791 17.1708 30.2449 17.3186 30.2463 17.4282C30.2709 19.1665 30.316 20.9059 30.3337 22.6441C30.3501 24.2173 30.3365 25.7904 30.3365 27.557V27.5582ZM23.5989 16.1606C23.6248 16.253 23.6508 16.3454 23.6767 16.4378C25.5514 16.4378 27.4247 16.4378 29.2994 16.4353C29.3609 16.4353 29.4347 16.407 29.4825 16.37C30.5701 15.5176 31.655 14.6626 32.7413 13.8089C30.6426 13.6783 28.6066 13.6759 26.5721 13.6857C26.4546 13.6857 26.3139 13.7658 26.2223 13.8446C25.3437 14.6121 24.4733 15.3882 23.6002 16.1606H23.5989ZM17.666 3.55207C17.6906 3.59642 17.7152 3.64077 17.7398 3.68389C18.5104 3.68389 19.2811 3.68389 20.0517 3.68389C20.8962 3.68389 21.8253 3.88469 22.5604 3.63091C23.316 3.36975 23.8858 2.66633 24.5335 2.15386C24.9447 1.82864 25.3506 1.49972 25.8821 1.07471C24.2752 1.07471 22.8692 1.07225 21.4632 1.07841C21.3334 1.07841 21.1763 1.09689 21.0806 1.16341C19.937 1.95306 18.8015 2.7538 17.6647 3.55207H17.666ZM11.1197 3.54838C11.1361 3.59272 11.1525 3.63707 11.1689 3.68142C12.5708 3.68142 13.9741 3.68389 15.376 3.67773C15.4825 3.67773 15.6096 3.64816 15.6916 3.59026C16.8339 2.79691 17.9707 1.99618 19.2756 1.07964C17.7589 1.07964 16.454 1.07718 15.1491 1.08457C15.0439 1.08457 14.9251 1.13015 14.8376 1.18558C13.5956 1.97031 12.3576 2.75996 11.1197 3.54961V3.54838ZM7.56163 13.6081C6.12283 14.5222 4.8152 15.3537 3.35454 16.2826H7.56163V13.6081Z" fill="black"/>
<path d="M12.4243 15.4334C12.352 15.4334 12.2798 15.4291 12.2089 15.4334C9.821 15.6164 9.91496 14.6145 10.0653 12.764C10.1101 12.2162 10.5293 11.8671 11.0916 11.8416C12.0008 11.8004 12.9129 11.826 13.825 11.8288C13.9189 11.8288 14.0172 11.8515 14.1069 11.8799C14.8469 12.1169 15.1259 12.913 14.9481 14.2754C14.8542 14.9948 14.4003 15.405 13.6501 15.4291C13.2425 15.4433 12.8348 15.4319 12.4258 15.4319L12.4243 15.4334ZM13.666 13.0535H11.2853V14.1803H13.666V13.0535Z" fill="black"/>
<path d="M19.4726 15.4325C19.1592 15.4325 18.8138 15.4923 18.541 15.4147C18.3045 15.3476 18.0375 15.14 18.0013 14.9701C17.9766 14.8579 18.3205 14.601 18.5265 14.5853C19.1693 14.5339 19.8325 14.5297 20.4738 14.5874C20.6842 14.6062 20.9701 14.8589 20.9991 15.0246C21.0194 15.1431 20.7002 15.3675 20.4796 15.4168C20.1705 15.485 19.8107 15.4336 19.474 15.4346L19.4726 15.4325Z" fill="black"/>
<path d="M19.5072 11.8563C19.8452 11.8563 20.205 11.7506 20.5111 11.8943C20.7258 11.9958 21.0029 12.4418 21 12.7272C20.9956 13.0232 20.7026 13.5306 20.5082 13.5602C19.8409 13.6637 19.1562 13.6616 18.4889 13.5559C18.2945 13.5242 18 13.0084 18 12.7167C18 12.4292 18.2843 11.9937 18.5034 11.8922C18.8095 11.7506 19.1707 11.8563 19.5072 11.8563Z" fill="black"/>
<path d="M19.5269 24.5623C19.5998 24.5623 19.6728 24.5666 19.7442 24.5623C22.2196 24.4033 22.0198 25.4042 21.9789 26.9232C21.96 27.6567 21.5122 28.117 20.7595 28.1522C19.9134 28.1916 19.063 28.1916 18.217 28.1522C17.4497 28.1156 17.0311 27.6693 17.015 26.9218C16.9756 25.1114 16.8298 24.4202 19.5254 24.5638L19.5269 24.5623ZM20.6836 25.804H18.2899V26.9246H20.6836V25.804Z" fill="black"/>
<path d="M26.5911 27.2948C26.882 27.2948 27.2077 27.236 27.452 27.3113C27.6919 27.3856 27.9638 27.5846 27.9987 27.7527C28.0235 27.8672 27.6803 28.123 27.4738 28.1405C26.8296 28.1931 26.1651 28.1983 25.5223 28.1415C25.3115 28.123 24.9887 27.8548 25.0003 27.7115C25.0119 27.565 25.3391 27.3649 25.5834 27.3092C25.8902 27.2391 26.2538 27.2927 26.5926 27.2927V27.2948H26.5911Z" fill="black"/>
<path d="M26.4871 24.5896C26.7745 24.5896 27.0934 24.472 27.3377 24.6205C27.5963 24.7753 27.7831 25.1797 28 25.4768C27.796 25.7575 27.6106 26.2403 27.3865 26.2815C26.7759 26.393 26.1423 26.3909 25.5317 26.2754C25.3191 26.2341 24.9929 25.7224 25.0001 25.4418C25.0087 25.1488 25.3248 24.7485 25.5633 24.6247C25.8377 24.4823 26.1768 24.5917 26.4871 24.5896Z" fill="black"/>
<path d="M4.9447 24.5665C5.03913 24.5665 5.13357 24.5665 5.228 24.5665C6.764 24.5665 7.28737 25.4387 6.85274 27.2985C6.731 27.8212 6.42153 28.1354 5.98121 28.1551C5.30196 28.1833 4.62043 28.1974 3.94118 28.1551C3.37912 28.1199 3.05486 27.6648 3.00935 26.973C3.00821 26.949 3.00935 26.9265 3.00821 26.9026C2.98545 25.1977 2.88078 24.4073 4.94356 24.5651L4.9447 24.5665ZM5.9027 25.8106H4.03789V26.9293H5.9027V25.8106Z" fill="black"/>
<path d="M12.0088 27.2951C12.2191 27.2951 12.4508 27.2373 12.6339 27.3127C12.7926 27.3777 12.9747 27.5802 12.999 27.7455C13.0165 27.8622 12.7965 28.1236 12.6631 28.1401C12.2318 28.1928 11.7878 28.198 11.3574 28.1432C11.2143 28.1246 10.9962 27.8633 11.0001 27.7197C11.0049 27.573 11.2201 27.3726 11.3817 27.3096C11.5677 27.2383 11.7975 27.293 12.0078 27.293V27.2951H12.0088Z" fill="black"/>
<path d="M12.0455 26.322C11.8406 26.322 11.6167 26.4344 11.4364 26.2893C11.2666 26.1524 11.1442 25.7458 11 25.4576C11.1442 25.1715 11.2751 24.6933 11.4355 24.6381C11.8046 24.5155 12.1954 24.5135 12.5645 24.6381C12.7258 24.6913 12.8558 25.1736 13 25.4617C12.8548 25.7478 12.7296 26.1279 12.5588 26.2934C12.4146 26.4324 12.2182 26.322 12.0446 26.322H12.0455Z" fill="black"/>
</svg>
