<svg width="36" height="32" viewBox="0 0 36 32" fill="none" xmlns="http://www.w3.org/2000/svg">
<rect x="0.637695" width="35" height="32" rx="5" fill="#EBEBEB"/>
<path d="M8.75963 20.8953C0.409004 10.7386 16.4333 -1.22331 22.9784 12.7699C27.9436 11.6414 33.1345 18.1865 27.2665 22.926" stroke="#2D2D2D" stroke-width="1.5" stroke-linecap="round"/>
<path d="M18.7632 15.2505C18.7632 14.8363 18.4274 14.5005 18.0132 14.5005C17.599 14.5005 17.2632 14.8363 17.2632 15.2505H18.7632ZM17.4829 26.1325C17.7757 26.4254 18.2506 26.4254 18.5435 26.1325L23.3165 21.3595C23.6094 21.0666 23.6094 20.5917 23.3165 20.2988C23.0236 20.0059 22.5487 20.0059 22.2558 20.2988L18.0132 24.5415L13.7705 20.2988C13.4776 20.0059 13.0028 20.0059 12.7099 20.2988C12.417 20.5917 12.417 21.0666 12.7099 21.3595L17.4829 26.1325ZM17.2632 15.2505V25.6021H18.7632V15.2505H17.2632Z" fill="#2D2D2D"/>
</svg>
