<svg width="23" height="12" viewBox="0 0 23 12" fill="none" xmlns="http://www.w3.org/2000/svg">
<path d="M11.5935 11.0158C11.0242 11.0402 10.4702 10.7191 10.3532 10.2931C10.253 9.92757 10.4004 9.61872 10.7771 9.38267C11.0987 9.18123 11.4324 8.98924 11.7792 8.81298C12.7178 8.33654 13.6653 7.87033 14.6102 7.40058C14.8065 7.30301 14.9932 7.3451 15.1123 7.43559C15.234 7.52805 15.2545 7.66889 15.1595 7.78496C15.0383 7.93288 14.9124 8.07845 14.7855 8.22363C14.1958 8.89914 13.6155 9.57938 12.9801 10.2321C12.8117 10.4052 12.6291 10.5716 12.4361 10.7294C12.2047 10.9182 11.9345 11.0008 11.5935 11.0154L11.5935 11.0158Z" fill="white"/>
<path d="M11.8969 0C14.4296 0.174702 16.6406 1.05986 18.5471 2.65464C17.5831 3.58638 16.6328 4.50564 15.6843 5.42325C15.4676 5.2735 15.2526 5.11294 15.0247 4.97068C14.181 4.44242 13.2608 4.10633 12.2658 3.96656C12.1807 3.95492 12.0947 3.94078 12.0096 3.9441C11.9055 3.94909 11.8918 3.89752 11.8926 3.81682C11.8952 3.63297 11.8918 3.44995 11.8918 3.26609C11.8918 2.20624 11.8918 1.14555 11.8918 0.0856871C11.8918 0.0657212 11.8943 0.0449233 11.8969 0.000831914V0Z" fill="white"/>
<path d="M2.99011 3.57642C3.95587 4.51066 4.90443 5.42909 5.85728 6.35168C5.816 6.40326 5.76871 6.45983 5.72313 6.51723C4.94657 7.50554 4.46068 8.60783 4.31706 9.84655C4.31362 9.87733 4.30588 9.90811 4.30502 9.93889C4.3033 9.99629 4.27492 10.0146 4.21644 10.0146C2.90583 10.0129 1.59436 10.0138 0.283755 10.0129C0.273435 10.0129 0.263116 10.0096 0.245056 10.0054C0.412752 7.56211 1.34411 5.42826 2.98925 3.57642H2.99011Z" fill="white"/>
<path d="M19.5034 3.58643C21.1494 5.42163 22.0662 7.55965 22.2451 10.0138C22.2081 10.0138 22.1677 10.0138 22.1272 10.0138C20.8665 10.0138 19.6049 10.0138 18.3442 10.0138C18.192 10.0138 18.1902 10.0138 18.173 9.86321C18.0759 9.00634 17.8222 8.1944 17.3862 7.44484C17.1746 7.0813 16.9106 6.74603 16.6707 6.39829C16.6586 6.38082 16.6457 6.36502 16.6406 6.35753C17.5917 5.43743 18.5403 4.51983 19.5043 3.58726L19.5034 3.58643Z" fill="white"/>
<path d="M10.5863 0.00415039C10.5889 0.065712 10.5932 0.109803 10.5932 0.154727C10.5932 1.37098 10.5915 2.58807 10.5941 3.80433C10.5941 3.90749 10.5614 3.93494 10.4547 3.94493C9.6928 4.01481 8.96869 4.21779 8.27641 4.53558C7.77246 4.76686 7.30033 5.04555 6.87034 5.38913C6.80585 5.44071 6.77231 5.41242 6.72845 5.36916C6.0697 4.73192 5.41096 4.0955 4.75135 3.45826C4.48304 3.1987 4.21473 2.93914 3.93179 2.66544C5.84525 1.07066 8.04938 0.173861 10.5863 0.00415039Z" fill="white"/>
</svg>
