<svg width="23" height="12" viewBox="0 0 23 12" fill="none" xmlns="http://www.w3.org/2000/svg">
<path d="M11.5935 11.5159C11.0243 11.5403 10.4703 11.2193 10.3533 10.7932C10.2531 10.4277 10.4005 10.1188 10.7772 9.88278C11.0988 9.68134 11.4325 9.48935 11.7793 9.31309C12.7179 8.83665 13.6654 8.37044 14.6103 7.90069C14.8065 7.80312 14.9933 7.84521 15.1124 7.9357C15.2341 8.02816 15.2546 8.169 15.1596 8.28507C15.0384 8.43299 14.9125 8.57856 14.7855 8.72374C14.1958 9.39925 13.6156 10.0795 12.9802 10.7322C12.8118 10.9053 12.6292 11.0717 12.4361 11.2295C12.2048 11.4183 11.9346 11.5013 11.5935 11.5159Z" fill="#b1000e"/>
<path d="M11.897 0.5C14.4296 0.674702 16.6406 1.55986 18.5472 3.15464C17.5832 4.08638 16.6329 5.00564 15.6843 5.92325C15.4676 5.7735 15.2526 5.61294 15.0247 5.47068C14.1811 4.94242 13.2609 4.60633 12.2659 4.46656C12.1808 4.45492 12.0948 4.44078 12.0096 4.4441C11.9056 4.44909 11.8918 4.39752 11.8927 4.31682C11.8953 4.13297 11.8918 3.94995 11.8918 3.76609C11.8918 2.70624 11.8918 1.64555 11.8918 0.585687C11.8918 0.565721 11.8944 0.544091 11.897 0.5Z" fill="#b1000e"/>
<path d="M2.99017 4.07647C3.95593 5.0107 4.90449 5.92914 5.85734 6.85173C5.81607 6.90331 5.76877 6.95988 5.72319 7.01728C4.94663 8.00559 4.46074 9.10788 4.31712 10.3466C4.31368 10.3774 4.30594 10.4082 4.30508 10.4389C4.30336 10.4963 4.27498 10.5146 4.2165 10.5146C2.90589 10.513 1.59443 10.5138 0.283816 10.513C0.273497 10.513 0.263177 10.5097 0.245117 10.5055C0.412813 8.06216 1.34503 5.92831 2.99017 4.07647Z" fill="#b1000e"/>
<path d="M19.5035 4.08633C21.1495 5.92153 22.0662 8.05955 22.2451 10.5137C22.2081 10.5137 22.1677 10.5137 22.1273 10.5137C20.8666 10.5137 19.605 10.5137 18.3443 10.5137C18.192 10.5137 18.1903 10.5137 18.1731 10.3631C18.0759 9.50625 17.8222 8.6943 17.3862 7.94474C17.1747 7.5812 16.9107 7.24594 16.6707 6.8982C16.6587 6.88073 16.6458 6.86492 16.6406 6.85743C17.5918 5.93734 18.5403 5.01974 19.5044 4.08716L19.5035 4.08633Z" fill="#b1000e"/>
<path d="M10.5864 0.504259C10.589 0.56582 10.5933 0.609912 10.5933 0.654835C10.5933 1.87109 10.5915 3.08818 10.5941 4.30444C10.5941 4.4076 10.5614 4.43505 10.4548 4.44503C9.69287 4.51491 8.96876 4.7179 8.27648 5.03569C7.77253 5.26696 7.3004 5.54565 6.87041 5.88924C6.80591 5.94081 6.77238 5.91253 6.72852 5.86927C6.06977 5.23202 5.41103 4.59561 4.75142 3.95836C4.48311 3.69881 4.2148 3.43925 3.93186 3.16555C5.84532 1.57077 8.04945 0.673969 10.5864 0.504259Z" fill="#b1000e"/>
</svg>
