<svg width="29" height="29" viewBox="0 0 29 29" fill="none" xmlns="http://www.w3.org/2000/svg">
<path d="M16.2318 25.841C18.171 25.841 20.0119 25.8533 21.8651 25.841C22.6015 25.841 23.2151 25.289 23.2151 24.5775C23.2397 21.4492 23.2151 18.321 23.2151 15.1192C22.6506 15.1192 22.1106 15.1069 21.5706 15.1192C21.0674 15.1314 20.871 14.9106 20.8833 14.4199C20.8955 13.7452 20.8833 13.0582 20.8833 12.3344C20.6746 12.3344 20.5151 12.3222 20.3433 12.3099C19.5823 12.2486 19.0301 11.6965 19.0178 10.9359C19.0055 8.80139 19.0178 6.65456 19.0178 4.52001C19.0178 3.86983 19.4842 3.9189 19.9505 3.88209C19.9505 3.14604 19.9505 2.43452 19.9505 1.723C19.9505 0.802936 20.5274 0.17729 21.3374 0.17729C22.1597 0.17729 22.7365 0.790669 22.7488 1.69847C22.7488 2.40999 22.7488 3.13377 22.7488 3.88209H24.6142C24.6142 3.20738 24.6142 2.50813 24.6142 1.82114C24.6142 0.815204 25.1665 0.17729 26.0256 0.17729C26.8725 0.17729 27.4125 0.815204 27.4125 1.83341C27.4125 2.47132 27.4125 3.12151 27.4125 3.75942C27.4125 3.79622 27.437 3.83302 27.4616 3.86983C28.3329 3.98024 28.3452 3.98023 28.3452 4.87577C28.3452 6.72817 28.3452 8.5683 28.3452 10.4207C28.3452 11.8437 27.9648 12.2608 26.4797 12.359C26.4797 13.046 26.4675 13.7452 26.4797 14.4322C26.492 14.9229 26.2956 15.156 25.7924 15.1314C25.2647 15.1192 24.7492 15.1314 24.1479 15.1314V15.7816C24.1479 18.5786 24.1479 21.3879 24.1479 24.1849C24.1479 25.8778 23.2151 26.8102 21.5092 26.8102C19.8523 26.8102 18.1955 26.8102 16.5509 26.8102C16.2196 26.8102 15.9986 26.8715 15.79 27.1782C15.3605 27.8652 14.6854 28.2087 13.8754 28.2087C10.1445 28.2087 6.40121 28.2209 2.67024 28.2087C1.34476 28.2087 0.338379 27.2027 0.338379 25.8778C0.338379 18.0511 0.338379 10.2735 0.338379 2.49586C0.338379 1.17096 1.35703 0.165023 2.68251 0.152755C6.41348 0.140488 10.1567 0.140488 13.8877 0.152755C15.2745 0.152755 16.2196 1.1955 16.2196 2.66761C16.2196 10.1386 16.2196 17.6095 16.2196 25.0804C16.2196 25.3135 16.2196 25.5343 16.2196 25.8288L16.2318 25.841ZM7.8126 15.5731C7.8126 16.6281 7.78805 17.5972 7.82487 18.5664C7.82487 18.8117 8.04578 19.0448 8.15624 19.2779C8.36488 19.1184 8.6717 19.0203 8.78216 18.7995C9.66581 17.0943 10.5249 15.3645 11.3717 13.6471C11.6663 13.046 11.4945 12.7761 10.8317 12.7638C10.1445 12.7638 9.4449 12.7638 8.73307 12.7638C8.73307 11.7088 8.75761 10.7397 8.72079 9.77052C8.72079 9.52517 8.49988 9.29209 8.37715 9.05901C8.16851 9.21848 7.86169 9.31663 7.75123 9.53744C6.86758 11.2426 6.00847 12.9724 5.16164 14.6898C4.86709 15.2909 5.03891 15.5608 5.70165 15.5731C6.37666 15.5731 7.05167 15.5731 7.80032 15.5731H7.8126ZM25.5347 14.15V12.3467H21.8774V14.15H25.5347ZM12.1204 1.13416H4.44981C4.58481 1.77207 4.89164 2.0665 5.57892 2.04196C7.38304 1.99289 9.18717 1.99289 10.9913 2.04196C11.6786 2.05423 11.9731 1.75981 12.1081 1.13416H12.1204ZM21.8283 3.89436C21.8283 3.0847 21.8528 2.33638 21.8037 1.57579C21.8037 1.41631 21.546 1.14643 21.3865 1.14643C21.2392 1.14643 20.9324 1.37951 20.9324 1.52672C20.8833 2.31185 20.9078 3.09697 20.9078 3.89436H21.8283ZM26.5043 3.88209C26.5043 3.09697 26.5288 2.36092 26.4797 1.62486C26.4797 1.44085 26.1975 1.28137 26.0502 1.10963C25.8906 1.2691 25.6084 1.42858 25.5961 1.60033C25.547 2.34865 25.5715 3.09697 25.5715 3.88209H26.5043Z" fill="#E70000"/>
</svg>
