<svg width="25" height="25" viewBox="0 0 25 25" fill="none" xmlns="http://www.w3.org/2000/svg">
<path d="M14.5636 22.7653C16.2334 22.7653 17.8187 22.7758 19.4145 22.7653C20.0486 22.7653 20.577 22.2899 20.577 21.6772C20.5982 18.9834 20.577 16.2897 20.577 13.5325C20.0909 13.5325 19.6259 13.5219 19.1608 13.5325C18.7275 13.5431 18.5584 13.3529 18.569 12.9304C18.5796 12.3494 18.569 11.7578 18.569 11.1345C18.3894 11.1345 18.252 11.1239 18.104 11.1134C17.4488 11.0606 16.9732 10.5852 16.9626 9.93024C16.952 8.09213 16.9626 6.24346 16.9626 4.40536C16.9626 3.84548 17.3642 3.88773 17.7658 3.85604C17.7658 3.22221 17.7658 2.60951 17.7658 1.99681C17.7658 1.20452 18.2625 0.665769 18.96 0.665769C19.6681 0.665769 20.1649 1.19396 20.1754 1.97568C20.1754 2.58838 20.1754 3.21165 20.1754 3.85604H21.7818C21.7818 3.27503 21.7818 2.67289 21.7818 2.08132C21.7818 1.21509 22.2574 0.665769 22.9972 0.665769C23.7264 0.665769 24.1914 1.21509 24.1914 2.09188C24.1914 2.6412 24.1914 3.20109 24.1914 3.7504C24.1914 3.7821 24.2126 3.81379 24.2337 3.84548C24.9841 3.94055 24.9946 3.94055 24.9946 4.71171C24.9946 6.30685 24.9946 7.89142 24.9946 9.48656C24.9946 10.712 24.667 11.0711 23.3882 11.1556C23.3882 11.7472 23.3777 12.3494 23.3882 12.9409C23.3988 13.3635 23.2297 13.5642 22.7964 13.5431C22.3419 13.5325 21.8981 13.5431 21.3802 13.5431V14.1029C21.3802 16.5115 21.3802 18.9306 21.3802 21.3392C21.3802 22.797 20.577 23.5998 19.108 23.5998C17.6813 23.5998 16.2545 23.5998 14.8384 23.5998C14.553 23.5998 14.3628 23.6526 14.1831 23.9167C13.8132 24.5083 13.232 24.8041 12.5344 24.8041C9.32163 24.8041 6.09825 24.8147 2.88545 24.8041C1.74405 24.8041 0.877441 23.9379 0.877441 22.797C0.877441 16.0573 0.877441 9.35979 0.877441 2.66233C0.877441 1.52144 1.75462 0.655205 2.89601 0.644642C6.10882 0.634078 9.3322 0.634078 12.545 0.644642C13.7392 0.644642 14.553 1.54257 14.553 2.81022C14.553 9.24359 14.553 15.677 14.553 22.1103C14.553 22.311 14.553 22.5012 14.553 22.7547L14.5636 22.7653ZM7.31362 13.9234C7.31362 14.8318 7.29249 15.6664 7.32419 16.5009C7.32419 16.7122 7.51442 16.9129 7.60954 17.1136C7.7892 16.9763 8.05341 16.8918 8.14853 16.7016C8.90946 15.2333 9.64925 13.7438 10.3785 12.2648C10.6321 11.7472 10.4842 11.5148 9.91346 11.5042C9.32163 11.5042 8.71923 11.5042 8.10626 11.5042C8.10626 10.5958 8.12739 9.76122 8.09569 8.92668C8.09569 8.7154 7.90546 8.51469 7.79977 8.31397C7.62011 8.4513 7.3559 8.53581 7.26078 8.72596C6.49985 10.1943 5.76006 11.6838 5.03084 13.1628C4.7772 13.6804 4.92516 13.9128 5.49585 13.9234C6.07712 13.9234 6.65838 13.9234 7.30305 13.9234H7.31362ZM22.5745 12.698V11.1451H19.4251V12.698H22.5745ZM11.0231 1.48975H4.41787C4.53412 2.03907 4.79833 2.2926 5.39017 2.27147C6.94373 2.22921 8.49729 2.22921 10.0509 2.27147C10.6427 2.28203 10.8963 2.0285 11.0126 1.48975H11.0231ZM19.3828 3.86661C19.3828 3.16939 19.4039 2.525 19.3616 1.87004C19.3616 1.73271 19.1397 1.50031 19.0023 1.50031C18.8755 1.50031 18.6113 1.70102 18.6113 1.82779C18.569 2.50387 18.5902 3.17996 18.5902 3.86661H19.3828ZM23.4094 3.85604C23.4094 3.17996 23.4305 2.54613 23.3882 1.9123C23.3882 1.75384 23.1452 1.61651 23.0183 1.46862C22.8809 1.60595 22.6379 1.74328 22.6273 1.89117C22.585 2.53557 22.6062 3.17996 22.6062 3.85604H23.4094Z" fill="#8D8D8D"/>
</svg>
