<svg width="40" height="40" viewBox="0 0 40 40" fill="none" xmlns="http://www.w3.org/2000/svg">
<path d="M19.2052 32.323V39.6149H18.3698C13.0877 39.6149 7.8072 39.6149 2.52514 39.6149C0.944335 39.6149 0.502258 38.9035 1.20958 37.4976C2.00684 35.9134 2.79496 34.3231 3.62881 32.7587C3.74924 32.5317 4.10595 32.2941 4.35443 32.2925C9.17916 32.2651 14.0039 32.2727 18.8286 32.2758C18.9277 32.2758 19.0268 32.3002 19.2052 32.323Z" fill="white"/>
<path d="M21.5569 39.5596V32.3073C21.8343 32.2936 22.0798 32.2707 22.3252 32.2707C26.9472 32.2692 31.5676 32.2768 36.1896 32.2586C36.7125 32.257 36.9976 32.4002 37.2323 32.8892C38.022 34.5343 38.8817 36.1444 39.6881 37.7804C40.1836 38.7873 39.7034 39.6038 38.6012 39.6053C33.0143 39.6175 27.4289 39.6099 21.8419 39.6053C21.7673 39.6053 21.6926 39.5809 21.5569 39.5566V39.5596Z" fill="white"/>
<path d="M19.1889 22.638V29.9558H5.11865C5.18573 29.7532 5.22231 29.5689 5.30463 29.4074C6.29702 27.4378 7.26654 25.456 8.31685 23.5184C8.52417 23.1361 9.04704 22.6867 9.43424 22.6776C12.6568 22.6106 15.8809 22.6395 19.1874 22.6395L19.1889 22.638Z" fill="white"/>
<path d="M21.5713 29.9433V22.7428C21.6414 22.7017 21.6841 22.6544 21.7253 22.6544C24.9006 22.6438 28.0744 22.6179 31.2497 22.6575C31.611 22.6621 32.1354 22.9439 32.2985 23.2485C33.4449 25.3933 34.515 27.5792 35.6065 29.7529C35.6248 29.7894 35.5988 29.8489 35.5882 29.9433H21.5713Z" fill="white"/>
<path d="M20.3642 6.48197C22.6645 6.47283 24.5304 8.30837 24.5639 10.6116C24.5974 12.9361 22.727 14.8356 20.3931 14.8447C18.0623 14.8539 16.1782 12.9681 16.1949 10.6405C16.2102 8.33884 18.0639 6.49263 20.3657 6.48197H20.3642Z" fill="white"/>
<path d="M21.5051 3.0607C21.5051 3.49027 21.5387 3.9244 21.4975 4.34939C21.4365 4.99374 21.0524 5.36999 20.3999 5.37913C19.7505 5.38979 19.3115 5.03791 19.2734 4.389C19.2185 3.48113 19.2216 2.56717 19.2658 1.65929C19.2978 1.01647 19.717 0.653935 20.3588 0.615853C20.9624 0.579295 21.4442 1.02714 21.5021 1.69281C21.5417 2.14522 21.5097 2.6022 21.5097 3.05766C21.5082 3.05766 21.5067 3.05766 21.5051 3.05766V3.0607Z" fill="white"/>
<path d="M12.7051 11.786C12.2493 11.786 11.789 11.8256 11.3393 11.7769C10.6945 11.7083 10.3255 11.2986 10.3301 10.6573C10.3347 10.0175 10.7097 9.58792 11.3545 9.55441C12.2631 9.50719 13.1792 9.50566 14.0863 9.55745C14.7356 9.59401 15.0924 10.0266 15.0893 10.674C15.0863 11.3244 14.7174 11.719 14.071 11.7814C13.6198 11.8256 13.1609 11.7906 12.7051 11.7906C12.7051 11.7906 12.7051 11.789 12.7051 11.7875V11.786Z" fill="white"/>
<path d="M28.0392 11.7876C27.5834 11.7876 27.1245 11.8241 26.6733 11.7784C26.0254 11.7114 25.6657 11.3078 25.6687 10.6588C25.6718 10.0099 26.0392 9.58645 26.6855 9.55294C27.594 9.50572 28.5102 9.5042 29.4172 9.55599C30.0621 9.59407 30.431 10.0297 30.4279 10.671C30.4249 11.3123 30.0483 11.7145 29.4035 11.7784C28.9523 11.8241 28.4934 11.7876 28.0376 11.7861L28.0392 11.7876Z" fill="white"/>
<path d="M21.4946 18.3693C21.4946 18.8248 21.5357 19.2848 21.4839 19.7327C21.4138 20.3404 21.0129 20.6923 20.4077 20.7045C19.7644 20.7167 19.3147 20.3587 19.275 19.7159C19.2186 18.7837 19.2232 17.8438 19.2766 16.9116C19.3116 16.3007 19.7339 15.958 20.3482 15.9473C20.9976 15.9351 21.4138 16.2825 21.4854 16.9298C21.5373 17.4051 21.4961 17.8895 21.4961 18.3693C21.4961 18.3693 21.4946 18.3693 21.4931 18.3693H21.4946Z" fill="white"/>
<path d="M17.0669 6.27786C16.8581 6.53072 16.6568 6.98466 16.326 7.11718C15.9952 7.24971 15.4221 7.20249 15.1522 6.98771C14.4419 6.42257 13.8153 5.74472 13.201 5.06991C12.7879 4.61597 12.8199 4.07673 13.2223 3.61823C13.5958 3.19019 14.1507 3.00892 14.5852 3.37603C15.3931 4.05998 16.1126 4.85055 16.8489 5.61524C16.9587 5.72948 16.9617 5.94426 17.0669 6.27634V6.27786Z" fill="white"/>
<path d="M27.8274 4.0982C27.8579 5.02892 25.6109 7.35343 24.9097 7.26051C24.5576 7.21329 24.1094 6.95434 23.9493 6.66034C23.7908 6.36788 23.7862 5.78599 23.9813 5.54683C24.6033 4.7852 25.3106 4.07535 26.0698 3.44929C26.3106 3.25126 26.8716 3.25278 27.1887 3.38836C27.5042 3.52393 27.6978 3.94283 27.8274 4.0982Z" fill="white"/>
<path d="M16.0083 13.9768C16.2522 14.1748 16.6928 14.3622 16.8147 14.6745C16.9474 15.0157 16.9352 15.5884 16.7248 15.8535C16.144 16.5831 15.4489 17.229 14.7537 17.8581C14.3269 18.2435 13.8025 18.21 13.3604 17.8413C12.9275 17.4803 12.7019 16.9335 13.0723 16.4933C13.769 15.6661 14.5784 14.9319 15.3604 14.1794C15.4733 14.0712 15.6912 14.0712 16.0098 13.9768H16.0083Z" fill="white"/>
<path d="M26.9112 18.1172C25.989 18.0989 23.6993 15.8764 23.7923 15.2138C23.8441 14.8437 24.1261 14.3654 24.4386 14.2146C24.7466 14.0653 25.338 14.1262 25.6079 14.341C26.3182 14.9061 26.9753 15.5627 27.5393 16.2725C27.7542 16.5421 27.8 17.1133 27.6658 17.4439C27.5332 17.7744 27.0789 17.977 26.9097 18.1157L26.9112 18.1172Z" fill="white"/>
</svg>
