<svg width="32" height="32" viewBox="0 0 32 32" fill="none" xmlns="http://www.w3.org/2000/svg">
<rect x="0.5" y="0.826172" width="31" height="31" rx="5" fill="#FFD0D0"/>
<g clip-path="url(#clip0_5116_1915)">
<path d="M13.265 12.6787C13.1441 12.6787 13.0281 12.7267 12.9426 12.8122C12.8571 12.8977 12.8091 13.0137 12.8091 13.1346C12.8091 13.2555 12.8571 13.3715 12.9426 13.457C13.0281 13.5424 13.1441 13.5905 13.265 13.5905H18.7356C18.8565 13.5905 18.9724 13.5424 19.0579 13.457C19.1434 13.3715 19.1914 13.2555 19.1914 13.1346C19.1914 13.0137 19.1434 12.8977 19.0579 12.8122C18.9724 12.7267 18.8565 12.6787 18.7356 12.6787H13.265ZM12.8091 14.9581C12.8091 14.8372 12.8571 14.7213 12.9426 14.6358C13.0281 14.5503 13.1441 14.5022 13.265 14.5022H18.7356C18.8565 14.5022 18.9724 14.5503 19.0579 14.6358C19.1434 14.7213 19.1914 14.8372 19.1914 14.9581C19.1914 15.079 19.1434 15.195 19.0579 15.2805C18.9724 15.366 18.8565 15.414 18.7356 15.414H13.265C13.1441 15.414 13.0281 15.366 12.9426 15.2805C12.8571 15.195 12.8091 15.079 12.8091 14.9581ZM13.265 16.3258C13.1441 16.3258 13.0281 16.3738 12.9426 16.4593C12.8571 16.5448 12.8091 16.6607 12.8091 16.7817C12.8091 16.9026 12.8571 17.0185 12.9426 17.104C13.0281 17.1895 13.1441 17.2375 13.265 17.2375H18.7356C18.8565 17.2375 18.9724 17.1895 19.0579 17.104C19.1434 17.0185 19.1914 16.9026 19.1914 16.7817C19.1914 16.6607 19.1434 16.5448 19.0579 16.4593C18.9724 16.3738 18.8565 16.3258 18.7356 16.3258H13.265ZM13.265 18.1493C13.1441 18.1493 13.0281 18.1973 12.9426 18.2828C12.8571 18.3683 12.8091 18.4843 12.8091 18.6052C12.8091 18.7261 12.8571 18.842 12.9426 18.9275C13.0281 19.013 13.1441 19.0611 13.265 19.0611H16.0003C16.1212 19.0611 16.2371 19.013 16.3226 18.9275C16.4081 18.842 16.4561 18.7261 16.4561 18.6052C16.4561 18.4843 16.4081 18.3683 16.3226 18.2828C16.2371 18.1973 16.1212 18.1493 16.0003 18.1493H13.265Z" fill="#C84040"/>
<path d="M10.5298 10.8553C10.5298 10.3716 10.7219 9.90782 11.0639 9.56584C11.4059 9.22386 11.8697 9.03174 12.3533 9.03174H19.6474C20.1311 9.03174 20.5949 9.22386 20.9369 9.56584C21.2788 9.90782 21.471 10.3716 21.471 10.8553V21.7964C21.471 22.2801 21.2788 22.7439 20.9369 23.0859C20.5949 23.4279 20.1311 23.62 19.6474 23.62H12.3533C11.8697 23.62 11.4059 23.4279 11.0639 23.0859C10.7219 22.7439 10.5298 22.2801 10.5298 21.7964V10.8553ZM19.6474 9.9435H12.3533C12.1115 9.9435 11.8796 10.0396 11.7086 10.2106C11.5376 10.3815 11.4415 10.6135 11.4415 10.8553V21.7964C11.4415 22.0383 11.5376 22.2702 11.7086 22.4412C11.8796 22.6121 12.1115 22.7082 12.3533 22.7082H19.6474C19.8892 22.7082 20.1212 22.6121 20.2921 22.4412C20.4631 22.2702 20.5592 22.0383 20.5592 21.7964V10.8553C20.5592 10.6135 20.4631 10.3815 20.2921 10.2106C20.1212 10.0396 19.8892 9.9435 19.6474 9.9435Z" fill="#C84040"/>
</g>
<defs>
<clipPath id="clip0_5116_1915">
<rect width="14.5882" height="14.5882" fill="white" transform="translate(8.70605 9.03174)"/>
</clipPath>
</defs>
</svg>
