<svg width="25" height="25" viewBox="0 0 25 25" fill="none" xmlns="http://www.w3.org/2000/svg">
<path d="M24.63 14.1729C24.3884 14.6778 24.1727 15.1916 23.9053 15.6784C23.0424 17.2921 22.1623 18.8968 21.2908 20.5015C21.2563 20.5736 21.2132 20.6458 21.1442 20.754C21.1442 20.6818 21.1269 20.6548 21.1355 20.6277C21.3944 19.4197 21.1097 18.3469 20.497 17.3192C19.3236 15.3539 18.1674 13.3796 17.0025 11.4053C16.9853 11.3692 16.968 11.3331 16.9421 11.2791C18.5643 10.2243 20.1778 9.16952 21.7913 8.11475C21.8172 8.13278 21.8344 8.14179 21.8517 8.15982C22.5506 9.32277 23.2495 10.4857 23.9398 11.6577C24.2763 12.2256 24.492 12.8567 24.6214 13.5148V14.1639L24.63 14.1729Z" fill="#8D8D8D"/>
<path d="M10.4279 22.6292C10.3589 22.6292 10.3071 22.6472 10.2554 22.6472C8.86619 22.6472 7.47702 22.6472 6.08785 22.6202C5.38032 22.6022 4.69005 22.4309 4.12058 21.9531C3.95664 21.8178 3.7927 21.6466 3.69779 21.4572C2.66238 19.4739 1.6356 17.4906 0.608822 15.5073C0.582937 15.4622 0.56568 15.4171 0.539795 15.354C0.824532 15.5794 1.08338 15.8138 1.35949 15.9941C2.04114 16.4268 2.80043 16.5891 3.60287 16.5891C5.829 16.5891 8.05512 16.6161 10.2812 16.6342C10.3244 16.6342 10.3762 16.6432 10.4279 16.6522V22.6382V22.6292Z" fill="#8D8D8D"/>
<path d="M9.14241 8.71891C7.4685 7.74528 5.7946 6.78066 4.11206 5.80702C4.2156 5.60869 4.31051 5.42839 4.40543 5.24809C5.00078 4.13021 5.58752 3.00332 6.20876 1.89446C6.57115 1.24537 7.04571 0.686434 7.72736 0.388935C7.9517 0.289769 8.20192 0.226663 8.44351 0.226663C10.6265 0.217648 12.8181 0.226663 15.0011 0.226663C15.0011 0.253708 15.0011 0.289769 15.0097 0.316814C14.9838 0.334844 14.958 0.36189 14.9234 0.370905C13.819 0.713479 13.0597 1.47075 12.5075 2.49847C11.4117 4.54491 10.3159 6.57331 9.22007 8.61974C9.20281 8.6558 9.17693 8.68285 9.15104 8.73694L9.14241 8.71891Z" fill="#8D8D8D"/>
<path d="M8.2881 13.2446C7.75314 12.9471 7.27858 12.6766 6.78676 12.3972C6.73499 12.4783 6.68322 12.5594 6.64008 12.6315C6.04472 13.6412 5.45799 14.6509 4.87126 15.6606C4.78497 15.8139 4.68143 15.868 4.50886 15.868C3.68054 15.8499 2.83495 15.868 2.04977 15.5615C1.08339 15.1828 0.401748 14.4977 0.134268 13.4249C0.0479837 13.0733 0.117011 12.7217 0.272322 12.4062C0.720998 11.4866 1.18693 10.5761 1.63561 9.65656C1.67875 9.57542 1.71326 9.49429 1.75641 9.40414C1.26459 8.99845 0.781397 8.60179 0.263694 8.17808C0.367234 8.16906 0.427633 8.15103 0.479403 8.15103C2.12743 8.133 3.78408 8.12399 5.4321 8.10596C5.5529 8.10596 5.64781 8.10596 5.72547 8.25921C6.54516 9.86391 7.38212 11.4686 8.21044 13.0733C8.2277 13.1094 8.23633 13.1454 8.27947 13.2446H8.2881Z" fill="#8D8D8D"/>
<path d="M21.1447 3.59827C20.7478 4.36456 20.3422 5.13084 19.9453 5.89713C19.5312 6.69046 19.117 7.4928 18.6942 8.28614C18.6511 8.36727 18.5389 8.45742 18.4526 8.45742C16.6665 8.46644 14.8805 8.45742 13.0944 8.45742C13.0944 8.42136 13.0771 8.3853 13.0685 8.35826C13.5258 8.05174 13.9831 7.73621 14.4577 7.42068C14.3714 7.25841 14.2937 7.10515 14.2075 6.9519C13.6811 5.98728 13.1634 5.02266 12.6371 4.05804C12.5594 3.92282 12.5681 3.83266 12.6371 3.69744C13.0512 2.94017 13.4568 2.16487 14.0867 1.56987C14.7597 0.938811 15.5707 0.677372 16.4767 0.758508C16.9599 0.803584 17.3482 1.06502 17.6243 1.48873C18.1765 2.34517 18.7201 3.21062 19.2551 4.07607C19.3586 4.24736 19.4449 4.27441 19.6175 4.19327C20.0402 3.99494 20.463 3.81463 20.8945 3.62532C20.9635 3.59827 21.0411 3.57123 21.1102 3.54418C21.1188 3.56221 21.136 3.57123 21.1447 3.58926V3.59827Z" fill="#8D8D8D"/>
<path d="M15.467 24.8114C15.3894 24.6942 15.3548 24.6491 15.3203 24.586C14.4316 23.1346 13.5515 21.6741 12.6542 20.2227C12.5851 20.1055 12.5592 20.0244 12.6369 19.8891C13.4911 18.3295 14.3453 16.7609 15.1995 15.2013C15.2254 15.1472 15.2686 15.1021 15.329 15.0029C15.3721 15.616 15.4066 16.1839 15.4411 16.7699C15.536 16.7699 15.6223 16.7699 15.7 16.7699C16.8303 16.7609 17.9692 16.7519 19.0996 16.7338C19.2635 16.7338 19.3584 16.7789 19.4447 16.9322C19.8848 17.6985 20.3507 18.4557 20.5233 19.3392C20.7044 20.2678 20.5233 21.1332 19.9883 21.8995C19.669 22.3683 19.1859 22.5306 18.6509 22.5666C17.7363 22.6297 16.8217 22.7109 15.9071 22.774C15.7172 22.783 15.6482 22.8551 15.631 23.0534C15.5878 23.6124 15.5274 24.1803 15.4584 24.8114H15.467Z" fill="#8D8D8D"/>
</svg>
