<svg width="20" height="19" viewBox="0 0 20 19" fill="none" xmlns="http://www.w3.org/2000/svg">
<g clip-path="url(#clip0_810_224)">
<path d="M7.22228 0.291626C8.76263 0.302039 10.254 0.484012 11.6801 1.05423C12.2846 1.2962 12.8576 1.60015 13.311 2.09202C13.8932 2.72323 13.8932 3.36931 13.3037 3.99456C12.7084 4.62626 11.9484 4.97732 11.1468 5.2178C8.53351 6.00123 5.91347 5.99677 3.29925 5.21532C2.6618 5.02492 2.05583 4.74874 1.52591 4.33074C1.32974 4.17604 1.14373 3.99605 0.991152 3.79722C0.602676 3.28898 0.613817 2.75992 1.00859 2.25515C1.47312 1.66064 2.11105 1.32297 2.78435 1.05324C4.21764 0.478062 5.7173 0.300055 7.22228 0.291626Z" fill="#b1000e"/>
<path d="M14.028 6.68897C13.9277 6.68897 13.828 6.69145 13.7291 6.6969V4.51074C13.4618 4.70957 13.2268 4.90989 12.9692 5.07253C12.0062 5.68093 10.9396 5.99578 9.83663 6.19412C8.24979 6.47923 6.65713 6.49906 5.06254 6.26651C3.89856 6.09644 2.7651 5.80786 1.72948 5.21583C1.37637 5.01402 1.05425 4.75569 0.707914 4.5157C0.707914 5.26888 0.739399 6.02157 0.698711 6.77029C0.659476 7.48727 0.962216 7.98857 1.49068 8.39615C2.11311 8.87612 2.82129 9.16768 3.56143 9.38733C5.05963 9.83161 6.59368 9.9283 8.14177 9.84499C8.43579 9.82913 8.72884 9.7969 9.02577 9.76219C8.91533 9.97342 8.81749 10.1926 8.7332 10.4187C8.73127 10.4241 8.72933 10.4291 8.72739 10.4345C7.81529 10.5258 6.89981 10.5342 5.98141 10.4569C4.55684 10.3369 3.16714 10.0647 1.88497 9.38585C1.47663 9.16966 1.10608 8.87959 0.707914 8.6163C0.707914 9.41411 0.720024 10.2213 0.70307 11.0286C0.692898 11.5016 0.862917 11.8789 1.17922 12.2027C1.57932 12.6123 2.06032 12.8974 2.57861 13.1151C4.50646 13.9243 6.51472 14.0591 8.53122 13.9054C8.58062 14.1112 8.64262 14.313 8.71383 14.5094C8.71577 14.5143 8.71722 14.5188 8.71916 14.5237C7.59248 14.6398 6.46144 14.618 5.32749 14.4752C4.0865 14.3195 2.88038 14.0304 1.77308 13.4141C1.40398 13.2093 1.06927 12.94 0.707914 12.6926C0.707914 13.4765 0.72729 14.2609 0.701133 15.0439C0.682242 15.6156 0.900699 16.0485 1.30468 16.4109C1.84913 16.8993 2.48948 17.2097 3.16907 17.4328C5.38514 18.1597 7.64043 18.2083 9.91462 17.7913C10.3288 17.7155 10.7357 17.595 11.1445 17.4849C11.9892 17.9976 12.975 18.2916 14.028 18.2916C17.1581 18.2916 19.6953 15.6944 19.6953 12.4903C19.6953 9.28618 17.1581 6.68897 14.028 6.68897ZM14.028 17.3C13.3605 17.3 12.7047 17.1557 12.1026 16.8785L11.2443 16.3648C11.1241 16.2746 11.0084 16.1784 10.8984 16.0777C10.8049 15.981 10.7105 15.8858 10.6189 15.7936L10.5526 15.7262C10.4392 15.5992 10.3326 15.4658 10.2358 15.3295L10.2348 15.328L10.2338 15.3265C9.97759 14.969 9.77173 14.5778 9.62157 14.1633C9.56053 13.9957 9.50919 13.8256 9.46899 13.658V13.656L9.4685 13.6545C9.37598 13.2767 9.32948 12.885 9.32948 12.4903C9.32948 11.8978 9.43314 11.3201 9.63852 10.7722C9.70972 10.5808 9.79352 10.3934 9.88798 10.2139C10.2551 9.51576 10.7914 8.9148 11.4385 8.47598C12.1002 8.02823 12.8674 7.758 13.6575 7.69503C13.781 7.68561 13.9055 7.68065 14.028 7.68065C16.619 7.68065 18.7266 9.83805 18.7266 12.4903C18.7266 15.1426 16.619 17.3 14.028 17.3Z" fill="#b1000e"/>
<path d="M16.4878 12.0793C16.4544 12.289 16.2558 12.4873 16.0466 12.5166C15.8567 12.5434 15.6939 12.4928 15.5539 12.3579C15.3161 12.1288 15.0759 11.9027 14.8361 11.6756C14.8056 11.6464 14.7736 11.6186 14.7261 11.575V11.9027C14.7266 12.7953 14.7261 13.6873 14.7276 14.5798C14.7276 14.8292 14.6486 15.034 14.4365 15.1733C14.2795 15.2769 14.109 15.2839 13.9497 15.206C13.7167 15.0925 13.5946 14.8961 13.5961 14.6209C13.6014 13.7175 13.6009 12.8136 13.6028 11.9097C13.6033 11.808 13.6028 11.7064 13.6028 11.5804C13.5355 11.6385 13.4793 11.6836 13.427 11.7327C13.2008 11.9449 12.979 12.1616 12.7498 12.3698C12.5401 12.5607 12.2785 12.5791 12.061 12.4303C11.7709 12.232 11.7196 11.8219 11.9661 11.568C12.218 11.3082 12.482 11.0608 12.7431 10.8104C13.056 10.5104 13.3699 10.2119 13.6852 9.91492C13.8184 9.78947 13.9589 9.68534 14.156 9.68385C14.3541 9.68237 14.4941 9.78798 14.6263 9.91293C14.948 10.2159 15.2662 10.5228 15.5859 10.8283C15.8242 11.0563 16.0611 11.2869 16.3018 11.5125C16.4675 11.6677 16.5232 11.8551 16.4878 12.0793Z" fill="#b1000e"/>
</g>
<defs>
<clipPath id="clip0_810_224">
<rect width="19" height="18" fill="white" transform="translate(0.695312 0.291626)"/>
</clipPath>
</defs>
</svg>
