<svg width="20" height="19" viewBox="0 0 20 19" fill="none" xmlns="http://www.w3.org/2000/svg">
<g clip-path="url(#clip0_810_245)">
<path d="M6.97814 0.291626C8.51848 0.302039 10.0099 0.484012 11.4359 1.05423C12.0404 1.2962 12.6135 1.60015 13.0669 2.09202C13.6491 2.72323 13.6491 3.36931 13.0596 3.99456C12.4643 4.62626 11.7043 4.97732 10.9026 5.2178C8.28937 6.00123 5.66933 5.99677 3.05511 5.21532C2.41766 5.02492 1.81169 4.74874 1.28177 4.33074C1.0856 4.17604 0.899593 3.99605 0.747012 3.79722C0.358535 3.28898 0.369676 2.75992 0.76445 2.25515C1.22897 1.66064 1.86691 1.32297 2.5402 1.05324C3.9735 0.478062 5.47316 0.300055 6.97814 0.291626Z" fill="white"/>
<path d="M13.7839 6.68897C13.6836 6.68897 13.5838 6.69145 13.485 6.6969V4.51074C13.2176 4.70957 12.9827 4.90989 12.725 5.07253C11.7621 5.68093 10.6954 5.99578 9.59249 6.19412C8.00565 6.47923 6.41299 6.49906 4.81839 6.26651C3.65442 6.09644 2.52096 5.80786 1.48534 5.21583C1.13222 5.01402 0.810109 4.75569 0.463774 4.5157C0.463774 5.26888 0.495259 6.02157 0.45457 6.77029C0.415335 7.48727 0.718076 7.98857 1.24654 8.39615C1.86897 8.87612 2.57715 9.16768 3.31729 9.38733C4.81549 9.83161 6.34953 9.9283 7.89763 9.84499C8.19165 9.82913 8.4847 9.7969 8.78163 9.76219C8.67119 9.97342 8.57335 10.1926 8.48906 10.4187C8.48713 10.4241 8.48519 10.4291 8.48325 10.4345C7.57115 10.5258 6.65567 10.5342 5.73727 10.4569C4.3127 10.3369 2.923 10.0647 1.64083 9.38585C1.23249 9.16966 0.861938 8.87959 0.463774 8.6163C0.463774 9.41411 0.475883 10.2213 0.45893 11.0286C0.448758 11.5016 0.618777 11.8789 0.93508 12.2027C1.33518 12.6123 1.81618 12.8974 2.33447 13.1151C4.26232 13.9243 6.27058 14.0591 8.28708 13.9054C8.33648 14.1112 8.39848 14.313 8.46969 14.5094C8.47163 14.5143 8.47308 14.5188 8.47502 14.5237C7.34834 14.6398 6.2173 14.618 5.08335 14.4752C3.84236 14.3195 2.63624 14.0304 1.52894 13.4141C1.15983 13.2093 0.825125 12.94 0.463774 12.6926C0.463774 13.4765 0.483149 14.2609 0.456992 15.0439C0.438101 15.6156 0.656559 16.0485 1.06054 16.4109C1.60498 16.8993 2.24534 17.2097 2.92493 17.4328C5.14099 18.1597 7.39629 18.2083 9.67048 17.7913C10.0846 17.7155 10.4915 17.595 10.9003 17.4849C11.7451 17.9976 12.7308 18.2916 13.7839 18.2916C16.914 18.2916 19.4512 15.6944 19.4512 12.4903C19.4512 9.28618 16.914 6.68897 13.7839 6.68897ZM13.7839 17.3C13.1164 17.3 12.4605 17.1557 11.8584 16.8785L11.0001 16.3648C10.88 16.2746 10.7642 16.1784 10.6543 16.0777C10.5608 15.981 10.4663 15.8858 10.3748 15.7936L10.3084 15.7262C10.1951 15.5992 10.0885 15.4658 9.99163 15.3295L9.99066 15.328L9.98969 15.3265C9.73345 14.969 9.52758 14.5778 9.37743 14.1633C9.31639 13.9957 9.26505 13.8256 9.22484 13.658V13.656L9.22436 13.6545C9.13184 13.2767 9.08534 12.885 9.08534 12.4903C9.08534 11.8978 9.189 11.3201 9.39438 10.7722C9.46558 10.5808 9.54938 10.3934 9.64384 10.2139C10.011 9.51576 10.5472 8.9148 11.1944 8.47598C11.856 8.02823 12.6233 7.758 13.4133 7.69503C13.5368 7.68561 13.6613 7.68065 13.7839 7.68065C16.3749 7.68065 18.4824 9.83805 18.4824 12.4903C18.4824 15.1426 16.3749 17.3 13.7839 17.3Z" fill="white"/>
<path d="M16.2437 12.0793C16.2103 12.289 16.0117 12.4873 15.8024 12.5166C15.6125 12.5434 15.4498 12.4928 15.3098 12.3579C15.072 12.1288 14.8317 11.9027 14.5919 11.6756C14.5614 11.6464 14.5295 11.6186 14.482 11.575V11.9027C14.4825 12.7953 14.482 13.6873 14.4834 14.5798C14.4834 14.8292 14.4045 15.034 14.1923 15.1733C14.0354 15.2769 13.8649 15.2839 13.7055 15.206C13.4725 15.0925 13.3505 14.8961 13.3519 14.6209C13.3572 13.7175 13.3568 12.8136 13.3587 11.9097C13.3592 11.808 13.3587 11.7064 13.3587 11.5804C13.2914 11.6385 13.2352 11.6836 13.1829 11.7327C12.9567 11.9449 12.7348 12.1616 12.5057 12.3698C12.296 12.5607 12.0344 12.5791 11.8169 12.4303C11.5268 12.232 11.4754 11.8219 11.722 11.568C11.9738 11.3082 12.2378 11.0608 12.4989 10.8104C12.8118 10.5104 13.1257 10.2119 13.441 9.91492C13.5743 9.78947 13.7147 9.68534 13.9119 9.68385C14.11 9.68237 14.25 9.78798 14.3822 9.91293C14.7038 10.2159 15.0221 10.5228 15.3418 10.8283C15.5801 11.0563 15.817 11.2869 16.0577 11.5125C16.2234 11.6677 16.2791 11.8551 16.2437 12.0793Z" fill="white"/>
</g>
<defs>
<clipPath id="clip0_810_245">
<rect width="19" height="18" fill="white" transform="translate(0.451172 0.291626)"/>
</clipPath>
</defs>
</svg>
