<svg width="21" height="25" viewBox="0 0 21 25" fill="none" xmlns="http://www.w3.org/2000/svg">
<path d="M11.0241 0.479936C10.9493 0.374658 10.8478 0.288337 10.7288 0.228635C10.6098 0.168933 10.4769 0.137695 10.342 0.137695C10.207 0.137695 10.0741 0.168933 9.95511 0.228635C9.83611 0.288337 9.73467 0.374658 9.65979 0.479936L4.74026 7.39818C4.65809 7.51393 4.61096 7.64842 4.60387 7.7873C4.59678 7.92619 4.63001 8.06427 4.70002 8.18686C4.77002 8.30944 4.87418 8.41192 5.00139 8.48339C5.12861 8.55487 5.27412 8.59265 5.42243 8.59272H5.58314L2.26737 13.5662C2.1898 13.6825 2.14687 13.8162 2.14303 13.9534C2.13919 14.0906 2.17458 14.2262 2.24553 14.3462C2.31648 14.4662 2.4204 14.5663 2.54651 14.6359C2.67262 14.7055 2.81631 14.7423 2.96267 14.7423H3.27588L0.589814 19.7787C0.527175 19.8959 0.497543 20.0262 0.503734 20.1572C0.509925 20.2881 0.551734 20.4154 0.625188 20.5269C0.698641 20.6385 0.801298 20.7306 0.923404 20.7944C1.04551 20.8583 1.183 20.8918 1.32282 20.8918H8.70212V24.7353H11.9818V20.8918H19.3611C19.5009 20.8918 19.6384 20.8583 19.7605 20.7944C19.8826 20.7306 19.9853 20.6385 20.0587 20.5269C20.1322 20.4154 20.174 20.2881 20.1802 20.1572C20.1864 20.0262 20.1568 19.8959 20.0941 19.7787L17.4097 14.7423H17.7229C17.8693 14.7423 18.013 14.7055 18.1391 14.6359C18.2652 14.5663 18.3691 14.4662 18.44 14.3462C18.511 14.2262 18.5464 14.0906 18.5425 13.9534C18.5387 13.8162 18.4958 13.6825 18.4182 13.5662L15.1008 8.59272H15.2615C15.4098 8.59265 15.5553 8.55487 15.6825 8.48339C15.8098 8.41192 15.9139 8.30944 15.9839 8.18686C16.0539 8.06427 16.0871 7.92619 16.0801 7.7873C16.073 7.64842 16.0258 7.51393 15.9437 7.39818L11.0241 0.479936Z" fill="#42AB52"/>
</svg>
