<svg width="19" height="25" viewBox="0 0 19 25" fill="none" xmlns="http://www.w3.org/2000/svg">
<path d="M10.1807 1.27382C10.1089 1.17292 10.0117 1.09018 9.89763 1.03296C9.78358 0.97574 9.65622 0.945801 9.52686 0.945801C9.39749 0.945801 9.27013 0.97574 9.15608 1.03296C9.04202 1.09018 8.94479 1.17292 8.87303 1.27382L4.15793 7.90457C4.07918 8.01552 4.034 8.14441 4.02721 8.27753C4.02042 8.41064 4.05226 8.54299 4.11936 8.66048C4.18645 8.77797 4.28628 8.87619 4.40821 8.9447C4.53014 9.0132 4.66961 9.04941 4.81175 9.04948H4.96578L1.7878 13.8163C1.71346 13.9278 1.6723 14.0559 1.66862 14.1874C1.66494 14.3189 1.69886 14.4489 1.76686 14.5639C1.83487 14.6789 1.93447 14.7748 2.05534 14.8415C2.1762 14.9083 2.31393 14.9435 2.4542 14.9435H2.7544L0.179954 19.7707C0.119917 19.883 0.0915166 20.0078 0.0974506 20.1334C0.103385 20.2589 0.143456 20.3809 0.213857 20.4878C0.284258 20.5947 0.38265 20.6829 0.499681 20.7441C0.616712 20.8054 0.748494 20.8375 0.882504 20.8375H7.95515V24.5212H11.0986V20.8375H18.1712C18.3052 20.8375 18.437 20.8054 18.554 20.7441C18.6711 20.6829 18.7695 20.5947 18.8399 20.4878C18.9103 20.3809 18.9503 20.2589 18.9563 20.1334C18.9622 20.0078 18.9338 19.883 18.8738 19.7707L16.3009 14.9435H16.6011C16.7414 14.9435 16.8791 14.9083 16.9999 14.8415C17.1208 14.7748 17.2204 14.6789 17.2884 14.5639C17.3564 14.4489 17.3903 14.3189 17.3867 14.1874C17.383 14.0559 17.3418 13.9278 17.2675 13.8163L14.0879 9.04948H14.242C14.3841 9.04941 14.5236 9.0132 14.6455 8.9447C14.7674 8.87619 14.8673 8.77797 14.9344 8.66048C15.0014 8.54299 15.0333 8.41064 15.0265 8.27753C15.0197 8.14441 14.9745 8.01552 14.8958 7.90457L10.1807 1.27382Z" fill="#8D8D8D"/>
</svg>
