<svg width="19" height="14" viewBox="0 0 19 14" fill="none" xmlns="http://www.w3.org/2000/svg">
<path d="M12.3945 7C12.3945 7.74592 12.0982 8.46129 11.5708 8.98874C11.0433 9.51618 10.328 9.8125 9.58203 9.8125C8.83611 9.8125 8.12074 9.51618 7.59329 8.98874C7.06585 8.46129 6.76953 7.74592 6.76953 7C6.76953 6.25408 7.06585 5.53871 7.59329 5.01126C8.12074 4.48382 8.83611 4.1875 9.58203 4.1875C10.328 4.1875 11.0433 4.48382 11.5708 5.01126C12.0982 5.53871 12.3945 6.25408 12.3945 7Z" fill="white"/>
<path d="M0.582031 7C0.582031 7 3.95703 0.8125 9.58203 0.8125C15.207 0.8125 18.582 7 18.582 7C18.582 7 15.207 13.1875 9.58203 13.1875C3.95703 13.1875 0.582031 7 0.582031 7ZM9.58203 10.9375C10.6263 10.9375 11.6278 10.5227 12.3663 9.78423C13.1047 9.04581 13.5195 8.04429 13.5195 7C13.5195 5.95571 13.1047 4.95419 12.3663 4.21577C11.6278 3.47734 10.6263 3.0625 9.58203 3.0625C8.53774 3.0625 7.53622 3.47734 6.7978 4.21577C6.05937 4.95419 5.64453 5.95571 5.64453 7C5.64453 8.04429 6.05937 9.04581 6.7978 9.78423C7.53622 10.5227 8.53774 10.9375 9.58203 10.9375Z" fill="white"/>
</svg>
