<svg width="67" height="56" viewBox="0 0 67 56" fill="none" xmlns="http://www.w3.org/2000/svg">
<path d="M8.11795 40.9592C-14.4826 13.4705 28.8862 -18.9036 46.6003 18.9683C60.0383 15.9139 74.0873 33.6279 58.2058 46.4551" stroke="#C9C9C9" stroke-width="3" stroke-linecap="round"/>
<path d="M31.6626 53.7854C31.6626 54.6138 32.3342 55.2854 33.1626 55.2854C33.991 55.2854 34.6626 54.6138 34.6626 53.7854L31.6626 53.7854ZM34.2233 24.6267C33.6375 24.0409 32.6877 24.0409 32.1019 24.6267L22.556 34.1726C21.9702 34.7584 21.9702 35.7082 22.556 36.294C23.1418 36.8797 24.0915 36.8797 24.6773 36.294L33.1626 27.8087L41.6479 36.294C42.2337 36.8797 43.1834 36.8797 43.7692 36.294C44.355 35.7082 44.355 34.7584 43.7692 34.1726L34.2233 24.6267ZM34.6626 53.7854L34.6626 25.6874L31.6626 25.6874L31.6626 53.7854L34.6626 53.7854Z" fill="#C9C9C9"/>
</svg>
