<svg width="18" height="16" viewBox="0 0 18 16" fill="none" xmlns="http://www.w3.org/2000/svg">
<g clip-path="url(#clip0_810_321)">
<path d="M6.41932 11.3817C6.56593 11.0938 6.67533 10.8109 6.84275 10.5631C7.18956 10.0502 7.69359 9.71776 8.32563 9.58611C8.51697 9.54612 8.60423 9.4628 8.67864 9.30532C9.17825 8.25297 10.2833 7.58806 11.504 7.6443C12.7326 7.70096 13.6149 8.28088 14.1371 9.32782C14.2093 9.47196 14.2815 9.51404 14.4441 9.51612C16.074 9.53695 17.4067 10.7922 17.416 12.3045C17.4253 13.813 16.1183 15.1158 14.5096 15.1299C11.787 15.1537 9.06353 15.1458 6.34093 15.132C5.31336 15.127 4.45809 14.298 4.43329 13.3431C4.40627 12.307 5.19688 11.4709 6.27981 11.3904C6.33783 11.3863 6.39629 11.3825 6.41977 11.3809L6.41932 11.3817Z" fill="white"/>
<path d="M0.416016 3.87273V0.145752H13.3718V3.87273H0.416016ZM2.45786 2.01883V2.93661H3.40747V2.01883H2.45786ZM4.45142 2.01883V2.93661H5.40103V2.01883H4.45142ZM7.39637 2.02466H6.4379V2.93495H7.39637V2.02466Z" fill="white"/>
<path d="M13.3819 4.83887V7.14938C13.0121 7.03148 12.6529 6.88608 12.2782 6.80359C11.0425 6.53238 9.92852 6.80276 8.92355 7.51808C8.83718 7.57974 8.7167 7.63223 8.61218 7.63265C5.94051 7.6389 3.26884 7.63765 0.597168 7.63765H0.416016V4.83887H13.3819ZM2.45387 5.7729V6.68278H3.41101V5.7729H2.45387ZM4.44301 6.68069H5.40281V5.77332H4.44301V6.68069ZM7.39238 6.68736V5.77665H6.43923V6.68736H7.39238Z" fill="white"/>
<path d="M7.93877 8.64451C7.86968 8.68576 7.8059 8.73992 7.73104 8.76658C6.8492 9.08112 6.19634 9.63104 5.76937 10.4234C5.73571 10.4859 5.6489 10.5405 5.57449 10.563C4.67847 10.833 4.04288 11.3712 3.65799 12.1782C3.62876 12.2394 3.54416 12.3194 3.48481 12.3198C2.48072 12.3269 1.47707 12.3232 0.472981 12.3211C0.459251 12.3211 0.445963 12.3123 0.418945 12.3028V8.59119H7.90733C7.91751 8.6091 7.92814 8.62701 7.93833 8.64493L7.93877 8.64451ZM3.41439 9.52356H2.45592V10.4318H3.41439V9.52356ZM4.45214 9.51981V10.4376H5.40086V9.51981H4.45214Z" fill="white"/>
</g>
<defs>
<clipPath id="clip0_810_321">
<rect width="17" height="15" fill="white" transform="translate(0.416016 0.145752)"/>
</clipPath>
</defs>
</svg>
