<svg width="18" height="16" viewBox="0 0 18 16" fill="none" xmlns="http://www.w3.org/2000/svg">
<g clip-path="url(#clip0_810_320)">
<path d="M6.20253 11.3817C6.34913 11.0938 6.45853 10.8109 6.62596 10.5631C6.97276 10.0502 7.4768 9.71776 8.10884 9.58611C8.30018 9.54612 8.38743 9.4628 8.46184 9.30532C8.96145 8.25297 10.0665 7.58806 11.2872 7.6443C12.5159 7.70096 13.3981 8.28088 13.9203 9.32782C13.9925 9.47196 14.0647 9.51404 14.2273 9.51612C15.8572 9.53695 17.1899 10.7922 17.1992 12.3045C17.2085 13.813 15.9015 15.1158 14.2928 15.1299C11.5702 15.1537 8.84674 15.1458 6.12413 15.132C5.09657 15.127 4.2413 14.298 4.21649 13.3431C4.18947 12.307 4.98008 11.4709 6.06301 11.3904C6.12103 11.3863 6.1795 11.3825 6.20297 11.3809L6.20253 11.3817Z" fill="#b1000e"/>
<path d="M0.199219 3.87273V0.145752H13.155V3.87273H0.199219ZM2.24106 2.01883V2.93661H3.19067V2.01883H2.24106ZM4.23463 2.01883V2.93661H5.18424V2.01883H4.23463ZM7.17957 2.02466H6.2211V2.93495H7.17957V2.02466Z" fill="#b1000e"/>
<path d="M13.1651 4.83887V7.14938C12.7953 7.03148 12.4361 6.88608 12.0614 6.80359C10.8257 6.53238 9.71173 6.80276 8.70675 7.51808C8.62038 7.57974 8.49991 7.63223 8.39538 7.63265C5.72371 7.6389 3.05204 7.63765 0.380371 7.63765H0.199219V4.83887H13.1651ZM2.23708 5.7729V6.68278H3.19422V5.7729H2.23708ZM4.22621 6.68069H5.18601V5.77332H4.22621V6.68069ZM7.17559 6.68736V5.77665H6.22243V6.68736H7.17559Z" fill="#b1000e"/>
<path d="M7.72198 8.64451C7.65288 8.68576 7.5891 8.73992 7.51425 8.76658C6.6324 9.08112 5.97954 9.63104 5.55257 10.4234C5.51891 10.4859 5.4321 10.5405 5.35769 10.563C4.46167 10.833 3.82609 11.3712 3.44119 12.1782C3.41196 12.2394 3.32736 12.3194 3.26801 12.3198C2.26392 12.3269 1.26027 12.3232 0.256184 12.3211C0.242454 12.3211 0.229166 12.3123 0.202148 12.3028V8.59119H7.69053C7.70072 8.6091 7.71135 8.62701 7.72153 8.64493L7.72198 8.64451ZM3.19759 9.52356H2.23912V10.4318H3.19759V9.52356ZM4.23534 9.51981V10.4376H5.18407V9.51981H4.23534Z" fill="#b1000e"/>
</g>
<defs>
<clipPath id="clip0_810_320">
<rect width="17" height="15" fill="white" transform="translate(0.199219 0.145752)"/>
</clipPath>
</defs>
</svg>
