<svg width="29" height="33" viewBox="0 0 29 33" fill="none" xmlns="http://www.w3.org/2000/svg">
<path d="M14.2434 31.7308H21.1561C21.6104 27.1921 22.0756 22.675 22.53 18.1255H23.1791C23.6334 22.6426 24.0986 27.1813 24.5529 31.7416C25.0722 31.7416 25.559 31.7416 26.0458 31.7416C26.6084 31.7416 27.1601 31.7416 27.7226 31.7416C28.0688 31.7416 28.1337 31.9469 28.1229 32.2279C28.1229 32.5089 28.0255 32.6926 27.7118 32.6818C27.6685 32.6818 27.6144 32.6818 27.5712 32.6818C20.5719 32.6818 13.5619 32.6818 6.56263 32.6818C6.11909 32.6818 6.02173 32.5953 6.02173 32.2279C6.02173 31.8497 6.11909 31.7524 6.50854 31.7416C7.43889 31.7416 8.35841 31.7416 9.28876 31.7416C9.41858 31.7416 9.54839 31.7416 9.72148 31.7416C10.3381 25.6252 10.9547 19.5304 11.5714 13.4355H12.4152C13.0318 19.5088 13.6376 25.6036 14.265 31.7308H14.2434Z" fill="#42AB52"/>
<path d="M12.6648 10.523C12.6648 10.523 12.5848 10.4957 12.5607 10.4977C11.7004 10.3126 11.5596 9.49991 11.2307 8.87754C11.1407 8.72988 11.2093 8.44771 11.3064 8.2747C12.6166 5.83253 13.9473 3.4032 15.278 0.973861C15.3917 0.765529 15.5519 0.592097 15.8235 0.705189C16.0506 0.807458 16.0872 1.01293 16.0053 1.25256C14.8998 4.34203 13.7795 7.42789 12.6704 10.5322L12.6648 10.523Z" fill="#42AB52"/>
<path d="M10.2623 11.6932C10.3102 11.9172 10.356 12.117 10.3926 12.3225C10.4023 12.3799 10.3899 12.4634 10.3642 12.5043C10.1863 12.815 9.99716 13.1072 9.81927 13.4179C9.59923 13.8049 9.30358 13.9848 8.84356 13.999C6.16296 14.0484 3.48439 14.1219 0.809423 14.1805C0.698134 14.185 0.549887 14.2119 0.462282 14.1513C0.344944 14.0836 0.197452 13.9455 0.192997 13.8344C0.182914 13.714 0.311835 13.5723 0.405818 13.4771C0.468474 13.4137 0.603874 13.4072 0.709536 13.3935C3.79856 12.8299 6.89322 12.2754 9.97863 11.7266C10.0694 11.7093 10.1659 11.7013 10.2566 11.684L10.2623 11.6932Z" fill="#42AB52"/>
<path d="M12.4988 13.1796C12.6611 13.0302 12.8141 12.8865 12.9764 12.7371C13.0226 12.709 13.0724 12.6661 13.1206 12.662C13.5288 12.6667 13.9518 12.675 14.3564 12.6945C14.7164 12.7033 14.968 12.8665 15.1649 13.1895C16.5775 15.506 17.9901 17.8225 19.4026 20.139C19.4307 20.1851 19.4645 20.2405 19.4927 20.2867C19.6016 20.4861 19.6085 20.6844 19.4016 20.8229C19.204 20.9558 19.0087 20.8848 18.8684 20.7171C18.4645 20.2416 18.055 19.7569 17.651 19.2815C15.9698 17.293 14.2793 15.3101 12.5981 13.3216C12.5699 13.2754 12.5362 13.2201 12.508 13.1739L12.4988 13.1796Z" fill="#42AB52"/>
<path d="M23.363 18.0387C23.8607 17.4984 24.4773 17.7361 25.0615 17.8009C25.1696 17.8117 25.2886 17.963 25.3644 18.0819C26.4245 19.8866 27.4631 21.702 28.5124 23.5175C28.6098 23.6904 28.6963 23.8957 28.4691 24.0038C28.3718 24.047 28.1338 23.9822 28.058 23.8849C26.4894 21.9722 24.9425 20.0379 23.3847 18.1143C23.3739 18.1035 23.3739 18.0711 23.363 18.0387Z" fill="#42AB52"/>
<path d="M23.5361 16.0289C22.7788 15.8776 22.6923 15.2184 22.4543 14.6997C22.4002 14.5808 22.4867 14.3755 22.5733 14.235C23.601 12.4411 24.6287 10.6365 25.678 8.8534C25.7538 8.72372 25.9809 8.59404 26.1108 8.61566C26.3271 8.65888 26.3055 8.8642 26.2298 9.05871C25.3319 11.3713 24.4448 13.6947 23.5361 16.0289Z" fill="#42AB52"/>
<path d="M18.3326 17.4118C19.4577 17.2389 20.5503 17.066 21.6429 16.8931C21.9025 17.7252 21.2426 18.6221 20.388 18.6221C20.2798 18.6221 20.1717 18.6221 20.0635 18.6221C18.8302 18.6221 18.8194 18.6221 18.3218 17.4118H18.3326Z" fill="#42AB52"/>
<path d="M12.7227 11.2209C13.0379 11.7377 12.8939 12.3947 12.3765 12.7096C11.8499 13.03 11.2014 12.8805 10.8862 12.3637C10.5598 11.8284 10.7187 11.175 11.2602 10.8581C11.7498 10.5602 12.4096 10.7281 12.7227 11.2209Z" fill="#42AB52"/>
<path d="M22.8441 17.8118C22.379 17.8118 22.0111 17.4335 22.022 16.9797C22.022 16.515 22.4114 16.1584 22.8766 16.1692C23.3309 16.1692 23.6879 16.5366 23.6879 16.9905C23.6879 17.4552 23.3201 17.8226 22.8549 17.8226L22.8441 17.8118Z" fill="#42AB52"/>
<path d="M16.0607 18.6225C15.4116 18.6225 14.8491 18.6333 14.2865 18.6117C14.1675 18.6117 14.0594 18.4388 13.9512 18.3415C14.0485 18.2442 14.1351 18.0821 14.2433 18.0605C14.5678 17.9741 14.914 17.9309 15.2493 17.8984C15.3467 17.8984 15.4873 17.9309 15.5522 17.9957C15.7253 18.1686 15.8551 18.3739 16.0607 18.6225Z" fill="#42AB52"/>
</svg>
