<svg width="30" height="33" viewBox="0 0 30 33" fill="none" xmlns="http://www.w3.org/2000/svg">
<path d="M14.8374 31.3675H21.7501C22.2044 26.8288 22.6696 22.3117 23.124 17.7622H23.773C24.2274 22.2793 24.6926 26.818 25.1469 31.3783C25.6662 31.3783 26.153 31.3783 26.6398 31.3783C27.2023 31.3783 27.7541 31.3783 28.3166 31.3783C28.6628 31.3783 28.7277 31.5837 28.7169 31.8646C28.7169 32.1456 28.6195 32.3293 28.3058 32.3185C28.2625 32.3185 28.2084 32.3185 28.1651 32.3185C21.1659 32.3185 14.1559 32.3185 7.15662 32.3185C6.71308 32.3185 6.61572 32.232 6.61572 31.8646C6.61572 31.4864 6.71309 31.3891 7.10253 31.3783C8.03288 31.3783 8.95241 31.3783 9.88275 31.3783C10.0126 31.3783 10.1424 31.3783 10.3155 31.3783C10.9321 25.2619 11.5487 19.1671 12.1653 13.0723H13.0092C13.6258 19.1455 14.2316 25.2403 14.859 31.3675H14.8374Z" fill="#8D8D8D"/>
<path d="M13.2587 10.1597C13.2587 10.1597 13.1788 10.1324 13.1547 10.1344C12.2944 9.9493 12.1535 9.13663 11.8247 8.51426C11.7347 8.36659 11.8033 8.08443 11.9004 7.91142C13.2106 5.46925 14.5413 3.03991 15.872 0.61058C15.9857 0.402248 16.1459 0.228816 16.4175 0.341907C16.6446 0.444177 16.6812 0.649651 16.5993 0.889277C15.4938 3.97875 14.3735 7.06461 13.2644 10.1689L13.2587 10.1597Z" fill="#8D8D8D"/>
<path d="M10.8563 11.3299C10.9042 11.5539 10.95 11.7537 10.9866 11.9592C10.9963 12.0166 10.9839 12.1001 10.9582 12.141C10.7803 12.4517 10.5912 12.7439 10.4133 13.0546C10.1932 13.4416 9.89757 13.6215 9.43755 13.6357C6.75696 13.6851 4.07838 13.7586 1.40342 13.8172C1.29213 13.8217 1.14388 13.8486 1.05628 13.7881C0.938938 13.7203 0.791446 13.5823 0.786991 13.4711C0.776908 13.3507 0.905829 13.209 0.999812 13.1138C1.06247 13.0504 1.19787 13.0439 1.30353 13.0302C4.39256 12.4666 7.48721 11.9122 10.5726 11.3633C10.6634 11.3461 10.7598 11.338 10.8506 11.3207L10.8563 11.3299Z" fill="#8D8D8D"/>
<path d="M13.0928 12.8163C13.2551 12.6669 13.4081 12.5232 13.5704 12.3738C13.6165 12.3457 13.6663 12.3028 13.7146 12.2987C14.1228 12.3034 14.5458 12.3117 14.9504 12.3313C15.3104 12.34 15.562 12.5032 15.7589 12.8263C17.1715 15.1427 18.584 17.4592 19.9966 19.7757C20.0247 19.8219 20.0585 19.8772 20.0866 19.9234C20.1956 20.1228 20.2025 20.3211 19.9956 20.4596C19.798 20.5925 19.6027 20.5215 19.4624 20.3538C19.0585 19.8784 18.649 19.3937 18.245 18.9182C16.5638 16.9297 14.8733 14.9468 13.1921 12.9583C13.1639 12.9122 13.1302 12.8568 13.102 12.8106L13.0928 12.8163Z" fill="#8D8D8D"/>
<path d="M23.957 17.6754C24.4547 17.1351 25.0713 17.3728 25.6555 17.4377C25.7636 17.4485 25.8826 17.5998 25.9584 17.7186C27.0185 19.5233 28.0571 21.3388 29.1064 23.1542C29.2038 23.3271 29.2903 23.5325 29.0631 23.6405C28.9658 23.6838 28.7278 23.6189 28.652 23.5217C27.0834 21.6089 25.5365 19.6746 23.9787 17.751C23.9678 17.7402 23.9678 17.7078 23.957 17.6754Z" fill="#8D8D8D"/>
<path d="M24.1301 15.6656C23.3728 15.5143 23.2863 14.8551 23.0483 14.3364C22.9942 14.2175 23.0807 14.0122 23.1673 13.8717C24.195 12.0778 25.2227 10.2732 26.272 8.49012C26.3478 8.36044 26.5749 8.23076 26.7048 8.25237C26.9211 8.2956 26.8995 8.50092 26.8238 8.69543C25.9259 11.008 25.0388 13.3314 24.1301 15.6656Z" fill="#8D8D8D"/>
<path d="M18.9266 17.0485C20.0517 16.8756 21.1443 16.7027 22.2369 16.5298C22.4965 17.3619 21.8366 18.2588 20.982 18.2588C20.8738 18.2588 20.7656 18.2588 20.6575 18.2588C19.4242 18.2588 19.4134 18.2588 18.9158 17.0485H18.9266Z" fill="#8D8D8D"/>
<path d="M13.3167 10.8576C13.6319 11.3744 13.4879 12.0315 12.9705 12.3463C12.4439 12.6667 11.7954 12.5172 11.4802 12.0004C11.1538 11.4651 11.3127 10.8117 11.8542 10.4948C12.3438 10.1969 13.0036 10.3648 13.3167 10.8576Z" fill="#8D8D8D"/>
<path d="M23.4381 17.4485C22.9729 17.4485 22.6051 17.0703 22.616 16.6164C22.616 16.1517 23.0054 15.7951 23.4706 15.8059C23.9249 15.8059 24.2819 16.1733 24.2819 16.6272C24.2819 17.0919 23.9141 17.4593 23.4489 17.4593L23.4381 17.4485Z" fill="#8D8D8D"/>
<path d="M16.6547 18.2592C16.0056 18.2592 15.4431 18.27 14.8805 18.2484C14.7615 18.2484 14.6533 18.0755 14.5452 17.9782C14.6425 17.881 14.7291 17.7189 14.8373 17.6973C15.1618 17.6108 15.508 17.5676 15.8433 17.5352C15.9407 17.5352 16.0813 17.5676 16.1462 17.6324C16.3193 17.8053 16.4491 18.0106 16.6547 18.2592Z" fill="#8D8D8D"/>
</svg>
